<?xml version="1.0" encoding="UTF-8" standalone="no"?>
<svg
   width="1em"
   height="1em"
   viewBox="0 0 24 24"
   version="1.1"
   id="svg2"
   sodipodi:docname="iconoir--send-mail-solid.svg"
   inkscape:version="1.3.2 (091e20e, 2023-11-25, custom)"
   xmlns:inkscape="http://www.inkscape.org/namespaces/inkscape"
   xmlns:sodipodi="http://sodipodi.sourceforge.net/DTD/sodipodi-0.dtd"
   xmlns="http://www.w3.org/2000/svg"
   xmlns:svg="http://www.w3.org/2000/svg">
  <defs
     id="defs2" />
  <sodipodi:namedview
     id="namedview2"
     pagecolor="#505050"
     bordercolor="#eeeeee"
     borderopacity="1"
     inkscape:showpageshadow="0"
     inkscape:pageopacity="0"
     inkscape:pagecheckerboard="0"
     inkscape:deskcolor="#505050"
     inkscape:zoom="22.067624"
     inkscape:cx="20.550468"
     inkscape:cy="10.535797"
     inkscape:window-width="1680"
     inkscape:window-height="987"
     inkscape:window-x="1672"
     inkscape:window-y="-8"
     inkscape:window-maximized="1"
     inkscape:current-layer="svg2" />
  <g
     fill="currentColor"
     fill-rule="evenodd"
     stroke-width="1.5"
     clip-rule="evenodd"
     id="g2"
     transform="translate(0.86048048)">
    <path
       d="M 7,4.25 C 5.4812169,4.25 4.25,5.4812169 4.25,7 V 8.25 H 5 C 6.9446704,8.2500441 7.9734469,10.550528 6.677,12 7.9734469,13.449472 6.9446704,15.749956 5,15.75 H 4.25 V 17 c 0,1.518783 1.2312169,2.75 2.75,2.75 h 13 c 1.518783,0 2.75,-1.231217 2.75,-2.75 V 7 C 22.75,5.4812169 21.518783,4.25 20,4.25 Z m 0.2370948,1.9470948 c -0.8289338,-0.5395528 -1.6488694,0.6903506 -0.832,1.248 L 13.084,12.624 c 0.251913,0.167927 0.580087,0.167927 0.832,0 l 6.678905,-5.1789052 c 0.81687,-0.5576494 -0.0031,-1.7875528 -0.832,-1.248 L 13.5,11.099 Z"
       id="path1"
       sodipodi:nodetypes="sscccccssssssscccccccc" />
    <path
       d="m 5.75,13.5 c 0,0.414214 -0.3357864,0.75 -0.75,0.75 H 2.0226969 c -0.9999995,0 -0.9999995,-1.5 0,-1.5 H 5 c 0.4142136,0 0.75,0.335786 0.75,0.75 m 0,-3 c 0,0.414214 -0.3357864,0.75 -0.75,0.75 H 0.27903872 c -0.99999957,0 -0.99999957,-1.5 0,-1.5 H 5 c 0.4142136,0 0.75,0.335786 0.75,0.75"
       id="path2"
       sodipodi:nodetypes="cssssccssssc" />
  </g>
</svg>
