<?xml version="1.0" encoding="UTF-8" standalone="no"?>
<!-- Created with Inkscape (http://www.inkscape.org/) -->

<svg
   width="220.40564mm"
   height="100.098mm"
   viewBox="0 0 220.40564 100.098"
   version="1.1"
   id="svg1"
   fill="currentColor"
   xml:space="preserve"
   xmlns:inkscape="http://www.inkscape.org/namespaces/inkscape"
   xmlns:sodipodi="http://sodipodi.sourceforge.net/DTD/sodipodi-0.dtd"
   xmlns="http://www.w3.org/2000/svg"
   xmlns:svg="http://www.w3.org/2000/svg"><sodipodi:namedview
     id="namedview1"
     pagecolor="#ffffff"
     bordercolor="#000000"
     borderopacity="0.25"
     inkscape:showpageshadow="2"
     inkscape:pageopacity="0.0"
     inkscape:pagecheckerboard="0"
     inkscape:deskcolor="#d1d1d1"
     inkscape:document-units="mm"
     showgrid="false"
     inkscape:zoom="0.95232183"
     inkscape:cx="288.24289"
     inkscape:cy="374.34824"
     inkscape:window-width="2560"
     inkscape:window-height="1411"
     inkscape:window-x="-9"
     inkscape:window-y="-9"
     inkscape:window-maximized="1"
     inkscape:current-layer="layer1" /><defs
     id="defs1" /><g
     inkscape:label="Layer 1"
     inkscape:groupmode="layer"
     id="layer1"
     transform="translate(10.405636,-78.881257)"><path
     fill="currentColor"
       style="fill-opacity:1;stroke:none;fill:currentColor"
       d="m 58.872023,91.600128 h -35.71875 c -3.682499,0 -10.911398,-1.03295 -10.480235,4.7625 0.424879,5.711012 7.255656,3.880682 11.009401,3.972632 11.725597,0.28722 23.463579,0.0187 35.189584,0.2607 v 56.62084 c -7.346556,0.15167 -14.900359,-0.47791 -22.225,0.0237 -2.737995,0.18752 -6.19556,0.0901 -7.002682,3.41591 -0.57555,2.37159 0.744415,5.09685 3.298515,5.4997 2.784407,0.43917 5.912793,0.0565 8.73125,0.0565 h 17.197917 c 0,2.88923 -1.056477,8.41884 0.701879,10.83649 1.799309,2.47394 5.100723,1.86351 7.764788,1.86351 h 20.108333 85.989587 28.04584 c 3.26393,0 8.19478,0.37348 8.39684,-4.23333 0.35816,-8.16643 -0.19476,-16.42963 -0.19476,-24.60625 0,-15.69829 0.23936,-31.39986 0.26458,-47.09584 0.009,-5.559432 -0.27314,-11.110692 -0.26458,-16.668752 0.004,-2.41952 0.63504,-5.12396 -1.85617,-6.652141 -2.25747,-1.384799 -6.93617,-0.491604 -9.52091,-0.491604 H 174.49495 87.711606 67.33869 c -2.357616,0 -5.843118,-0.702073 -7.525316,1.350675 -2.019935,2.46489 -0.941351,8.06119 -0.941351,11.08474 m 135.202087,-3.70417 c -1.54506,1.99234 -3.87084,3.44435 -5.81695,5.02626 -3.28595,2.671 -6.50447,5.43049 -9.79346,8.100012 -9.83523,7.98279 -19.48873,16.19866 -29.36876,24.12711 -3.56309,2.85929 -7.05878,5.81009 -10.58334,8.71798 -1.01151,0.83454 -2.84508,2.94312 -4.23333,2.94267 -1.39181,-4.4e-4 -3.11095,-2.09867 -4.11717,-2.93736 -3.5489,-2.95802 -7.12106,-5.88933 -10.69562,-8.81618 C 109.32498,116.75336 99.219063,108.39789 89.15069,100.00595 84.54879,96.170278 78.522738,92.538538 74.747024,87.895938 H 194.07411 m -126.206253,6.08542 c 5.8715,3.63201 11.06197,9.004562 16.404166,13.381472 10.868,8.90425 21.634057,17.92973 32.543747,26.78334 3.99214,3.23977 7.95178,6.53306 11.90625,9.82 1.63859,1.36199 3.47899,3.53445 5.82083,3.35752 2.29035,-0.17304 4.15484,-2.33658 5.82084,-3.70274 4.22765,-3.46677 8.49247,-6.88594 12.67632,-10.40469 10.4842,-8.81754 21.22842,-17.32378 31.7739,-26.07188 3.24056,-2.68824 6.56503,-5.28212 9.78937,-7.987322 1.98261,-1.6634 3.96692,-3.84895 6.35,-4.91112 V 170.18136 H 102.52827 77.128274 70.51369 l -2.486185,-0.27193 -0.424231,-4.49057 V 152.1897 111.17928 99.537608 l 0.264583,-5.55625 M -7.5383938,124.31657 c -3.8325092,1.20205 -3.8134582,7.1497 0,8.34581 3.503689,1.09895 8.50633195,0.21273 12.170833,0.21273 H 30.826189 c 3.464187,0 9.928767,1.2355 12.884146,-0.78191 3.166506,-2.16154 1.620468,-7.43761 -2.036229,-7.90034 -3.595065,-0.45493 -7.488303,-0.049 -11.1125,-0.049 H 8.3366062 -2.2467268 c -1.648384,0 -3.70525,-0.32486 -5.291667,0.17271 m 24.3416668,33.01738 c -3.746352,0.63451 -5.759472,5.20309 -2.596838,7.94384 1.464302,1.26897 4.208579,1.16365 6.036421,0.87827 3.41018,-0.53243 4.631492,-4.78915 2.483529,-7.29626 -1.416076,-1.65284 -3.908989,-1.86696 -5.923112,-1.52585 z"
       id="path1"
       inkscape:export-filename="Send-Email.svg"
       inkscape:export-xdpi="5.7621031"
       inkscape:export-ydpi="5.7621031" /></g></svg>
