<?xml version="1.0" encoding="UTF-8" standalone="no"?>
<!-- Created with Inkscape (http://www.inkscape.org/) -->

<svg
   width="178.09711mm"
   height="119.34806mm"
   viewBox="0 0 178.09711 119.34806"
   version="1.1"
   id="svg1"
   xml:space="preserve"
   inkscape:version="1.3.2 (091e20e, 2023-11-25, custom)"
   sodipodi:docname="Twig Arrow.svg"
   xmlns:inkscape="http://www.inkscape.org/namespaces/inkscape"
   xmlns:sodipodi="http://sodipodi.sourceforge.net/DTD/sodipodi-0.dtd"
   xmlns="http://www.w3.org/2000/svg"
   xmlns:svg="http://www.w3.org/2000/svg"><sodipodi:namedview
     id="namedview1"
     pagecolor="#505050"
     bordercolor="#eeeeee"
     borderopacity="1"
     inkscape:showpageshadow="0"
     inkscape:pageopacity="0"
     inkscape:pagecheckerboard="true"
     inkscape:deskcolor="#505050"
     inkscape:document-units="mm"
     showborder="true"
     inkscape:zoom="0.25"
     inkscape:cx="-556"
     inkscape:cy="106"
     inkscape:window-width="1920"
     inkscape:window-height="1017"
     inkscape:window-x="-8"
     inkscape:window-y="-8"
     inkscape:window-maximized="1"
     inkscape:current-layer="svg1" /><defs
     id="defs1" /><g
     inkscape:label="Icon"
     inkscape:groupmode="layer"
     id="layer1"
     transform="translate(-13.329554,-118.55607)"><g
       id="g4"
       transform="matrix(0.05306746,0.01404525,-0.01404525,0.05306746,96.510163,79.068799)"
       inkscape:label="Right Twig"><path
         d="m 1406.6757,1595.3609 c 13.0181,19.7199 39.7562,56.4018 79.9149,93.4507 2.4973,2.3025 6.2979,-0.4031 4.9549,-3.5291 -28.3928,-65.9145 -25.2295,-105.8921 -20.7146,-124.033 0.7896,-3.1726 5.3058,-2.9178 5.8733,0.3319 4.2048,24.222 17.9503,83.3409 59.8693,159.3523 2.5136,4.5649 5.7901,8.666 9.641,12.1647 7.3732,6.7115 20.7862,18.5046 35.158,29.124 3.0072,2.2242 6.4879,-1.7768 3.976,-4.5585 -54.0102,-59.907 -80.5743,-142.0673 -79.7191,-185.7391 3.3198,-170.0974 -79.9496,-204.814 -121.9125,-254.2294 -11.9551,-14.0721 -14.963,-33.7161 -8.3736,-50.6979 0,0 33.9565,-56.2077 44.044,-106.1175 3.1113,-15.395 10.7749,-29.5136 22.2468,-39.9409 99.582,-90.4928 22.4433,-249.12175 22.4433,-249.12175 0,0 -142.234,110.56152 -74.2859,243.11765 28.7245,56.0431 -43.9951,147.8294 -43.9951,147.8294 -24.8303,-30.5961 -44.5246,-94.2471 -55.6458,-136.8772 -6.002,-23.0207 -5.3873,-47.3358 2.8345,-69.3407 28.8967,-77.32406 -4.5072,-165.52704 -93.9808,-238.92868 -1.9361,-1.58382 -4.8114,-0.53099 -5.205,1.92279 -4.2912,26.60407 -21.5647,144.86957 -0.5946,206.90659 8.0148,19.8029 23.1352,35.5418 37.3845,47.5717 18.4586,15.5817 31.3539,36.8626 37.3418,60.2947 14.4669,56.6136 49.2612,164.0693 117.7688,235.1729 43.8449,45.5106 18.9537,134.337 13.2056,194.7843 -1.0397,10.9056 1.6874,21.8838 7.7742,31.0972 z"
         style="fill:#333333;stroke-width:1.40593"
         id="path3"
         sodipodi:nodetypes="cccsccccccccsccccccccccscccc"
         inkscape:label="Upper Sub-Branch" /><path
         style="fill:#333333;stroke-width:0.767097"
         d="m 1586.38,2004.765 c -41.1564,-16.1441 -101.1721,17.9977 -133.4025,13.614 -16.7952,-1.7385 -31.5413,-11.4124 -40.0876,-26.0326 -71.1465,-121.7193 -178.1174,-167.4438 -318.8231,-180.975 0,0 25.1154,81.5209 98.9394,129.7319 38.2347,24.9701 82.1333,29.2732 123.2222,39.691 31.1438,7.8965 60.6736,19.306 84.8992,45.8907 5.7715,5.4063 4.9273,6.1375 -0.3832,11.0641 -69.4122,64.3909 -130.7587,45.75 -168.1518,47.0497 -53.6947,-5.1612 -150.3805,26.0243 -161.2627,85.9486 53.5649,32.6212 111.724,17.0091 165.0638,3.4609 79.9747,-20.3133 200.888,-116.9528 215.0143,-122.6633 36.6579,-14.819 190.4029,-10.7689 248.9803,30.9997 z"
         id="path4"
         sodipodi:nodetypes="cccccsccccsscc"
         inkscape:label="Lower Sub-Branch" /><path
         style="fill:#333333"
         d="m 2124.0597,2415.6121 c 42.01,9.67 86.07,-2.41 117.77,-32.28 61.71,-58.14 74.4315,-76.6047 83.7629,-100.1541 1.6486,-4.1606 -1.2199,-8.6926 -5.59,-8.9 -89.3799,-4.2426 -172.1029,-35.5404 -228.31,-55.49 -16.3781,-5.8131 -0.038,-22.5078 4.86,-17.61 l -0.01,-0.01 c 66.49,11.15 167.5303,23.6721 244.87,13.76 8.8003,-1.1279 17.0832,-6.8616 19.57,-15.57 3.2355,-11.3304 6.9487,-16.4689 2.37,-26.01 -24.9431,-51.9762 -94.2434,-55.9084 -178.5896,-52.7037 -84.3463,3.2048 -112.5625,-12.7187 -216.6935,-26.1398 -104.1309,-13.421 -242.5484,-96.2755 -330.6466,-196.1275 -88.0982,-99.8521 -270.167,-168.593 -306.4151,-424.6814 -5.4147,-38.2542 -56.7858,-81.0816 -90.9502,-92.191 -34.1643,-11.1093 -35.9468,-13.2219 -56.8191,-11.7439 -6.3657,0.4508 -8.81,8.85 -4.08,13.23 14.91,13.79 50.29,48.66 73.27,73.94 4.8,5.28 -1.09,13.46 -7.45,10.36 l -175.43,-85.45 c -85.90032,-41.8411 -304.17249,-357.8588 -447.54017,-389.42043 -5.12,-2.8 -10.69,3.04 -7.75,8.18003 123.76327,176.5526 223.32588,156.8397 318.50016,353.7204 -117.91996,1.25 -218.81005,-96.3152 -354.25005,-171.8452 -226.31,-126.2 -340.73,-367.49001 -384.12,-481.43001 -3.88,-10.18 -18.75,-6.23 -17.33,4.6 11.63,89.04 55,254.32 212.33,419.85001 308.58,324.66 603.55005,242.2052 781.65006,483.4152 193.05,261.47 137.71,128.2911 415.3415,395.8543 270.6988,185.8845 420.8974,324.8636 537.6797,410.8471 z"
         id="path10"
         sodipodi:nodetypes="ccsssccssssssssscscscccccccccc"
         inkscape:label="Main Branch"
         transform="translate(-1.9606441e-5)" /></g><g
       id="g31"
       transform="matrix(-0.05306746,0.01404525,0.01404525,0.05306746,108.24605,79.068801)"
       inkscape:label="Left Twig"><path
         d="m 1406.6757,1595.3609 c 13.0181,19.7199 39.7562,56.4018 79.9149,93.4507 2.4973,2.3025 6.2979,-0.4031 4.9549,-3.5291 -28.3928,-65.9145 -25.2295,-105.8921 -20.7146,-124.033 0.7896,-3.1726 5.3058,-2.9178 5.8733,0.3319 4.2048,24.222 17.9503,83.3409 59.8693,159.3523 2.5136,4.5649 5.7901,8.666 9.641,12.1647 7.3732,6.7115 20.7862,18.5046 35.158,29.124 3.0072,2.2242 6.4879,-1.7768 3.976,-4.5585 -54.0102,-59.907 -80.5743,-142.0673 -79.7191,-185.7391 3.3198,-170.0974 -79.9496,-204.814 -121.9125,-254.2294 -11.9551,-14.0721 -14.963,-33.7161 -8.3736,-50.6979 0,0 33.9565,-56.2077 44.044,-106.1175 3.1113,-15.395 10.7749,-29.5136 22.2468,-39.9409 99.582,-90.4928 22.4433,-249.12175 22.4433,-249.12175 0,0 -142.234,110.56152 -74.2859,243.11765 28.7245,56.0431 -43.9951,147.8294 -43.9951,147.8294 -24.8303,-30.5961 -44.5246,-94.2471 -55.6458,-136.8772 -6.002,-23.0207 -5.3873,-47.3358 2.8345,-69.3407 28.8967,-77.32406 -4.5072,-165.52704 -93.9808,-238.92868 -1.9361,-1.58382 -4.8114,-0.53099 -5.205,1.92279 -4.2912,26.60407 -21.5647,144.86957 -0.5946,206.90659 8.0148,19.8029 23.1352,35.5418 37.3845,47.5717 18.4586,15.5817 31.3539,36.8626 37.3418,60.2947 14.4669,56.6136 49.2612,164.0693 117.7688,235.1729 43.8449,45.5106 18.9537,134.337 13.2056,194.7843 -1.0397,10.9056 1.6874,21.8838 7.7742,31.0972 z"
         style="fill:#333333;stroke-width:1.40593"
         id="path29"
         sodipodi:nodetypes="cccsccccccccsccccccccccscccc"
         inkscape:label="Upper Sub-Branch" /><path
         style="fill:#333333;stroke-width:0.767097"
         d="m 1586.38,2004.765 c -41.1564,-16.1441 -101.1721,17.9977 -133.4025,13.614 -16.7952,-1.7385 -31.5413,-11.4124 -40.0876,-26.0326 -71.1465,-121.7193 -178.1174,-167.4438 -318.8231,-180.975 0,0 25.1154,81.5209 98.9394,129.7319 38.2347,24.9701 82.1333,29.2732 123.2222,39.691 31.1438,7.8965 60.6736,19.306 84.8992,45.8907 5.7715,5.4063 4.9273,6.1375 -0.3832,11.0641 -69.4122,64.3909 -130.7587,45.75 -168.1518,47.0497 -53.6947,-5.1612 -150.3805,26.0243 -161.2627,85.9486 53.5649,32.6212 111.724,17.0091 165.0638,3.4609 79.9747,-20.3133 200.888,-116.9528 215.0143,-122.6633 36.6579,-14.819 190.4029,-10.7689 248.9803,30.9997 z"
         id="path30"
         sodipodi:nodetypes="cccccsccccsscc"
         inkscape:label="Lower Sub-Branch" /><path
         style="fill:#333333"
         d="m 2124.0597,2415.6121 c 42.01,9.67 86.07,-2.41 117.77,-32.28 61.71,-58.14 74.4315,-76.6047 83.7629,-100.1541 1.6486,-4.1606 -1.2199,-8.6926 -5.59,-8.9 -89.3799,-4.2426 -172.1029,-35.5404 -228.31,-55.49 -16.3781,-5.8131 -0.038,-22.5078 4.86,-17.61 l -0.01,-0.01 c 66.49,11.15 167.5303,23.6721 244.87,13.76 8.8003,-1.1279 17.0832,-6.8616 19.57,-15.57 3.2355,-11.3304 6.9487,-16.4689 2.37,-26.01 -24.9431,-51.9762 -94.2434,-55.9084 -178.5896,-52.7037 -84.3463,3.2048 -112.5625,-12.7187 -216.6935,-26.1398 -104.1309,-13.421 -242.5484,-96.2755 -330.6466,-196.1275 -88.0982,-99.8521 -270.167,-168.593 -306.4151,-424.6814 -5.4147,-38.2542 -56.7858,-81.0816 -90.9502,-92.191 -34.1643,-11.1093 -35.9468,-13.2219 -56.8191,-11.7439 -6.3657,0.4508 -8.81,8.85 -4.08,13.23 14.91,13.79 50.29,48.66 73.27,73.94 4.8,5.28 -1.09,13.46 -7.45,10.36 l -175.43,-85.45 c -85.90032,-41.8411 -304.17249,-357.8588 -447.54017,-389.42043 -5.12,-2.8 -10.69,3.04 -7.75,8.18003 123.76327,176.5526 223.32588,156.8397 318.50016,353.7204 -117.91996,1.25 -218.81005,-96.3152 -354.25005,-171.8452 -226.31,-126.2 -340.73,-367.49001 -384.12,-481.43001 -3.88,-10.18 -18.75,-6.23 -17.33,4.6 11.63,89.04 55,254.32 212.33,419.85001 308.58,324.66 603.55005,242.2052 781.65006,483.4152 193.05,261.47 137.71,128.2911 415.3415,395.8543 270.6988,185.8845 420.8974,324.8636 537.6797,410.8471 z"
         id="path31"
         sodipodi:nodetypes="ccsssccssssssssscscscccccccccc"
         inkscape:label="Main Branch"
         transform="translate(-1.9606441e-5)" /></g></g></svg>
