<?xml version="1.0" encoding="UTF-8" standalone="no"?>
<svg
   width="100%"
   height="100%"
   viewBox="0 0 4961 3508"
   version="1.1"
   xml:space="preserve"
   style="fill-rule:evenodd;clip-rule:evenodd;stroke-linecap:round;stroke-linejoin:round;stroke-miterlimit:1.5;"
   id="svg121"
   sodipodi:docname="Alt Short Logo.svg"
   inkscape:version="1.3.2 (091e20e, 2023-11-25, custom)"
   xmlns:inkscape="http://www.inkscape.org/namespaces/inkscape"
   xmlns:sodipodi="http://sodipodi.sourceforge.net/DTD/sodipodi-0.dtd"
   xmlns="http://www.w3.org/2000/svg"
   xmlns:svg="http://www.w3.org/2000/svg"
   xmlns:serif="http://www.serif.com/"><defs
   id="defs121" /><sodipodi:namedview
   id="namedview121"
   pagecolor="#ffffff"
   bordercolor="#000000"
   borderopacity="0.25"
   inkscape:showpageshadow="2"
   inkscape:pageopacity="0.0"
   inkscape:pagecheckerboard="0"
   inkscape:deskcolor="#d1d1d1"
   inkscape:zoom="0.36859064"
   inkscape:cx="972.62372"
   inkscape:cy="1927.6127"
   inkscape:window-width="1920"
   inkscape:window-height="1001"
   inkscape:window-x="-9"
   inkscape:window-y="-9"
   inkscape:window-maximized="1"
   inkscape:current-layer="svg121" />
    
    <g
   id="Text"
   transform="matrix(1.1167516,0,0,1.1167516,525.5742,392.6774)"
   style="clip-rule:evenodd;fill-rule:evenodd;stroke-linecap:round;stroke-linejoin:round;stroke-miterlimit:1.5">
        
        
    <path
   d="m 784.75311,1418.6941 q 0,-14.5732 -13.69,-24.2887 -13.46919,-9.7155 -36.65387,-9.7155 -8.83226,0 -11.26113,0.6624 -2.42887,0.6625 -2.42887,2.8706 v 64.4754 q 0,1.7664 1.10403,2.2081 1.32484,0.4416 7.0658,0.4416 24.95114,0 40.40759,-10.1572 15.45645,-10.157 15.45645,-26.4967 z m -91.85549,-41.7324 q 11.26114,0 28.70484,-1.1041 17.44372,-1.3248 24.95113,-1.3248 28.92565,0 44.1613,13.6901 13.02757,11.9235 13.02757,29.3671 v 0.2208 q -0.2208,12.1445 -6.62418,21.6392 -6.40339,9.2737 -16.33969,14.5732 -16.33967,9.2738 -50.78548,9.2738 h -6.845 q -2.87049,0 -2.87049,3.533 v 45.9276 q 0,3.9746 1.32484,5.9618 1.54565,1.7665 5.74097,1.9873 20.09339,0.8833 21.41822,1.3248 3.09129,0.8833 3.09129,5.0785 v 0.2208 q 0,5.2994 -4.41612,5.2994 l -4.41613,-0.4416 q -4.41613,-0.2208 -11.92355,-0.6624 -7.50742,-0.2208 -14.79403,-0.2208 -7.50742,0 -15.01484,0.2208 -7.50743,0.4416 -11.92356,0.6624 l -4.41612,0.4416 q -4.63694,0 -4.63694,-5.2994 0,-0.8831 0,-1.5456 0.22081,-0.8832 0.22081,-1.3248 0.22081,-0.6625 0.66242,-1.104 0.44161,-0.4416 0.66242,-0.6624 0.44161,-0.4417 1.10404,-0.6625 0.88322,-0.2208 1.32483,-0.2208 0.66242,-0.2207 1.76645,-0.2207 1.32484,-0.2209 2.20807,-0.2209 1.10402,-0.2208 2.87048,-0.2208 1.76645,-0.2208 3.3121,-0.4416 3.75371,-0.4417 4.85774,-1.7665 1.32484,-1.5456 1.32484,-4.4161 v -121.0019 q 0,-1.7665 -0.22081,-2.6497 0,-1.104 -1.32484,-1.9873 -1.10403,-1.104 -3.3121,-1.104 h -8.16984 q -1.54564,0 -2.42887,-0.2208 -0.88322,-0.2208 -1.98726,-1.5456 -0.88322,-1.5457 -0.88322,-4.1954 0,-4.8577 4.85775,-4.8577 z"
   id="text127"
   style="font-size:210.963px;font-family:'Goudy Bookletter 1911';-inkscape-font-specification:'Goudy Bookletter 1911, Normal';letter-spacing:11.9413px;stroke-width:2.13071"
   aria-label="P"
   inkscape:label="P" /><path
   d="m 820.09321,1357.3286 q 0,-0.3694 -1.3548,-1.9705 -1.35481,-1.7243 -2.70961,-4.8034 -1.23165,-3.0791 -1.23165,-6.774 0,-8.4983 6.65085,-15.026 6.77404,-6.6509 15.51868,-6.6509 2.7096,0 5.54238,0.6158 2.83278,0.6158 5.29605,2.4633 2.58645,1.8474 2.58645,4.6802 0,2.4633 -1.72429,4.0644 -1.72429,1.6012 -3.94126,1.6012 -2.58644,0 -5.41921,-3.0791 -2.70961,-3.2023 -5.54238,-3.2023 -4.55708,0 -8.99098,4.1876 -4.43391,4.0645 -4.43391,10.3458 0,3.6949 1.7243,7.1434 1.84746,3.3255 3.20226,3.3255 0.24633,0 2.21695,-0.7389 1.97064,-0.8623 5.17289,-1.7243 3.20226,-0.8623 6.5277,-0.8623 4.68024,0 7.75935,1.9706 3.20226,1.8476 3.20226,5.0499 0,3.2022 -3.32543,5.1728 -3.32543,1.9707 -8.252,1.9707 h -0.12316 q -3.0791,0 -5.91188,-0.739 -2.70961,-0.7391 -4.31073,-1.478 -1.60114,-0.739 -1.84747,-0.739 -0.36948,0 -0.73898,0.2464 -0.24633,0.2463 -0.49266,0.4926 -0.12316,0.2463 -0.36949,0.4926 l -0.12316,0.2463 q -3.32543,6.0351 -3.32543,13.1787 0,4.4339 1.60113,8.7445 1.60113,4.1876 4.92656,8.3752 3.4486,4.0645 9.85312,6.774 6.52769,2.7096 15.14918,3.0792 h 2.21695 q 7.26668,0 12.68585,-2.0938 5.41917,-2.0939 8.25189,-5.5424 2.83281,-3.4487 4.06435,-7.0204 1.3549,-3.5718 1.3549,-7.1435 0,-6.5277 -3.57177,-10.8385 -3.57177,-4.3107 -9.4836,-4.3107 -5.41912,0 -9.60669,3.695 -4.06442,3.6948 -4.06442,8.375 0,3.2023 1.97062,5.5426 2.0938,2.2168 5.29606,2.2168 1.35478,0 2.95594,-0.6157 1.6011,-0.6159 1.6011,-1.478 0,-0.4927 -0.49267,-0.739 -0.49266,-0.2465 -1.23162,-0.3695 -0.61581,-0.1232 -1.47797,-0.6159 -0.86212,-0.4926 -1.47795,-1.3547 -0.86215,-1.2316 -0.86215,-2.7096 0,-1.8474 1.35481,-3.2023 1.47794,-1.3549 3.5717,-1.3549 2.83272,0 5.0496,2.0939 2.34014,2.0938 2.34014,5.1728 0,3.8182 -3.20229,6.7741 -3.2022,2.8327 -7.75915,2.8327 -5.04972,0 -8.62148,-3.6949 -3.57175,-3.695 -3.57175,-8.9909 0,-4.9265 3.20225,-9.3604 3.32543,-4.5573 8.99098,-7.39 5.78857,-2.8327 16.50387,-4.5571 10.83841,-1.7242 14.65655,-3.4486 4.55702,-1.9705 7.63612,-5.7886 3.20221,-3.9414 3.20221,-9.2374 0,-5.7887 -3.69488,-9.6068 -3.57176,-3.8181 -8.25197,-3.8181 -3.81806,0 -3.81806,1.1086 l 0.98525,1.3547 q 1.10852,1.3549 1.10852,3.0791 0,2.2171 -1.478,3.6949 -1.478,1.478 -3.69495,1.478 -2.46325,0 -4.06435,-1.7242 -1.60119,-1.8475 -1.60119,-4.4339 0,-3.9413 3.32548,-6.6509 3.32539,-2.7096 7.7593,-2.7096 7.14354,0 12.80907,6.0351 5.78873,6.035 5.78873,15.0258 0,10.0996 -7.88249,17.3663 -7.75939,7.1436 -18.47461,7.3899 -1.84748,0 -1.84748,0.9853 0,0.1232 0.98533,1.8475 1.10844,1.7242 2.21688,5.0496 1.10852,3.3254 1.10852,7.1436 v 0.2463 q 0,12.809 -11.08479,22.4158 -11.08457,9.6068 -26.48009,9.6068 -15.51867,0 -26.11078,-9.9763 -10.59209,-10.0994 -10.59209,-23.8938 0,-3.6949 0.73898,-7.1435 0.86216,-3.4485 2.09378,-5.912 1.23165,-2.4632 2.34012,-4.1874 1.23165,-1.7244 2.34011,-2.8328 l 0.98532,-1.2317 q 0.24633,-0.4927 0.24633,-0.8621 z m 20.32207,3.8182 q 5.29605,0 5.29605,-2.9559 0,-3.2022 -5.41921,-3.2022 -2.95595,0 -5.54239,0.4925 -2.46329,0.4928 -3.81809,1.2317 -1.23163,0.6157 -1.23163,1.2316 0,0.3695 0.36949,0.739 3.44858,2.4633 10.34578,2.4633 z"
   id="text126"
   style="font-size:220.375px;font-family:'Goudy Bookletter 1911';-inkscape-font-specification:'Goudy Bookletter 1911, Normal';letter-spacing:12.474px;clip-rule:evenodd;fill-rule:evenodd;stroke-width:1.18849;stroke-linecap:round;stroke-linejoin:round;stroke-miterlimit:1.5"
   aria-label="&amp;"
   inkscape:label="&amp;" /><path
   d="m 784.09186,1226.9314 q 0,30.2057 17.99483,50.9854 17.99482,20.5655 43.70173,20.5655 19.28017,0 35.13277,-11.7823 16.06681,-11.7823 22.06508,-31.2767 1.07112,-2.9992 3.21336,-2.9992 3.64182,0 3.64182,2.5708 -4.92716,34.0616 -5.56983,35.5611 -1.07112,3.6418 -4.92716,3.6418 h -0.21422 -5.99828 q -2.57069,0 -3.85604,0.4285 -1.07112,0.4285 -3.21336,1.928 -1.92801,1.4996 -3.21336,2.1422 -19.28018,11.1397 -40.70259,11.1397 -15.20992,0 -29.77716,-5.9982 -14.56724,-5.9983 -25.7069,-16.7095 -11.13966,-10.9255 -17.56638,-25.7069 -6.21251,-14.7815 -6.21251,-30.4199 0,-16.0668 6.64095,-31.0625 6.64095,-14.9957 17.78061,-25.7069 23.56466,-22.4935 55.91251,-22.4935 h 0.21422 q 11.78233,0 21.63664,2.9991 10.06854,2.7849 15.42415,5.7841 5.56982,2.9991 5.99827,2.9991 1.71379,0 2.99914,-3.6419 1.28534,-3.6417 3.42758,-4.2844 0.42845,0 1.28535,0 0.8569,-0.2143 1.07113,-0.2143 2.35646,0 2.78491,2.5708 l 1.49957,11.1396 q 1.49956,11.3539 2.99913,22.922 1.49957,11.5681 1.49957,12.425 0,3.6418 -4.4987,3.6418 -4.07026,0 -4.71293,-1.2853 -0.64268,-1.4996 -1.49958,-8.9975 -1.07112,-8.1404 -5.78405,-14.3529 -7.49785,-9.4259 -19.06595,-15.4242 -11.5681,-6.2125 -25.7069,-6.2125 -23.77889,0 -41.34527,17.9948 -17.35215,17.9948 -17.35215,47.1293 z"
   id="text121"
   style="font-size:240.036px;font-family:'Goudy Bookletter 1911';-inkscape-font-specification:'Goudy Bookletter 1911, Normal';letter-spacing:13.5869px;clip-rule:evenodd;fill-rule:evenodd;stroke-width:2.06719;stroke-linecap:round;stroke-linejoin:round;stroke-miterlimit:1.5"
   aria-label="C"
   inkscape:label="C" /></g><g
   id="Zeichnung"
   transform="translate(550.1872,1251.1696)">
        
        <g
   id="Amsel"
   transform="matrix(0.802659,0,0,0.802659,-219.087,260.832)">
            <g
   id="Beine"
   transform="translate(-573.584,-898.54)">
                <path
   d="m 1459.76,1532.33 22.85,61.47 4.72,34.25 c 1.99,10.12 8.04,16.22 10.83,21.55 2.05,3.92 0.19,9.98 0.74,13.25 0.67,3.96 0.18,4.24 2.21,7.35 1.98,3.05 3.48,5.28 2.94,5.89 -2.51,2.84 -7.32,0.3 -8.83,-2.94 -5.61,-5.14 -4.94,-9.68 -5.27,-16.19 -2.03,7.48 -2.33,12.35 0.86,19.13 1.04,2.22 3.81,5.16 6.67,7.36 5.56,4.29 11.31,1.25 12.46,-3.77 0,0 1.89,-7.13 1.47,-10.95 -0.9,-3.12 -4.61,-8.46 -4.84,-9.76 -0.52,-2.98 0.79,-7.45 2.15,-10.84 2.01,2.24 5.99,4.56 11.52,7.36 1.74,1.74 2.22,5.89 2.94,7.36 l 2.94,5.88 c 0.97,2.94 -0.14,4.41 -2.94,7.36 -5.41,-1.25 -9.31,-11.44 -11.77,-17.66 1.16,9.06 4.81,19.53 11.48,22.07 6.19,0.38 8.82,-2.16 9.12,-10.3 1.53,-1.75 2.32,-4.7 1.47,-10.3 -0.38,-2.47 -2.16,-2.99 -5.89,-6.63 -3.77,-3.68 -6.62,-4.97 -7.35,-8.08 0,0 4.8,0.42 11.77,2.94 2.56,0.93 5.47,3.64 7.36,4.42 3.83,1.58 5.44,1.3 7.35,2.2 2.54,1.21 2.09,4.16 2.95,8.1 -0.72,3.15 -2.4,3.3 -4.42,4.41 -4,-1.54 -4.55,-4.78 -7.36,-10.3 0.02,4.23 -0.69,14.19 4.42,14.71 4.27,0.15 10.23,0.49 13.24,-8.09 -1.06,-7.75 -3.4,-12.37 -10.3,-16.92 -3.62,-2.39 -7.11,-1.72 -9.56,-2.94 -2.03,-1.01 -4.36,-3.38 -5.15,-4.42 0,0 -7.77,-13.23 -20.76,-21.88 l -14.18,-14.17 -19.22,-70.18 z"
   id="path111" />
                <g
   transform="rotate(2.6564001,1568.3293,1577.6393)"
   id="g112">
                    <path
   d="m 1613.23,1524.43 c 29.13,22.67 55.23,38.95 80.37,63.57 5.95,7.44 7.94,11.68 10.63,17.71 1.36,2.79 2.71,4.76 5.14,7.34 3.63,1.74 5.89,2.33 7.64,5.9 1.62,3.31 1.31,2.84 1.87,6.41 1.32,3.3 4.52,3.71 5.19,5.88 0.64,3.2 0.39,6.15 -0.77,8.83 -0.99,2.29 -5.89,2.61 -7.36,1.47 -1.35,-1.04 -2.46,-3.02 -3.36,-5.88 l -1.05,-4.42 2.94,2.94 c 1.12,1.25 2.5,2.3 4.41,2.95 0.63,-1.5 0.81,-2.98 0,-4.42 -2.53,-2.82 -7.47,-5.3 -8.91,-6.8 -0.95,-0.99 -3.85,-5.57 -5,-4.56 -0.55,0.49 -1.24,1.54 -1.35,2.65 -0.12,1.2 1.23,3.72 1.38,5.82 0.15,2.22 -0.28,4.14 -0.47,5.92 -0.28,2.77 1.05,4.63 -0.36,8.12 -1.22,3.03 -2.68,2.92 -4.42,3.57 -3.16,0.78 -5.58,0.22 -7.35,-1.47 -2.98,-2.71 -3.97,-5.7 -3.93,-8.83 0.12,-1.64 0.51,-3.06 0.98,-4.42 l 1.47,5.15 c 0.84,2.44 2.92,5.05 4.42,5.15 2.18,0.15 3.83,0.26 4.41,-1.47 0.52,-1.53 -0.24,-2.8 -1.8,-4.76 -1.52,-1.92 -3.29,-3.13 -3.98,-6.45 -0.52,-2.52 0.36,-5.23 -0.1,-6.45 -0.86,-2.59 -3.74,-7.17 -7.36,-7.35 -1.58,-0.08 -2.97,2.47 -2.43,6.9 0.3,2.54 -0.43,6.65 -0.43,6.65 0.03,-0.86 -0.62,2.92 -2.63,6.75 -1.93,2.62 -1.42,13.86 -11.59,15.75 -3.39,0.63 -7.45,-1.14 -9.41,-4.93 -1.49,-2.89 -1.81,-5.84 -1.47,-8.83 0.7,-4.62 2.31,-8.43 4.42,-11.77 -0.98,4.33 -1.63,8.05 -1.47,10.3 -0.99,6.04 6.06,8.95 9.64,7.18 2.15,-2.44 4.74,-7.95 3.6,-13.06 -1.55,-2.12 -2.96,-4.45 -2.94,-8.83 0.23,-2.61 -2.85,-33.29 -1.28,-39.47 -17,-16.95 -40.25,-32.77 -66.44,-49.72 z"
   id="path112" />
                </g>
                <path
   d="m 1455.12,1491.73 c 0,5.51 -2.72,10.56 -2.36,21.26 0.25,7.73 1.12,14.77 3.54,20.08 1.77,3.9 7.09,2.36 7.09,2.36 0,0 10.14,5.64 15.35,3.55 5.64,-2.27 3.54,-28.35 3.54,-28.35 0,0 -1.13,-5.09 0,-7.21 3.76,-7.04 10.63,-6.96 10.63,-6.96 l -40.15,-16.54 c 0,0 2.36,8.25 2.36,11.81 z"
   id="path113" />
                <path
   d="m 1583.86,1492.91 c 0,0 -0.92,10.37 1.18,22.44 1.43,8.25 15.73,22.9 21.26,22.45 5.85,-0.48 10.63,-13 10.63,-13 1.07,-3.29 -0.91,-7.91 0,-16.53 0.57,-5.42 3.25,-11.23 7.09,-15.36 5.11,-5.51 23.62,-17.71 23.62,-17.71 z"
   id="path114" />
            </g>
            <g
   id="Schnabel"
   transform="translate(-573.584,-898.54)">
                <g
   transform="translate(-2.3622)"
   id="g115">
                    <path
   d="m 1921.06,1039.09 c 1.25,-0.12 2.51,0.01 3.77,0.06 2.69,0.09 5.34,-0.29 7.75,1.11 1.42,0.82 -0.53,3.13 -1.18,3.54 -1.69,1.07 -3.63,1.94 -4.36,2.14 -0.25,0.07 -0.47,0.1 -1.18,0.15 -2.19,0.14 0.21,-0.14 0.39,-1.25 0.17,-1.01 0.23,-2.16 -1.18,-2.04 -2.14,0.17 -6.77,-0.11 -6,2.33 0.54,1.73 -0.83,0.03 -0.96,-0.45 -0.6,-2.16 0.42,-5.33 2.95,-5.59 z"
   id="path115" />
                </g>
                <path
   d="m 1916.12,1044.43 c 0.55,3.18 3.34,3.5 9.22,0.81"
   style="fill:none;stroke:#000000;stroke-width:1.04px"
   id="path116" />
                <path
   id="Schnabel1"
   serif:id="Schnabel"
   d="m 1848.42,1078.35 53.16,-49.61 c 55.64,-6.62 108.75,0.05 113.38,18.9 -0.65,1.08 -6.25,1.98 -10.04,3.54 -1.29,0.53 1.12,1.43 -3.54,2.95 -16.09,5.25 -52.27,9.9 -76.48,17.13 -10.86,3.24 -18.13,7.86 -22.14,11.81 -6.78,6.67 -41.01,-3.85 -54.34,-4.72 z"
   style="fill:none;stroke:#000000;stroke-width:3.11px" />
                <path
   d="m 1836.61,1083.07 c 58.6,-25.01 113.61,-38.59 178.35,-35.43"
   style="fill:none;stroke:#000000;stroke-width:2.86px"
   id="path117" />
            </g>
            <g
   id="Körper"
   transform="translate(-573.584,-898.54)">
                <path
   d="m 1818.9,1000.68 c -97.34,0.23 -122,60.34 -165.36,91.84 -80.54,58.52 -84.6,42.2 -165.35,64.96 -40.64,11.45 -101.36,43.55 -141.63,52.46 -11.68,2.58 -36.13,0.51 -41.84,0 -77.04,-6.87 -234.08,-130.4 -332.673,-131.59 -5.747,-0.07 -2.162,8.53 -5.905,8.26 -10.234,-0.73 -30.185,-2.5 -42.52,-1.18 -5.615,0.61 -1.677,3.89 -12.992,7.09 -5.644,1.6 -8.454,13.2 -1.181,17.72 74.672,46.35 278.701,143.21 293.111,154.55 12.48,9.82 23.88,21.14 33.92,33.44 23.98,29.36 72.89,97.86 106.06,123.27 58.45,44.78 144.19,88 216.52,80.84 18.45,-1.83 33.1,-4.65 47.24,-8.94 14.99,-4.54 29.43,-10.74 47.24,-19.17 73.97,-35.01 197.53,-139.32 188.98,-278.49 -0.17,-2.7 -1.17,-24.04 7.17,-35.5 12.65,-17.39 32.99,-48.07 40.07,-60.63 7.47,-13.24 27.46,-22.09 34.26,-27.17 8.01,-5.99 -41.17,11.4 -38.98,8.27 2.98,-4.27 9.06,-6.72 10.63,-9.45 3.18,-5.53 -41.22,7 -41.34,4.72 -0.17,-3.19 19.74,-17.63 55.51,-27.16 2.54,-0.68 -3.15,-16.78 -7.08,-20.08 -26.17,-21.94 -54.82,-28.13 -83.86,-28.06 z"
   id="path118" />
            </g>
            <g
   id="Auge"
   transform="translate(-573.584,-898.54)">
                <g
   transform="translate(1.76251,-0.0514979)"
   id="g119">
                    <path
   d="m 1807.09,1029.46 c 7.21,-0.91 16.24,3.56 23.04,9.96 4.42,4.17 6.46,11.68 6.49,16.54 0.03,4.33 -3.44,8.6 -8.26,11.22 -3.03,1.65 -4.22,3.51 -11.82,4.08 -6.14,0.46 -12.9,-1.59 -16.53,-4.08 -3.64,-2.5 -8.43,-5.97 -10.93,-12.4 -1.46,-3.79 -1.28,-10.1 1.47,-14.23 3.87,-5.81 7.84,-9.99 16.54,-11.09 z"
   style="fill:#ffffff"
   id="path119" />
                </g>
                <g
   transform="matrix(0.828738,0,0,0.815077,311.581,194.179)"
   id="g120">
                    <path
   d="m 1807.09,1029.46 c 7.21,-0.91 16.24,3.56 23.04,9.96 4.42,4.17 6.46,11.68 6.49,16.54 0.03,4.33 -3.44,8.6 -8.26,11.22 -3.03,1.65 -4.22,3.51 -11.82,4.08 -6.14,0.46 -12.9,-1.59 -16.53,-4.08 -3.64,-2.5 -9.74,-8 -10.77,-13.57 -1.36,-7.33 0.42,-10.43 2.49,-13.4 2.22,-3.19 6.66,-9.65 15.36,-10.75 z"
   id="path120" />
                </g>
                <g
   transform="matrix(0.0590082,-0.0780689,0.076782,0.0580355,1622.86,1123.13)"
   id="g121">
                    <path
   d="m 1807.09,1029.46 c 7.21,-0.91 16.24,3.56 23.04,9.96 4.42,4.17 6.46,11.68 6.49,16.54 0.03,4.33 -3.44,8.6 -8.26,11.22 -3.03,1.65 -4.22,3.51 -11.82,4.08 -6.14,0.46 -12.9,-1.59 -16.53,-4.08 -3.64,-2.5 -10.13,-9.08 -11.22,-13 -1.09,-3.91 -0.05,-11.03 1.76,-13.63 2.22,-3.19 7.84,-9.99 16.54,-11.09 z"
   style="fill:#ffffff"
   id="path121" />
                </g>
            </g>
        </g>
    </g>
</svg>
