<?xml version="1.0" encoding="UTF-8" standalone="no"?>
<svg
   width="1706.0118"
   height="1051.1694"
   viewBox="0 0 1706.0118 1051.1694"
   version="1.1"
   xml:space="preserve"
   style="clip-rule:evenodd;fill-rule:evenodd;stroke-linecap:round;stroke-linejoin:round;stroke-miterlimit:1.5"
   id="svg121"
   sodipodi:docname="Birb.svg"
   inkscape:version="1.3.2 (091e20e, 2023-11-25, custom)"
   xmlns:inkscape="http://www.inkscape.org/namespaces/inkscape"
   xmlns:sodipodi="http://sodipodi.sourceforge.net/DTD/sodipodi-0.dtd"
   xmlns="http://www.w3.org/2000/svg"
   xmlns:svg="http://www.w3.org/2000/svg"
   xmlns:serif="http://www.serif.com/"><defs
   id="defs121" /><sodipodi:namedview
   id="namedview121"
   pagecolor="#ffffff"
   bordercolor="#000000"
   borderopacity="0.25"
   inkscape:showpageshadow="2"
   inkscape:pageopacity="0.0"
   inkscape:pagecheckerboard="0"
   inkscape:deskcolor="#d1d1d1"
   inkscape:zoom="0.18429532"
   inkscape:cx="-113.94755"
   inkscape:cy="1147.6146"
   inkscape:window-width="1920"
   inkscape:window-height="1001"
   inkscape:window-x="-9"
   inkscape:window-y="-9"
   inkscape:window-maximized="1"
   inkscape:current-layer="svg121" />
    
    <g
   id="Amsel"
   transform="matrix(1.5349676,0,0,1.5349676,-508.84047,-156.78069)"
   style="clip-rule:evenodd;fill-rule:evenodd;stroke-linecap:round;stroke-linejoin:round;stroke-miterlimit:1.5">
            <g
   id="Beine"
   transform="translate(-573.584,-898.54)">
                <path
   d="m 1459.76,1532.33 22.85,61.47 4.72,34.25 c 1.99,10.12 8.04,16.22 10.83,21.55 2.05,3.92 0.19,9.98 0.74,13.25 0.67,3.96 0.18,4.24 2.21,7.35 1.98,3.05 3.48,5.28 2.94,5.89 -2.51,2.84 -7.32,0.3 -8.83,-2.94 -5.61,-5.14 -4.94,-9.68 -5.27,-16.19 -2.03,7.48 -2.33,12.35 0.86,19.13 1.04,2.22 3.81,5.16 6.67,7.36 5.56,4.29 11.31,1.25 12.46,-3.77 0,0 1.89,-7.13 1.47,-10.95 -0.9,-3.12 -4.61,-8.46 -4.84,-9.76 -0.52,-2.98 0.79,-7.45 2.15,-10.84 2.01,2.24 5.99,4.56 11.52,7.36 1.74,1.74 2.22,5.89 2.94,7.36 l 2.94,5.88 c 0.97,2.94 -0.14,4.41 -2.94,7.36 -5.41,-1.25 -9.31,-11.44 -11.77,-17.66 1.16,9.06 4.81,19.53 11.48,22.07 6.19,0.38 8.82,-2.16 9.12,-10.3 1.53,-1.75 2.32,-4.7 1.47,-10.3 -0.38,-2.47 -2.16,-2.99 -5.89,-6.63 -3.77,-3.68 -6.62,-4.97 -7.35,-8.08 0,0 4.8,0.42 11.77,2.94 2.56,0.93 5.47,3.64 7.36,4.42 3.83,1.58 5.44,1.3 7.35,2.2 2.54,1.21 2.09,4.16 2.95,8.1 -0.72,3.15 -2.4,3.3 -4.42,4.41 -4,-1.54 -4.55,-4.78 -7.36,-10.3 0.02,4.23 -0.69,14.19 4.42,14.71 4.27,0.15 10.23,0.49 13.24,-8.09 -1.06,-7.75 -3.4,-12.37 -10.3,-16.92 -3.62,-2.39 -7.11,-1.72 -9.56,-2.94 -2.03,-1.01 -4.36,-3.38 -5.15,-4.42 0,0 -7.77,-13.23 -20.76,-21.88 l -14.18,-14.17 -19.22,-70.18 z"
   id="path111" />
                <g
   transform="rotate(2.6564001,1568.3293,1577.6393)"
   id="g112">
                    <path
   d="m 1613.23,1524.43 c 29.13,22.67 55.23,38.95 80.37,63.57 5.95,7.44 7.94,11.68 10.63,17.71 1.36,2.79 2.71,4.76 5.14,7.34 3.63,1.74 5.89,2.33 7.64,5.9 1.62,3.31 1.31,2.84 1.87,6.41 1.32,3.3 4.52,3.71 5.19,5.88 0.64,3.2 0.39,6.15 -0.77,8.83 -0.99,2.29 -5.89,2.61 -7.36,1.47 -1.35,-1.04 -2.46,-3.02 -3.36,-5.88 l -1.05,-4.42 2.94,2.94 c 1.12,1.25 2.5,2.3 4.41,2.95 0.63,-1.5 0.81,-2.98 0,-4.42 -2.53,-2.82 -7.47,-5.3 -8.91,-6.8 -0.95,-0.99 -3.85,-5.57 -5,-4.56 -0.55,0.49 -1.24,1.54 -1.35,2.65 -0.12,1.2 1.23,3.72 1.38,5.82 0.15,2.22 -0.28,4.14 -0.47,5.92 -0.28,2.77 1.05,4.63 -0.36,8.12 -1.22,3.03 -2.68,2.92 -4.42,3.57 -3.16,0.78 -5.58,0.22 -7.35,-1.47 -2.98,-2.71 -3.97,-5.7 -3.93,-8.83 0.12,-1.64 0.51,-3.06 0.98,-4.42 l 1.47,5.15 c 0.84,2.44 2.92,5.05 4.42,5.15 2.18,0.15 3.83,0.26 4.41,-1.47 0.52,-1.53 -0.24,-2.8 -1.8,-4.76 -1.52,-1.92 -3.29,-3.13 -3.98,-6.45 -0.52,-2.52 0.36,-5.23 -0.1,-6.45 -0.86,-2.59 -3.74,-7.17 -7.36,-7.35 -1.58,-0.08 -2.97,2.47 -2.43,6.9 0.3,2.54 -0.43,6.65 -0.43,6.65 0.03,-0.86 -0.62,2.92 -2.63,6.75 -1.93,2.62 -1.42,13.86 -11.59,15.75 -3.39,0.63 -7.45,-1.14 -9.41,-4.93 -1.49,-2.89 -1.81,-5.84 -1.47,-8.83 0.7,-4.62 2.31,-8.43 4.42,-11.77 -0.98,4.33 -1.63,8.05 -1.47,10.3 -0.99,6.04 6.06,8.95 9.64,7.18 2.15,-2.44 4.74,-7.95 3.6,-13.06 -1.55,-2.12 -2.96,-4.45 -2.94,-8.83 0.23,-2.61 -2.85,-33.29 -1.28,-39.47 -17,-16.95 -40.25,-32.77 -66.44,-49.72 z"
   id="path112" />
                </g>
                <path
   d="m 1455.12,1491.73 c 0,5.51 -2.72,10.56 -2.36,21.26 0.25,7.73 1.12,14.77 3.54,20.08 1.77,3.9 7.09,2.36 7.09,2.36 0,0 10.14,5.64 15.35,3.55 5.64,-2.27 3.54,-28.35 3.54,-28.35 0,0 -1.13,-5.09 0,-7.21 3.76,-7.04 10.63,-6.96 10.63,-6.96 l -40.15,-16.54 c 0,0 2.36,8.25 2.36,11.81 z"
   id="path113" />
                <path
   d="m 1583.86,1492.91 c 0,0 -0.92,10.37 1.18,22.44 1.43,8.25 15.73,22.9 21.26,22.45 5.85,-0.48 10.63,-13 10.63,-13 1.07,-3.29 -0.91,-7.91 0,-16.53 0.57,-5.42 3.25,-11.23 7.09,-15.36 5.11,-5.51 23.62,-17.71 23.62,-17.71 z"
   id="path114" />
            </g>
            <g
   id="Schnabel"
   transform="translate(-573.584,-898.54)">
                <g
   transform="translate(-2.3622)"
   id="g115">
                    <path
   d="m 1921.06,1039.09 c 1.25,-0.12 2.51,0.01 3.77,0.06 2.69,0.09 5.34,-0.29 7.75,1.11 1.42,0.82 -0.53,3.13 -1.18,3.54 -1.69,1.07 -3.63,1.94 -4.36,2.14 -0.25,0.07 -0.47,0.1 -1.18,0.15 -2.19,0.14 0.21,-0.14 0.39,-1.25 0.17,-1.01 0.23,-2.16 -1.18,-2.04 -2.14,0.17 -6.77,-0.11 -6,2.33 0.54,1.73 -0.83,0.03 -0.96,-0.45 -0.6,-2.16 0.42,-5.33 2.95,-5.59 z"
   id="path115" />
                </g>
                <path
   d="m 1916.12,1044.43 c 0.55,3.18 3.34,3.5 9.22,0.81"
   style="fill:none;stroke:#000000;stroke-width:1.04px"
   id="path116" />
                <path
   id="Schnabel1"
   serif:id="Schnabel"
   d="m 1848.42,1078.35 53.16,-49.61 c 55.64,-6.62 108.75,0.05 113.38,18.9 -0.65,1.08 -6.25,1.98 -10.04,3.54 -1.29,0.53 1.12,1.43 -3.54,2.95 -16.09,5.25 -52.27,9.9 -76.48,17.13 -10.86,3.24 -18.13,7.86 -22.14,11.81 -6.78,6.67 -41.01,-3.85 -54.34,-4.72 z"
   style="fill:none;stroke:#000000;stroke-width:3.11px" />
                <path
   d="m 1836.61,1083.07 c 58.6,-25.01 113.61,-38.59 178.35,-35.43"
   style="fill:none;stroke:#000000;stroke-width:2.86px"
   id="path117" />
            </g>
            <g
   id="Körper"
   transform="translate(-573.584,-898.54)">
                <path
   d="m 1818.9,1000.68 c -97.34,0.23 -122,60.34 -165.36,91.84 -80.54,58.52 -84.6,42.2 -165.35,64.96 -40.64,11.45 -101.36,43.55 -141.63,52.46 -11.68,2.58 -36.13,0.51 -41.84,0 -77.04,-6.87 -234.08,-130.4 -332.673,-131.59 -5.747,-0.07 -2.162,8.53 -5.905,8.26 -10.234,-0.73 -30.185,-2.5 -42.52,-1.18 -5.615,0.61 -1.677,3.89 -12.992,7.09 -5.644,1.6 -8.454,13.2 -1.181,17.72 74.672,46.35 278.701,143.21 293.111,154.55 12.48,9.82 23.88,21.14 33.92,33.44 23.98,29.36 72.89,97.86 106.06,123.27 58.45,44.78 144.19,88 216.52,80.84 18.45,-1.83 33.1,-4.65 47.24,-8.94 14.99,-4.54 29.43,-10.74 47.24,-19.17 73.97,-35.01 197.53,-139.32 188.98,-278.49 -0.17,-2.7 -1.17,-24.04 7.17,-35.5 12.65,-17.39 32.99,-48.07 40.07,-60.63 7.47,-13.24 27.46,-22.09 34.26,-27.17 8.01,-5.99 -41.17,11.4 -38.98,8.27 2.98,-4.27 9.06,-6.72 10.63,-9.45 3.18,-5.53 -41.22,7 -41.34,4.72 -0.17,-3.19 19.74,-17.63 55.51,-27.16 2.54,-0.68 -3.15,-16.78 -7.08,-20.08 -26.17,-21.94 -54.82,-28.13 -83.86,-28.06 z"
   id="path118" />
            </g>
            <g
   id="Auge"
   transform="translate(-573.584,-898.54)">
                <g
   transform="translate(1.76251,-0.0514979)"
   id="g119">
                    <path
   d="m 1807.09,1029.46 c 7.21,-0.91 16.24,3.56 23.04,9.96 4.42,4.17 6.46,11.68 6.49,16.54 0.03,4.33 -3.44,8.6 -8.26,11.22 -3.03,1.65 -4.22,3.51 -11.82,4.08 -6.14,0.46 -12.9,-1.59 -16.53,-4.08 -3.64,-2.5 -8.43,-5.97 -10.93,-12.4 -1.46,-3.79 -1.28,-10.1 1.47,-14.23 3.87,-5.81 7.84,-9.99 16.54,-11.09 z"
   style="fill:#ffffff"
   id="path119" />
                </g>
                <g
   transform="matrix(0.828738,0,0,0.815077,311.581,194.179)"
   id="g120">
                    <path
   d="m 1807.09,1029.46 c 7.21,-0.91 16.24,3.56 23.04,9.96 4.42,4.17 6.46,11.68 6.49,16.54 0.03,4.33 -3.44,8.6 -8.26,11.22 -3.03,1.65 -4.22,3.51 -11.82,4.08 -6.14,0.46 -12.9,-1.59 -16.53,-4.08 -3.64,-2.5 -9.74,-8 -10.77,-13.57 -1.36,-7.33 0.42,-10.43 2.49,-13.4 2.22,-3.19 6.66,-9.65 15.36,-10.75 z"
   id="path120" />
                </g>
                <g
   transform="matrix(0.0590082,-0.0780689,0.076782,0.0580355,1622.86,1123.13)"
   id="g121">
                    <path
   d="m 1807.09,1029.46 c 7.21,-0.91 16.24,3.56 23.04,9.96 4.42,4.17 6.46,11.68 6.49,16.54 0.03,4.33 -3.44,8.6 -8.26,11.22 -3.03,1.65 -4.22,3.51 -11.82,4.08 -6.14,0.46 -12.9,-1.59 -16.53,-4.08 -3.64,-2.5 -10.13,-9.08 -11.22,-13 -1.09,-3.91 -0.05,-11.03 1.76,-13.63 2.22,-3.19 7.84,-9.99 16.54,-11.09 z"
   style="fill:#ffffff"
   id="path121" />
                </g>
            </g>
        </g>
</svg>
