<?xml version="1.0" encoding="UTF-8" standalone="no"?>
<!-- Created with Inkscape (http://www.inkscape.org/) -->

<svg
   width="492.27283"
   height="65.330292"
   viewBox="0 0 130.24722 17.285312"
   version="1.1"
   id="svg1"
   xmlns="http://www.w3.org/2000/svg"
   xmlns:svg="http://www.w3.org/2000/svg"
   xmlns:rdf="http://www.w3.org/1999/02/22-rdf-syntax-ns#"
   xmlns:cc="http://creativecommons.org/ns#"
   xmlns:dc="http://purl.org/dc/elements/1.1/">
  <title
     id="title6">Blackbird Name Logo</title>
  <defs
     id="defs1" />
  <g
     id="layer1"
     transform="translate(-0.01172119,-0.42708449)">
    <path
       style="display:inline;fill:#050505;fill-opacity:1;stroke:none;stroke-width:0.223564;stroke-dasharray:none;stroke-opacity:1"
       d="M 0.01172171,15.922155 H 130.25891"
       id="path4" />
    <path
       style="display:inline;fill:#050505;fill-opacity:1;stroke:none;stroke-width:0;stroke-dasharray:none;stroke-opacity:1"
       d="M 106.90357,9.1458322 H 126.4835"
       id="path5" />
    <path
       style="display:inline;fill:#050505;fill-opacity:1;stroke:none;stroke-width:0.1;stroke-dasharray:none;stroke-opacity:1"
       d="M 105.36618,0.48255121 H 5.4570295"
       id="path6" />
    <path
       d="m 81.345042,11.132162 q 0,-0.580078 -0.544922,-0.966797 -0.536133,-0.3867185 -1.458984,-0.3867185 -0.351563,0 -0.448243,0.026367 -0.09668,0.026367 -0.09668,0.1142578 v 2.5664067 q 0,0.07031 0.04394,0.08789 0.05273,0.01758 0.28125,0.01758 0.993164,0 1.608399,-0.404296 0.615234,-0.404297 0.615234,-1.054688 z m -3.65625,-1.6611327 q 0.448242,0 1.142578,-0.043945 0.694336,-0.052734 0.993164,-0.052734 1.151367,0 1.757813,0.5449219 0.518554,0.4746098 0.518554,1.1689458 v 0.0088 q -0.0088,0.483398 -0.263672,0.861328 -0.254882,0.369141 -0.65039,0.580078 -0.650391,0.369141 -2.021485,0.369141 h -0.272461 q -0.114257,0 -0.114257,0.140625 v 1.828125 q 0,0.158203 0.05273,0.237304 0.06152,0.07031 0.228516,0.0791 0.799804,0.03516 0.852539,0.05273 0.123047,0.03516 0.123047,0.202149 v 0.0088 q 0,0.210937 -0.175782,0.210937 l -0.175781,-0.01758 q -0.175781,-0.0088 -0.474609,-0.02637 -0.298828,-0.0088 -0.588867,-0.0088 -0.298829,0 -0.597657,0.0088 -0.298828,0.01758 -0.474609,0.02637 l -0.175781,0.01758 q -0.184571,0 -0.184571,-0.210937 0,-0.03516 0,-0.06152 0.0088,-0.03516 0.0088,-0.05273 0.0088,-0.02637 0.02637,-0.04395 0.01758,-0.01758 0.02637,-0.02637 0.01758,-0.01758 0.04394,-0.02637 0.03516,-0.0088 0.05273,-0.0088 0.02637,-0.0088 0.07031,-0.0088 0.05273,-0.0088 0.08789,-0.0088 0.04395,-0.0088 0.114257,-0.0088 0.07031,-0.0088 0.131836,-0.01758 0.149414,-0.01758 0.19336,-0.07031 0.05273,-0.06152 0.05273,-0.175781 v -4.816406 q 0,-0.07031 -0.0088,-0.105469 0,-0.043945 -0.05273,-0.079101 -0.04395,-0.043945 -0.131836,-0.043945 h -0.325196 q -0.06152,0 -0.09668,-0.00879 -0.03516,-0.00879 -0.0791,-0.061523 -0.03516,-0.061523 -0.03516,-0.1669921 0,-0.1933594 0.193359,-0.1933594 z m 4.93112,3.3662107 q 0,-0.421875 0.351562,-0.738281 0.360352,-0.325195 0.94043,-0.325195 0.123047,0 0.219727,0.01758 0.105468,0.0088 0.158203,0.01758 0.06152,0.0088 0.07031,0.0088 0.03516,0 0.105469,-0.04395 0.07031,-0.04395 0.123047,-0.04395 0.105469,0 0.140625,0.166993 0.02637,0.131835 0.07031,0.36914 0.04395,0.237305 0.07031,0.404297 0.03516,0.158203 0.03516,0.175781 0,0.140625 -0.210937,0.140625 -0.08789,0 -0.131836,-0.06152 -0.03516,-0.07031 -0.07031,-0.19336 -0.03516,-0.123046 -0.0791,-0.18457 -0.09668,-0.131836 -0.316407,-0.237305 -0.210937,-0.114257 -0.421875,-0.114257 -0.237304,0 -0.404297,0.131836 -0.166992,0.131836 -0.166992,0.342773 0,0.448242 0.711914,0.650391 0.08789,0.02637 0.263672,0.07031 0.175781,0.03516 0.272461,0.06152 0.09668,0.02637 0.228516,0.0791 0.140625,0.05274 0.246094,0.131836 0.105468,0.0791 0.202148,0.193359 0.272461,0.316407 0.272461,0.711915 0,0.474609 -0.37793,0.84375 -0.36914,0.36914 -0.993164,0.36914 -0.342773,0 -0.703125,-0.114258 -0.351562,-0.114257 -0.536133,-0.333984 -0.105468,-0.114258 -0.105468,-0.307617 0,-0.140625 -0.0088,-0.316406 0,-0.175782 0,-0.219727 0,-0.175781 0.02637,-0.228516 0.03516,-0.05273 0.131836,-0.05273 0.09668,0 0.123047,0.0791 0.02637,0.0791 0.03516,0.237304 0.0088,0.149414 0.05273,0.246094 0.0791,0.175781 0.369141,0.351562 0.298828,0.175782 0.65039,0.175782 0.307618,0 0.518555,-0.166992 0.210938,-0.166993 0.210938,-0.430665 0,-0.166992 -0.0791,-0.290039 -0.07031,-0.131836 -0.228516,-0.210937 -0.158203,-0.08789 -0.254882,-0.123047 -0.09668,-0.04395 -0.307618,-0.09668 l -0.210937,-0.04394 Q 82.619912,13.645834 82.619912,12.83724 Z m 3.718229,4.78125 q -0.149414,0 -0.254883,-0.09668 -0.09668,-0.09668 -0.09668,-0.228516 0,-0.158203 0.114257,-0.28125 0.114258,-0.114258 0.333985,-0.254883 0.228515,-0.140625 0.342773,-0.246094 0.19336,-0.175781 0.395508,-0.518554 0.210938,-0.333985 0.210938,-0.509766 0,-0.228516 -1.001954,-2.232422 -0.413085,-0.808594 -0.492187,-0.922851 -0.05273,-0.0791 -0.149414,-0.08789 -0.08789,-0.01758 -0.140625,-0.04395 -0.05273,-0.03516 -0.05273,-0.166993 0,-0.149414 0.123046,-0.149414 0.01758,0 0.105469,0.0088 0.08789,0 0.246094,0.0088 0.166992,0.0088 0.351562,0.0088 0.184571,0 0.342774,-0.0088 0.166992,-0.0088 0.254883,-0.0088 0.09668,-0.0088 0.114257,-0.0088 0.123047,0 0.123047,0.140625 0,0.03516 -0.0088,0.06152 0,0.01758 0,0.03516 0,0.01758 -0.01758,0.03516 -0.0088,0.0088 -0.01758,0.02637 0,0.0088 -0.02637,0.01758 -0.01758,0 -0.02637,0.0088 -0.0088,0 -0.04395,0.0088 -0.03516,0 -0.05273,0.0088 -0.01758,0 -0.07031,0.0088 -0.04395,0 -0.07031,0 -0.140625,0.01758 -0.140625,0.123047 0,0.04394 0.105469,0.342773 0.114258,0.290039 0.351562,0.817383 0.246094,0.527344 0.527344,1.054688 0,0.05273 0.06152,0.05273 0.02637,0 0.04395,-0.01758 0.01758,-0.01758 0.02637,-0.03516 0.0088,-0.02637 0.01758,-0.03516 0.738281,-1.766601 0.738281,-2.118164 0,-0.05273 -0.01758,-0.08789 -0.0088,-0.03516 -0.02637,-0.05274 -0.01758,-0.02637 -0.06152,-0.03516 -0.04395,-0.0088 -0.0791,-0.0088 -0.03516,-0.0088 -0.114258,-0.0088 -0.0791,0 -0.131836,-0.0088 -0.166992,-0.01758 -0.166992,-0.175781 0,-0.158204 0.166992,-0.158204 0.01758,0 0.105469,0.0088 0.08789,0 0.246094,0.0088 0.166992,0.0088 0.351562,0.0088 h 0.0088 q 0.184571,0 0.333985,-0.0088 0.158203,-0.0088 0.246093,-0.0088 0.08789,-0.0088 0.105469,-0.0088 0.105469,0 0.105469,0.184571 0,0.09668 -0.05273,0.123047 -0.05274,0.01758 -0.298829,0.04395 -0.08789,0.0088 -0.123046,0.06152 -0.02637,0.05274 -0.131836,0.333985 -0.210938,0.597656 -0.457032,1.195312 -0.870117,2.126953 -1.608398,3.243164 -0.360352,0.553711 -0.667969,0.553711 z m 5.396941,-1.845703 q -0.773437,0 -1.256836,-0.544922 -0.474609,-0.544922 -0.474609,-1.388672 0,-0.922851 0.536133,-1.49414 0.536133,-0.580078 1.397461,-0.580078 0.474609,0 0.808594,0.202148 0.333984,0.202148 0.333984,0.46582 0,0.149414 -0.105469,0.246094 -0.105469,0.08789 -0.254883,0.08789 -0.193359,0 -0.509765,-0.263672 -0.307617,-0.272461 -0.580078,-0.272461 -0.413086,0 -0.720704,0.413086 -0.307617,0.413086 -0.307617,0.975586 0,0.641601 0.404297,1.116211 0.413086,0.46582 1.019531,0.46582 0.237305,0 0.430664,-0.07031 0.202149,-0.0791 0.298829,-0.166993 0.105468,-0.09668 0.202148,-0.166992 0.105469,-0.0791 0.166992,-0.0791 0.06152,0 0.105469,0.04395 0.04394,0.04394 0.04394,0.105469 0,0.07031 -0.05273,0.140625 -0.237305,0.325195 -0.624024,0.544922 -0.386718,0.219726 -0.861328,0.219726 z m 4.315885,-0.228516 v -0.06152 q 0,-0.04395 0,-0.07031 0.0088,-0.02637 0.02637,-0.04395 0.02637,-0.02637 0.04395,-0.03516 0.02637,-0.0088 0.07031,-0.01758 0.05273,-0.0088 0.08789,-0.0088 0.04395,-0.0088 0.123046,-0.01758 0.08789,-0.0088 0.158204,-0.01758 0.131835,-0.01758 0.158203,-0.140625 0.02637,-0.123047 0.02637,-0.641602 0,-0.878906 -0.114258,-1.265625 -0.105469,-0.395508 -0.316406,-0.624023 -0.325196,-0.325196 -0.729492,-0.325196 -0.272461,0 -0.509766,0.149414 -0.237305,0.140625 -0.272461,0.290039 -0.0088,0.03516 -0.0088,0.123047 0,2.16211 0.01758,2.223633 0.02637,0.131836 0.131836,0.18457 0.114258,0.05274 0.228516,0.05274 0.123047,-0.0088 0.219726,0.03516 0.09668,0.04394 0.09668,0.149414 0,0.18457 -0.105469,0.18457 -0.0088,0 -0.05273,-0.0088 -0.04395,0 -0.123047,-0.0088 -0.0791,-0.0088 -0.175781,-0.01758 -0.09668,-0.0088 -0.228516,-0.01758 -0.123047,0 -0.246094,0 -0.131836,0 -0.263672,0 -0.123046,0.0088 -0.228515,0.01758 -0.09668,0.0088 -0.175781,0.01758 -0.0791,0.0088 -0.123047,0.0088 -0.04395,0.0088 -0.05273,0.0088 -0.105468,0 -0.105468,-0.175781 0,-0.105469 0.05273,-0.131836 0.05273,-0.02637 0.272461,-0.07031 0.09668,-0.01758 0.149414,-0.07031 0.05273,-0.06152 0.05273,-0.09668 0.0088,-0.04395 0.01758,-0.140625 0.04395,-1.362304 0.04395,-2.469726 v -0.03516 q 0,-1.995118 -0.03516,-2.206055 -0.01758,-0.114258 -0.333984,-0.18457 -0.307617,-0.07031 -0.307617,-0.1933597 0,-0.09668 0.149414,-0.1757813 0.993164,-0.571289 1.02832,-0.571289 h 0.0088 q 0.140625,0 0.140625,0.1669922 l -0.0088,2.7773438 q 0,0.06152 0.04395,0.06152 0.0088,0 0.149414,-0.0791 0.140625,-0.08789 0.386718,-0.166992 0.254883,-0.08789 0.527344,-0.08789 0.84375,0 1.204102,0.817383 0.140625,0.333984 0.18457,0.755859 0.05273,0.413086 0.0791,1.625977 0,0.123047 0.04394,0.18457 0.04394,0.06152 0.09668,0.0791 0.05273,0.0088 0.193359,0.02637 0.149414,0.01758 0.149414,0.166992 0,0.193359 -0.114258,0.193359 -0.0088,0 -0.05273,-0.0088 -0.04395,0 -0.123047,-0.0088 -0.0791,-0.0088 -0.175781,-0.01758 -0.08789,-0.0088 -0.219727,-0.01758 -0.131836,0 -0.254883,0 -0.123047,0 -0.246093,0 -0.123047,0.0088 -0.219727,0.01758 -0.09668,0.0088 -0.175781,0.01758 -0.07031,0.0088 -0.114258,0.0088 -0.04394,0.0088 -0.05273,0.0088 -0.09668,0 -0.09668,-0.123047 z m 2.311981,-1.766601 q 0,-0.905274 0.571289,-1.476563 0.580078,-0.571289 1.371093,-0.571289 0.80859,0 1.34473,0.580078 0.53613,0.57129 0.53613,1.467774 0,0.922851 -0.5625,1.467773 -0.55371,0.536133 -1.35352,0.536133 -0.843745,0 -1.379878,-0.580078 -0.527344,-0.580078 -0.527344,-1.423828 z m 1.037109,1.116211 q 0.342774,0.448242 0.896483,0.448242 0.55371,0 0.91406,-0.448242 0.36036,-0.457031 0.36036,-1.081055 0,-0.703125 -0.4043,-1.177734 -0.39551,-0.483399 -0.92285,-0.483399 -0.439456,0 -0.817385,0.386719 -0.369141,0.386719 -0.369141,1.195313 0,0.703125 0.342773,1.160156 z m 3.463343,-2.566406 q -0.18457,0 -0.18457,-0.114258 0,-0.05274 0.12305,-0.158203 0.13184,-0.114258 0.36914,-0.369141 0.23731,-0.263672 0.44824,-0.615234 0.0967,-0.166993 0.17578,-0.166993 0.12305,0 0.12305,0.149415 0,0.06152 -0.009,0.316406 0,0.254883 0,0.316406 0,0.175781 0.17578,0.175781 h 0.8086 q 0.0176,0 0.0439,0.0088 0.0264,0 0.0352,0 0.22851,0 0.22851,0.166993 0,0.166992 -0.0791,0.263671 -0.0439,0.04395 -0.1582,0.04395 h -1.05469 q -0.0879,0 -0.0879,0.08789 0,0.729493 -0.009,1.212891 0,0.483398 -0.009,0.650391 0,0.166992 0,0.237304 0,0.667969 0.46582,0.667969 0.18457,0 0.38672,-0.131836 0.20215,-0.140625 0.35157,-0.272461 0.1582,-0.140625 0.2373,-0.140625 0.0703,0 0.11426,0.05274 0.0527,0.05273 0.0527,0.114257 0,0.05274 -0.0615,0.149414 -0.71192,0.808594 -1.25684,0.808594 -0.32519,0 -0.59765,-0.254883 -0.26368,-0.263672 -0.30762,-0.834961 -0.009,-0.09668 -0.009,-0.290039 0,-0.219726 0.0176,-1.063476 0.0176,-0.852539 0.0176,-0.931641 0,-0.0791 -0.0615,-0.0791 z m 5.39694,3.216796 v -0.06152 q 0,-0.04395 0,-0.07031 0.009,-0.02637 0.0264,-0.04395 0.0264,-0.02637 0.0439,-0.03516 0.0264,-0.0088 0.0703,-0.01758 0.0527,-0.0088 0.0879,-0.0088 0.0439,-0.0088 0.12305,-0.01758 0.0879,-0.0088 0.1582,-0.01758 0.13184,-0.01758 0.1582,-0.140625 0.0264,-0.123047 0.0264,-0.641602 0,-0.878906 -0.11426,-1.265625 -0.10547,-0.395508 -0.3164,-0.624023 -0.3252,-0.325196 -0.7295,-0.325196 -0.27246,0 -0.50976,0.149414 -0.23731,0.140625 -0.27246,0.290039 -0.009,0.03516 -0.009,0.123047 0,2.16211 0.0176,2.223633 0.0264,0.131836 0.13183,0.18457 0.11426,0.05274 0.22852,0.05274 0.12304,-0.0088 0.21972,0.03516 0.0967,0.04394 0.0967,0.149414 0,0.18457 -0.10546,0.18457 -0.009,0 -0.0527,-0.0088 -0.0439,0 -0.12305,-0.0088 -0.0791,-0.0088 -0.17578,-0.01758 -0.0967,-0.0088 -0.22851,-0.01758 -0.12305,0 -0.2461,0 -0.13183,0 -0.26367,0 -0.12305,0.0088 -0.22851,0.01758 -0.0967,0.0088 -0.17579,0.01758 -0.0791,0.0088 -0.12304,0.0088 -0.0439,0.0088 -0.0527,0.0088 -0.10547,0 -0.10547,-0.175781 0,-0.105469 0.0527,-0.131836 0.0527,-0.02637 0.27246,-0.07031 0.0967,-0.01758 0.14941,-0.07031 0.0527,-0.06152 0.0527,-0.09668 0.009,-0.04395 0.0176,-0.140625 0.0439,-1.362304 0.0439,-2.469726 v -0.03516 q 0,-1.995118 -0.0352,-2.206055 -0.0176,-0.114258 -0.33399,-0.18457 -0.30762,-0.07031 -0.30762,-0.1933597 0,-0.09668 0.14942,-0.1757813 0.99316,-0.571289 1.02832,-0.571289 h 0.009 q 0.14062,0 0.14062,0.1669922 l -0.009,2.7773438 q 0,0.06152 0.0439,0.06152 0.009,0 0.14941,-0.0791 0.14063,-0.08789 0.38672,-0.166992 0.25488,-0.08789 0.52735,-0.08789 0.84375,0 1.2041,0.817383 0.14062,0.333984 0.18457,0.755859 0.0527,0.413086 0.0791,1.625977 0,0.123047 0.0439,0.18457 0.0439,0.06152 0.0967,0.0791 0.0527,0.0088 0.19336,0.02637 0.14942,0.01758 0.14942,0.166992 0,0.193359 -0.11426,0.193359 -0.009,0 -0.0527,-0.0088 -0.0439,0 -0.12305,-0.0088 -0.0791,-0.0088 -0.17578,-0.01758 -0.0879,-0.0088 -0.21973,-0.01758 -0.13184,0 -0.25488,0 -0.12305,0 -0.2461,0 -0.12304,0.0088 -0.21972,0.01758 -0.0967,0.0088 -0.17578,0.01758 -0.0703,0.0088 -0.11426,0.0088 -0.044,0.0088 -0.0527,0.0088 -0.0967,0 -0.0967,-0.123047 z m 2.32077,-1.784179 q 0,-0.914063 0.4834,-1.467774 0.4834,-0.553711 1.17773,-0.553711 0.44825,0 0.86133,0.246094 0.41309,0.246094 0.68555,0.615235 0.0703,0.08789 0.0703,0.193359 v 0.01758 q 0,0.0791 -0.0439,0.140625 -0.0439,0.06152 -0.14063,0.114258 -0.0967,0.04394 -0.16699,0.07031 -0.0703,0.02637 -0.21094,0.07031 -0.13183,0.04394 -0.16699,0.05273 -1.83692,0.632813 -1.88086,0.65918 -0.0352,0.01758 -0.0352,0.05273 0,0.05274 0.0264,0.175782 0.0264,0.123046 0.11426,0.325195 0.0967,0.202148 0.22851,0.37793 0.14063,0.166992 0.39551,0.298828 0.25488,0.123047 0.57129,0.123047 0.61524,0 1.07227,-0.439454 0.12304,-0.123046 0.20214,-0.123046 0.14942,0 0.14942,0.131835 0,0.05274 -0.0703,0.140625 -0.28125,0.369141 -0.70313,0.588868 -0.42187,0.210937 -0.88769,0.210937 -0.29883,0 -0.58887,-0.105469 -0.28125,-0.105468 -0.55371,-0.325195 -0.26367,-0.219726 -0.43067,-0.632812 -0.1582,-0.413086 -0.1582,-0.958008 z m 2.4082,-0.931641 q 0,-0.114258 -0.30761,-0.351562 -0.30762,-0.246094 -0.6416,-0.246094 -0.39551,0 -0.63282,0.342773 -0.22851,0.342774 -0.22851,0.94043 0,0.07031 0.0439,0.07031 0.0176,0 0.83496,-0.316407 0.82618,-0.325195 0.85254,-0.333984 0.0791,-0.04395 0.0791,-0.105469 z m 2.49656,-0.606445 q 0.009,0 0.19335,-0.123047 0.18457,-0.131836 0.41309,-0.28125 0.22852,-0.149414 0.33398,-0.18457 0.10547,-0.03516 0.26368,-0.03516 0.24609,0 0.47461,0.114258 0.22851,0.105469 0.22851,0.28125 v 0.0088 q 0,0.05274 -0.0352,0.105469 -0.0352,0.05273 -0.0615,0.0791 -0.0264,0.02637 -0.0879,0.0791 l -0.0615,0.05274 q -0.009,0 -0.0967,0.07031 -0.0791,0.06152 -0.14063,0.08789 -0.0615,0.02637 -0.13183,0.02637 -0.10547,0 -0.2461,-0.114258 -0.13183,-0.114258 -0.29004,-0.114258 -0.19335,0 -0.41308,0.140625 -0.21973,0.140625 -0.28125,0.228516 -0.0352,0.05273 -0.0352,0.166992 v 2.15332 0.03516 q 0,0.254882 0.21973,0.272461 0.0879,0.0088 0.2373,0.01758 0.27246,0.01758 0.34278,0.05273 0.0791,0.02637 0.0791,0.149414 0,0.175781 -0.12305,0.175781 -0.009,0 -0.0615,-0.0088 -0.0439,0 -0.13184,-0.0088 -0.0879,-0.0088 -0.19336,-0.01758 -0.10547,-0.0088 -0.25488,-0.01758 -0.14062,0 -0.27246,0 -0.14063,0 -0.28125,0 -0.14063,0.0088 -0.25488,0.01758 -0.10547,0.0088 -0.19336,0.01758 -0.0791,0.0088 -0.13184,0.0088 -0.0439,0.0088 -0.0527,0.0088 -0.14942,0 -0.14942,-0.149414 0,-0.0791 0.0352,-0.114258 0.0352,-0.04395 0.0703,-0.05273 0.0352,-0.01758 0.13184,-0.02637 0.10547,-0.01758 0.16699,-0.03516 0.16699,-0.03516 0.16699,-0.210938 v -2.390625 q 0,-0.05273 -0.009,-0.0791 -0.009,-0.03516 -0.0527,-0.07031 -0.0352,-0.04394 -0.0791,-0.07031 -0.0352,-0.02637 -0.14942,-0.105469 -0.11426,-0.0791 -0.21093,-0.149414 -0.0264,-0.02637 -0.0352,-0.06152 0,-0.03516 0.36035,-0.202148 0.3252,-0.158203 0.58887,-0.290039 0.009,0 0.0264,-0.0088 0.0352,-0.01758 0.0527,-0.01758 0.10547,0 0.10547,0.18457 v 0.360352 q 0,0.04395 0.0264,0.04395 z m 2.31198,0.290039 q 0,-0.263672 0.42187,-0.527344 0.43067,-0.272461 0.95801,-0.272461 0.16699,0 0.34277,0.03516 0.17578,0.03516 0.39551,0.123047 0.22852,0.08789 0.37793,0.307618 0.1582,0.210937 0.19336,0.518554 0.0176,0.210938 0.0176,0.325196 v 1.77539 q 0,0.158203 0.0615,0.254883 0.0615,0.09668 0.12305,0.123047 0.0615,0.01758 0.12304,0.01758 0.12305,0 0.19336,-0.07031 0.0703,-0.0791 0.10547,-0.149414 0.0439,-0.0791 0.0967,-0.0791 0.0791,0 0.0791,0.114258 0,0.210937 -0.19336,0.46582 -0.19335,0.246094 -0.50097,0.246094 -0.11426,0 -0.21973,-0.03516 -0.10547,-0.03516 -0.17578,-0.08789 -0.0703,-0.06152 -0.13184,-0.114258 -0.0527,-0.05273 -0.0879,-0.09668 l -0.0264,-0.03516 q -0.009,0 -0.009,0 0,-0.0088 -0.009,-0.0088 -0.0176,0 -0.0264,0.01758 -0.009,0.01758 -0.0615,0.07031 -0.0527,0.05273 -0.14942,0.114257 -0.3955,0.246094 -0.83496,0.246094 -0.45703,0 -0.74707,-0.290039 -0.28125,-0.290039 -0.28125,-0.711914 v -0.0088 q 0,-0.509766 0.37793,-0.799805 0.13184,-0.105468 0.34278,-0.18457 0.21093,-0.08789 0.41308,-0.131836 0.21094,-0.04394 0.39551,-0.07031 0.18457,-0.03516 0.30762,-0.04395 l 0.12304,-0.0088 q 0.0703,-0.01758 0.0703,-0.123047 V 13.09209 q 0,-0.46582 -0.21094,-0.720703 -0.21973,-0.237305 -0.52735,-0.237305 -0.4746,0 -0.77343,0.597656 -0.0791,0.105469 -0.19336,0.105469 -0.14063,0 -0.25488,-0.08789 -0.10547,-0.08789 -0.10547,-0.237305 z m 1.27441,2.786133 q 0.20215,0 0.37793,-0.08789 0.18457,-0.08789 0.25488,-0.158203 0.0703,-0.07031 0.11426,-0.123047 0.0527,-0.07031 0.0527,-0.202148 v -0.219727 -0.369141 q 0,-0.166992 -0.0176,-0.210937 -0.009,-0.05273 -0.0703,-0.05273 -0.21972,0 -0.55371,0.07031 -0.32519,0.07031 -0.51855,0.254883 -0.21094,0.175781 -0.21094,0.492187 0,0.333985 0.18457,0.492188 0.12305,0.114258 0.38672,0.114258 z m 4.64987,0.07031 q 0.57129,0 0.99316,-0.430664 0.43067,-0.430664 0.43067,-1.081055 0,-0.641601 -0.43067,-1.11621 -0.42187,-0.47461 -0.96679,-0.47461 -0.33399,0 -0.59766,0.19336 -0.25488,0.175781 -0.25488,0.55371 v 1.933594 q 0,0.175781 0.22851,0.28125 0.28125,0.140625 0.59766,0.140625 z m 0.32519,-3.629883 q 0.73829,0 1.21289,0.571289 0.4834,0.57129 0.4834,1.371094 0,0.887696 -0.59765,1.441406 -0.59766,0.553711 -1.53809,0.553711 -0.0879,0 -0.17578,-0.0088 -0.0879,0 -0.1582,-0.0088 -0.0703,-0.0088 -0.12305,-0.01758 -0.0527,-0.0088 -0.0879,-0.0088 l -0.0352,-0.0088 q -0.0615,0 -0.0615,0.09668 v 1.239258 0.02637 q 0,0.210937 0.20215,0.228515 0.0879,0.0088 0.20215,0.01758 0.12304,0.0088 0.17578,0.0088 0.0527,0.0088 0.12304,0.01758 0.0703,0.0088 0.0967,0.02637 0.0352,0.01758 0.0615,0.04395 0.0352,0.02637 0.0439,0.06152 0.009,0.04395 0.009,0.105468 0,0.131836 -0.10547,0.131836 -0.0176,0 -0.13183,-0.0088 -0.10547,-0.0088 -0.29883,-0.01758 -0.19336,-0.0088 -0.41309,-0.0088 -0.29004,0 -0.58008,0.01758 -0.28125,0.01758 -0.44824,0.03516 l -0.16699,0.01758 q -0.14941,0 -0.14941,-0.175782 0,-0.02637 0,-0.05273 0.009,-0.01758 0.0176,-0.03516 0.0176,-0.0088 0.0264,-0.02637 0.009,-0.0088 0.0352,-0.02637 0.0352,-0.0088 0.0527,-0.01758 0.0264,0 0.0703,-0.01758 0.0527,-0.0088 0.0879,-0.01758 0.0439,0 0.11425,-0.01758 0.0703,-0.01758 0.12305,-0.02637 0.19336,-0.03516 0.19336,-0.246094 v -4.157227 -0.01758 q 0,-0.140625 -0.11426,-0.18457 -0.12305,-0.05274 -0.29883,-0.131836 -0.22851,-0.09668 -0.27246,-0.123047 -0.0352,-0.02637 -0.0352,-0.06152 v -0.0088 q 0,-0.03516 0.3955,-0.263672 0.31641,-0.184571 0.57129,-0.333985 0.0264,-0.01758 0.0527,-0.02637 0.0264,-0.01758 0.0352,-0.02637 0.0176,-0.01758 0.0264,-0.01758 0.0176,-0.0088 0.0352,-0.0088 0.0703,0 0.0703,0.105468 v 0.527344 q 0,0.05274 0.0352,0.05274 l 0.11425,-0.123047 q 0.11426,-0.123047 0.36036,-0.263672 0.24609,-0.149414 0.55371,-0.19336 0.0703,-0.0088 0.21093,-0.0088 z m 2.82175,5.879883 q -0.14941,0 -0.25488,-0.09668 -0.0967,-0.09668 -0.0967,-0.228516 0,-0.158203 0.11426,-0.28125 0.11425,-0.114258 0.33398,-0.254883 0.22852,-0.140625 0.34277,-0.246094 0.19336,-0.175781 0.39551,-0.518554 0.21094,-0.333985 0.21094,-0.509766 0,-0.228516 -1.00195,-2.232422 -0.41309,-0.808594 -0.49219,-0.922851 -0.0527,-0.0791 -0.14942,-0.08789 -0.0879,-0.01758 -0.14062,-0.04395 -0.0527,-0.03516 -0.0527,-0.166993 0,-0.149414 0.12304,-0.149414 0.0176,0 0.10547,0.0088 0.0879,0 0.24609,0.0088 0.167,0.0088 0.35157,0.0088 0.18457,0 0.34277,-0.0088 0.16699,-0.0088 0.25488,-0.0088 0.0967,-0.0088 0.11426,-0.0088 0.12305,0 0.12305,0.140625 0,0.03516 -0.009,0.06152 0,0.01758 0,0.03516 0,0.01758 -0.0176,0.03516 -0.009,0.0088 -0.0176,0.02637 0,0.0088 -0.0264,0.01758 -0.0176,0 -0.0264,0.0088 -0.009,0 -0.0439,0.0088 -0.0352,0 -0.0527,0.0088 -0.0176,0 -0.0703,0.0088 -0.044,0 -0.0703,0 -0.14062,0.01758 -0.14062,0.123047 0,0.04394 0.10547,0.342773 0.11426,0.290039 0.35156,0.817383 0.24609,0.527344 0.52734,1.054688 0,0.05273 0.0615,0.05273 0.0264,0 0.0439,-0.01758 0.0176,-0.01758 0.0264,-0.03516 0.009,-0.02637 0.0176,-0.03516 0.73828,-1.766601 0.73828,-2.118164 0,-0.05273 -0.0176,-0.08789 -0.009,-0.03516 -0.0264,-0.05274 -0.0176,-0.02637 -0.0615,-0.03516 -0.0439,-0.0088 -0.0791,-0.0088 -0.0352,-0.0088 -0.11426,-0.0088 -0.0791,0 -0.13184,-0.0088 -0.16699,-0.01758 -0.16699,-0.175781 0,-0.158204 0.16699,-0.158204 0.0176,0 0.10547,0.0088 0.0879,0 0.2461,0.0088 0.16699,0.0088 0.35156,0.0088 h 0.009 q 0.18457,0 0.33398,-0.0088 0.15821,-0.0088 0.2461,-0.0088 0.0879,-0.0088 0.10547,-0.0088 0.10546,0 0.10546,0.184571 0,0.09668 -0.0527,0.123047 -0.0527,0.01758 -0.29883,0.04395 -0.0879,0.0088 -0.12304,0.06152 -0.0264,0.05274 -0.13184,0.333985 -0.21094,0.597656 -0.45703,1.195312 -0.87012,2.126953 -1.6084,3.243164 -0.36035,0.553711 -0.66797,0.553711 z"
       id="text4"
       style="font-size:9px;font-family:'Goudy Bookletter 1911';-inkscape-font-specification:'Goudy Bookletter 1911, Normal';font-variant-caps:small-caps;font-variant-numeric:proportional-nums;text-align:center;letter-spacing:0.132292px;text-anchor:middle;fill:#050505;stroke:#000000;stroke-width:0.1"
       aria-label="Psychotherapy" />
    <path
       style="font-size:10px;font-family:'Goudy Bookletter 1911';-inkscape-font-specification:'Goudy Bookletter 1911, Normal';font-variant-caps:small-caps;font-variant-numeric:proportional-nums;text-align:center;letter-spacing:0.132292px;text-anchor:middle;fill:#050505;stroke:#8e9b2e;stroke-width:0"
       d="m 121.83168,4.0774746 q 0,-0.029297 -0.10742,-0.15625 -0.10742,-0.1367188 -0.21485,-0.3808594 -0.0977,-0.2441406 -0.0977,-0.5371094 0,-0.6738281 0.52734,-1.1914062 0.53711,-0.5273438 1.23047,-0.5273438 0.21484,0 0.43945,0.048828 0.22461,0.048828 0.41993,0.1953125 0.20507,0.1464843 0.20507,0.3710937 0,0.1953125 -0.13671,0.3222656 -0.13672,0.1269532 -0.3125,0.1269532 -0.20508,0 -0.42969,-0.2441407 -0.21485,-0.2539062 -0.43946,-0.2539062 -0.36132,0 -0.71289,0.3320312 -0.35156,0.3222657 -0.35156,0.8203125 0,0.2929688 0.13672,0.5664063 0.14648,0.2636719 0.25391,0.2636719 0.0195,0 0.17578,-0.058594 0.15625,-0.068359 0.41015,-0.1367187 0.25391,-0.068359 0.51758,-0.068359 0.3711,0 0.61524,0.15625 0.2539,0.1464844 0.2539,0.4003906 0,0.2539063 -0.26367,0.4101563 -0.26367,0.15625 -0.6543,0.15625 h -0.01 q -0.24414,0 -0.46875,-0.058594 -0.21485,-0.058594 -0.3418,-0.1171875 -0.12695,-0.058594 -0.14648,-0.058594 -0.0293,0 -0.0586,0.019531 -0.0195,0.019531 -0.0391,0.039063 -0.01,0.019531 -0.0293,0.039063 l -0.01,0.019531 q -0.26367,0.4785156 -0.26367,1.0449218 0,0.3515625 0.12695,0.6933594 0.12695,0.3320313 0.39062,0.6640625 0.27344,0.3222656 0.78125,0.5371094 0.51758,0.2148437 1.20118,0.2441406 h 0.17578 q 0.57617,0 1.00586,-0.1660156 0.42968,-0.1660156 0.65429,-0.4394531 0.22461,-0.2734375 0.32227,-0.5566407 0.10742,-0.2832031 0.10742,-0.5664062 0,-0.5175781 -0.2832,-0.859375 -0.2832,-0.3417969 -0.75195,-0.3417969 -0.42969,0 -0.76172,0.2929688 -0.32227,0.2929687 -0.32227,0.6640625 0,0.2539062 0.15625,0.4394531 0.16602,0.1757812 0.41992,0.1757812 0.10742,0 0.23438,-0.048828 0.12695,-0.048828 0.12695,-0.1171875 0,-0.039063 -0.0391,-0.058594 -0.0391,-0.019531 -0.0977,-0.029297 -0.0488,-0.00977 -0.11719,-0.048828 -0.0684,-0.039063 -0.11718,-0.1074219 -0.0684,-0.097656 -0.0684,-0.2148438 0,-0.1464843 0.10742,-0.2539062 0.11719,-0.1074219 0.2832,-0.1074219 0.22461,0 0.40039,0.1660156 0.18555,0.1660157 0.18555,0.4101563 0,0.3027344 -0.25391,0.5371094 -0.2539,0.2246093 -0.61523,0.2246093 -0.40039,0 -0.68359,-0.2929687 -0.28321,-0.2929688 -0.28321,-0.7128906 0,-0.390625 0.25391,-0.7421875 0.26367,-0.3613282 0.71289,-0.5859375 0.45898,-0.2246094 1.30859,-0.3613282 0.85938,-0.1367187 1.16211,-0.2734375 0.36133,-0.15625 0.60547,-0.4589843 0.25391,-0.3125 0.25391,-0.7324219 0,-0.4589844 -0.29297,-0.7617188 -0.2832,-0.3027343 -0.6543,-0.3027343 -0.30273,0 -0.30273,0.087891 l 0.0781,0.1074219 q 0.0879,0.1074218 0.0879,0.2441406 0,0.1757812 -0.11718,0.2929687 -0.11719,0.1171875 -0.29297,0.1171875 -0.19532,0 -0.32227,-0.1367187 -0.12695,-0.1464844 -0.12695,-0.3515625 0,-0.3125 0.26367,-0.5273438 0.26367,-0.2148437 0.61523,-0.2148437 0.56641,0 1.01563,0.4785156 0.45898,0.4785156 0.45898,1.1914063 0,0.8007812 -0.625,1.3769531 -0.61523,0.5664062 -1.46484,0.5859375 -0.14648,0 -0.14648,0.078125 0,0.00977 0.0781,0.1464844 0.0879,0.1367187 0.17578,0.4003906 0.0879,0.2636719 0.0879,0.5664062 v 0.019531 q 0,1.015625 -0.8789,1.7773437 -0.87891,0.7617188 -2.09961,0.7617188 -1.23047,0 -2.07032,-0.7910156 -0.83984,-0.8007813 -0.83984,-1.8945313 0,-0.2929687 0.0586,-0.5664062 0.0684,-0.2734375 0.16602,-0.46875 0.0977,-0.1953125 0.18555,-0.3320313 0.0977,-0.1367187 0.18554,-0.2246094 l 0.0781,-0.097656 q 0.0195,-0.039063 0.0195,-0.068359 z m 1.61133,0.3027344 q 0.41992,0 0.41992,-0.234375 0,-0.2539063 -0.42969,-0.2539063 -0.23437,0 -0.43945,0.039063 -0.19531,0.039063 -0.30273,0.097656 -0.0977,0.048828 -0.0977,0.097656 0,0.029297 0.0293,0.058594 0.27343,0.1953125 0.82031,0.1953125 z"
       id="text5"
       aria-label="&amp;" />
    <path
       d="m 78.057923,3.8548179 q 0,1.2392578 0.738281,2.0917968 0.738282,0.84375 1.792969,0.84375 0.791016,0 1.441406,-0.4833984 0.65918,-0.4833984 0.905274,-1.2832031 0.04395,-0.1230469 0.131836,-0.1230469 0.149414,0 0.149414,0.1054688 -0.202149,1.3974609 -0.228516,1.4589843 -0.04394,0.1494141 -0.202148,0.1494141 h -0.0088 -0.246094 q -0.105469,0 -0.158203,0.017578 -0.04394,0.017578 -0.131836,0.079102 -0.0791,0.061523 -0.131836,0.087891 -0.791016,0.4570313 -1.669922,0.4570313 -0.624023,0 -1.22168,-0.2460938 Q 78.620423,6.7639976 78.163392,6.3245444 77.706361,5.8763022 77.442689,5.2698569 77.187806,4.6634116 77.187806,4.0218101 q 0,-0.6591797 0.272461,-1.2744141 0.272461,-0.6152344 0.729492,-1.0546875 0.966797,-0.92285157 2.293945,-0.92285157 h 0.0088 q 0.483398,0 0.887695,0.12304687 0.413086,0.1142578 0.632812,0.2373047 0.228516,0.1230469 0.246094,0.1230469 0.07031,0 0.123047,-0.1494141 0.05273,-0.14941406 0.140625,-0.17578125 0.01758,0 0.05273,0 0.03516,-0.008789 0.04395,-0.008789 0.09668,0 0.114257,0.10546875 l 0.06152,0.4570313 q 0.06152,0.4658203 0.123047,0.9404297 0.06152,0.4746094 0.06152,0.5097656 0,0.1494141 -0.18457,0.1494141 -0.166992,0 -0.193359,-0.052734 -0.02637,-0.061523 -0.06152,-0.3691406 Q 82.4964,2.325521 82.30304,2.0706382 81.995423,1.6839194 81.520814,1.4378257 81.046204,1.1829429 80.466126,1.1829429 q -0.975586,0 -1.696289,0.7382812 -0.711914,0.7382813 -0.711914,1.9335938 z m 5.581511,1.3447265 q 0,-0.9052734 0.571289,-1.4765625 0.580078,-0.571289 1.371094,-0.571289 0.808593,0 1.344726,0.5800781 0.536133,0.5712891 0.536133,1.4677734 0,0.9228516 -0.5625,1.4677735 -0.553711,0.5361328 -1.353516,0.5361328 -0.84375,0 -1.379882,-0.5800781 -0.527344,-0.5800782 -0.527344,-1.4238282 z m 1.037109,1.116211 q 0.342774,0.4482422 0.896485,0.4482422 0.55371,0 0.914062,-0.4482422 0.360352,-0.4570313 0.360352,-1.0810547 0,-0.703125 -0.404297,-1.1777344 -0.395508,-0.4833984 -0.922852,-0.4833984 -0.439453,0 -0.817383,0.3867187 -0.36914,0.3867188 -0.36914,1.1953125 0,0.703125 0.342773,1.1601563 z m 6.33737,0.421875 q -0.0088,0 -0.0791,0.052734 -0.06152,0.043945 -0.175782,0.1142579 -0.105468,0.061523 -0.246093,0.1318359 -0.140625,0.061523 -0.342774,0.1054687 -0.202148,0.052734 -0.413086,0.052734 -0.553711,0 -0.922851,-0.3427734 -0.369141,-0.3427735 -0.448243,-0.9580078 -0.02637,-0.2636719 -0.02637,-0.553711 0,-0.1669922 0,-0.7734375 0.0088,-0.6152343 0.0088,-0.6679687 0,-0.1669922 -0.246093,-0.2548828 -0.04395,-0.017578 -0.140625,-0.043945 -0.08789,-0.026367 -0.114258,-0.052734 -0.02637,-0.026367 -0.02637,-0.09668 v -0.026367 q 0,-0.1142578 0.09668,-0.1230469 0.896485,-0.052734 0.94043,-0.052734 0.08789,0 0.08789,0.1054687 v 1.8457031 q 0,0.5888672 0.166992,0.9316407 0.123047,0.2373046 0.36914,0.421875 0.254883,0.1757812 0.580078,0.1757812 0.439454,0 0.764649,-0.3251953 0.01758,-0.026367 0.04395,-0.052734 0.03516,-0.035156 0.04395,-0.043945 0.0088,-0.017578 0.02637,-0.035156 0.01758,-0.017578 0.01758,-0.026367 0.0088,-0.017578 0.01758,-0.035156 0.0088,-0.017578 0.0088,-0.026367 0,-0.017578 0,-0.043945 V 3.9251304 q 0,-0.1933594 -0.175781,-0.2460938 -0.04395,-0.017578 -0.421875,-0.079101 -0.131836,-0.026367 -0.131836,-0.1494141 0,-0.1318359 0.123047,-0.1494141 0.290039,-0.00879 0.518554,-0.017578 0.237305,-0.00879 0.325196,-0.00879 0.09668,-0.00879 0.158203,-0.00879 0.07031,0 0.105469,0 0.131836,0 0.131836,0.1757812 V 6.263021 q 0,0.026367 0,0.043945 0.0088,0.00879 0.01758,0.026367 0.01758,0.00879 0.03516,0.017578 0.01758,0.00879 0.05273,0.026367 0.03516,0.017578 0.0791,0.035156 0.04394,0.017578 0.114258,0.052734 0.07031,0.035156 0.149414,0.070312 0.0791,0.035156 0.0791,0.1054688 0,0.09668 -0.04394,0.1318359 -0.03516,0.035156 -0.114258,0.052734 -0.0791,0.00879 -0.290039,0.087891 -0.210937,0.070312 -0.457031,0.2109375 -0.05273,0.035156 -0.09668,0.035156 -0.123047,0 -0.123047,-0.1757813 V 6.7727866 q 0,-0.035156 -0.02637,-0.035156 z m 2.707488,-3.09375 q 0,0.035156 0.02637,0.035156 h 0.0088 q 0.0088,0 0.06152,-0.052734 0.06152,-0.052734 0.166992,-0.1318359 0.105469,-0.079102 0.246094,-0.1582031 0.140625,-0.079102 0.342773,-0.131836 0.202149,-0.061523 0.421875,-0.061523 h 0.01758 q 0.184571,0 0.360352,0.052734 0.18457,0.043945 0.386719,0.1757812 0.210937,0.1230469 0.351562,0.3955078 0.140625,0.272461 0.175781,0.6679688 0.01758,0.1494141 0.01758,0.4570312 0,0.035156 0,0.1757813 0,0.1318359 -0.0088,0.4833984 0,0.3515625 0,0.8964844 v 0.017578 q 0,0.043945 0.0088,0.087891 0.0088,0.035156 0.0088,0.061523 0.0088,0.017578 0.03516,0.043945 0.02637,0.017578 0.03516,0.026367 0.01758,0.00879 0.06152,0.026367 0.05273,0.00879 0.07031,0.00879 0.02637,0 0.09668,0.00879 0.0791,0.00879 0.114258,0.017578 0.131835,0.017578 0.131835,0.1669922 0,0.1757813 -0.140625,0.1757813 -0.02637,0 -0.123046,-0.017578 -0.09668,-0.00879 -0.272461,-0.026367 -0.166993,-0.00879 -0.360352,-0.00879 -0.114258,0 -0.228516,0 -0.114257,0.00879 -0.202148,0.017578 -0.0791,0.00879 -0.149414,0.017578 -0.07031,0.00879 -0.114258,0.017578 h -0.04394 q -0.123047,0 -0.123047,-0.1757813 0,-0.09668 0.05273,-0.1230469 0.05274,-0.026367 0.28125,-0.061523 0.0791,-0.017578 0.131836,-0.026367 0.08789,-0.017578 0.114258,-0.052734 0.03516,-0.043945 0.03516,-0.1582031 v -1.397462 q 0,-0.6591797 -0.123047,-0.975586 -0.131835,-0.2988281 -0.395507,-0.4130859 -0.263672,-0.1230469 -0.500977,-0.1230469 -0.342773,0 -0.615234,0.2109375 -0.272461,0.2109375 -0.307617,0.3691407 -0.01758,0.070312 -0.01758,0.1230468 v 2.1269532 0.026367 q 0,0.2285157 0.202149,0.2548829 0.395508,0.061523 0.430664,0.09668 0.05273,0.043945 0.05273,0.1494141 0,0.1582031 -0.114258,0.1582031 -0.0088,0 -0.06152,-0.00879 -0.04394,0 -0.123047,-0.00879 -0.0791,-0.00879 -0.175781,-0.026367 -0.09668,-0.00879 -0.228516,-0.017578 -0.123047,0 -0.246093,0 -0.123047,0 -0.246094,0 -0.123047,0.00879 -0.219727,0.017578 -0.08789,0.00879 -0.158203,0.017578 -0.07031,0.00879 -0.114258,0.00879 -0.04394,0.00879 -0.05273,0.00879 -0.149414,0 -0.149414,-0.1582032 0,-0.1230468 0.05273,-0.149414 0.06152,-0.035156 0.298828,-0.070312 0.158203,-0.026367 0.19336,-0.09668 0.04394,-0.070312 0.04394,-0.2109375 V 4.2591147 q 0,-0.1582031 -0.04394,-0.2109375 -0.04395,-0.061523 -0.360352,-0.2988281 -0.05273,-0.052734 -0.05273,-0.087891 v -0.00879 q 0,-0.043945 0.06152,-0.079102 0.06152,-0.043945 0.37793,-0.2109375 0.246094,-0.131836 0.413086,-0.2197266 0.05273,-0.035156 0.08789,-0.035156 0.105469,0 0.105469,0.1318359 V 3.591146 q 0,0.00879 -0.0088,0.035156 z m 3.630338,0.6152343 q 0,-0.421875 0.351562,-0.7382812 0.360352,-0.3251953 0.94043,-0.3251953 0.123047,0 0.219727,0.017578 0.105468,0.00879 0.158203,0.017578 0.06152,0.00879 0.07031,0.00879 0.03516,0 0.105469,-0.043945 0.07031,-0.043945 0.123047,-0.043945 0.105469,0 0.140625,0.1669922 0.02637,0.1318359 0.07031,0.3691406 0.04395,0.2373047 0.07031,0.4042969 0.03516,0.1582031 0.03516,0.1757812 0,0.140625 -0.210937,0.140625 -0.08789,0 -0.131836,-0.061523 -0.03516,-0.070312 -0.07031,-0.1933594 -0.03516,-0.1230469 -0.0791,-0.1845703 -0.09668,-0.131836 -0.316407,-0.2373047 -0.210937,-0.1142578 -0.421875,-0.1142578 -0.237304,0 -0.404297,0.1318359 -0.166992,0.131836 -0.166992,0.3427735 0,0.4482421 0.711914,0.6503906 0.08789,0.026367 0.263672,0.070312 0.175781,0.035156 0.272461,0.061523 0.09668,0.026367 0.228516,0.079102 0.140625,0.052734 0.246094,0.1318359 0.105468,0.079102 0.202148,0.1933594 0.272457,0.3164062 0.272457,0.7119141 0,0.4746093 -0.377926,0.84375 -0.36914,0.3691406 -0.993164,0.3691406 -0.342773,0 -0.703125,-0.1142578 -0.351562,-0.1142578 -0.536133,-0.3339844 -0.105468,-0.1142578 -0.105468,-0.3076172 0,-0.140625 -0.0088,-0.3164062 0,-0.1757813 0,-0.2197266 0,-0.1757813 0.02637,-0.2285156 0.03516,-0.052734 0.131836,-0.052734 0.09668,0 0.123047,0.079102 0.02637,0.079102 0.03516,0.2373046 0.0088,0.1494141 0.05273,0.2460938 0.0791,0.1757812 0.369141,0.3515625 0.298828,0.1757812 0.65039,0.1757812 0.307618,0 0.518555,-0.1669921 0.210938,-0.1669922 0.210938,-0.4306641 0,-0.1669922 -0.0791,-0.2900391 Q 99.276544,5.700521 99.11834,5.6214194 98.960137,5.5335288 98.863458,5.4983726 98.766778,5.4544272 98.55584,5.4016929 L 98.344903,5.3577476 Q 97.351739,5.0677085 97.351739,4.2591147 Z m 3.094211,0.9228516 q 0,-0.9140625 0.4834,-1.4677734 0.48339,-0.553711 1.17773,-0.553711 0.44824,0 0.86133,0.2460938 0.41308,0.2460937 0.68554,0.6152344 0.0703,0.087891 0.0703,0.1933593 v 0.017578 q 0,0.079102 -0.044,0.140625 -0.0439,0.061523 -0.14062,0.1142578 -0.0967,0.043945 -0.167,0.070312 -0.0703,0.026367 -0.21093,0.070312 -0.13184,0.043945 -0.167,0.052734 -1.83691,0.6328125 -1.88085,0.6591797 -0.0352,0.017578 -0.0352,0.052734 0,0.052734 0.0264,0.1757813 0.0264,0.1230468 0.11425,0.3251953 0.0967,0.2021484 0.22852,0.3779297 0.14062,0.1669921 0.39551,0.2988281 0.25488,0.1230469 0.57129,0.1230469 0.61523,0 1.07226,-0.4394532 0.12305,-0.1230468 0.20215,-0.1230468 0.14941,0 0.14941,0.1318359 0,0.052734 -0.0703,0.140625 -0.28125,0.3691406 -0.70312,0.5888672 -0.42188,0.2109375 -0.8877,0.2109375 -0.29883,0 -0.58887,-0.1054688 -0.28125,-0.1054687 -0.55371,-0.3251953 -0.26367,-0.2197265 -0.43066,-0.6328125 -0.1582,-0.4130859 -0.1582,-0.9580078 z m 2.4082,-0.9316406 q 0,-0.1142578 -0.30762,-0.3515625 -0.30761,-0.2460938 -0.6416,-0.2460938 -0.39551,0 -0.63281,0.3427735 -0.22852,0.3427734 -0.22852,0.9404297 0,0.070312 0.0439,0.070312 0.0176,0 0.83496,-0.3164063 0.82617,-0.3251953 0.85254,-0.3339844 0.0791,-0.043945 0.0791,-0.1054687 z m 3.24362,2.6630859 q 0,0.1757813 -0.10547,0.1757813 -0.009,0 -0.0615,-0.00879 -0.0439,0 -0.12305,-0.00879 -0.0791,-0.00879 -0.17578,-0.017578 -0.0967,-0.00879 -0.22852,-0.017578 -0.13183,0 -0.25488,0 -0.12305,0 -0.24609,0 -0.12305,0.00879 -0.21973,0.00879 -0.0967,0.00879 -0.17578,0.017578 -0.0703,0.00879 -0.11426,0.00879 -0.0439,0.00879 -0.0527,0.00879 -0.13184,0 -0.13184,-0.1582031 v -0.026367 q 0,-0.1142578 0.0527,-0.140625 0.0615,-0.035156 0.3164,-0.061523 0.1582,-0.017578 0.20215,-0.09668 0.0527,-0.087891 0.0527,-0.2460938 V 1.7718101 q 0,-0.026367 -0.009,-0.043945 0,-0.026367 -0.009,-0.043945 -0.009,-0.017578 -0.0176,-0.026367 0,-0.017578 -0.0264,-0.026367 -0.0176,-0.017578 -0.0352,-0.026367 -0.009,-0.00879 -0.0527,-0.026367 -0.0352,-0.026367 -0.0527,-0.035156 -0.0879,-0.052734 -0.19336,-0.1054687 -0.0967,-0.061524 -0.14063,-0.087891 -0.0352,-0.026367 -0.0791,-0.052734 -0.0439,-0.035156 -0.0615,-0.052734 -0.009,-0.026367 -0.009,-0.052734 v -0.00879 q 0,-0.043945 0.33398,-0.2197266 0.41309,-0.20214843 0.77344,-0.39550781 0.0527,-0.0351563 0.11426,-0.0351563 0.12304,0 0.12304,0.16699219 V 6.3948569 q 0,0.052734 0,0.087891 0.009,0.035156 0.0176,0.070312 0.009,0.026367 0.0176,0.043945 0.009,0.017578 0.0352,0.035156 0.0352,0.017578 0.0439,0.026367 0.0176,0.00879 0.0615,0.026367 0.0527,0.00879 0.0703,0.017578 0.0264,0 0.0967,0.00879 0.0791,0.00879 0.11426,0.017578 0.14941,0.026367 0.14941,0.1845703 z m 2.27682,0 q 0,0.1757813 -0.10547,0.1757813 -0.009,0 -0.0615,-0.00879 -0.0439,0 -0.12305,-0.00879 -0.0791,-0.00879 -0.17578,-0.017578 -0.0967,-0.00879 -0.22851,-0.017578 -0.13184,0 -0.25489,0 -0.12304,0 -0.24609,0 -0.12305,0.00879 -0.21973,0.00879 -0.0967,0.00879 -0.17578,0.017578 -0.0703,0.00879 -0.11426,0.00879 -0.0439,0.00879 -0.0527,0.00879 -0.13184,0 -0.13184,-0.1582031 v -0.026367 q 0,-0.1142578 0.0527,-0.140625 0.0615,-0.035156 0.3164,-0.061523 0.15821,-0.017578 0.20215,-0.09668 0.0527,-0.087891 0.0527,-0.2460938 V 1.7718101 q 0,-0.026367 -0.009,-0.043945 0,-0.026367 -0.009,-0.043945 -0.009,-0.017578 -0.0176,-0.026367 0,-0.017578 -0.0264,-0.026367 -0.0176,-0.017578 -0.0352,-0.026367 -0.009,-0.00879 -0.0527,-0.026367 -0.0351,-0.026367 -0.0527,-0.035156 -0.0879,-0.052734 -0.19336,-0.1054687 -0.0967,-0.061524 -0.14063,-0.087891 -0.0352,-0.026367 -0.0791,-0.052734 -0.0439,-0.035156 -0.0615,-0.052734 -0.009,-0.026367 -0.009,-0.052734 v -0.00879 q 0,-0.043945 0.33399,-0.2197266 0.41308,-0.20214843 0.77343,-0.39550781 0.0527,-0.0351563 0.11426,-0.0351563 0.12305,0 0.12305,0.16699219 V 6.3948569 q 0,0.052734 0,0.087891 0.009,0.035156 0.0176,0.070312 0.009,0.026367 0.0176,0.043945 0.009,0.017578 0.0352,0.035156 0.0352,0.017578 0.0439,0.026367 0.0176,0.00879 0.0615,0.026367 0.0527,0.00879 0.0703,0.017578 0.0264,0 0.0967,0.00879 0.0791,0.00879 0.11426,0.017578 0.14941,0.026367 0.14941,0.1845703 z m 1.07272,-0.9667969 q 0,-0.4570312 0,-0.852539 0,-0.3955078 0,-0.6152344 0.009,-0.2285156 0.009,-0.2724609 0,-0.09668 -0.0703,-0.131836 -0.0615,-0.043945 -0.53613,-0.2373047 -0.11426,-0.043945 -0.11426,-0.1142578 0,-0.026367 0.009,-0.052734 0.0176,-0.026367 0.0439,-0.043945 0.0352,-0.017578 0.0615,-0.026367 0.0264,-0.017578 0.0703,-0.035156 0.0439,-0.017578 0.0615,-0.026367 0.98438,-0.4746094 0.99317,-0.4746094 h 0.009 q 0.12304,0 0.12304,0.1494141 l -0.009,0.2900391 q -0.0176,0.290039 -0.0352,0.7822265 -0.009,0.4833985 -0.009,0.9667969 v 0.2988281 q 0,0.834961 0.0264,0.984375 0.0264,0.1494141 0.17578,0.1669922 0.26367,0.035156 0.33398,0.061523 0.0703,0.026367 0.0703,0.1318359 0,0.1933594 -0.10546,0.1933594 -0.009,0 -0.0527,-0.00879 -0.0439,0 -0.12305,-0.00879 -0.0791,-0.00879 -0.17578,-0.017578 -0.0967,-0.00879 -0.22851,-0.017578 -0.12305,0 -0.2461,0 -0.12304,0 -0.25488,0 -0.13183,0.00879 -0.22851,0.017578 -0.0879,0.00879 -0.167,0.017578 -0.0791,0.00879 -0.12304,0.00879 -0.0439,0.00879 -0.0527,0.00879 -0.14062,0 -0.14062,-0.1494141 0,-0.1494141 0.0527,-0.1757812 0.0615,-0.026367 0.39551,-0.070312 0.1582,-0.026367 0.19336,-0.09668 0.0439,-0.079102 0.0439,-0.2285157 z m 0.0879,-4.4736328 q 0,-0.1757812 0.13184,-0.2988281 0.13184,-0.1230469 0.30762,-0.1230469 0.17578,0 0.29883,0.1230469 0.13183,0.1230469 0.13183,0.2900391 0,0.1845703 -0.13183,0.3076172 -0.12305,0.1230468 -0.30762,0.1230468 -0.18457,0 -0.30762,-0.1142578 -0.12305,-0.1230469 -0.12305,-0.3076172 z m 2.64597,2.1708985 q 0,0.035156 0.0264,0.035156 h 0.009 q 0.009,0 0.0615,-0.052734 0.0615,-0.052734 0.16699,-0.1318359 0.10547,-0.079102 0.24609,-0.1582031 0.14063,-0.079102 0.34278,-0.131836 0.20215,-0.061523 0.42187,-0.061523 h 0.0176 q 0.18457,0 0.36035,0.052734 0.18457,0.043945 0.38672,0.1757812 0.21094,0.1230469 0.35156,0.3955078 0.14063,0.272461 0.17578,0.6679688 0.0176,0.1494141 0.0176,0.4570312 0,0.035156 0,0.1757813 0,0.1318359 -0.009,0.4833984 0,0.3515625 0,0.8964844 v 0.017578 q 0,0.043945 0.009,0.087891 0.009,0.035156 0.009,0.061523 0.009,0.017578 0.0352,0.043945 0.0264,0.017578 0.0352,0.026367 0.0176,0.00879 0.0615,0.026367 0.0527,0.00879 0.0703,0.00879 0.0264,0 0.0967,0.00879 0.0791,0.00879 0.11426,0.017578 0.13183,0.017578 0.13183,0.1669922 0,0.1757813 -0.14062,0.1757813 -0.0264,0 -0.12305,-0.017578 -0.0967,-0.00879 -0.27246,-0.026367 -0.16699,-0.00879 -0.36035,-0.00879 -0.11426,0 -0.22852,0 -0.11425,0.00879 -0.20214,0.017578 -0.0791,0.00879 -0.14942,0.017578 -0.0703,0.00879 -0.11426,0.017578 h -0.0439 q -0.12305,0 -0.12305,-0.1757813 0,-0.09668 0.0527,-0.1230469 0.0527,-0.026367 0.28125,-0.061523 0.0791,-0.017578 0.13183,-0.026367 0.0879,-0.017578 0.11426,-0.052734 0.0352,-0.043945 0.0352,-0.1582031 v -1.397462 q 0,-0.6591797 -0.12305,-0.975586 -0.13184,-0.2988281 -0.39551,-0.4130859 -0.26367,-0.1230469 -0.50098,-0.1230469 -0.34277,0 -0.61523,0.2109375 -0.27246,0.2109375 -0.30762,0.3691407 -0.0176,0.070312 -0.0176,0.1230468 v 2.1269532 0.026367 q 0,0.2285157 0.20215,0.2548829 0.39551,0.061523 0.43067,0.09668 0.0527,0.043945 0.0527,0.1494141 0,0.1582031 -0.11426,0.1582031 -0.009,0 -0.0615,-0.00879 -0.0439,0 -0.12305,-0.00879 -0.0791,-0.00879 -0.17578,-0.026367 -0.0967,-0.00879 -0.22851,-0.017578 -0.12305,0 -0.2461,0 -0.12304,0 -0.24609,0 -0.12305,0.00879 -0.21973,0.017578 -0.0879,0.00879 -0.1582,0.017578 -0.0703,0.00879 -0.11426,0.00879 -0.0439,0.00879 -0.0527,0.00879 -0.14942,0 -0.14942,-0.1582032 0,-0.1230468 0.0527,-0.149414 0.0615,-0.035156 0.29883,-0.070312 0.1582,-0.026367 0.19336,-0.09668 0.0439,-0.070312 0.0439,-0.2109375 V 4.2591147 q 0,-0.1582031 -0.0439,-0.2109375 -0.0439,-0.061523 -0.36036,-0.2988281 -0.0527,-0.052734 -0.0527,-0.087891 v -0.00879 q 0,-0.043945 0.0615,-0.079102 0.0615,-0.043945 0.37793,-0.2109375 0.2461,-0.131836 0.41309,-0.2197266 0.0527,-0.035156 0.0879,-0.035156 0.10547,0 0.10547,0.1318359 V 3.591146 q 0,0.00879 -0.009,0.035156 z m 5.0278,-0.2021485 q -0.34277,0 -0.5625,0.28125 -0.21973,0.272461 -0.21973,0.7119141 0,0.5185547 0.26368,0.8964844 0.26367,0.3779297 0.66796,0.3779297 0.36036,0 0.58008,-0.28125 0.21973,-0.2900391 0.21973,-0.7119141 0,-0.5009766 -0.27246,-0.8876953 -0.26367,-0.3867188 -0.67676,-0.3867188 z m -0.93164,4.3857422 q 0,0.3955078 0.41309,0.6416016 0.42187,0.2460937 1.05468,0.2460937 0.62403,0 0.87891,-0.2021484 0.26367,-0.1933594 0.26367,-0.4482422 0,-0.3691406 -0.36035,-0.5361328 -0.18457,-0.09668 -0.43066,-0.1318359 -0.2461,-0.026367 -0.69434,-0.043945 -0.43945,-0.00879 -0.77344,-0.043945 h -0.0264 q -0.0615,0 -0.1582,0.09668 -0.16699,0.1669922 -0.16699,0.421875 z m -0.54492,-3.2871094 q 0,-0.571289 0.41308,-0.984375 0.42188,-0.4130859 1.03711,-0.4130859 0.37793,0 0.72949,0.1582031 0.36036,0.1582032 0.4043,0.1582032 0.28125,0 0.47461,-0.28125 0.13184,-0.2109375 0.25488,-0.2109375 0.12305,0 0.22852,0.1230468 0.11426,0.1142578 0.11426,0.2460938 0,0.1582031 -0.14063,0.2724609 -0.13183,0.1142578 -0.3164,0.1933594 -0.17579,0.070312 -0.18457,0.079102 -0.044,0.043945 -0.044,0.070312 0,0.017578 0.0264,0.087891 0.0264,0.070312 0.0527,0.2021484 0.0264,0.1230469 0.0264,0.272461 0,0.6240234 -0.43945,1.0722656 -0.43067,0.4394531 -1.05469,0.4394531 -0.17578,0 -0.33399,-0.035156 -0.1582,-0.043945 -0.19336,-0.043945 -0.12304,0 -0.26367,0.1582032 -0.14062,0.149414 -0.14062,0.2988281 0,0.2373047 0.37793,0.3164062 0.38672,0.079102 0.97558,0.09668 0.59766,0.017578 0.85254,0.09668 0.4043,0.1142578 0.60645,0.3867188 0.21094,0.28125 0.21094,0.6064453 0,0.2021484 -0.0879,0.4042969 -0.0879,0.2021484 -0.29003,0.3955078 -0.19336,0.1933593 -0.58008,0.3164062 -0.38672,0.1230469 -0.91406,0.1230469 -0.97559,0 -1.3711,-0.3603516 -0.38672,-0.3515625 -0.38672,-0.7734375 0,-0.087891 0.0176,-0.1757812 0.0176,-0.079102 0.0439,-0.1494141 0.0264,-0.061523 0.0527,-0.1230469 0.0352,-0.052734 0.0703,-0.1054687 0.0439,-0.043945 0.0791,-0.079102 0.0439,-0.035156 0.0791,-0.061523 0.0352,-0.026367 0.0615,-0.052734 0.0264,-0.017578 0.0439,-0.026367 l 0.0176,-0.00879 q 0.0176,-0.017578 0.0176,-0.043945 0,-0.00879 -0.0879,-0.061523 -0.0791,-0.052734 -0.16699,-0.1757812 -0.0791,-0.1230469 -0.0791,-0.2988282 0,-0.430664 0.50097,-0.8349609 l 0.009,-0.00879 q 0.009,-0.00879 0.009,-0.026367 0,-0.035156 -0.0791,-0.079102 -0.0791,-0.043945 -0.21973,-0.1669922 -0.13183,-0.1318359 -0.24609,-0.3339844 -0.16699,-0.2988281 -0.16699,-0.6591797 z"
       id="text2"
       style="font-size:9px;font-family:'Goudy Bookletter 1911';-inkscape-font-specification:'Goudy Bookletter 1911, Normal';font-variant-caps:small-caps;font-variant-numeric:proportional-nums;text-align:center;letter-spacing:0.132292px;text-anchor:middle;fill:#050505;stroke:#000000;stroke-width:0.1"
       aria-label="Counselling" />
    <path
       style="font-size:20.5px;font-family:'Goudy Bookletter 1911';-inkscape-font-specification:'Goudy Bookletter 1911, Normal';font-variant-caps:small-caps;font-variant-numeric:proportional-nums;text-align:center;letter-spacing:0.132292px;text-anchor:middle;fill:#050505;stroke:#000000;stroke-width:0"
       d="m 1.5131866,1.1878262 q 0.6206054,0 1.7817383,-0.1000977 1.1811523,-0.10009766 1.7817382,-0.10009766 2.222168,0 3.4033203,0.82080076 1.2612305,0.9208985 1.2612305,2.3623047 0,0.940918 -0.5405273,1.7817383 -0.5405274,0.8408203 -1.4013672,1.3813477 l -0.060059,0.060059 q 0,0.02002 0.080078,0.060059 1.2011719,0.2202149 2.0219727,1.2211914 0.8207999,1.0009766 0.8207999,2.3422853 0,1.361328 -0.7807609,2.402344 -0.7807617,1.020996 -1.8217773,1.481445 -1.0209961,0.460449 -2.4624024,0.460449 -0.4804687,0 -1.4013671,-0.06006 -0.9208985,-0.06006 -1.4013672,-0.06006 -0.3403321,0 -1.1010742,0.02002 -0.76074223,0.02002 -1.24121098,0.02002 h -0.0400391 q -0.12011719,0 -0.20019532,-0.02002 -0.0600586,-0.02002 -0.14013672,-0.140137 -0.06005859,-0.120117 -0.06005859,-0.340332 0,-0.240234 0.14013672,-0.300293 0.16015625,-0.06006 0.74072266,-0.120117 0.18017583,-0.02002 0.28027343,-0.04004 0.1401368,-0.02002 0.2001954,-0.04004 0.080078,-0.04004 0.1401367,-0.120118 0.080078,-0.100097 0.080078,-0.260253 V 2.689291 q 0,-0.3803711 -0.2202148,-0.4804687 Q 1.1728545,2.0887051 0.6323272,2.048666 q -0.0600586,0 -0.10009766,0 -0.36035156,0 -0.36035156,-0.5205078 0,-0.3603516 0.36035156,-0.3603516 0.0200195,0 0.14013672,0.02002 0.12011719,0 0.34033204,0 0.2402344,0 0.5004883,-4e-7 z m 6.40625,3.4233398 q 0,-0.4204102 -0.1401367,-0.8408203 Q 7.6391631,3.329916 7.3188506,2.8894863 6.9985381,2.4490566 6.3579131,2.1687832 5.7373077,1.8885098 4.8964874,1.8885098 q -1.1411133,0 -1.4414063,0.2402343 -0.1000977,0.080078 -0.1000977,0.2602539 v 0.040039 4.3842773 q 0,0.2602539 0.2202149,0.2602539 h 0.9208984 0.2602539 q 2.1621094,0 2.862793,-1.3012695 0.300293,-0.6005859 0.300293,-1.1611327 z m -2.9829102,9.789551 q 1.621582,0 2.7626953,-0.86084 1.1411133,-0.880859 1.1411133,-2.422363 0,-1.020996 -0.6005859,-1.8818363 Q 7.6591827,8.3548183 6.4179717,8.0945644 5.7573272,7.9544277 4.696292,7.9544277 H 3.6552764 q -0.300293,0 -0.300293,0.3203125 v 5.2851558 q 0,0.220215 0.02002,0.340333 0.040039,0.120117 0.1801758,0.260253 0.1401367,0.120118 0.4204101,0.160157 0.600586,0.08008 0.9609375,0.08008 z m 11.0829756,0.560547 q 0,0.40039 -0.240235,0.40039 -0.02002,0 -0.140136,-0.02002 -0.100098,0 -0.280274,-0.02002 -0.180176,-0.02002 -0.40039,-0.04004 -0.220215,-0.02002 -0.520508,-0.04004 -0.300293,0 -0.580567,0 -0.280273,0 -0.560546,0 -0.280274,0.02002 -0.500489,0.02002 -0.220215,0.02002 -0.40039,0.04004 -0.160157,0.02002 -0.260254,0.02002 -0.100098,0.02002 -0.120117,0.02002 -0.300293,0 -0.300293,-0.360352 v -0.06006 q 0,-0.260254 0.120117,-0.320313 0.140136,-0.08008 0.720703,-0.140137 0.360351,-0.04004 0.460449,-0.220214 0.120117,-0.200196 0.120117,-0.560547 V 3.2498379 q 0,-0.060059 -0.02002,-0.1000977 0,-0.060059 -0.02002,-0.1000976 -0.02002,-0.040039 -0.04004,-0.060059 0,-0.040039 -0.06006,-0.060059 -0.04004,-0.040039 -0.08008,-0.060059 -0.02002,-0.02002 -0.120117,-0.060059 Q 12.716279,2.7493496 12.67624,2.7293301 12.476045,2.6092129 12.23581,2.4890957 12.015596,2.348959 11.915498,2.2889004 11.83542,2.2288418 11.735322,2.1687832 11.635224,2.0887051 11.595185,2.048666 11.575166,1.9886074 11.575166,1.9285488 v -0.020019 q 0,-0.1000977 0.760742,-0.5004883 0.940918,-0.46044922 1.761719,-0.90087891 0.120117,-0.0800781 0.260254,-0.0800781 0.280273,0 0.280273,0.38037109 V 13.780111 q 0,0.120118 0,0.200196 0.02002,0.08008 0.04004,0.160156 0.02002,0.06006 0.04004,0.100098 0.02002,0.04004 0.08008,0.08008 0.08008,0.04004 0.100098,0.06006 0.04004,0.02002 0.140137,0.06006 0.120117,0.02002 0.160156,0.04004 0.06006,0 0.220215,0.02002 0.180176,0.02002 0.260254,0.04004 0.340332,0.06006 0.340332,0.42041 z m 0.953092,-6.7866214 q 0,-0.600586 0.960938,-1.2011719 0.980957,-0.6206055 2.182129,-0.6206055 0.380371,0 0.780762,0.080078 0.40039,0.080078 0.900878,0.2802735 0.520508,0.2001953 0.86084,0.7006836 0.360352,0.4804687 0.44043,1.1811523 0.04004,0.4804688 0.04004,0.7407227 v 4.0439457 q 0,0.360351 0.140137,0.580566 0.140136,0.220215 0.280273,0.280274 0.140137,0.04004 0.280274,0.04004 0.280273,0 0.440429,-0.160157 0.160157,-0.180175 0.240235,-0.340332 0.100097,-0.180175 0.220215,-0.180175 0.180175,0 0.180175,0.260253 0,0.480469 -0.440429,1.061036 -0.44043,0.560546 -1.141114,0.560546 -0.260254,0 -0.500488,-0.08008 -0.240234,-0.08008 -0.400391,-0.200195 -0.160156,-0.140137 -0.300293,-0.260254 -0.120117,-0.120117 -0.200195,-0.220215 l -0.06006,-0.08008 q -0.02002,0 -0.02002,0 0,-0.02002 -0.02002,-0.02002 -0.04004,0 -0.06006,0.04004 -0.02002,0.04004 -0.140137,0.160156 -0.120117,0.120117 -0.340332,0.260254 -0.900879,0.560547 -1.901855,0.560547 -1.041016,0 -1.70166,-0.660645 -0.640625,-0.660644 -0.640625,-1.621582 v -0.02002 q 0,-1.161133 0.860839,-1.821778 0.300293,-0.240234 0.780762,-0.42041 0.480469,-0.200195 0.940918,-0.300293 0.480469,-0.100097 0.900879,-0.160156 0.42041,-0.08008 0.700684,-0.100098 l 0.280273,-0.02002 q 0.160156,-0.04004 0.160156,-0.280274 V 9.4959316 q 0,-1.0610351 -0.480469,-1.6416015 -0.500488,-0.5405274 -1.201171,-0.5405274 -1.081055,0 -1.761719,1.3613281 -0.180176,0.2402344 -0.44043,0.2402344 -0.320312,0 -0.580566,-0.2001953 -0.240235,-0.2001953 -0.240235,-0.5405273 z m 2.902832,6.3461914 q 0.46045,0 0.86084,-0.200195 0.42041,-0.200196 0.580567,-0.360352 0.160156,-0.160156 0.260254,-0.280273 0.120117,-0.160157 0.120117,-0.46045 v -0.500488 -0.84082 q 0,-0.380371 -0.04004,-0.480469 -0.02002,-0.120117 -0.160157,-0.120117 -0.500488,0 -1.26123,0.160156 -0.740723,0.160156 -1.181152,0.580567 -0.480469,0.40039 -0.480469,1.121093 0,0.760743 0.42041,1.121094 0.280273,0.260254 0.880859,0.260254 z m 9.581511,1.081055 q -1.761719,0 -2.862793,-1.241211 -1.081055,-1.241211 -1.081055,-3.163086 0,-2.102051 1.221192,-3.4033205 1.221191,-1.3212891 3.183105,-1.3212891 1.081055,0 1.841797,0.4604492 0.760742,0.4604492 0.760742,1.0610352 0,0.340332 -0.240234,0.5605469 -0.240235,0.2001953 -0.580567,0.2001953 -0.440429,0 -1.161132,-0.600586 -0.700684,-0.6206054 -1.321289,-0.6206054 -0.940918,0 -1.641602,0.9409179 -0.700684,0.940918 -0.700684,2.2221685 0,1.461425 0.920899,2.54248 0.940918,1.061035 2.322265,1.061035 0.540528,0 0.980958,-0.160156 0.460449,-0.180176 0.680664,-0.380371 0.240234,-0.220215 0.460449,-0.380371 0.240234,-0.180176 0.380371,-0.180176 0.140137,0 0.240234,0.100098 0.100098,0.100097 0.100098,0.240234 0,0.160156 -0.120117,0.320312 -0.540528,0.740723 -1.421387,1.241211 -0.880859,0.500489 -1.961914,0.500489 z m 8.240202,-0.600586 q 0,-0.260254 0.140137,-0.360352 0.160156,-0.120117 0.340332,-0.100097 0.200195,0 0.340332,-0.08008 0.160156,-0.08008 0.160156,-0.280273 0,-0.200195 -0.540527,-0.960938 -0.540528,-0.760742 -1.041016,-1.381347 -0.480469,-0.620606 -0.540527,-0.680664 0,-0.04004 -0.08008,-0.04004 -0.08008,0 -0.320312,0.260254 -0.240234,0.260253 -0.260254,0.340332 -0.02002,0.06006 -0.02002,0.220214 v 2.122071 q 0,0.280273 0.140136,0.340332 0.140137,0.06006 0.800782,0.140137 0.440429,0.100097 0.440429,0.440429 0,0.340332 -0.280273,0.340332 -0.04004,0 -0.240235,-0.02002 -0.200195,-0.02002 -0.560546,-0.04004 -0.360352,-0.02002 -0.780762,-0.02002 -0.42041,0 -0.780762,0.02002 -0.360351,0.02002 -0.580566,0.04004 -0.200196,0.02002 -0.240235,0.02002 -0.360351,0 -0.360351,-0.360351 0,-0.240235 0.160156,-0.320313 0.160156,-0.100097 0.340332,-0.100097 0.200195,0 0.360352,-0.100098 0.180175,-0.100098 0.200195,-0.340332 V 3.0496426 q 0,-0.3203125 -0.260254,-0.5004883 Q 33.332879,1.9285488 33.29284,1.8885098 L 33.21276,1.7283535 q 0,-0.2001953 0.42041,-0.340332 1.941895,-0.86083987 2.021973,-0.86083987 0.220215,0 0.220215,0.34033203 V 10.556967 q 0,0.08008 0.06006,0.08008 0.08008,0 0.120117,-0.08008 0.300293,-0.300293 0.600586,-0.6005862 0.320313,-0.3203125 0.480469,-0.4804687 0.180176,-0.1801758 0.360352,-0.3603516 0.180175,-0.1801757 0.260253,-0.2802734 0.100098,-0.1000977 0.180176,-0.2001953 0.08008,-0.1000977 0.100098,-0.1601563 0.02002,-0.080078 0.04004,-0.1601562 0.02002,-0.080078 0.02002,-0.1801758 0,-0.340332 -0.280274,-0.5405273 Q 37.557002,7.3738613 37.557002,7.2737637 V 7.0535488 q 0,-0.2602539 0.44043,-0.2602539 h 1.181152 q 0.600586,0 1.101074,-0.02002 0.520508,-0.02002 0.800782,-0.02002 0.300293,-0.02002 0.360351,-0.02002 0.300293,0 0.300293,0.3803711 0,0.2402344 -0.100097,0.3203125 -0.100098,0.080078 -0.480469,0.1201172 -0.360352,0.040039 -0.600586,0.1000977 -0.44043,0.1201171 -0.940918,0.4804687 -0.500488,0.3603516 -0.820801,0.6806641 -0.320312,0.3203125 -1.221191,1.2412118 -0.140137,0.140136 -0.140137,0.180175 0,0.08008 2.382324,2.922852 0.360352,0.42041 0.580567,0.660644 0.220214,0.220215 0.620605,0.46045 0.42041,0.240234 0.880859,0.300293 0.340332,0.04004 0.340332,0.360351 0,0.42041 -0.340332,0.42041 -0.02002,0 -0.140136,-0.02002 -0.100098,0 -0.280274,-0.02002 -0.180175,-0.02002 -0.42041,-0.04004 -0.220215,-0.02002 -0.520508,-0.04004 -0.300293,0 -0.600586,0 -0.300293,0 -0.600586,0 -0.300293,0.02002 -0.540527,0.04004 -0.220215,0.02002 -0.400391,0.04004 -0.180175,0.02002 -0.300292,0.02002 -0.100098,0.02002 -0.120118,0.02002 -0.280273,0 -0.280273,-0.340332 z m 7.739715,-7.8476565 q 0,0.1201172 0.100098,0.1201172 0.04004,0 0.380371,-0.2001954 0.340332,-0.2202148 0.980957,-0.4204101 0.660645,-0.2202149 1.421387,-0.2202149 1.801758,0 2.882812,1.2612305 1.101075,1.241211 1.101075,3.2631832 0,0.780762 -0.180176,1.521485 -0.180176,0.720703 -0.84082,1.541504 -0.640625,0.800781 -1.701661,1.201172 -1.081054,0.40039 -2.282226,0.40039 -0.540527,0 -1.141113,-0.200195 -0.600586,-0.180176 -0.86084,-0.180176 -0.360352,0 -0.640625,0.220215 -0.280274,0.220215 -0.380371,0.220215 -0.320313,0 -0.320313,-0.620606 0,-1.201172 0.02002,-5.9858395 0.04004,-4.8046875 0.04004,-6.0058594 0,-0.2802734 -0.260254,-0.4604492 Q 43.615077,2.5291348 43.47494,2.4490566 43.334804,2.348959 43.234706,2.3089199 43.154628,2.2488613 43.05453,2.1888027 42.954433,2.1287441 42.894374,2.0887051 q -0.04004,-0.040039 -0.100098,-0.080078 -0.06006,-0.040039 -0.100097,-0.060059 -0.02002,-0.02002 -0.04004,-0.040039 -0.02002,-0.040039 -0.04004,-0.060059 0,-0.040039 0,-0.060059 0,-0.1601563 0.260253,-0.2602539 2.262208,-0.90087892 2.342286,-0.90087892 0.280273,0.0400391 0.280273,0.40039062 0,0.6806641 -0.04004,3.2832031 -0.02002,2.6025391 -0.02002,2.8427735 z m 5.58545,4.1440425 q 0,-1.6616207 -1.020996,-2.7226558 -1.020996,-1.0610352 -2.402344,-1.0610352 -0.720703,0 -1.481445,0.3403321 -0.740723,0.340332 -0.740723,0.6606445 v 5.2451174 q 0,0.02002 -0.02002,0.08008 0,0.04004 0,0.06006 0,0.380371 0.300293,0.500488 0.960938,0.380371 1.881836,0.380371 1.561524,0 2.522461,-0.960938 0.960938,-0.980957 0.960938,-2.522461 z m 3.51559,1.461426 q 0,-1.041015 0,-1.941894 0,-0.9008792 0,-1.4013675 0.02002,-0.5205078 0.02002,-0.6206055 0,-0.2202148 -0.160156,-0.3002929 -0.140137,-0.1000977 -1.221192,-0.5405274 -0.260254,-0.1000976 -0.260254,-0.2602539 0,-0.060059 0.02002,-0.1201172 Q 52.976372,7.5139976 53.03643,7.473959 53.11651,7.43392 53.176566,7.4139 53.236626,7.373861 53.336722,7.333822 53.43682,7.293783 53.476859,7.273763 55.719047,6.1927083 55.739066,6.1927083 h 0.02002 q 0.280273,0 0.280273,0.340332 l -0.02002,0.6606445 q -0.04004,0.6606446 -0.08008,1.7817383 -0.02002,1.1010739 -0.02002,2.2021479 v 0.680664 q 0,1.901856 0.06006,2.242188 0.06006,0.340332 0.40039,0.380371 0.600586,0.08008 0.760742,0.140137 0.160157,0.06006 0.160157,0.300293 0,0.440429 -0.240235,0.440429 -0.02002,0 -0.120117,-0.02002 -0.100098,0 -0.280273,-0.02002 -0.180176,-0.02002 -0.400391,-0.04004 -0.220215,-0.02002 -0.520508,-0.04004 -0.280273,0 -0.560547,0 -0.280273,0 -0.580566,0 -0.300293,0.02002 -0.520508,0.04004 -0.200195,0.02002 -0.380371,0.04004 -0.180176,0.02002 -0.280273,0.02002 -0.100098,0.02002 -0.120118,0.02002 -0.320312,0 -0.320312,-0.340332 0,-0.340332 0.120117,-0.40039 0.140137,-0.06006 0.900879,-0.160157 0.360352,-0.06006 0.44043,-0.220214 0.100097,-0.180176 0.100097,-0.520508 z M 54.73809,2.5691738 q 0,-0.4003906 0.300293,-0.680664 0.300293,-0.2802735 0.700683,-0.2802735 0.400391,0 0.680664,0.2802735 0.300293,0.2802734 0.300293,0.6606445 0,0.4204101 -0.300293,0.7006836 -0.280273,0.2802734 -0.700683,0.2802734 -0.42041,0 -0.700684,-0.2602539 Q 54.73809,2.989584 54.73809,2.5691738 Z m 5.937957,4.9448242 q 0.02002,0 0.44043,-0.2802734 0.42041,-0.300293 0.940918,-0.640625 0.520508,-0.340332 0.760742,-0.4204102 0.240235,-0.080078 0.600586,-0.080078 0.560547,0 1.081055,0.2602539 0.520508,0.2402344 0.520508,0.640625 v 0.02002 q 0,0.1201171 -0.08008,0.2402343 -0.08008,0.1201172 -0.140137,0.1801758 -0.06006,0.060059 -0.200195,0.1801758 l -0.140137,0.1201172 q -0.02002,0 -0.220215,0.1601562 -0.180176,0.1401367 -0.320312,0.2001953 -0.140137,0.060059 -0.300293,0.060059 -0.240235,0 -0.560547,-0.2602539 -0.300293,-0.2602539 -0.660645,-0.2602539 -0.44043,0 -0.940918,0.3203125 -0.500488,0.3203125 -0.640625,0.5205078 -0.08008,0.1201172 -0.08008,0.3803711 v 4.9047855 0.08008 q 0,0.580566 0.500488,0.620605 0.200196,0.02002 0.540528,0.04004 0.620605,0.04004 0.780761,0.120118 0.180176,0.06006 0.180176,0.340332 0,0.40039 -0.280273,0.40039 -0.02002,0 -0.140137,-0.02002 -0.100098,0 -0.300293,-0.02002 -0.200195,-0.02002 -0.44043,-0.04004 -0.240234,-0.02002 -0.580566,-0.04004 -0.320313,0 -0.620606,0 -0.320312,0 -0.640625,0 -0.320312,0.02002 -0.580566,0.04004 -0.240234,0.02002 -0.44043,0.04004 -0.180175,0.02002 -0.300293,0.02002 -0.100097,0.02002 -0.120117,0.02002 -0.340332,0 -0.340332,-0.340332 0,-0.180176 0.08008,-0.260254 0.08008,-0.100097 0.160157,-0.120117 0.08008,-0.04004 0.300293,-0.06006 0.240234,-0.04004 0.380371,-0.08008 0.380371,-0.08008 0.380371,-0.480468 V 8.5750332 q 0,-0.1201172 -0.02002,-0.1801758 -0.02002,-0.080078 -0.120117,-0.1601562 -0.08008,-0.1000977 -0.180176,-0.1601563 -0.08008,-0.060059 -0.340332,-0.2402344 -0.260254,-0.1801757 -0.480469,-0.340332 -0.06006,-0.060059 -0.08008,-0.1401367 0,-0.080078 0.820801,-0.4604492 0.740723,-0.3603516 1.341309,-0.6606446 0.02002,0 0.06006,-0.02002 0.08008,-0.040039 0.120117,-0.040039 0.240235,0 0.240235,0.4204102 V 7.4139 q 0,0.1000976 0.06006,0.100098 z m 9.381314,-0.1201172 q -1.521485,0 -2.342285,0.9208985 -0.820801,0.9208984 -0.820801,2.5024417 0,1.741699 1.161133,2.762695 1.161132,1.020996 2.402343,1.020996 0.620606,0 1.201172,-0.240234 0.600586,-0.260254 0.720703,-0.640625 0.08008,-0.320313 0.08008,-0.460449 V 8.6551113 q 0,-0.2602539 -0.220215,-0.4804687 -0.840822,-0.7807618 -2.18213,-0.7807618 z M 70.0974,6.5730801 q 0.600586,0 1.121094,0.080078 0.520507,0.060059 0.800781,0.1401367 l 0.280273,0.080078 q 0.160157,0 0.160157,-0.1801757 V 3.2498379 q 0,-0.060059 -0.02002,-0.1000977 0,-0.060059 -0.02002,-0.1000976 0,-0.040039 -0.04004,-0.080078 -0.02002,-0.040039 -0.04004,-0.060059 -0.02002,-0.020019 -0.100097,-0.060058 Q 72.179428,2.8094086 72.11937,2.7893886 72.07933,2.7493496 71.959214,2.7093106 71.859117,2.6692716 71.759019,2.6292326 71.678939,2.5891936 71.518785,2.529135 71.358628,2.469076 71.218492,2.4090178 70.83812,2.3089201 70.83812,2.0887053 q 0,-0.1201172 0.180176,-0.2402344 2.5625,-1.24121095 2.642578,-1.24121095 0.240235,0 0.240235,0.28027344 0,0.20019531 -0.02002,1.06103511 -0.02002,0.8408204 -0.04004,2.3422852 0,1.4814453 0,3.2431641 0,5.4853512 0.06006,6.0258782 0,0.06006 0,0.100098 0.02002,0.02002 0.04004,0.06006 0.02002,0.02002 0.04004,0.04004 0.04004,0.02002 0.08008,0.04004 0.06006,0 0.100098,0.02002 0.04004,0 0.120117,0 0.100098,0 0.160156,0 0.08008,0 0.200195,0.02002 0.120118,0 0.220215,0 0.400391,0 0.400391,0.300293 0,0.140137 -0.120117,0.220215 -0.100098,0.08008 -0.46045,0.240234 -0.340332,0.140137 -0.640625,0.320313 -0.40039,0.220214 -0.720703,0.440429 -0.320312,0.240235 -0.460449,0.340332 -0.140137,0.120118 -0.220215,0.120118 -0.160156,0 -0.160156,-0.220215 v -0.660645 q 0,-0.06006 -0.06006,-0.06006 l -0.120117,0.08008 q -0.100097,0.08008 -0.300293,0.200195 -0.200195,0.120117 -0.480468,0.240234 -0.260254,0.120118 -0.680665,0.200196 -0.40039,0.08008 -0.84082,0.08008 -1.981933,0 -3.243164,-1.341309 -1.241211,-1.361328 -1.241211,-3.343262 0,-1.7817376 1.141113,-3.1030267 1.161133,-1.321289 3.42334,-1.321289 z"
       id="text1"
       aria-label="Blackbird" />
  </g>
  <metadata
     id="metadata6">
    <rdf:RDF>
      <cc:Work
         rdf:about="">
        <dc:title>Blackbird Name Logo</dc:title>
        <dc:date>2024-07-17</dc:date>
        <dc:creator>
          <cc:Agent>
            <dc:title>Kynan Parker-Roth</dc:title>
          </cc:Agent>
        </dc:creator>
      </cc:Work>
    </rdf:RDF>
  </metadata>
</svg>
