<?xml version="1.0" encoding="UTF-8" standalone="no"?>
<!-- Created with Inkscape (http://www.inkscape.org/) -->

<svg
   version="1.1"
   id="svg1"
   width="4349.3818"
   height="1788.6329"
   viewBox="0 0 4349.3818 1788.6329"
   sodipodi:docname="Blackbird_logo.svg"
   inkscape:version="1.3-beta (cedbd6c6ff, 2023-05-28)"
   xml:space="preserve"
   xmlns:inkscape="http://www.inkscape.org/namespaces/inkscape"
   xmlns:sodipodi="http://sodipodi.sourceforge.net/DTD/sodipodi-0.dtd"
   xmlns="http://www.w3.org/2000/svg"
   xmlns:svg="http://www.w3.org/2000/svg"><defs
     id="defs1" /><sodipodi:namedview
     id="namedview1"
     pagecolor="#ffffff"
     bordercolor="#000000"
     borderopacity="0.25"
     inkscape:showpageshadow="2"
     inkscape:pageopacity="0.0"
     inkscape:pagecheckerboard="0"
     inkscape:deskcolor="#d1d1d1"
     inkscape:zoom="0.26063294"
     inkscape:cx="2455.5607"
     inkscape:cy="788.4652"
     inkscape:window-width="2400"
     inkscape:window-height="1271"
     inkscape:window-x="3191"
     inkscape:window-y="-9"
     inkscape:window-maximized="1"
     inkscape:current-layer="svg1" /><g
     inkscape:groupmode="layer"
     inkscape:label="Image"
     id="g1"
     transform="translate(-472.7819,-860.16605)"><path
       style="fill:#000000"
       d="m 682.89411,2574.4183 c 14.11438,-56.4539 19.06704,-74.8171 20.37626,-75.5497 0.9513,-0.5324 1.72963,-1.3449 1.72963,-1.8055 0,-0.4606 -39.81912,-23.5008 -88.48694,-51.2003 -48.66781,-27.6995 -88.49281,-50.9253 -88.5,-51.6128 -0.007,-0.6875 0.0994,-1.2482 0.23694,-1.246 0.1375,0 41.65,18.6441 92.25,41.4266 50.6,22.7824 92.27053,41.1181 92.60118,40.746 1.23737,-1.3926 63.96312,-202.9484 68.05388,-218.6766 1.95608,-7.5208 2.0418,-9.6773 1.43101,-36 -1.26461,-54.4999 -8.21419,-250.4615 -8.90693,-251.1542 -0.19786,-0.1979 -5.49411,-1.0857 -11.76944,-1.9731 -12.56848,-1.7771 -44.11268,-1.4048 -47.79171,0.5642 -4.58492,2.4537 -5.1262,13.9618 -1.49681,31.8235 1.69279,8.3309 9.10339,35.9849 10.05621,37.5266 0.31836,0.5151 0.0517,1.2624 -0.59268,1.6606 -0.82788,0.5117 0.021,3.1901 2.89391,9.1309 2.23599,4.6237 3.6407,8.5484 3.12157,8.7214 -0.53049,0.1769 -0.69947,2.6826 -0.38583,5.7215 0.30692,2.9737 0.0833,6.6604 -0.49688,8.1927 -0.5802,1.5322 -1.32506,4.0234 -1.65525,5.5359 -0.33018,1.5125 -1.17516,2.75 -1.87772,2.75 -0.70256,0 -4.17847,-2.4555 -7.72425,-5.4567 -3.94113,-3.3358 -6.80574,-5.0978 -7.37021,-4.5333 -0.56447,0.5644 -0.46934,5.1145 0.24474,11.7067 1.64743,15.2083 1.54234,18.0111 -0.72077,19.2223 -1.03729,0.5551 -2.86077,2.6615 -4.05218,4.6808 l -2.16619,3.6714 -3.24543,-3.1456 c -1.78499,-1.7301 -3.51749,-3.1456 -3.85,-3.1456 -0.33251,0 -1.11325,1.4625 -1.73497,3.25 -2.13395,6.1353 -7.37641,13.786 -9.07674,13.2464 -0.95634,-0.3036 -2.94019,0.8903 -4.98471,2.9997 -4.15563,4.2875 -5.6471,4.4045 -6.50249,0.5099 -0.36168,-1.6468 -1.38573,-3.4016 -2.27567,-3.8996 -1.15779,-0.6479 -1.73762,-2.7831 -2.03835,-7.506 -0.23115,-3.6302 -0.57168,-6.6004 -0.75673,-6.6004 -0.18505,0 -1.4967,0.5286 -2.91478,1.1748 -2.35101,1.0712 -2.8369,0.8728 -5.51118,-2.25 -1.61307,-1.8837 -3.20433,-4.2123 -3.53612,-5.1748 -0.33179,-0.9625 -1.24793,-1.75 -2.03587,-1.75 -2.8372,0 -2.27817,-17.23 1.13559,-35 3.06331,-15.9457 4.40091,-28.7643 4.38267,-42 -0.0133,-9.6741 -0.13624,-10.3427 -1.56244,-8.5 -3.12316,4.0352 -6.35069,11.4659 -10.24491,23.5869 -2.19344,6.8272 -6.07177,18.8816 -8.6185,26.7876 -4.7878,14.863 -11.90916,31.7579 -13.25632,31.4496 -0.42279,-0.097 -1.5562,-0.4824 -2.5187,-0.857 -1.20984,-0.4709 -1.75,-0.1996 -1.75,0.8789 0,2.828 -2.31563,6.7469 -3.67786,6.2241 -0.81263,-0.3118 -1.87974,0.8287 -2.77085,2.9614 -0.79708,1.9077 -1.78508,3.4685 -2.19554,3.4685 -0.41047,0 -2.00844,-1.2092 -3.55103,-2.6871 -1.95127,-1.8694 -2.80472,-2.2333 -2.80472,-1.1958 0,0.8202 -1.3501,3.6202 -3.00022,6.2222 -2.74406,4.3269 -3.188,4.6303 -5.19969,3.5537 -1.90604,-1.0201 -2.40368,-0.858 -3.72998,1.2149 -0.84177,1.3157 -3.02462,3.9223 -4.85076,5.7926 -3.16652,3.243 -3.38095,3.3124 -4.63053,1.5 -0.72063,-1.0453 -1.91266,-3.5862 -2.64894,-5.6464 -0.73628,-2.0602 -2.19652,-4.0182 -3.24497,-4.3509 -1.71298,-0.5437 -1.83679,-1.254 -1.221,-7.0041 0.60499,-5.6494 0.48389,-6.3991 -1.03361,-6.3991 -2.46246,0 -1.48145,-6.7559 2.93461,-20.2097 4.00463,-12.2003 8.1727,-30.576 7.16418,-31.5845 -1.53607,-1.5361 -8.80298,10.8544 -11.9024,20.2942 -2.33889,7.1235 -5.49372,12.043 -6.85204,10.6847 -0.77648,-0.7765 -2.02248,0.1488 -4.40902,3.2744 -4.60935,6.0367 -10.56806,8.1979 -24.35629,8.8342 l -4.48066,0.2067 -0.79649,-5 c -0.85681,-5.3787 -0.19257,-15.1852 1.29327,-19.0933 1.23207,-3.2406 0.20331,-3.1013 -7.84049,1.0614 -8.76326,4.535 -14.19497,5.1762 -14.19497,1.6757 0,-1.6027 -1.12668,-1.9502 -8.25,-2.544 -11.77367,-0.9815 -12.75,-1.3256 -12.75,-4.4939 0,-2.5686 -0.21672,-2.6773 -5.33569,-2.6773 -2.93463,0 -7.25871,-0.6347 -9.60906,-1.4104 l -4.27335,-1.4103 0.61148,-4.4613 c 0.33632,-2.4537 1.7283,-6.4594 3.09329,-8.9017 2.41502,-4.3209 2.42841,-4.4543 0.49756,-4.9593 -2.77,-0.7243 -2.51289,-1.6947 1.67831,-6.3338 3.50474,-3.8794 3.56937,-4.0784 1.5,-4.6195 -2.56011,-0.6695 -2.56075,-0.6731 -0.74496,-4.132 2.74019,-5.2197 14.29642,-14.5115 22.10669,-17.7749 l 3.50217,-1.4633 -3.63504,-3.1916 C 497.71418,1994.5419 488,1981.4722 488,1979.7535 c 0,-1.2328 3.92141,-4.5811 6.75,-5.7635 1.25878,-0.5262 2.25,-1.8125 2.25,-2.9199 0,-2.351 4.4172,-3.4769 11.44692,-2.9178 2.69204,0.2141 4.69748,-0.086 4.94879,-0.7411 0.6852,-1.7856 9.99812,-0.039 23.88546,4.4786 6.94851,2.2606 14.33035,4.1102 16.40409,4.1102 h 3.77043 l -3.97785,-3.2106 c -7.42678,-5.9944 -19.64544,-18.2661 -24.18448,-24.2894 -2.48681,-3.3 -6.26132,-9.46 -8.38782,-13.6888 -3.66567,-7.2898 -3.76356,-7.7215 -1.88595,-8.3174 1.89454,-0.6013 2.6742,-4.4962 2.15064,-10.7438 -0.16349,-1.951 1.11038,-2.0922 7.57977,-0.8407 3.32674,0.6435 4.25,0.5255 4.25,-0.5436 0,-1.8922 1.59683,-1.6896 8.25,1.0464 3.1625,1.3005 5.75,2.257 5.75,2.1255 0,-0.1315 -0.51087,-1.7046 -1.13526,-3.4958 -1.3958,-4.0039 -0.24342,-5.0043 5.79065,-5.0265 3.29721,-0.012 5.02055,0.7075 8.34461,3.4847 2.30407,1.925 4.8878,3.5 5.74162,3.5 0.85382,0 3.39874,1.5094 5.65539,3.3542 6.94667,5.6789 34.60921,23.6266 42.63448,27.6616 10.7575,5.4088 18.05317,7.345 25.22563,6.6946 3.24549,-0.2943 6.12151,-0.7557 6.39117,-1.0254 2.50528,-2.5052 -11.60083,-12.1921 -33.18696,-22.7899 -11.26293,-5.5296 -17.7393,-9.39 -21.75,-12.9646 -3.14123,-2.7998 -5.71133,-5.4929 -5.71133,-5.9848 0,-0.4919 1.37956,-1.6077 3.06568,-2.4797 l 3.06569,-1.5853 -4.39559,-3.3563 c -5.80427,-4.4319 -8.07719,-7.803 -6.12932,-9.0908 1.13591,-0.751 1.20042,-1.6852 0.32989,-4.7774 -0.59518,-2.114 -0.88536,-4.0405 -0.64486,-4.281 1.46531,-1.4653 10.98533,-1.4689 15.27946,-0.01 2.62252,0.8936 4.94115,1.4517 5.15252,1.2404 0.21137,-0.2114 -0.53826,-1.8976 -1.66584,-3.7471 -1.12759,-1.8495 -2.05184,-3.7637 -2.05389,-4.2538 -0.002,-0.4913 3.71415,-0.659 8.28513,-0.3738 6.34836,0.3961 9.56738,1.1617 13.75,3.2703 4.85887,2.4495 14.79536,8.7259 20.51773,12.9599 l 2.0566,1.5217 -1.50534,-7.3906 c -1.04089,-5.1104 -1.20447,-8.0649 -0.53018,-9.5761 0.96399,-2.1604 1.04335,-2.1395 6.93672,1.8221 4.30537,2.8941 6.30606,3.7215 7.20161,2.9782 0.91124,-0.7562 2.95271,0.6155 7.69898,5.1731 3.55242,3.4112 6.89015,5.9356 7.41719,5.6099 1.08939,-0.6733 0.818,-1.2804 6.8822,15.3963 9.35015,25.7131 18.58846,41.8412 26.97428,47.0911 3.12589,1.9569 3.46759,1.9642 17.36074,0.3684 9.3157,-1.07 19.78855,-1.5133 30.56229,-1.2937 9.01462,0.1838 16.38979,0.2299 16.38926,0.1024 C 767.00043,1956.1408 740,1925.5478 707,1888.2838 c -33,-37.2641 -60,-68.0973 -60,-68.5183 0,-0.421 0.35512,-0.7655 0.78916,-0.7655 0.43403,0 29.76026,29.0238 65.16939,64.4973 35.40913,35.4735 64.49779,64.3797 64.64147,64.236 0.36016,-0.3601 26.76796,-85.6368 49.35575,-159.3807 15.66314,-51.1365 19.22416,-61.7475 21.75102,-64.8131 l 3.02154,-3.6656 -32.21974,-69.687 c -17.72086,-38.3278 -32.00649,-70.0676 -31.74585,-70.5329 0.26065,-0.4652 1.03801,-0.2402 1.72747,0.5 0.68946,0.7403 15.9916,28.8982 34.00476,62.5732 18.01316,33.675 33.27739,61.9468 33.92052,62.8263 0.97842,1.3381 10.36629,-12.5759 57.50338,-85.2272 51.04208,-78.6699 59.58711,-91.2414 62.84075,-92.4518 0.6553,-0.2437 -0.15948,-16.6096 -2.33366,-46.8745 -3.80284,-52.936 -3.88663,-54.8607 -2.3202,-53.2942 0.60817,0.6081 3.52792,20.6106 6.48834,44.45 2.96043,23.8393 5.63258,44.8033 5.93813,46.5866 l 0.55553,3.2423 10.20612,-8.7567 c 45.65382,-39.1704 96.58632,-70.9932 138.20612,-86.3517 17.4482,-6.4387 66.3868,-19.3283 95.5581,-25.1684 l 11.4419,-2.2906 0.587,-5.4587 c 0.3229,-3.0022 0.6604,-4.4673 0.75,-3.2557 0.09,1.2117 0.6954,3.3715 1.3462,4.7997 0.9567,2.0999 1.77,2.5394 4.25,2.2971 2.1606,-0.2111 2.9453,-0.7429 2.6556,-1.7997 -0.2261,-0.825 -0.6177,-4.65 -0.8701,-8.5 -0.3079,-4.6955 -1.0885,-7.8888 -2.3712,-9.6998 -4.5775,-6.463 -6.793,-13.4593 -8.8059,-27.8088 -1.8687,-13.321 -2.7301,-16.367 -10.6655,-37.7147 -6.3005,-16.9496 -9.1322,-23.3819 -10.4821,-23.8103 -2.8792,-0.9139 -4.3037,-7.8082 -4.2462,-20.5508 l 0.052,-11.5843 -11.0878,-3.2214 c -19.103,-5.5501 -33.9186,-12.0093 -50.0065,-21.8014 -12.8963,-7.8495 -19.4176,-13.1209 -34.9933,-28.2866 -21.0388,-20.4848 -35.6715,-36.6126 -63.5658,-70.0606 -39.7896,-47.7115 -55.21176,-64.0899 -78.46609,-83.3311 C 949.7222,1028.2344 924.38153,1014.111 874,993.01517 860.525,987.37291 843.65,980.28989 836.5,977.27513 819.4642,970.09208 786.96585,953.963 780,949.23392 c -4.20333,-2.85362 -5.57735,-4.41074 -5.82808,-6.60475 -0.57921,-5.06823 0.65879,-7.58653 4.60433,-9.36605 2.04806,-0.92371 4.77304,-2.5983 6.05551,-3.7213 2.15285,-1.88514 3.49013,-2.02574 17.42773,-1.83224 8.30278,0.11527 16.34677,0.4843 17.87553,0.82008 2.48363,0.54549 2.94477,0.21515 4.33102,-3.10263 l 1.55144,-3.71312 8.14812,0.67952 c 19.64949,1.63871 49.72709,10.26038 79.8344,22.88435 8.525,3.57453 29.9,13.35506 47.5,21.73453 80.0989,38.13549 90.9716,43.02619 109.5937,49.29649 31.6946,10.6719 38.4951,9.7875 121.4063,-15.7888 51.8173,-15.98453 60.6616,-18.40646 89.587,-24.5327 38.5252,-8.1594 47.9803,-12.27867 82.3903,-35.89454 11.022,-7.56448 17.9313,-13.42441 32.6778,-27.71458 10.2853,-9.967 22.4455,-21.12341 27.0227,-24.79202 25.3996,-20.35761 51.7595,-28.55188 87.8067,-27.29565 23.1962,0.80838 37.8984,5.13339 53.8163,15.83137 l 7.3009,4.90667 11.6991,-1.14819 c 6.7659,-0.66402 18.446,-0.91021 27.6992,-0.58383 29.5468,1.0422 47.1828,6.388 52.036,15.77313 1.4171,2.74032 1.398,3.01242 -0.251,3.57212 -0.9818,0.33322 -4.485,1.8793 -7.785,3.43573 -4.0141,1.89324 -13.3005,4.31488 -28.0569,7.31651 -37.3368,7.59473 -38.1054,7.84879 -51.3595,16.97772 -8.5487,5.88798 -11.3333,9.25897 -23.3481,28.26431 -4.8205,7.62517 -12.3354,19.03895 -16.6999,25.36395 -10.116,14.66031 -11.028,18.14124 -11.0551,42.1974 -0.039,34.4827 -5.6871,58.9873 -20.6703,89.6784 -19.5855,40.1182 -55.1091,79.5442 -97.3102,108.0001 -13.9121,9.3808 -16.6271,10.9539 -34.5,19.9886 -14.4499,7.3043 -23.2111,13.8136 -26.2273,19.4861 -1.0851,2.0405 -1.868,6.6375 -2.2237,13.0565 l -0.549,9.9071 15.5,13.4705 c 8.525,7.4087 22.3384,19.9505 30.6965,27.8705 14.0353,13.2998 15.5634,15.1047 20,23.6224 2.7997,5.3753 6.7161,11.1097 9.3884,13.7467 2.5218,2.4884 4.9176,5.8634 5.3242,7.5 0.4065,1.6366 1.6529,3.9549 2.7698,5.1517 1.1168,1.1968 1.7319,2.6593 1.3669,3.25 -0.4659,0.7537 6.3613,1.074 22.8952,1.074 20.2747,0 23.559,0.2091 23.559,1.5 0,1.2907 -3.2712,1.5 -23.441,1.5 -15.3153,0 -23.6663,0.3645 -24.0909,1.0516 -0.4208,0.6809 -3.0855,0.8116 -7.559,0.3708 -5.9406,-0.5854 -6.9091,-0.4574 -6.9091,0.9132 0,4.0239 -8.1164,4.9425 -10.571,1.1964 -1.4558,-2.2218 -2.0815,-2.4059 -6.273,-1.8455 -2.5608,0.3423 -4.814,1.0269 -5.0071,1.5212 -0.6115,1.5654 -5.5793,5.7923 -6.8076,5.7923 -2.0216,0 -7.3283,-3.4366 -7.335,-4.75 0,-0.7773 -1.4245,-1.2487 -3.7563,-1.2465 -9.0625,0.01 -56.8217,5.2961 -72.5101,8.0281 -4.6512,0.81 -7.2119,1.8419 -8.8211,3.5548 -2.3504,2.502 -8.2033,3.3803 -9.4188,1.4136 -0.3399,-0.55 -1.9241,-1 -3.5205,-1 -2.5272,0 -3.0381,0.5038 -3.9518,3.8972 -1.614,5.9938 -6.3008,6.9438 -10.3742,2.1028 -1.3884,-1.65 -2.9948,-3 -3.5697,-3 -0.5749,0 -2.0664,2.1375 -3.3145,4.75 -2.9019,6.0742 -6.0007,6.7418 -10.9839,2.3664 l -3.4137,-2.9972 -14.9358,3.3556 c -18.2965,4.1106 -49.5225,12.3727 -66.7718,17.6671 -55.2544,16.9593 -112.8778,51.2511 -160.7635,95.6707 L 989.30115,1531.5 946.92303,1598 c -23.30797,36.575 -50.88533,79.9049 -61.28303,96.2887 l -18.90491,29.7887 -21.90134,71.2113 C 798.52302,1945.8661 795.69089,1955.621 795.85166,1964 c 0.0791,4.125 1.71419,38.1 3.63344,75.5 1.91925,37.4 4.60817,91.85 5.97538,121 1.36721,29.15 2.76279,58.85 3.10128,66 l 0.61544,13 14.6614,-1.1755 c 8.06377,-0.6466 20.41683,-1.2091 27.45124,-1.25 10.63141,-0.062 13.4383,-0.4053 16.63233,-2.0348 10.05745,-5.1309 22.0358,-25.2442 28.56112,-47.9581 C 899.37401,2177.0194 905,2150.56 905,2147.027 c 0,-0.4618 0.79337,-0.6323 1.76305,-0.3787 1.31063,0.3427 3.42764,-1.8948 8.25,-8.7195 3.56782,-5.0493 6.79015,-9.6575 7.16073,-10.2404 0.45672,-0.7184 1.19618,-0.6263 2.29531,0.2859 1.41773,1.1767 2.37027,0.5758 7.57943,-4.7808 3.27686,-3.3696 6.83758,-6.5974 7.91271,-7.1728 3.27663,-1.7536 4.48383,2.0521 4.51301,14.227 0.0142,5.9113 0.25076,10.7156 0.52576,10.6764 0.275,-0.039 2.3468,-2.2307 4.604,-4.87 5.73896,-6.7103 20.02854,-19.7921 25.34717,-23.2048 5.73059,-3.6771 13.54857,-6.5837 20.79958,-7.7331 3.16209,-0.5013 5.86295,-0.8063 6.00185,-0.6779 0.1389,0.1285 -0.6486,2.8528 -1.75,6.0542 -1.10143,3.2013 -2.0026,6.2118 -2.0026,6.6899 0,0.4781 3.3009,-0.9423 7.3353,-3.1565 6.4608,-3.5459 8.117,-4.0259 13.8916,-4.0259 6.0883,0 6.5993,0.1715 7.1592,2.4023 0.3316,1.3213 0.3123,3.8555 -0.043,5.6316 -0.5272,2.636 -0.2251,3.5466 1.6445,4.9569 l 2.2904,1.7276 -2.6962,4.9537 c -1.4828,2.7246 -4.4415,6.8631 -6.5747,9.1969 -3.2083,3.5098 -3.5873,4.3325 -2.1929,4.7601 0.9271,0.2843 3.123,1.1398 4.8798,1.9011 2.9609,1.2831 3.155,1.661 2.6586,5.177 -2.5595,18.129 -23.7839,46.747 -45.3527,61.1516 l -6.5,4.341 4.18875,-0.6019 c 5.52041,-0.7933 14.43486,-4.6876 27.31125,-11.931 16.2918,-9.1648 22.3438,-13.8486 38.5404,-29.8281 8.2721,-8.1614 15.8101,-14.8388 16.751,-14.8388 0.9409,0 3.7602,-2.6391 6.2651,-5.8647 5.2058,-6.7037 7.6124,-8.0871 15.7991,-9.0817 l 5.8556,-0.7114 -0.4025,6.3214 -0.4025,6.3215 2.5469,-2.3996 c 2.7292,-2.5713 12.5528,-8.5855 14.0235,-8.5855 0.4888,0 1.1742,0.8997 1.5232,1.9992 0.4807,1.5146 1.0451,1.7795 2.328,1.0929 1.5208,-0.8139 13.1886,-5.0921 13.8875,-5.0921 0.1566,0 0.2847,1.1445 0.2847,2.5433 0,1.3988 0.7843,5.2045 1.7429,8.457 1.4751,5.0053 2.1279,5.9587 4.25,6.2067 1.5634,0.1827 2.422,0.8576 2.2811,1.793 -0.1243,0.825 -0.6244,5.1 -1.1113,9.5 -0.6719,6.0723 -1.7893,9.8072 -4.6371,15.5 -4.383,8.7615 -22.1568,35.9356 -28.9426,44.25 -2.5811,3.1625 -4.1025,5.75 -3.3809,5.75 2.443,0 21.2488,-9.802 29.7264,-15.4941 10.8032,-7.2536 27.3144,-16.0188 32.9836,-17.5099 3.3733,-0.8872 4.9332,-0.8816 6.625,0.024 1.6022,0.8574 2.7644,0.8891 4.2112,0.1148 3.5704,-1.9108 11.197,-3.1671 15.2714,-2.5156 3.2347,0.5173 3.9803,1.0467 3.9803,2.8261 0,1.7601 1.0297,2.521 5.25,3.8794 2.8875,0.9294 6.2294,2.4741 7.4265,3.4326 2.103,1.684 2.1243,1.8947 0.6321,6.2428 -2.0583,5.9974 -7.7143,14.3882 -12.286,18.2263 l -3.7075,3.1127 7.5924,2.6338 c 11.6763,4.0505 25.9572,13.8361 30.1922,20.6885 1.1706,1.8941 1.9646,3.5843 1.7644,3.7558 -0.2003,0.1716 -1.4205,0.8623 -2.7118,1.5349 l -2.3476,1.2229 2.3476,1.5603 c 3.0934,2.056 10.8477,9.4857 10.8477,10.3936 0,0.3917 -1.35,1.0088 -3,1.3712 -3.6574,0.8033 -3.7252,1.4701 -0.4609,4.5367 4.568,4.2914 16.706,24.6427 18.8788,31.6533 0.5807,1.8736 -0.3756,2.9343 -6.6196,7.3421 -7.4083,5.2298 -21.7047,12.9553 -24.0261,12.9832 -2.8437,0.034 -3.8787,1.5745 -2.8593,4.2555 0.9131,2.4018 0.63,2.8435 -3.6327,5.667 -2.5427,1.6842 -5.4038,3.0622 -6.358,3.0622 -1.5276,0 -1.6039,0.4272 -0.6383,3.5734 0.8879,2.893 0.8225,3.7468 -0.3436,4.4847 -3.8599,2.4422 -24.312,-0.6346 -30.3007,-4.5586 l -2.4498,-1.6052 2.3377,5.8029 c 2.5079,6.2252 4.1772,15.0294 4.7428,25.0148 0.341,6.0204 0.2702,6.23 -2.2925,6.7929 -3,0.6589 -20.7018,-1.7889 -28.9778,-4.007 -7.0022,-1.8768 -7,-1.8769 -7,0.5021 0,3.4157 -2.8846,2.2458 -8.6306,-3.5002 -4.7452,-4.7452 -5.775,-5.3531 -7.5019,-4.4289 -2.6366,1.4111 -5.8619,-0.6734 -8.928,-5.7698 -1.2578,-2.0906 -2.4383,-3.9932 -2.6235,-4.2281 -0.1852,-0.2348 -0.8945,0.3287 -1.5763,1.2524 -1.1036,1.495 -2.2671,0.726 -10.5968,-7.0037 -9.7694,-9.0658 -21.9485,-22.9498 -29.2001,-33.2878 -2.3378,-3.3327 -4.3833,-5.9267 -4.5456,-5.7644 -0.1623,0.1623 0.1262,2.0805 0.6411,4.2628 0.515,2.1822 2.518,10.6605 4.4512,18.8407 2.0634,8.7304 5.1342,18.4688 7.4355,23.5798 2.1563,4.7888 4.2222,10.3148 4.5909,12.2801 0.5745,3.0628 0.3713,3.6681 -1.4228,4.2375 -2.4777,0.7864 -2.5547,1.4891 -0.6601,6.0235 0.7881,1.8863 1.7332,5.4318 2.1002,7.879 0.5735,3.824 0.3847,4.6007 -1.3429,5.5252 -1.3095,0.7009 -2.245,2.5616 -2.684,5.3389 -1.0862,6.8706 -2.7368,11.763 -3.9688,11.763 -2.1375,0 -10.1415,-5.6963 -13.1748,-9.3761 -3.0033,-3.6435 -3.0275,-3.6518 -4.8455,-1.6429 -1.005,1.1105 -2.3436,2.019 -2.9748,2.019 -1.5887,0 -9.4329,-7.9016 -11.1684,-11.25 -0.784,-1.5125 -1.596,-2.75 -1.8047,-2.75 -0.2086,0 -1.566,2.025 -3.0164,4.5 -1.4505,2.475 -3.0356,4.5 -3.5225,4.5 -1.136,0 -4.7706,-4.606 -5.535,-7.0145 -0.4028,-1.2691 -1.4356,-1.7924 -3.2912,-1.6675 -2.3009,0.1549 -3.0585,-0.5325 -5.0801,-4.6091 -2.1098,-4.2545 -2.5578,-4.6355 -4,-3.4021 -3.452,2.9522 -4.0022,2.7224 -8.4686,-3.5375 -8.9525,-12.5473 -16.85055,-26.0555 -31.1531,-53.2818 -14.24463,-27.1161 -23.72108,-42.5868 -29.11811,-47.5366 l -2.67239,-2.4509 0.64454,3.5 c 0.3545,1.925 3.32709,8.9 6.60575,15.5 7.96013,16.0239 21.68221,51.9173 23.47038,61.3925 2.52618,13.3858 2.70736,17.9622 0.75252,19.0084 -0.94515,0.5059 -2.33281,2.6476 -3.0837,4.7594 -0.75088,2.1118 -2.45172,5.7148 -3.77964,8.0066 -2.3011,3.9714 -2.56444,4.1239 -5.61147,3.25 -1.75839,-0.5043 -3.53264,-0.9169 -3.94277,-0.9169 -0.41014,0 -0.46208,3.9957 -0.11542,8.8794 0.52009,7.3271 0.34336,9.289 -1.01091,11.2225 -0.90265,1.2887 -1.64118,3.7812 -1.64118,5.5388 0,6.151 -0.64856,6.5797 -5.84498,3.8636 -2.56026,-1.3382 -5.75047,-3.3012 -7.08936,-4.3621 -1.95618,-1.55 -2.80603,-1.7043 -4.32663,-0.7856 -1.64055,0.9913 -2.55789,0.4241 -6.89545,-4.2631 -2.75173,-2.9736 -6.36021,-7.8111 -8.01882,-10.75 -1.65862,-2.9389 -3.31022,-5.3219 -3.67022,-5.2955 -0.36,0.026 -2.45119,2.5534 -4.64709,5.6156 l -3.99254,5.5677 -4.06156,-4.6157 c -2.42578,-2.7567 -4.91472,-4.6156 -6.1799,-4.6156 -3.33233,0 -4.57223,-5.0441 -6.2682,-25.5 -1.18381,-14.2784 -2.51263,-19.8845 -4.44917,-18.7703 -0.7363,0.4237 -4.38283,4.5953 -8.1034,9.2703 -3.72056,4.675 -7.24188,8.8118 -7.82513,9.1928 -1.63244,1.0665 -3.35259,-0.8977 -5.27358,-6.0216 -0.96321,-2.5691 -2.14058,-4.9405 -2.61637,-5.2696 -0.4758,-0.3291 -1.33252,-3.7041 -1.90383,-7.5 -1.62054,-10.7672 -1.82507,-11.525 -2.92687,-10.8441 -1.38428,0.8556 -0.39026,-4.7836 2.74235,-15.5575 1.3593,-4.675 2.69961,-9.2875 2.97849,-10.25 0.36087,-1.2455 -0.0602,-1.75 -1.46064,-1.75 -1.94773,0 -1.94874,-0.073 -0.0997,-7.25 3.71015,-14.3997 5.24846,-26.1367 5.34087,-40.75 0.0955,-15.1052 -0.64326,-19.1751 -4.70064,-25.8948 l -2.04977,-3.3948 -17.57895,0.6474 c -9.66842,0.3561 -22.2765,1.4337 -28.01796,2.3948 l -10.43902,1.7474 -1.86476,7.5 c -2.9324,11.794 -30.8964,109.7157 -53.2598,186.5 -18.30512,62.8503 -21.83199,76.2292 -34.53015,130.9874 -7.77847,33.5431 -14.3353,61.2991 -14.57073,61.68 -0.23542,0.381 -3.00845,0.9824 -6.16228,1.3365 -7.80644,0.8765 -21.49064,4.2552 -26.56451,6.559 -8.35566,3.7937 -9.11474,8.7066 11.22438,-72.6446 z m 454.83509,-284.0225 c -0.3323,-0.3323 -1.1948,-0.3678 -1.9167,-0.079 -0.7977,0.3192 -0.5608,0.5562 0.6042,0.6042 1.0541,0.043 1.6448,-0.193 1.3125,-0.5253 z m -12.2292,-3.012 c -4.95,-1.3393 -24.525,-6.2564 -43.5,-10.9268 -124.88251,-30.7381 -185.34591,-39.8366 -243.33289,-36.6166 -20.64377,1.1464 -38.64762,2.7895 -41.66711,3.8028 -2.42839,0.815 3.23245,5.0513 7.77539,5.8189 2.18087,0.3684 7.80987,-0.013 12.80777,-0.8682 24.30569,-4.1581 53.55121,-4.3243 89.91684,-0.5107 34.75048,3.6442 64.40092,8.7936 126.5,21.9692 81.0432,17.1951 114.228,23.4807 91.5,17.3314 z M 574,2005.5 c 0,-0.275 -0.225,-0.5 -0.5,-0.5 -0.275,0 -0.5,0.225 -0.5,0.5 0,0.275 0.225,0.5 0.5,0.5 0.275,0 0.5,-0.225 0.5,-0.5 z m 16,-6.2811 c 33.16451,-13.2704 70.79699,-24.7081 99,-30.0891 28.41575,-5.4216 54.90832,-6.6007 78.11881,-3.4768 10.55905,1.4211 13.12992,1.4866 15.75,0.4013 3.86024,-1.5989 3.9861,-2.8119 0.38119,-3.6735 -4.14938,-0.9918 -4.34186,-1.2889 -2.21353,-3.4173 1.26167,-1.2616 1.95794,-3.3039 1.94788,-5.7135 -0.009,-2.1011 14.56406,-51.7969 33.14314,-113.0235 18.23733,-60.1005 32.86187,-109.5705 32.49898,-109.9334 -0.36289,-0.3629 -1.04062,-0.2398 -1.50606,0.2736 -1.61626,1.7825 -66.3697,216.958 -66.57483,221.228 -0.32721,6.8111 -2.01751,7.7981 -12.33938,7.2053 -14.70211,-0.8443 -38.16429,-0.4197 -49.2062,0.8906 -41.35039,4.9068 -97.678,21.8066 -135.5,40.6537 -10.86694,5.4151 -9.80328,5.1982 6.5,-1.3254 z m 329.94071,-377.1892 c 49.59891,-76.2232 61.33793,-95.1838 54.09972,-87.3806 C 971.23242,1537.6763 861,1707.6666 861,1708.9697 c 0,0.6583 0.45666,1.0447 1.01481,0.8587 0.55814,-0.1861 26.6248,-39.6955 57.9259,-87.7987 z M 1253.5,1402 c 0.3399,-0.55 0.168,-1 -0.382,-1 -0.55,0 -1.2781,0.45 -1.618,1 -0.3399,0.55 -0.168,1 0.382,1 0.55,0 1.2781,-0.45 1.618,-1 z m 18.5,-4.0179 c 0,-0.3497 -1.35,-0.4376 -3,-0.1954 -3.3834,0.4966 -3.838,1.6316 -1.25,3.1211 1.3082,0.7529 2.0656,0.591 3,-0.6414 0.6875,-0.9068 1.25,-1.9347 1.25,-2.2843 z m -10.6197,-5.2321 -0.4325,-2.25 1.1561,2.199 c 0.9407,1.7891 1.7377,2.0885 4.2762,1.6063 4.0832,-0.7755 4.0677,-0.7526 3.0025,-4.4669 -0.9382,-3.2712 -9.5863,-10.4486 -11.3078,-9.3846 -0.4664,0.2882 -1.1359,2.0583 -1.4877,3.9335 -0.4734,2.5234 -0.087,4.3454 1.4854,7.0111 2.4034,4.0734 3.9526,4.7065 3.3078,1.3516 z m 20.2902,-2.3338 c 0.4476,-1.1663 0.8059,-1.2634 1.3592,-0.3682 0.498,0.8058 1.9527,0.9903 4.315,0.5471 3.1403,-0.5891 3.4685,-0.9258 2.7627,-2.8339 -0.4406,-1.191 -1.4325,-2.5067 -2.2042,-2.9239 -4.941,-2.671 -14.9481,-6.7831 -17.9032,-7.3566 l -3.5,-0.6793 5.75,5.8783 c 3.1625,3.2331 5.75,6.6527 5.75,7.5993 0,2.1609 2.8531,2.2675 3.6705,0.1372 z m 37.8714,-4.3816 c 8.273,-1.0548 24.5205,-2.6959 36.1055,-3.6468 l 21.0637,-1.729 1.5891,-4.0794 c 1.4942,-3.8359 1.5807,-3.8986 1.4486,-1.0508 -0.2023,4.3624 0.6044,5.0859 5.1839,4.6492 3.3595,-0.3204 4.1927,-0.8293 4.7059,-2.8741 0.343,-1.3667 0.095,-4.2484 -0.5505,-6.4038 -0.718,-2.3968 -1.1209,-10.1858 -1.0372,-20.0529 l 0.137,-16.1339 -8.844,-8.9881 c -15.0115,-15.2562 -40.4171,-36.4158 -42.3149,-35.2429 -1.6583,1.0249 -6.6121,-2.2034 -11.0463,-7.1986 -5.1888,-5.8451 -6.5551,-8.9605 -7.4704,-17.0335 -0.8203,-7.2341 0.4514,-6.8308 -15.0123,-4.7612 -12.7736,1.7095 -42.9013,1.9643 -55.9199,0.4729 -5.6662,-0.6491 -9.2683,-0.6735 -9.8749,-0.067 -0.5253,0.5253 -1.0113,6.8228 -1.0801,13.9945 -0.1007,10.4954 -0.4369,13.3513 -1.7234,14.6377 -1.4644,1.4642 -1.0213,3.7085 5.2876,26.7856 l 6.8859,25.1874 11.7124,11.5577 c 6.4418,6.3567 13.6032,13.8401 15.9142,16.6297 3.127,3.7744 5.115,5.2433 7.7714,5.7416 4.3031,0.8073 9.8019,5.4068 11.5717,9.6793 1.2456,3.0073 1.4532,3.095 5.8732,2.4808 2.52,-0.3502 11.3508,-1.4997 19.6238,-2.5545 z m 67.1248,-2.7013 c -0.3667,-0.3666 -0.9667,-0.3666 -1.3334,0 -0.3666,0.3667 -0.067,0.6667 0.6667,0.6667 0.7333,0 1.0333,-0.3 0.6667,-0.6667 z M 1409,1383 c 1.1647,-0.7527 0.8721,-0.9728 -1.309,-0.9847 -1.6211,-0.01 -2.5477,0.4076 -2.191,0.9847 0.7674,1.2416 1.5787,1.2416 3.5,0 z m -8.1881,-4.6284 c 0.6231,-1.1134 1.1319,-1.2715 1.6087,-0.5 0.8417,1.3619 4.5794,1.5149 4.5794,0.1874 0,-0.5175 -0.5014,-1.2509 -1.1143,-1.6296 -0.6594,-0.4076 -0.907,-2.2339 -0.6065,-4.474 0.4309,-3.2128 0.076,-4.1995 -2.3496,-6.5228 -2.4605,-2.3573 -3.0826,-2.5505 -4.4796,-1.3911 -1.0522,0.8733 -1.4398,2.2593 -1.103,3.9437 0.2956,1.4776 -0.3139,4.4586 -1.4138,6.9152 -1.0632,2.3749 -1.9332,4.4939 -1.9332,4.7088 0,1.2329 6.0439,0.1348 6.8119,-1.2376 z M 1420,1377.345 c 0,-1.4819 0.2117,-1.4634 2.0236,0.1764 1.475,1.3348 2.3227,1.5323 3.1266,0.7284 0.8039,-0.8039 -0.3167,-2.4106 -4.1333,-5.9264 -5.6304,-5.1865 -7.7041,-5.9998 -7.1986,-2.8234 0.1751,1.1 0.3114,3.6875 0.303,5.75 -0.014,3.4885 0.1902,3.75 2.9317,3.75 2.0755,0 2.947,-0.4894 2.947,-1.655 z m 151.5432,-455.91016 c 4.9263,-1.41084 13.0823,-3.87226 18.1245,-5.46983 5.0423,-1.59756 20.1173,-5.15911 33.5,-7.91455 28.0628,-5.77798 30.284,-6.35933 32.406,-8.48131 1.4255,-1.42553 0.8437,-1.56915 -6.3571,-1.56915 -18.7425,0 -42.8459,2.86608 -64.2166,7.63585 -10.7833,2.40675 -45.5959,13.13807 -44.8434,13.82343 0.1889,0.17204 6.3094,-0.83241 13.6012,-2.23211 7.2918,-1.3997 13.5918,-2.20284 14,-1.78476 0.4082,0.41808 -1.2828,2.51335 -3.7578,4.65616 -5.3257,4.61092 -4.4392,4.76797 7.5432,1.33627 z M 1582,904.13106 c 23.3567,-5.506 45.0489,-8.10666 67.75,-8.12251 6.7375,-0.005 12.25,-0.38881 12.25,-0.85356 0,-2.90997 -11.304,-8.40501 -21.8566,-10.62482 -11.8024,-2.48272 -32.1655,-3.54003 -48.2211,-2.50379 -7.9323,0.51196 -14.944,0.94045 -15.5816,0.95222 -0.7413,0.0137 -0.4163,1.55337 0.9019,4.2714 1.1336,2.3375 2.1052,5.7558 2.1592,7.59623 l 0.098,3.34623 -9,2.94053 c -10.3003,3.36536 -25.5907,10.61119 -29.9849,14.20928 -2.6086,2.13593 -0.9693,1.76896 13,-2.9102 8.7917,-2.94488 21.6099,-6.68033 28.4849,-8.30101 z m 3.6667,-7.79773 c -0.3667,-0.36666 -0.6667,-1.71666 -0.6667,-3 0,-2.15855 0.4076,-2.33333 5.441,-2.33333 6.6327,0 7.7383,1.31053 3.3585,3.98086 -3.3003,2.01216 -6.8782,2.60715 -8.1328,1.35247 z m 5.1416,-1.40833 c -0.197,-0.59125 -0.6845,-1.04125 -1.0833,-1 -0.3987,0.0412 -1.4,0.075 -2.225,0.075 -0.825,0 -1.5,0.45 -1.5,1 0,0.55 1.1625,1 2.5833,1 1.4209,0 2.4221,-0.48375 2.225,-1.075 z m -77.5086,19.45803 c 8.2002,-4.14318 10.4227,-8.38641 8.2703,-15.79026 -2.5332,-8.71398 -12.0127,-15.52471 -21.6721,-15.57081 -11.148,-0.0532 -19.3516,12.3987 -14.4338,21.90858 1.7406,3.36599 6.8593,7.85603 11.0359,9.68061 4.1875,1.82932 12.9634,1.71015 16.7997,-0.22812 z M 1495.97,910.75 c -4.976,-2.51376 -8.9719,-7.70485 -8.9663,-11.64788 0.01,-5.98129 7.37,-13.11364 13.4963,-13.07642 3.0176,0.0183 9.6466,2.74343 12.5751,5.16944 4.7031,3.89604 6.8573,12.77149 3.9502,16.27442 -2.2907,2.76004 -8.6894,5.53044 -12.7736,5.53044 -2.1053,0 -5.8321,-1.0125 -8.2817,-2.25 z m 5.8008,-17.5625 c 0.2177,-0.65313 -0.3166,-1.1875 -1.1875,-1.1875 -0.8708,0 -1.5833,0.7125 -1.5833,1.58333 0,1.76593 2.1528,1.45839 2.7708,-0.39583 z"
       id="path1"
       sodipodi:nodetypes="ssssscssssssssssssssssssssscssssssssssssssssssssssssssssssssssssssssscsssssssscssssssscsssssssscssssssssssssssssssssscsssscsssssscsssssssssssssssssscssssssssssscssscscssssssssscsssssssssssssscssssssssssscssssssssssssssscsssssssssssssssssccssssssssscssscsscssssscsssssssssssssssssssssssscsssssscsssssscccssssssssssssssssssssssscsssscssssssssssssscssssssssssssssssssssssssssssssssssssscsssssssssssssssssscsssssssssssssssscsscsssssssssssssssssscssssssssssssssssssssssssssssssssssssssscssssscssssssscssssscsssssscsssssssssscsssssssssssscssssssscsssssssssssssssssssssssssssssssscssssssssssssssssssssssscsssssssss" /></g><g
     id="layer1"
     transform="matrix(29.137059,0,0,29.137059,554.0205,698.72935)"><path
       style="display:inline;fill:#050505;fill-opacity:1;stroke:none;stroke-width:0.223564;stroke-dasharray:none;stroke-opacity:1"
       d="M 0.01172171,15.922155 H 130.25891"
       id="path4" /><path
       style="display:inline;fill:#050505;fill-opacity:1;stroke:none;stroke-width:0;stroke-dasharray:none;stroke-opacity:1"
       d="M 106.90357,9.1458322 H 126.4835"
       id="path5" /><path
       style="display:inline;fill:#050505;fill-opacity:1;stroke:none;stroke-width:0.1;stroke-dasharray:none;stroke-opacity:1"
       d="M 105.36618,0.48255121 H 5.4570295"
       id="path6" /><path
       d="m 81.345042,11.132162 q 0,-0.580078 -0.544922,-0.966797 -0.536133,-0.3867185 -1.458984,-0.3867185 -0.351563,0 -0.448243,0.026367 -0.09668,0.026367 -0.09668,0.1142578 v 2.5664067 q 0,0.07031 0.04394,0.08789 0.05273,0.01758 0.28125,0.01758 0.993164,0 1.608399,-0.404296 0.615234,-0.404297 0.615234,-1.054688 z m -3.65625,-1.6611327 q 0.448242,0 1.142578,-0.043945 0.694336,-0.052734 0.993164,-0.052734 1.151367,0 1.757813,0.5449219 0.518554,0.4746098 0.518554,1.1689458 v 0.0088 q -0.0088,0.483398 -0.263672,0.861328 -0.254882,0.369141 -0.65039,0.580078 -0.650391,0.369141 -2.021485,0.369141 h -0.272461 q -0.114257,0 -0.114257,0.140625 v 1.828125 q 0,0.158203 0.05273,0.237304 0.06152,0.07031 0.228516,0.0791 0.799804,0.03516 0.852539,0.05273 0.123047,0.03516 0.123047,0.202149 v 0.0088 q 0,0.210937 -0.175782,0.210937 l -0.175781,-0.01758 q -0.175781,-0.0088 -0.474609,-0.02637 -0.298828,-0.0088 -0.588867,-0.0088 -0.298829,0 -0.597657,0.0088 -0.298828,0.01758 -0.474609,0.02637 l -0.175781,0.01758 q -0.184571,0 -0.184571,-0.210937 0,-0.03516 0,-0.06152 0.0088,-0.03516 0.0088,-0.05273 0.0088,-0.02637 0.02637,-0.04395 0.01758,-0.01758 0.02637,-0.02637 0.01758,-0.01758 0.04394,-0.02637 0.03516,-0.0088 0.05273,-0.0088 0.02637,-0.0088 0.07031,-0.0088 0.05273,-0.0088 0.08789,-0.0088 0.04395,-0.0088 0.114257,-0.0088 0.07031,-0.0088 0.131836,-0.01758 0.149414,-0.01758 0.19336,-0.07031 0.05273,-0.06152 0.05273,-0.175781 v -4.816406 q 0,-0.07031 -0.0088,-0.105469 0,-0.043945 -0.05273,-0.079101 -0.04395,-0.043945 -0.131836,-0.043945 h -0.325196 q -0.06152,0 -0.09668,-0.00879 -0.03516,-0.00879 -0.0791,-0.061523 -0.03516,-0.061523 -0.03516,-0.1669921 0,-0.1933594 0.193359,-0.1933594 z m 4.93112,3.3662107 q 0,-0.421875 0.351562,-0.738281 0.360352,-0.325195 0.94043,-0.325195 0.123047,0 0.219727,0.01758 0.105468,0.0088 0.158203,0.01758 0.06152,0.0088 0.07031,0.0088 0.03516,0 0.105469,-0.04395 0.07031,-0.04395 0.123047,-0.04395 0.105469,0 0.140625,0.166993 0.02637,0.131835 0.07031,0.36914 0.04395,0.237305 0.07031,0.404297 0.03516,0.158203 0.03516,0.175781 0,0.140625 -0.210937,0.140625 -0.08789,0 -0.131836,-0.06152 -0.03516,-0.07031 -0.07031,-0.19336 -0.03516,-0.123046 -0.0791,-0.18457 -0.09668,-0.131836 -0.316407,-0.237305 -0.210937,-0.114257 -0.421875,-0.114257 -0.237304,0 -0.404297,0.131836 -0.166992,0.131836 -0.166992,0.342773 0,0.448242 0.711914,0.650391 0.08789,0.02637 0.263672,0.07031 0.175781,0.03516 0.272461,0.06152 0.09668,0.02637 0.228516,0.0791 0.140625,0.05274 0.246094,0.131836 0.105468,0.0791 0.202148,0.193359 0.272461,0.316407 0.272461,0.711915 0,0.474609 -0.37793,0.84375 -0.36914,0.36914 -0.993164,0.36914 -0.342773,0 -0.703125,-0.114258 -0.351562,-0.114257 -0.536133,-0.333984 -0.105468,-0.114258 -0.105468,-0.307617 0,-0.140625 -0.0088,-0.316406 0,-0.175782 0,-0.219727 0,-0.175781 0.02637,-0.228516 0.03516,-0.05273 0.131836,-0.05273 0.09668,0 0.123047,0.0791 0.02637,0.0791 0.03516,0.237304 0.0088,0.149414 0.05273,0.246094 0.0791,0.175781 0.369141,0.351562 0.298828,0.175782 0.65039,0.175782 0.307618,0 0.518555,-0.166992 0.210938,-0.166993 0.210938,-0.430665 0,-0.166992 -0.0791,-0.290039 -0.07031,-0.131836 -0.228516,-0.210937 -0.158203,-0.08789 -0.254882,-0.123047 -0.09668,-0.04395 -0.307618,-0.09668 l -0.210937,-0.04394 Q 82.619912,13.645834 82.619912,12.83724 Z m 3.718229,4.78125 q -0.149414,0 -0.254883,-0.09668 -0.09668,-0.09668 -0.09668,-0.228516 0,-0.158203 0.114257,-0.28125 0.114258,-0.114258 0.333985,-0.254883 0.228515,-0.140625 0.342773,-0.246094 0.19336,-0.175781 0.395508,-0.518554 0.210938,-0.333985 0.210938,-0.509766 0,-0.228516 -1.001954,-2.232422 -0.413085,-0.808594 -0.492187,-0.922851 -0.05273,-0.0791 -0.149414,-0.08789 -0.08789,-0.01758 -0.140625,-0.04395 -0.05273,-0.03516 -0.05273,-0.166993 0,-0.149414 0.123046,-0.149414 0.01758,0 0.105469,0.0088 0.08789,0 0.246094,0.0088 0.166992,0.0088 0.351562,0.0088 0.184571,0 0.342774,-0.0088 0.166992,-0.0088 0.254883,-0.0088 0.09668,-0.0088 0.114257,-0.0088 0.123047,0 0.123047,0.140625 0,0.03516 -0.0088,0.06152 0,0.01758 0,0.03516 0,0.01758 -0.01758,0.03516 -0.0088,0.0088 -0.01758,0.02637 0,0.0088 -0.02637,0.01758 -0.01758,0 -0.02637,0.0088 -0.0088,0 -0.04395,0.0088 -0.03516,0 -0.05273,0.0088 -0.01758,0 -0.07031,0.0088 -0.04395,0 -0.07031,0 -0.140625,0.01758 -0.140625,0.123047 0,0.04394 0.105469,0.342773 0.114258,0.290039 0.351562,0.817383 0.246094,0.527344 0.527344,1.054688 0,0.05273 0.06152,0.05273 0.02637,0 0.04395,-0.01758 0.01758,-0.01758 0.02637,-0.03516 0.0088,-0.02637 0.01758,-0.03516 0.738281,-1.766601 0.738281,-2.118164 0,-0.05273 -0.01758,-0.08789 -0.0088,-0.03516 -0.02637,-0.05274 -0.01758,-0.02637 -0.06152,-0.03516 -0.04395,-0.0088 -0.0791,-0.0088 -0.03516,-0.0088 -0.114258,-0.0088 -0.0791,0 -0.131836,-0.0088 -0.166992,-0.01758 -0.166992,-0.175781 0,-0.158204 0.166992,-0.158204 0.01758,0 0.105469,0.0088 0.08789,0 0.246094,0.0088 0.166992,0.0088 0.351562,0.0088 h 0.0088 q 0.184571,0 0.333985,-0.0088 0.158203,-0.0088 0.246093,-0.0088 0.08789,-0.0088 0.105469,-0.0088 0.105469,0 0.105469,0.184571 0,0.09668 -0.05273,0.123047 -0.05274,0.01758 -0.298829,0.04395 -0.08789,0.0088 -0.123046,0.06152 -0.02637,0.05274 -0.131836,0.333985 -0.210938,0.597656 -0.457032,1.195312 -0.870117,2.126953 -1.608398,3.243164 -0.360352,0.553711 -0.667969,0.553711 z m 5.396941,-1.845703 q -0.773437,0 -1.256836,-0.544922 -0.474609,-0.544922 -0.474609,-1.388672 0,-0.922851 0.536133,-1.49414 0.536133,-0.580078 1.397461,-0.580078 0.474609,0 0.808594,0.202148 0.333984,0.202148 0.333984,0.46582 0,0.149414 -0.105469,0.246094 -0.105469,0.08789 -0.254883,0.08789 -0.193359,0 -0.509765,-0.263672 -0.307617,-0.272461 -0.580078,-0.272461 -0.413086,0 -0.720704,0.413086 -0.307617,0.413086 -0.307617,0.975586 0,0.641601 0.404297,1.116211 0.413086,0.46582 1.019531,0.46582 0.237305,0 0.430664,-0.07031 0.202149,-0.0791 0.298829,-0.166993 0.105468,-0.09668 0.202148,-0.166992 0.105469,-0.0791 0.166992,-0.0791 0.06152,0 0.105469,0.04395 0.04394,0.04394 0.04394,0.105469 0,0.07031 -0.05273,0.140625 -0.237305,0.325195 -0.624024,0.544922 -0.386718,0.219726 -0.861328,0.219726 z m 4.315885,-0.228516 v -0.06152 q 0,-0.04395 0,-0.07031 0.0088,-0.02637 0.02637,-0.04395 0.02637,-0.02637 0.04395,-0.03516 0.02637,-0.0088 0.07031,-0.01758 0.05273,-0.0088 0.08789,-0.0088 0.04395,-0.0088 0.123046,-0.01758 0.08789,-0.0088 0.158204,-0.01758 0.131835,-0.01758 0.158203,-0.140625 0.02637,-0.123047 0.02637,-0.641602 0,-0.878906 -0.114258,-1.265625 -0.105469,-0.395508 -0.316406,-0.624023 -0.325196,-0.325196 -0.729492,-0.325196 -0.272461,0 -0.509766,0.149414 -0.237305,0.140625 -0.272461,0.290039 -0.0088,0.03516 -0.0088,0.123047 0,2.16211 0.01758,2.223633 0.02637,0.131836 0.131836,0.18457 0.114258,0.05274 0.228516,0.05274 0.123047,-0.0088 0.219726,0.03516 0.09668,0.04394 0.09668,0.149414 0,0.18457 -0.105469,0.18457 -0.0088,0 -0.05273,-0.0088 -0.04395,0 -0.123047,-0.0088 -0.0791,-0.0088 -0.175781,-0.01758 -0.09668,-0.0088 -0.228516,-0.01758 -0.123047,0 -0.246094,0 -0.131836,0 -0.263672,0 -0.123046,0.0088 -0.228515,0.01758 -0.09668,0.0088 -0.175781,0.01758 -0.0791,0.0088 -0.123047,0.0088 -0.04395,0.0088 -0.05273,0.0088 -0.105468,0 -0.105468,-0.175781 0,-0.105469 0.05273,-0.131836 0.05273,-0.02637 0.272461,-0.07031 0.09668,-0.01758 0.149414,-0.07031 0.05273,-0.06152 0.05273,-0.09668 0.0088,-0.04395 0.01758,-0.140625 0.04395,-1.362304 0.04395,-2.469726 v -0.03516 q 0,-1.995118 -0.03516,-2.206055 -0.01758,-0.114258 -0.333984,-0.18457 -0.307617,-0.07031 -0.307617,-0.1933597 0,-0.09668 0.149414,-0.1757813 0.993164,-0.571289 1.02832,-0.571289 h 0.0088 q 0.140625,0 0.140625,0.1669922 l -0.0088,2.7773438 q 0,0.06152 0.04395,0.06152 0.0088,0 0.149414,-0.0791 0.140625,-0.08789 0.386718,-0.166992 0.254883,-0.08789 0.527344,-0.08789 0.84375,0 1.204102,0.817383 0.140625,0.333984 0.18457,0.755859 0.05273,0.413086 0.0791,1.625977 0,0.123047 0.04394,0.18457 0.04394,0.06152 0.09668,0.0791 0.05273,0.0088 0.193359,0.02637 0.149414,0.01758 0.149414,0.166992 0,0.193359 -0.114258,0.193359 -0.0088,0 -0.05273,-0.0088 -0.04395,0 -0.123047,-0.0088 -0.0791,-0.0088 -0.175781,-0.01758 -0.08789,-0.0088 -0.219727,-0.01758 -0.131836,0 -0.254883,0 -0.123047,0 -0.246093,0 -0.123047,0.0088 -0.219727,0.01758 -0.09668,0.0088 -0.175781,0.01758 -0.07031,0.0088 -0.114258,0.0088 -0.04394,0.0088 -0.05273,0.0088 -0.09668,0 -0.09668,-0.123047 z m 2.311981,-1.766601 q 0,-0.905274 0.571289,-1.476563 0.580078,-0.571289 1.371093,-0.571289 0.80859,0 1.34473,0.580078 0.53613,0.57129 0.53613,1.467774 0,0.922851 -0.5625,1.467773 -0.55371,0.536133 -1.35352,0.536133 -0.843745,0 -1.379878,-0.580078 -0.527344,-0.580078 -0.527344,-1.423828 z m 1.037109,1.116211 q 0.342774,0.448242 0.896483,0.448242 0.55371,0 0.91406,-0.448242 0.36036,-0.457031 0.36036,-1.081055 0,-0.703125 -0.4043,-1.177734 -0.39551,-0.483399 -0.92285,-0.483399 -0.439456,0 -0.817385,0.386719 -0.369141,0.386719 -0.369141,1.195313 0,0.703125 0.342773,1.160156 z m 3.463343,-2.566406 q -0.18457,0 -0.18457,-0.114258 0,-0.05274 0.12305,-0.158203 0.13184,-0.114258 0.36914,-0.369141 0.23731,-0.263672 0.44824,-0.615234 0.0967,-0.166993 0.17578,-0.166993 0.12305,0 0.12305,0.149415 0,0.06152 -0.009,0.316406 0,0.254883 0,0.316406 0,0.175781 0.17578,0.175781 h 0.8086 q 0.0176,0 0.0439,0.0088 0.0264,0 0.0352,0 0.22851,0 0.22851,0.166993 0,0.166992 -0.0791,0.263671 -0.0439,0.04395 -0.1582,0.04395 h -1.05469 q -0.0879,0 -0.0879,0.08789 0,0.729493 -0.009,1.212891 0,0.483398 -0.009,0.650391 0,0.166992 0,0.237304 0,0.667969 0.46582,0.667969 0.18457,0 0.38672,-0.131836 0.20215,-0.140625 0.35157,-0.272461 0.1582,-0.140625 0.2373,-0.140625 0.0703,0 0.11426,0.05274 0.0527,0.05273 0.0527,0.114257 0,0.05274 -0.0615,0.149414 -0.71192,0.808594 -1.25684,0.808594 -0.32519,0 -0.59765,-0.254883 -0.26368,-0.263672 -0.30762,-0.834961 -0.009,-0.09668 -0.009,-0.290039 0,-0.219726 0.0176,-1.063476 0.0176,-0.852539 0.0176,-0.931641 0,-0.0791 -0.0615,-0.0791 z m 5.39694,3.216796 v -0.06152 q 0,-0.04395 0,-0.07031 0.009,-0.02637 0.0264,-0.04395 0.0264,-0.02637 0.0439,-0.03516 0.0264,-0.0088 0.0703,-0.01758 0.0527,-0.0088 0.0879,-0.0088 0.0439,-0.0088 0.12305,-0.01758 0.0879,-0.0088 0.1582,-0.01758 0.13184,-0.01758 0.1582,-0.140625 0.0264,-0.123047 0.0264,-0.641602 0,-0.878906 -0.11426,-1.265625 -0.10547,-0.395508 -0.3164,-0.624023 -0.3252,-0.325196 -0.7295,-0.325196 -0.27246,0 -0.50976,0.149414 -0.23731,0.140625 -0.27246,0.290039 -0.009,0.03516 -0.009,0.123047 0,2.16211 0.0176,2.223633 0.0264,0.131836 0.13183,0.18457 0.11426,0.05274 0.22852,0.05274 0.12304,-0.0088 0.21972,0.03516 0.0967,0.04394 0.0967,0.149414 0,0.18457 -0.10546,0.18457 -0.009,0 -0.0527,-0.0088 -0.0439,0 -0.12305,-0.0088 -0.0791,-0.0088 -0.17578,-0.01758 -0.0967,-0.0088 -0.22851,-0.01758 -0.12305,0 -0.2461,0 -0.13183,0 -0.26367,0 -0.12305,0.0088 -0.22851,0.01758 -0.0967,0.0088 -0.17579,0.01758 -0.0791,0.0088 -0.12304,0.0088 -0.0439,0.0088 -0.0527,0.0088 -0.10547,0 -0.10547,-0.175781 0,-0.105469 0.0527,-0.131836 0.0527,-0.02637 0.27246,-0.07031 0.0967,-0.01758 0.14941,-0.07031 0.0527,-0.06152 0.0527,-0.09668 0.009,-0.04395 0.0176,-0.140625 0.0439,-1.362304 0.0439,-2.469726 v -0.03516 q 0,-1.995118 -0.0352,-2.206055 -0.0176,-0.114258 -0.33399,-0.18457 -0.30762,-0.07031 -0.30762,-0.1933597 0,-0.09668 0.14942,-0.1757813 0.99316,-0.571289 1.02832,-0.571289 h 0.009 q 0.14062,0 0.14062,0.1669922 l -0.009,2.7773438 q 0,0.06152 0.0439,0.06152 0.009,0 0.14941,-0.0791 0.14063,-0.08789 0.38672,-0.166992 0.25488,-0.08789 0.52735,-0.08789 0.84375,0 1.2041,0.817383 0.14062,0.333984 0.18457,0.755859 0.0527,0.413086 0.0791,1.625977 0,0.123047 0.0439,0.18457 0.0439,0.06152 0.0967,0.0791 0.0527,0.0088 0.19336,0.02637 0.14942,0.01758 0.14942,0.166992 0,0.193359 -0.11426,0.193359 -0.009,0 -0.0527,-0.0088 -0.0439,0 -0.12305,-0.0088 -0.0791,-0.0088 -0.17578,-0.01758 -0.0879,-0.0088 -0.21973,-0.01758 -0.13184,0 -0.25488,0 -0.12305,0 -0.2461,0 -0.12304,0.0088 -0.21972,0.01758 -0.0967,0.0088 -0.17578,0.01758 -0.0703,0.0088 -0.11426,0.0088 -0.044,0.0088 -0.0527,0.0088 -0.0967,0 -0.0967,-0.123047 z m 2.32077,-1.784179 q 0,-0.914063 0.4834,-1.467774 0.4834,-0.553711 1.17773,-0.553711 0.44825,0 0.86133,0.246094 0.41309,0.246094 0.68555,0.615235 0.0703,0.08789 0.0703,0.193359 v 0.01758 q 0,0.0791 -0.0439,0.140625 -0.0439,0.06152 -0.14063,0.114258 -0.0967,0.04394 -0.16699,0.07031 -0.0703,0.02637 -0.21094,0.07031 -0.13183,0.04394 -0.16699,0.05273 -1.83692,0.632813 -1.88086,0.65918 -0.0352,0.01758 -0.0352,0.05273 0,0.05274 0.0264,0.175782 0.0264,0.123046 0.11426,0.325195 0.0967,0.202148 0.22851,0.37793 0.14063,0.166992 0.39551,0.298828 0.25488,0.123047 0.57129,0.123047 0.61524,0 1.07227,-0.439454 0.12304,-0.123046 0.20214,-0.123046 0.14942,0 0.14942,0.131835 0,0.05274 -0.0703,0.140625 -0.28125,0.369141 -0.70313,0.588868 -0.42187,0.210937 -0.88769,0.210937 -0.29883,0 -0.58887,-0.105469 -0.28125,-0.105468 -0.55371,-0.325195 -0.26367,-0.219726 -0.43067,-0.632812 -0.1582,-0.413086 -0.1582,-0.958008 z m 2.4082,-0.931641 q 0,-0.114258 -0.30761,-0.351562 -0.30762,-0.246094 -0.6416,-0.246094 -0.39551,0 -0.63282,0.342773 -0.22851,0.342774 -0.22851,0.94043 0,0.07031 0.0439,0.07031 0.0176,0 0.83496,-0.316407 0.82618,-0.325195 0.85254,-0.333984 0.0791,-0.04395 0.0791,-0.105469 z m 2.49656,-0.606445 q 0.009,0 0.19335,-0.123047 0.18457,-0.131836 0.41309,-0.28125 0.22852,-0.149414 0.33398,-0.18457 0.10547,-0.03516 0.26368,-0.03516 0.24609,0 0.47461,0.114258 0.22851,0.105469 0.22851,0.28125 v 0.0088 q 0,0.05274 -0.0352,0.105469 -0.0352,0.05273 -0.0615,0.0791 -0.0264,0.02637 -0.0879,0.0791 l -0.0615,0.05274 q -0.009,0 -0.0967,0.07031 -0.0791,0.06152 -0.14063,0.08789 -0.0615,0.02637 -0.13183,0.02637 -0.10547,0 -0.2461,-0.114258 -0.13183,-0.114258 -0.29004,-0.114258 -0.19335,0 -0.41308,0.140625 -0.21973,0.140625 -0.28125,0.228516 -0.0352,0.05273 -0.0352,0.166992 v 2.15332 0.03516 q 0,0.254882 0.21973,0.272461 0.0879,0.0088 0.2373,0.01758 0.27246,0.01758 0.34278,0.05273 0.0791,0.02637 0.0791,0.149414 0,0.175781 -0.12305,0.175781 -0.009,0 -0.0615,-0.0088 -0.0439,0 -0.13184,-0.0088 -0.0879,-0.0088 -0.19336,-0.01758 -0.10547,-0.0088 -0.25488,-0.01758 -0.14062,0 -0.27246,0 -0.14063,0 -0.28125,0 -0.14063,0.0088 -0.25488,0.01758 -0.10547,0.0088 -0.19336,0.01758 -0.0791,0.0088 -0.13184,0.0088 -0.0439,0.0088 -0.0527,0.0088 -0.14942,0 -0.14942,-0.149414 0,-0.0791 0.0352,-0.114258 0.0352,-0.04395 0.0703,-0.05273 0.0352,-0.01758 0.13184,-0.02637 0.10547,-0.01758 0.16699,-0.03516 0.16699,-0.03516 0.16699,-0.210938 v -2.390625 q 0,-0.05273 -0.009,-0.0791 -0.009,-0.03516 -0.0527,-0.07031 -0.0352,-0.04394 -0.0791,-0.07031 -0.0352,-0.02637 -0.14942,-0.105469 -0.11426,-0.0791 -0.21093,-0.149414 -0.0264,-0.02637 -0.0352,-0.06152 0,-0.03516 0.36035,-0.202148 0.3252,-0.158203 0.58887,-0.290039 0.009,0 0.0264,-0.0088 0.0352,-0.01758 0.0527,-0.01758 0.10547,0 0.10547,0.18457 v 0.360352 q 0,0.04395 0.0264,0.04395 z m 2.31198,0.290039 q 0,-0.263672 0.42187,-0.527344 0.43067,-0.272461 0.95801,-0.272461 0.16699,0 0.34277,0.03516 0.17578,0.03516 0.39551,0.123047 0.22852,0.08789 0.37793,0.307618 0.1582,0.210937 0.19336,0.518554 0.0176,0.210938 0.0176,0.325196 v 1.77539 q 0,0.158203 0.0615,0.254883 0.0615,0.09668 0.12305,0.123047 0.0615,0.01758 0.12304,0.01758 0.12305,0 0.19336,-0.07031 0.0703,-0.0791 0.10547,-0.149414 0.0439,-0.0791 0.0967,-0.0791 0.0791,0 0.0791,0.114258 0,0.210937 -0.19336,0.46582 -0.19335,0.246094 -0.50097,0.246094 -0.11426,0 -0.21973,-0.03516 -0.10547,-0.03516 -0.17578,-0.08789 -0.0703,-0.06152 -0.13184,-0.114258 -0.0527,-0.05273 -0.0879,-0.09668 l -0.0264,-0.03516 q -0.009,0 -0.009,0 0,-0.0088 -0.009,-0.0088 -0.0176,0 -0.0264,0.01758 -0.009,0.01758 -0.0615,0.07031 -0.0527,0.05273 -0.14942,0.114257 -0.3955,0.246094 -0.83496,0.246094 -0.45703,0 -0.74707,-0.290039 -0.28125,-0.290039 -0.28125,-0.711914 v -0.0088 q 0,-0.509766 0.37793,-0.799805 0.13184,-0.105468 0.34278,-0.18457 0.21093,-0.08789 0.41308,-0.131836 0.21094,-0.04394 0.39551,-0.07031 0.18457,-0.03516 0.30762,-0.04395 l 0.12304,-0.0088 q 0.0703,-0.01758 0.0703,-0.123047 V 13.09209 q 0,-0.46582 -0.21094,-0.720703 -0.21973,-0.237305 -0.52735,-0.237305 -0.4746,0 -0.77343,0.597656 -0.0791,0.105469 -0.19336,0.105469 -0.14063,0 -0.25488,-0.08789 -0.10547,-0.08789 -0.10547,-0.237305 z m 1.27441,2.786133 q 0.20215,0 0.37793,-0.08789 0.18457,-0.08789 0.25488,-0.158203 0.0703,-0.07031 0.11426,-0.123047 0.0527,-0.07031 0.0527,-0.202148 v -0.219727 -0.369141 q 0,-0.166992 -0.0176,-0.210937 -0.009,-0.05273 -0.0703,-0.05273 -0.21972,0 -0.55371,0.07031 -0.32519,0.07031 -0.51855,0.254883 -0.21094,0.175781 -0.21094,0.492187 0,0.333985 0.18457,0.492188 0.12305,0.114258 0.38672,0.114258 z m 4.64987,0.07031 q 0.57129,0 0.99316,-0.430664 0.43067,-0.430664 0.43067,-1.081055 0,-0.641601 -0.43067,-1.11621 -0.42187,-0.47461 -0.96679,-0.47461 -0.33399,0 -0.59766,0.19336 -0.25488,0.175781 -0.25488,0.55371 v 1.933594 q 0,0.175781 0.22851,0.28125 0.28125,0.140625 0.59766,0.140625 z m 0.32519,-3.629883 q 0.73829,0 1.21289,0.571289 0.4834,0.57129 0.4834,1.371094 0,0.887696 -0.59765,1.441406 -0.59766,0.553711 -1.53809,0.553711 -0.0879,0 -0.17578,-0.0088 -0.0879,0 -0.1582,-0.0088 -0.0703,-0.0088 -0.12305,-0.01758 -0.0527,-0.0088 -0.0879,-0.0088 l -0.0352,-0.0088 q -0.0615,0 -0.0615,0.09668 v 1.239258 0.02637 q 0,0.210937 0.20215,0.228515 0.0879,0.0088 0.20215,0.01758 0.12304,0.0088 0.17578,0.0088 0.0527,0.0088 0.12304,0.01758 0.0703,0.0088 0.0967,0.02637 0.0352,0.01758 0.0615,0.04395 0.0352,0.02637 0.0439,0.06152 0.009,0.04395 0.009,0.105468 0,0.131836 -0.10547,0.131836 -0.0176,0 -0.13183,-0.0088 -0.10547,-0.0088 -0.29883,-0.01758 -0.19336,-0.0088 -0.41309,-0.0088 -0.29004,0 -0.58008,0.01758 -0.28125,0.01758 -0.44824,0.03516 l -0.16699,0.01758 q -0.14941,0 -0.14941,-0.175782 0,-0.02637 0,-0.05273 0.009,-0.01758 0.0176,-0.03516 0.0176,-0.0088 0.0264,-0.02637 0.009,-0.0088 0.0352,-0.02637 0.0352,-0.0088 0.0527,-0.01758 0.0264,0 0.0703,-0.01758 0.0527,-0.0088 0.0879,-0.01758 0.0439,0 0.11425,-0.01758 0.0703,-0.01758 0.12305,-0.02637 0.19336,-0.03516 0.19336,-0.246094 v -4.157227 -0.01758 q 0,-0.140625 -0.11426,-0.18457 -0.12305,-0.05274 -0.29883,-0.131836 -0.22851,-0.09668 -0.27246,-0.123047 -0.0352,-0.02637 -0.0352,-0.06152 v -0.0088 q 0,-0.03516 0.3955,-0.263672 0.31641,-0.184571 0.57129,-0.333985 0.0264,-0.01758 0.0527,-0.02637 0.0264,-0.01758 0.0352,-0.02637 0.0176,-0.01758 0.0264,-0.01758 0.0176,-0.0088 0.0352,-0.0088 0.0703,0 0.0703,0.105468 v 0.527344 q 0,0.05274 0.0352,0.05274 l 0.11425,-0.123047 q 0.11426,-0.123047 0.36036,-0.263672 0.24609,-0.149414 0.55371,-0.19336 0.0703,-0.0088 0.21093,-0.0088 z m 2.82175,5.879883 q -0.14941,0 -0.25488,-0.09668 -0.0967,-0.09668 -0.0967,-0.228516 0,-0.158203 0.11426,-0.28125 0.11425,-0.114258 0.33398,-0.254883 0.22852,-0.140625 0.34277,-0.246094 0.19336,-0.175781 0.39551,-0.518554 0.21094,-0.333985 0.21094,-0.509766 0,-0.228516 -1.00195,-2.232422 -0.41309,-0.808594 -0.49219,-0.922851 -0.0527,-0.0791 -0.14942,-0.08789 -0.0879,-0.01758 -0.14062,-0.04395 -0.0527,-0.03516 -0.0527,-0.166993 0,-0.149414 0.12304,-0.149414 0.0176,0 0.10547,0.0088 0.0879,0 0.24609,0.0088 0.167,0.0088 0.35157,0.0088 0.18457,0 0.34277,-0.0088 0.16699,-0.0088 0.25488,-0.0088 0.0967,-0.0088 0.11426,-0.0088 0.12305,0 0.12305,0.140625 0,0.03516 -0.009,0.06152 0,0.01758 0,0.03516 0,0.01758 -0.0176,0.03516 -0.009,0.0088 -0.0176,0.02637 0,0.0088 -0.0264,0.01758 -0.0176,0 -0.0264,0.0088 -0.009,0 -0.0439,0.0088 -0.0352,0 -0.0527,0.0088 -0.0176,0 -0.0703,0.0088 -0.044,0 -0.0703,0 -0.14062,0.01758 -0.14062,0.123047 0,0.04394 0.10547,0.342773 0.11426,0.290039 0.35156,0.817383 0.24609,0.527344 0.52734,1.054688 0,0.05273 0.0615,0.05273 0.0264,0 0.0439,-0.01758 0.0176,-0.01758 0.0264,-0.03516 0.009,-0.02637 0.0176,-0.03516 0.73828,-1.766601 0.73828,-2.118164 0,-0.05273 -0.0176,-0.08789 -0.009,-0.03516 -0.0264,-0.05274 -0.0176,-0.02637 -0.0615,-0.03516 -0.0439,-0.0088 -0.0791,-0.0088 -0.0352,-0.0088 -0.11426,-0.0088 -0.0791,0 -0.13184,-0.0088 -0.16699,-0.01758 -0.16699,-0.175781 0,-0.158204 0.16699,-0.158204 0.0176,0 0.10547,0.0088 0.0879,0 0.2461,0.0088 0.16699,0.0088 0.35156,0.0088 h 0.009 q 0.18457,0 0.33398,-0.0088 0.15821,-0.0088 0.2461,-0.0088 0.0879,-0.0088 0.10547,-0.0088 0.10546,0 0.10546,0.184571 0,0.09668 -0.0527,0.123047 -0.0527,0.01758 -0.29883,0.04395 -0.0879,0.0088 -0.12304,0.06152 -0.0264,0.05274 -0.13184,0.333985 -0.21094,0.597656 -0.45703,1.195312 -0.87012,2.126953 -1.6084,3.243164 -0.36035,0.553711 -0.66797,0.553711 z"
       id="text4"
       style="font-size:9px;font-family:'Goudy Bookletter 1911';-inkscape-font-specification:'Goudy Bookletter 1911, Normal';font-variant-caps:small-caps;font-variant-numeric:proportional-nums;text-align:center;letter-spacing:0.132292px;text-anchor:middle;fill:#050505;stroke:#000000;stroke-width:0.1"
       aria-label="Psychotherapy" /><path
       style="font-size:10px;font-family:'Goudy Bookletter 1911';-inkscape-font-specification:'Goudy Bookletter 1911, Normal';font-variant-caps:small-caps;font-variant-numeric:proportional-nums;text-align:center;letter-spacing:0.132292px;text-anchor:middle;fill:#050505;stroke:#8e9b2e;stroke-width:0"
       d="m 121.83168,4.0774746 q 0,-0.029297 -0.10742,-0.15625 -0.10742,-0.1367188 -0.21485,-0.3808594 -0.0977,-0.2441406 -0.0977,-0.5371094 0,-0.6738281 0.52734,-1.1914062 0.53711,-0.5273438 1.23047,-0.5273438 0.21484,0 0.43945,0.048828 0.22461,0.048828 0.41993,0.1953125 0.20507,0.1464843 0.20507,0.3710937 0,0.1953125 -0.13671,0.3222656 -0.13672,0.1269532 -0.3125,0.1269532 -0.20508,0 -0.42969,-0.2441407 -0.21485,-0.2539062 -0.43946,-0.2539062 -0.36132,0 -0.71289,0.3320312 -0.35156,0.3222657 -0.35156,0.8203125 0,0.2929688 0.13672,0.5664063 0.14648,0.2636719 0.25391,0.2636719 0.0195,0 0.17578,-0.058594 0.15625,-0.068359 0.41015,-0.1367187 0.25391,-0.068359 0.51758,-0.068359 0.3711,0 0.61524,0.15625 0.2539,0.1464844 0.2539,0.4003906 0,0.2539063 -0.26367,0.4101563 -0.26367,0.15625 -0.6543,0.15625 h -0.01 q -0.24414,0 -0.46875,-0.058594 -0.21485,-0.058594 -0.3418,-0.1171875 -0.12695,-0.058594 -0.14648,-0.058594 -0.0293,0 -0.0586,0.019531 -0.0195,0.019531 -0.0391,0.039063 -0.01,0.019531 -0.0293,0.039063 l -0.01,0.019531 q -0.26367,0.4785156 -0.26367,1.0449218 0,0.3515625 0.12695,0.6933594 0.12695,0.3320313 0.39062,0.6640625 0.27344,0.3222656 0.78125,0.5371094 0.51758,0.2148437 1.20118,0.2441406 h 0.17578 q 0.57617,0 1.00586,-0.1660156 0.42968,-0.1660156 0.65429,-0.4394531 0.22461,-0.2734375 0.32227,-0.5566407 0.10742,-0.2832031 0.10742,-0.5664062 0,-0.5175781 -0.2832,-0.859375 -0.2832,-0.3417969 -0.75195,-0.3417969 -0.42969,0 -0.76172,0.2929688 -0.32227,0.2929687 -0.32227,0.6640625 0,0.2539062 0.15625,0.4394531 0.16602,0.1757812 0.41992,0.1757812 0.10742,0 0.23438,-0.048828 0.12695,-0.048828 0.12695,-0.1171875 0,-0.039063 -0.0391,-0.058594 -0.0391,-0.019531 -0.0977,-0.029297 -0.0488,-0.00977 -0.11719,-0.048828 -0.0684,-0.039063 -0.11718,-0.1074219 -0.0684,-0.097656 -0.0684,-0.2148438 0,-0.1464843 0.10742,-0.2539062 0.11719,-0.1074219 0.2832,-0.1074219 0.22461,0 0.40039,0.1660156 0.18555,0.1660157 0.18555,0.4101563 0,0.3027344 -0.25391,0.5371094 -0.2539,0.2246093 -0.61523,0.2246093 -0.40039,0 -0.68359,-0.2929687 -0.28321,-0.2929688 -0.28321,-0.7128906 0,-0.390625 0.25391,-0.7421875 0.26367,-0.3613282 0.71289,-0.5859375 0.45898,-0.2246094 1.30859,-0.3613282 0.85938,-0.1367187 1.16211,-0.2734375 0.36133,-0.15625 0.60547,-0.4589843 0.25391,-0.3125 0.25391,-0.7324219 0,-0.4589844 -0.29297,-0.7617188 -0.2832,-0.3027343 -0.6543,-0.3027343 -0.30273,0 -0.30273,0.087891 l 0.0781,0.1074219 q 0.0879,0.1074218 0.0879,0.2441406 0,0.1757812 -0.11718,0.2929687 -0.11719,0.1171875 -0.29297,0.1171875 -0.19532,0 -0.32227,-0.1367187 -0.12695,-0.1464844 -0.12695,-0.3515625 0,-0.3125 0.26367,-0.5273438 0.26367,-0.2148437 0.61523,-0.2148437 0.56641,0 1.01563,0.4785156 0.45898,0.4785156 0.45898,1.1914063 0,0.8007812 -0.625,1.3769531 -0.61523,0.5664062 -1.46484,0.5859375 -0.14648,0 -0.14648,0.078125 0,0.00977 0.0781,0.1464844 0.0879,0.1367187 0.17578,0.4003906 0.0879,0.2636719 0.0879,0.5664062 v 0.019531 q 0,1.015625 -0.8789,1.7773437 -0.87891,0.7617188 -2.09961,0.7617188 -1.23047,0 -2.07032,-0.7910156 -0.83984,-0.8007813 -0.83984,-1.8945313 0,-0.2929687 0.0586,-0.5664062 0.0684,-0.2734375 0.16602,-0.46875 0.0977,-0.1953125 0.18555,-0.3320313 0.0977,-0.1367187 0.18554,-0.2246094 l 0.0781,-0.097656 q 0.0195,-0.039063 0.0195,-0.068359 z m 1.61133,0.3027344 q 0.41992,0 0.41992,-0.234375 0,-0.2539063 -0.42969,-0.2539063 -0.23437,0 -0.43945,0.039063 -0.19531,0.039063 -0.30273,0.097656 -0.0977,0.048828 -0.0977,0.097656 0,0.029297 0.0293,0.058594 0.27343,0.1953125 0.82031,0.1953125 z"
       id="text5"
       aria-label="&amp;" /><path
       d="m 78.057923,3.8548179 q 0,1.2392578 0.738281,2.0917968 0.738282,0.84375 1.792969,0.84375 0.791016,0 1.441406,-0.4833984 0.65918,-0.4833984 0.905274,-1.2832031 0.04395,-0.1230469 0.131836,-0.1230469 0.149414,0 0.149414,0.1054688 -0.202149,1.3974609 -0.228516,1.4589843 -0.04394,0.1494141 -0.202148,0.1494141 h -0.0088 -0.246094 q -0.105469,0 -0.158203,0.017578 -0.04394,0.017578 -0.131836,0.079102 -0.0791,0.061523 -0.131836,0.087891 -0.791016,0.4570313 -1.669922,0.4570313 -0.624023,0 -1.22168,-0.2460938 Q 78.620423,6.7639976 78.163392,6.3245444 77.706361,5.8763022 77.442689,5.2698569 77.187806,4.6634116 77.187806,4.0218101 q 0,-0.6591797 0.272461,-1.2744141 0.272461,-0.6152344 0.729492,-1.0546875 0.966797,-0.92285157 2.293945,-0.92285157 h 0.0088 q 0.483398,0 0.887695,0.12304687 0.413086,0.1142578 0.632812,0.2373047 0.228516,0.1230469 0.246094,0.1230469 0.07031,0 0.123047,-0.1494141 0.05273,-0.14941406 0.140625,-0.17578125 0.01758,0 0.05273,0 0.03516,-0.008789 0.04395,-0.008789 0.09668,0 0.114257,0.10546875 l 0.06152,0.4570313 q 0.06152,0.4658203 0.123047,0.9404297 0.06152,0.4746094 0.06152,0.5097656 0,0.1494141 -0.18457,0.1494141 -0.166992,0 -0.193359,-0.052734 -0.02637,-0.061523 -0.06152,-0.3691406 Q 82.4964,2.325521 82.30304,2.0706382 81.995423,1.6839194 81.520814,1.4378257 81.046204,1.1829429 80.466126,1.1829429 q -0.975586,0 -1.696289,0.7382812 -0.711914,0.7382813 -0.711914,1.9335938 z m 5.581511,1.3447265 q 0,-0.9052734 0.571289,-1.4765625 0.580078,-0.571289 1.371094,-0.571289 0.808593,0 1.344726,0.5800781 0.536133,0.5712891 0.536133,1.4677734 0,0.9228516 -0.5625,1.4677735 -0.553711,0.5361328 -1.353516,0.5361328 -0.84375,0 -1.379882,-0.5800781 -0.527344,-0.5800782 -0.527344,-1.4238282 z m 1.037109,1.116211 q 0.342774,0.4482422 0.896485,0.4482422 0.55371,0 0.914062,-0.4482422 0.360352,-0.4570313 0.360352,-1.0810547 0,-0.703125 -0.404297,-1.1777344 -0.395508,-0.4833984 -0.922852,-0.4833984 -0.439453,0 -0.817383,0.3867187 -0.36914,0.3867188 -0.36914,1.1953125 0,0.703125 0.342773,1.1601563 z m 6.33737,0.421875 q -0.0088,0 -0.0791,0.052734 -0.06152,0.043945 -0.175782,0.1142579 -0.105468,0.061523 -0.246093,0.1318359 -0.140625,0.061523 -0.342774,0.1054687 -0.202148,0.052734 -0.413086,0.052734 -0.553711,0 -0.922851,-0.3427734 -0.369141,-0.3427735 -0.448243,-0.9580078 -0.02637,-0.2636719 -0.02637,-0.553711 0,-0.1669922 0,-0.7734375 0.0088,-0.6152343 0.0088,-0.6679687 0,-0.1669922 -0.246093,-0.2548828 -0.04395,-0.017578 -0.140625,-0.043945 -0.08789,-0.026367 -0.114258,-0.052734 -0.02637,-0.026367 -0.02637,-0.09668 v -0.026367 q 0,-0.1142578 0.09668,-0.1230469 0.896485,-0.052734 0.94043,-0.052734 0.08789,0 0.08789,0.1054687 v 1.8457031 q 0,0.5888672 0.166992,0.9316407 0.123047,0.2373046 0.36914,0.421875 0.254883,0.1757812 0.580078,0.1757812 0.439454,0 0.764649,-0.3251953 0.01758,-0.026367 0.04395,-0.052734 0.03516,-0.035156 0.04395,-0.043945 0.0088,-0.017578 0.02637,-0.035156 0.01758,-0.017578 0.01758,-0.026367 0.0088,-0.017578 0.01758,-0.035156 0.0088,-0.017578 0.0088,-0.026367 0,-0.017578 0,-0.043945 V 3.9251304 q 0,-0.1933594 -0.175781,-0.2460938 -0.04395,-0.017578 -0.421875,-0.079101 -0.131836,-0.026367 -0.131836,-0.1494141 0,-0.1318359 0.123047,-0.1494141 0.290039,-0.00879 0.518554,-0.017578 0.237305,-0.00879 0.325196,-0.00879 0.09668,-0.00879 0.158203,-0.00879 0.07031,0 0.105469,0 0.131836,0 0.131836,0.1757812 V 6.263021 q 0,0.026367 0,0.043945 0.0088,0.00879 0.01758,0.026367 0.01758,0.00879 0.03516,0.017578 0.01758,0.00879 0.05273,0.026367 0.03516,0.017578 0.0791,0.035156 0.04394,0.017578 0.114258,0.052734 0.07031,0.035156 0.149414,0.070312 0.0791,0.035156 0.0791,0.1054688 0,0.09668 -0.04394,0.1318359 -0.03516,0.035156 -0.114258,0.052734 -0.0791,0.00879 -0.290039,0.087891 -0.210937,0.070312 -0.457031,0.2109375 -0.05273,0.035156 -0.09668,0.035156 -0.123047,0 -0.123047,-0.1757813 V 6.7727866 q 0,-0.035156 -0.02637,-0.035156 z m 2.707488,-3.09375 q 0,0.035156 0.02637,0.035156 h 0.0088 q 0.0088,0 0.06152,-0.052734 0.06152,-0.052734 0.166992,-0.1318359 0.105469,-0.079102 0.246094,-0.1582031 0.140625,-0.079102 0.342773,-0.131836 0.202149,-0.061523 0.421875,-0.061523 h 0.01758 q 0.184571,0 0.360352,0.052734 0.18457,0.043945 0.386719,0.1757812 0.210937,0.1230469 0.351562,0.3955078 0.140625,0.272461 0.175781,0.6679688 0.01758,0.1494141 0.01758,0.4570312 0,0.035156 0,0.1757813 0,0.1318359 -0.0088,0.4833984 0,0.3515625 0,0.8964844 v 0.017578 q 0,0.043945 0.0088,0.087891 0.0088,0.035156 0.0088,0.061523 0.0088,0.017578 0.03516,0.043945 0.02637,0.017578 0.03516,0.026367 0.01758,0.00879 0.06152,0.026367 0.05273,0.00879 0.07031,0.00879 0.02637,0 0.09668,0.00879 0.0791,0.00879 0.114258,0.017578 0.131835,0.017578 0.131835,0.1669922 0,0.1757813 -0.140625,0.1757813 -0.02637,0 -0.123046,-0.017578 -0.09668,-0.00879 -0.272461,-0.026367 -0.166993,-0.00879 -0.360352,-0.00879 -0.114258,0 -0.228516,0 -0.114257,0.00879 -0.202148,0.017578 -0.0791,0.00879 -0.149414,0.017578 -0.07031,0.00879 -0.114258,0.017578 h -0.04394 q -0.123047,0 -0.123047,-0.1757813 0,-0.09668 0.05273,-0.1230469 0.05274,-0.026367 0.28125,-0.061523 0.0791,-0.017578 0.131836,-0.026367 0.08789,-0.017578 0.114258,-0.052734 0.03516,-0.043945 0.03516,-0.1582031 v -1.397462 q 0,-0.6591797 -0.123047,-0.975586 -0.131835,-0.2988281 -0.395507,-0.4130859 -0.263672,-0.1230469 -0.500977,-0.1230469 -0.342773,0 -0.615234,0.2109375 -0.272461,0.2109375 -0.307617,0.3691407 -0.01758,0.070312 -0.01758,0.1230468 v 2.1269532 0.026367 q 0,0.2285157 0.202149,0.2548829 0.395508,0.061523 0.430664,0.09668 0.05273,0.043945 0.05273,0.1494141 0,0.1582031 -0.114258,0.1582031 -0.0088,0 -0.06152,-0.00879 -0.04394,0 -0.123047,-0.00879 -0.0791,-0.00879 -0.175781,-0.026367 -0.09668,-0.00879 -0.228516,-0.017578 -0.123047,0 -0.246093,0 -0.123047,0 -0.246094,0 -0.123047,0.00879 -0.219727,0.017578 -0.08789,0.00879 -0.158203,0.017578 -0.07031,0.00879 -0.114258,0.00879 -0.04394,0.00879 -0.05273,0.00879 -0.149414,0 -0.149414,-0.1582032 0,-0.1230468 0.05273,-0.149414 0.06152,-0.035156 0.298828,-0.070312 0.158203,-0.026367 0.19336,-0.09668 0.04394,-0.070312 0.04394,-0.2109375 V 4.2591147 q 0,-0.1582031 -0.04394,-0.2109375 -0.04395,-0.061523 -0.360352,-0.2988281 -0.05273,-0.052734 -0.05273,-0.087891 v -0.00879 q 0,-0.043945 0.06152,-0.079102 0.06152,-0.043945 0.37793,-0.2109375 0.246094,-0.131836 0.413086,-0.2197266 0.05273,-0.035156 0.08789,-0.035156 0.105469,0 0.105469,0.1318359 V 3.591146 q 0,0.00879 -0.0088,0.035156 z m 3.630338,0.6152343 q 0,-0.421875 0.351562,-0.7382812 0.360352,-0.3251953 0.94043,-0.3251953 0.123047,0 0.219727,0.017578 0.105468,0.00879 0.158203,0.017578 0.06152,0.00879 0.07031,0.00879 0.03516,0 0.105469,-0.043945 0.07031,-0.043945 0.123047,-0.043945 0.105469,0 0.140625,0.1669922 0.02637,0.1318359 0.07031,0.3691406 0.04395,0.2373047 0.07031,0.4042969 0.03516,0.1582031 0.03516,0.1757812 0,0.140625 -0.210937,0.140625 -0.08789,0 -0.131836,-0.061523 -0.03516,-0.070312 -0.07031,-0.1933594 -0.03516,-0.1230469 -0.0791,-0.1845703 -0.09668,-0.131836 -0.316407,-0.2373047 -0.210937,-0.1142578 -0.421875,-0.1142578 -0.237304,0 -0.404297,0.1318359 -0.166992,0.131836 -0.166992,0.3427735 0,0.4482421 0.711914,0.6503906 0.08789,0.026367 0.263672,0.070312 0.175781,0.035156 0.272461,0.061523 0.09668,0.026367 0.228516,0.079102 0.140625,0.052734 0.246094,0.1318359 0.105468,0.079102 0.202148,0.1933594 0.272457,0.3164062 0.272457,0.7119141 0,0.4746093 -0.377926,0.84375 -0.36914,0.3691406 -0.993164,0.3691406 -0.342773,0 -0.703125,-0.1142578 -0.351562,-0.1142578 -0.536133,-0.3339844 -0.105468,-0.1142578 -0.105468,-0.3076172 0,-0.140625 -0.0088,-0.3164062 0,-0.1757813 0,-0.2197266 0,-0.1757813 0.02637,-0.2285156 0.03516,-0.052734 0.131836,-0.052734 0.09668,0 0.123047,0.079102 0.02637,0.079102 0.03516,0.2373046 0.0088,0.1494141 0.05273,0.2460938 0.0791,0.1757812 0.369141,0.3515625 0.298828,0.1757812 0.65039,0.1757812 0.307618,0 0.518555,-0.1669921 0.210938,-0.1669922 0.210938,-0.4306641 0,-0.1669922 -0.0791,-0.2900391 Q 99.276544,5.700521 99.11834,5.6214194 98.960137,5.5335288 98.863458,5.4983726 98.766778,5.4544272 98.55584,5.4016929 L 98.344903,5.3577476 Q 97.351739,5.0677085 97.351739,4.2591147 Z m 3.094211,0.9228516 q 0,-0.9140625 0.4834,-1.4677734 0.48339,-0.553711 1.17773,-0.553711 0.44824,0 0.86133,0.2460938 0.41308,0.2460937 0.68554,0.6152344 0.0703,0.087891 0.0703,0.1933593 v 0.017578 q 0,0.079102 -0.044,0.140625 -0.0439,0.061523 -0.14062,0.1142578 -0.0967,0.043945 -0.167,0.070312 -0.0703,0.026367 -0.21093,0.070312 -0.13184,0.043945 -0.167,0.052734 -1.83691,0.6328125 -1.88085,0.6591797 -0.0352,0.017578 -0.0352,0.052734 0,0.052734 0.0264,0.1757813 0.0264,0.1230468 0.11425,0.3251953 0.0967,0.2021484 0.22852,0.3779297 0.14062,0.1669921 0.39551,0.2988281 0.25488,0.1230469 0.57129,0.1230469 0.61523,0 1.07226,-0.4394532 0.12305,-0.1230468 0.20215,-0.1230468 0.14941,0 0.14941,0.1318359 0,0.052734 -0.0703,0.140625 -0.28125,0.3691406 -0.70312,0.5888672 -0.42188,0.2109375 -0.8877,0.2109375 -0.29883,0 -0.58887,-0.1054688 -0.28125,-0.1054687 -0.55371,-0.3251953 -0.26367,-0.2197265 -0.43066,-0.6328125 -0.1582,-0.4130859 -0.1582,-0.9580078 z m 2.4082,-0.9316406 q 0,-0.1142578 -0.30762,-0.3515625 -0.30761,-0.2460938 -0.6416,-0.2460938 -0.39551,0 -0.63281,0.3427735 -0.22852,0.3427734 -0.22852,0.9404297 0,0.070312 0.0439,0.070312 0.0176,0 0.83496,-0.3164063 0.82617,-0.3251953 0.85254,-0.3339844 0.0791,-0.043945 0.0791,-0.1054687 z m 3.24362,2.6630859 q 0,0.1757813 -0.10547,0.1757813 -0.009,0 -0.0615,-0.00879 -0.0439,0 -0.12305,-0.00879 -0.0791,-0.00879 -0.17578,-0.017578 -0.0967,-0.00879 -0.22852,-0.017578 -0.13183,0 -0.25488,0 -0.12305,0 -0.24609,0 -0.12305,0.00879 -0.21973,0.00879 -0.0967,0.00879 -0.17578,0.017578 -0.0703,0.00879 -0.11426,0.00879 -0.0439,0.00879 -0.0527,0.00879 -0.13184,0 -0.13184,-0.1582031 v -0.026367 q 0,-0.1142578 0.0527,-0.140625 0.0615,-0.035156 0.3164,-0.061523 0.1582,-0.017578 0.20215,-0.09668 0.0527,-0.087891 0.0527,-0.2460938 V 1.7718101 q 0,-0.026367 -0.009,-0.043945 0,-0.026367 -0.009,-0.043945 -0.009,-0.017578 -0.0176,-0.026367 0,-0.017578 -0.0264,-0.026367 -0.0176,-0.017578 -0.0352,-0.026367 -0.009,-0.00879 -0.0527,-0.026367 -0.0352,-0.026367 -0.0527,-0.035156 -0.0879,-0.052734 -0.19336,-0.1054687 -0.0967,-0.061524 -0.14063,-0.087891 -0.0352,-0.026367 -0.0791,-0.052734 -0.0439,-0.035156 -0.0615,-0.052734 -0.009,-0.026367 -0.009,-0.052734 v -0.00879 q 0,-0.043945 0.33398,-0.2197266 0.41309,-0.20214843 0.77344,-0.39550781 0.0527,-0.0351563 0.11426,-0.0351563 0.12304,0 0.12304,0.16699219 V 6.3948569 q 0,0.052734 0,0.087891 0.009,0.035156 0.0176,0.070312 0.009,0.026367 0.0176,0.043945 0.009,0.017578 0.0352,0.035156 0.0352,0.017578 0.0439,0.026367 0.0176,0.00879 0.0615,0.026367 0.0527,0.00879 0.0703,0.017578 0.0264,0 0.0967,0.00879 0.0791,0.00879 0.11426,0.017578 0.14941,0.026367 0.14941,0.1845703 z m 2.27682,0 q 0,0.1757813 -0.10547,0.1757813 -0.009,0 -0.0615,-0.00879 -0.0439,0 -0.12305,-0.00879 -0.0791,-0.00879 -0.17578,-0.017578 -0.0967,-0.00879 -0.22851,-0.017578 -0.13184,0 -0.25489,0 -0.12304,0 -0.24609,0 -0.12305,0.00879 -0.21973,0.00879 -0.0967,0.00879 -0.17578,0.017578 -0.0703,0.00879 -0.11426,0.00879 -0.0439,0.00879 -0.0527,0.00879 -0.13184,0 -0.13184,-0.1582031 v -0.026367 q 0,-0.1142578 0.0527,-0.140625 0.0615,-0.035156 0.3164,-0.061523 0.15821,-0.017578 0.20215,-0.09668 0.0527,-0.087891 0.0527,-0.2460938 V 1.7718101 q 0,-0.026367 -0.009,-0.043945 0,-0.026367 -0.009,-0.043945 -0.009,-0.017578 -0.0176,-0.026367 0,-0.017578 -0.0264,-0.026367 -0.0176,-0.017578 -0.0352,-0.026367 -0.009,-0.00879 -0.0527,-0.026367 -0.0351,-0.026367 -0.0527,-0.035156 -0.0879,-0.052734 -0.19336,-0.1054687 -0.0967,-0.061524 -0.14063,-0.087891 -0.0352,-0.026367 -0.0791,-0.052734 -0.0439,-0.035156 -0.0615,-0.052734 -0.009,-0.026367 -0.009,-0.052734 v -0.00879 q 0,-0.043945 0.33399,-0.2197266 0.41308,-0.20214843 0.77343,-0.39550781 0.0527,-0.0351563 0.11426,-0.0351563 0.12305,0 0.12305,0.16699219 V 6.3948569 q 0,0.052734 0,0.087891 0.009,0.035156 0.0176,0.070312 0.009,0.026367 0.0176,0.043945 0.009,0.017578 0.0352,0.035156 0.0352,0.017578 0.0439,0.026367 0.0176,0.00879 0.0615,0.026367 0.0527,0.00879 0.0703,0.017578 0.0264,0 0.0967,0.00879 0.0791,0.00879 0.11426,0.017578 0.14941,0.026367 0.14941,0.1845703 z m 1.07272,-0.9667969 q 0,-0.4570312 0,-0.852539 0,-0.3955078 0,-0.6152344 0.009,-0.2285156 0.009,-0.2724609 0,-0.09668 -0.0703,-0.131836 -0.0615,-0.043945 -0.53613,-0.2373047 -0.11426,-0.043945 -0.11426,-0.1142578 0,-0.026367 0.009,-0.052734 0.0176,-0.026367 0.0439,-0.043945 0.0352,-0.017578 0.0615,-0.026367 0.0264,-0.017578 0.0703,-0.035156 0.0439,-0.017578 0.0615,-0.026367 0.98438,-0.4746094 0.99317,-0.4746094 h 0.009 q 0.12304,0 0.12304,0.1494141 l -0.009,0.2900391 q -0.0176,0.290039 -0.0352,0.7822265 -0.009,0.4833985 -0.009,0.9667969 v 0.2988281 q 0,0.834961 0.0264,0.984375 0.0264,0.1494141 0.17578,0.1669922 0.26367,0.035156 0.33398,0.061523 0.0703,0.026367 0.0703,0.1318359 0,0.1933594 -0.10546,0.1933594 -0.009,0 -0.0527,-0.00879 -0.0439,0 -0.12305,-0.00879 -0.0791,-0.00879 -0.17578,-0.017578 -0.0967,-0.00879 -0.22851,-0.017578 -0.12305,0 -0.2461,0 -0.12304,0 -0.25488,0 -0.13183,0.00879 -0.22851,0.017578 -0.0879,0.00879 -0.167,0.017578 -0.0791,0.00879 -0.12304,0.00879 -0.0439,0.00879 -0.0527,0.00879 -0.14062,0 -0.14062,-0.1494141 0,-0.1494141 0.0527,-0.1757812 0.0615,-0.026367 0.39551,-0.070312 0.1582,-0.026367 0.19336,-0.09668 0.0439,-0.079102 0.0439,-0.2285157 z m 0.0879,-4.4736328 q 0,-0.1757812 0.13184,-0.2988281 0.13184,-0.1230469 0.30762,-0.1230469 0.17578,0 0.29883,0.1230469 0.13183,0.1230469 0.13183,0.2900391 0,0.1845703 -0.13183,0.3076172 -0.12305,0.1230468 -0.30762,0.1230468 -0.18457,0 -0.30762,-0.1142578 -0.12305,-0.1230469 -0.12305,-0.3076172 z m 2.64597,2.1708985 q 0,0.035156 0.0264,0.035156 h 0.009 q 0.009,0 0.0615,-0.052734 0.0615,-0.052734 0.16699,-0.1318359 0.10547,-0.079102 0.24609,-0.1582031 0.14063,-0.079102 0.34278,-0.131836 0.20215,-0.061523 0.42187,-0.061523 h 0.0176 q 0.18457,0 0.36035,0.052734 0.18457,0.043945 0.38672,0.1757812 0.21094,0.1230469 0.35156,0.3955078 0.14063,0.272461 0.17578,0.6679688 0.0176,0.1494141 0.0176,0.4570312 0,0.035156 0,0.1757813 0,0.1318359 -0.009,0.4833984 0,0.3515625 0,0.8964844 v 0.017578 q 0,0.043945 0.009,0.087891 0.009,0.035156 0.009,0.061523 0.009,0.017578 0.0352,0.043945 0.0264,0.017578 0.0352,0.026367 0.0176,0.00879 0.0615,0.026367 0.0527,0.00879 0.0703,0.00879 0.0264,0 0.0967,0.00879 0.0791,0.00879 0.11426,0.017578 0.13183,0.017578 0.13183,0.1669922 0,0.1757813 -0.14062,0.1757813 -0.0264,0 -0.12305,-0.017578 -0.0967,-0.00879 -0.27246,-0.026367 -0.16699,-0.00879 -0.36035,-0.00879 -0.11426,0 -0.22852,0 -0.11425,0.00879 -0.20214,0.017578 -0.0791,0.00879 -0.14942,0.017578 -0.0703,0.00879 -0.11426,0.017578 h -0.0439 q -0.12305,0 -0.12305,-0.1757813 0,-0.09668 0.0527,-0.1230469 0.0527,-0.026367 0.28125,-0.061523 0.0791,-0.017578 0.13183,-0.026367 0.0879,-0.017578 0.11426,-0.052734 0.0352,-0.043945 0.0352,-0.1582031 v -1.397462 q 0,-0.6591797 -0.12305,-0.975586 -0.13184,-0.2988281 -0.39551,-0.4130859 -0.26367,-0.1230469 -0.50098,-0.1230469 -0.34277,0 -0.61523,0.2109375 -0.27246,0.2109375 -0.30762,0.3691407 -0.0176,0.070312 -0.0176,0.1230468 v 2.1269532 0.026367 q 0,0.2285157 0.20215,0.2548829 0.39551,0.061523 0.43067,0.09668 0.0527,0.043945 0.0527,0.1494141 0,0.1582031 -0.11426,0.1582031 -0.009,0 -0.0615,-0.00879 -0.0439,0 -0.12305,-0.00879 -0.0791,-0.00879 -0.17578,-0.026367 -0.0967,-0.00879 -0.22851,-0.017578 -0.12305,0 -0.2461,0 -0.12304,0 -0.24609,0 -0.12305,0.00879 -0.21973,0.017578 -0.0879,0.00879 -0.1582,0.017578 -0.0703,0.00879 -0.11426,0.00879 -0.0439,0.00879 -0.0527,0.00879 -0.14942,0 -0.14942,-0.1582032 0,-0.1230468 0.0527,-0.149414 0.0615,-0.035156 0.29883,-0.070312 0.1582,-0.026367 0.19336,-0.09668 0.0439,-0.070312 0.0439,-0.2109375 V 4.2591147 q 0,-0.1582031 -0.0439,-0.2109375 -0.0439,-0.061523 -0.36036,-0.2988281 -0.0527,-0.052734 -0.0527,-0.087891 v -0.00879 q 0,-0.043945 0.0615,-0.079102 0.0615,-0.043945 0.37793,-0.2109375 0.2461,-0.131836 0.41309,-0.2197266 0.0527,-0.035156 0.0879,-0.035156 0.10547,0 0.10547,0.1318359 V 3.591146 q 0,0.00879 -0.009,0.035156 z m 5.0278,-0.2021485 q -0.34277,0 -0.5625,0.28125 -0.21973,0.272461 -0.21973,0.7119141 0,0.5185547 0.26368,0.8964844 0.26367,0.3779297 0.66796,0.3779297 0.36036,0 0.58008,-0.28125 0.21973,-0.2900391 0.21973,-0.7119141 0,-0.5009766 -0.27246,-0.8876953 -0.26367,-0.3867188 -0.67676,-0.3867188 z m -0.93164,4.3857422 q 0,0.3955078 0.41309,0.6416016 0.42187,0.2460937 1.05468,0.2460937 0.62403,0 0.87891,-0.2021484 0.26367,-0.1933594 0.26367,-0.4482422 0,-0.3691406 -0.36035,-0.5361328 -0.18457,-0.09668 -0.43066,-0.1318359 -0.2461,-0.026367 -0.69434,-0.043945 -0.43945,-0.00879 -0.77344,-0.043945 h -0.0264 q -0.0615,0 -0.1582,0.09668 -0.16699,0.1669922 -0.16699,0.421875 z m -0.54492,-3.2871094 q 0,-0.571289 0.41308,-0.984375 0.42188,-0.4130859 1.03711,-0.4130859 0.37793,0 0.72949,0.1582031 0.36036,0.1582032 0.4043,0.1582032 0.28125,0 0.47461,-0.28125 0.13184,-0.2109375 0.25488,-0.2109375 0.12305,0 0.22852,0.1230468 0.11426,0.1142578 0.11426,0.2460938 0,0.1582031 -0.14063,0.2724609 -0.13183,0.1142578 -0.3164,0.1933594 -0.17579,0.070312 -0.18457,0.079102 -0.044,0.043945 -0.044,0.070312 0,0.017578 0.0264,0.087891 0.0264,0.070312 0.0527,0.2021484 0.0264,0.1230469 0.0264,0.272461 0,0.6240234 -0.43945,1.0722656 -0.43067,0.4394531 -1.05469,0.4394531 -0.17578,0 -0.33399,-0.035156 -0.1582,-0.043945 -0.19336,-0.043945 -0.12304,0 -0.26367,0.1582032 -0.14062,0.149414 -0.14062,0.2988281 0,0.2373047 0.37793,0.3164062 0.38672,0.079102 0.97558,0.09668 0.59766,0.017578 0.85254,0.09668 0.4043,0.1142578 0.60645,0.3867188 0.21094,0.28125 0.21094,0.6064453 0,0.2021484 -0.0879,0.4042969 -0.0879,0.2021484 -0.29003,0.3955078 -0.19336,0.1933593 -0.58008,0.3164062 -0.38672,0.1230469 -0.91406,0.1230469 -0.97559,0 -1.3711,-0.3603516 -0.38672,-0.3515625 -0.38672,-0.7734375 0,-0.087891 0.0176,-0.1757812 0.0176,-0.079102 0.0439,-0.1494141 0.0264,-0.061523 0.0527,-0.1230469 0.0352,-0.052734 0.0703,-0.1054687 0.0439,-0.043945 0.0791,-0.079102 0.0439,-0.035156 0.0791,-0.061523 0.0352,-0.026367 0.0615,-0.052734 0.0264,-0.017578 0.0439,-0.026367 l 0.0176,-0.00879 q 0.0176,-0.017578 0.0176,-0.043945 0,-0.00879 -0.0879,-0.061523 -0.0791,-0.052734 -0.16699,-0.1757812 -0.0791,-0.1230469 -0.0791,-0.2988282 0,-0.430664 0.50097,-0.8349609 l 0.009,-0.00879 q 0.009,-0.00879 0.009,-0.026367 0,-0.035156 -0.0791,-0.079102 -0.0791,-0.043945 -0.21973,-0.1669922 -0.13183,-0.1318359 -0.24609,-0.3339844 -0.16699,-0.2988281 -0.16699,-0.6591797 z"
       id="text2"
       style="font-size:9px;font-family:'Goudy Bookletter 1911';-inkscape-font-specification:'Goudy Bookletter 1911, Normal';font-variant-caps:small-caps;font-variant-numeric:proportional-nums;text-align:center;letter-spacing:0.132292px;text-anchor:middle;fill:#050505;stroke:#000000;stroke-width:0.1"
       aria-label="Counselling" /><path
       style="font-size:20.5px;font-family:'Goudy Bookletter 1911';-inkscape-font-specification:'Goudy Bookletter 1911, Normal';font-variant-caps:small-caps;font-variant-numeric:proportional-nums;text-align:center;letter-spacing:0.132292px;text-anchor:middle;fill:#050505;stroke:#000000;stroke-width:0"
       d="m 1.5131866,1.1878262 q 0.6206054,0 1.7817383,-0.1000977 1.1811523,-0.10009766 1.7817382,-0.10009766 2.222168,0 3.4033203,0.82080076 1.2612305,0.9208985 1.2612305,2.3623047 0,0.940918 -0.5405273,1.7817383 -0.5405274,0.8408203 -1.4013672,1.3813477 l -0.060059,0.060059 q 0,0.02002 0.080078,0.060059 1.2011719,0.2202149 2.0219727,1.2211914 0.8207999,1.0009766 0.8207999,2.3422853 0,1.361328 -0.7807609,2.402344 -0.7807617,1.020996 -1.8217773,1.481445 -1.0209961,0.460449 -2.4624024,0.460449 -0.4804687,0 -1.4013671,-0.06006 -0.9208985,-0.06006 -1.4013672,-0.06006 -0.3403321,0 -1.1010742,0.02002 -0.76074223,0.02002 -1.24121098,0.02002 h -0.0400391 q -0.12011719,0 -0.20019532,-0.02002 -0.0600586,-0.02002 -0.14013672,-0.140137 -0.06005859,-0.120117 -0.06005859,-0.340332 0,-0.240234 0.14013672,-0.300293 0.16015625,-0.06006 0.74072266,-0.120117 0.18017583,-0.02002 0.28027343,-0.04004 0.1401368,-0.02002 0.2001954,-0.04004 0.080078,-0.04004 0.1401367,-0.120118 0.080078,-0.100097 0.080078,-0.260253 V 2.689291 q 0,-0.3803711 -0.2202148,-0.4804687 Q 1.1728545,2.0887051 0.6323272,2.048666 q -0.0600586,0 -0.10009766,0 -0.36035156,0 -0.36035156,-0.5205078 0,-0.3603516 0.36035156,-0.3603516 0.0200195,0 0.14013672,0.02002 0.12011719,0 0.34033204,0 0.2402344,0 0.5004883,-4e-7 z m 6.40625,3.4233398 q 0,-0.4204102 -0.1401367,-0.8408203 Q 7.6391631,3.329916 7.3188506,2.8894863 6.9985381,2.4490566 6.3579131,2.1687832 5.7373077,1.8885098 4.8964874,1.8885098 q -1.1411133,0 -1.4414063,0.2402343 -0.1000977,0.080078 -0.1000977,0.2602539 v 0.040039 4.3842773 q 0,0.2602539 0.2202149,0.2602539 h 0.9208984 0.2602539 q 2.1621094,0 2.862793,-1.3012695 0.300293,-0.6005859 0.300293,-1.1611327 z m -2.9829102,9.789551 q 1.621582,0 2.7626953,-0.86084 1.1411133,-0.880859 1.1411133,-2.422363 0,-1.020996 -0.6005859,-1.8818363 Q 7.6591827,8.3548183 6.4179717,8.0945644 5.7573272,7.9544277 4.696292,7.9544277 H 3.6552764 q -0.300293,0 -0.300293,0.3203125 v 5.2851558 q 0,0.220215 0.02002,0.340333 0.040039,0.120117 0.1801758,0.260253 0.1401367,0.120118 0.4204101,0.160157 0.600586,0.08008 0.9609375,0.08008 z m 11.0829756,0.560547 q 0,0.40039 -0.240235,0.40039 -0.02002,0 -0.140136,-0.02002 -0.100098,0 -0.280274,-0.02002 -0.180176,-0.02002 -0.40039,-0.04004 -0.220215,-0.02002 -0.520508,-0.04004 -0.300293,0 -0.580567,0 -0.280273,0 -0.560546,0 -0.280274,0.02002 -0.500489,0.02002 -0.220215,0.02002 -0.40039,0.04004 -0.160157,0.02002 -0.260254,0.02002 -0.100098,0.02002 -0.120117,0.02002 -0.300293,0 -0.300293,-0.360352 v -0.06006 q 0,-0.260254 0.120117,-0.320313 0.140136,-0.08008 0.720703,-0.140137 0.360351,-0.04004 0.460449,-0.220214 0.120117,-0.200196 0.120117,-0.560547 V 3.2498379 q 0,-0.060059 -0.02002,-0.1000977 0,-0.060059 -0.02002,-0.1000976 -0.02002,-0.040039 -0.04004,-0.060059 0,-0.040039 -0.06006,-0.060059 -0.04004,-0.040039 -0.08008,-0.060059 -0.02002,-0.02002 -0.120117,-0.060059 Q 12.716279,2.7493496 12.67624,2.7293301 12.476045,2.6092129 12.23581,2.4890957 12.015596,2.348959 11.915498,2.2889004 11.83542,2.2288418 11.735322,2.1687832 11.635224,2.0887051 11.595185,2.048666 11.575166,1.9886074 11.575166,1.9285488 v -0.020019 q 0,-0.1000977 0.760742,-0.5004883 0.940918,-0.46044922 1.761719,-0.90087891 0.120117,-0.0800781 0.260254,-0.0800781 0.280273,0 0.280273,0.38037109 V 13.780111 q 0,0.120118 0,0.200196 0.02002,0.08008 0.04004,0.160156 0.02002,0.06006 0.04004,0.100098 0.02002,0.04004 0.08008,0.08008 0.08008,0.04004 0.100098,0.06006 0.04004,0.02002 0.140137,0.06006 0.120117,0.02002 0.160156,0.04004 0.06006,0 0.220215,0.02002 0.180176,0.02002 0.260254,0.04004 0.340332,0.06006 0.340332,0.42041 z m 0.953092,-6.7866214 q 0,-0.600586 0.960938,-1.2011719 0.980957,-0.6206055 2.182129,-0.6206055 0.380371,0 0.780762,0.080078 0.40039,0.080078 0.900878,0.2802735 0.520508,0.2001953 0.86084,0.7006836 0.360352,0.4804687 0.44043,1.1811523 0.04004,0.4804688 0.04004,0.7407227 v 4.0439457 q 0,0.360351 0.140137,0.580566 0.140136,0.220215 0.280273,0.280274 0.140137,0.04004 0.280274,0.04004 0.280273,0 0.440429,-0.160157 0.160157,-0.180175 0.240235,-0.340332 0.100097,-0.180175 0.220215,-0.180175 0.180175,0 0.180175,0.260253 0,0.480469 -0.440429,1.061036 -0.44043,0.560546 -1.141114,0.560546 -0.260254,0 -0.500488,-0.08008 -0.240234,-0.08008 -0.400391,-0.200195 -0.160156,-0.140137 -0.300293,-0.260254 -0.120117,-0.120117 -0.200195,-0.220215 l -0.06006,-0.08008 q -0.02002,0 -0.02002,0 0,-0.02002 -0.02002,-0.02002 -0.04004,0 -0.06006,0.04004 -0.02002,0.04004 -0.140137,0.160156 -0.120117,0.120117 -0.340332,0.260254 -0.900879,0.560547 -1.901855,0.560547 -1.041016,0 -1.70166,-0.660645 -0.640625,-0.660644 -0.640625,-1.621582 v -0.02002 q 0,-1.161133 0.860839,-1.821778 0.300293,-0.240234 0.780762,-0.42041 0.480469,-0.200195 0.940918,-0.300293 0.480469,-0.100097 0.900879,-0.160156 0.42041,-0.08008 0.700684,-0.100098 l 0.280273,-0.02002 q 0.160156,-0.04004 0.160156,-0.280274 V 9.4959316 q 0,-1.0610351 -0.480469,-1.6416015 -0.500488,-0.5405274 -1.201171,-0.5405274 -1.081055,0 -1.761719,1.3613281 -0.180176,0.2402344 -0.44043,0.2402344 -0.320312,0 -0.580566,-0.2001953 -0.240235,-0.2001953 -0.240235,-0.5405273 z m 2.902832,6.3461914 q 0.46045,0 0.86084,-0.200195 0.42041,-0.200196 0.580567,-0.360352 0.160156,-0.160156 0.260254,-0.280273 0.120117,-0.160157 0.120117,-0.46045 v -0.500488 -0.84082 q 0,-0.380371 -0.04004,-0.480469 -0.02002,-0.120117 -0.160157,-0.120117 -0.500488,0 -1.26123,0.160156 -0.740723,0.160156 -1.181152,0.580567 -0.480469,0.40039 -0.480469,1.121093 0,0.760743 0.42041,1.121094 0.280273,0.260254 0.880859,0.260254 z m 9.581511,1.081055 q -1.761719,0 -2.862793,-1.241211 -1.081055,-1.241211 -1.081055,-3.163086 0,-2.102051 1.221192,-3.4033205 1.221191,-1.3212891 3.183105,-1.3212891 1.081055,0 1.841797,0.4604492 0.760742,0.4604492 0.760742,1.0610352 0,0.340332 -0.240234,0.5605469 -0.240235,0.2001953 -0.580567,0.2001953 -0.440429,0 -1.161132,-0.600586 -0.700684,-0.6206054 -1.321289,-0.6206054 -0.940918,0 -1.641602,0.9409179 -0.700684,0.940918 -0.700684,2.2221685 0,1.461425 0.920899,2.54248 0.940918,1.061035 2.322265,1.061035 0.540528,0 0.980958,-0.160156 0.460449,-0.180176 0.680664,-0.380371 0.240234,-0.220215 0.460449,-0.380371 0.240234,-0.180176 0.380371,-0.180176 0.140137,0 0.240234,0.100098 0.100098,0.100097 0.100098,0.240234 0,0.160156 -0.120117,0.320312 -0.540528,0.740723 -1.421387,1.241211 -0.880859,0.500489 -1.961914,0.500489 z m 8.240202,-0.600586 q 0,-0.260254 0.140137,-0.360352 0.160156,-0.120117 0.340332,-0.100097 0.200195,0 0.340332,-0.08008 0.160156,-0.08008 0.160156,-0.280273 0,-0.200195 -0.540527,-0.960938 -0.540528,-0.760742 -1.041016,-1.381347 -0.480469,-0.620606 -0.540527,-0.680664 0,-0.04004 -0.08008,-0.04004 -0.08008,0 -0.320312,0.260254 -0.240234,0.260253 -0.260254,0.340332 -0.02002,0.06006 -0.02002,0.220214 v 2.122071 q 0,0.280273 0.140136,0.340332 0.140137,0.06006 0.800782,0.140137 0.440429,0.100097 0.440429,0.440429 0,0.340332 -0.280273,0.340332 -0.04004,0 -0.240235,-0.02002 -0.200195,-0.02002 -0.560546,-0.04004 -0.360352,-0.02002 -0.780762,-0.02002 -0.42041,0 -0.780762,0.02002 -0.360351,0.02002 -0.580566,0.04004 -0.200196,0.02002 -0.240235,0.02002 -0.360351,0 -0.360351,-0.360351 0,-0.240235 0.160156,-0.320313 0.160156,-0.100097 0.340332,-0.100097 0.200195,0 0.360352,-0.100098 0.180175,-0.100098 0.200195,-0.340332 V 3.0496426 q 0,-0.3203125 -0.260254,-0.5004883 Q 33.332879,1.9285488 33.29284,1.8885098 L 33.21276,1.7283535 q 0,-0.2001953 0.42041,-0.340332 1.941895,-0.86083987 2.021973,-0.86083987 0.220215,0 0.220215,0.34033203 V 10.556967 q 0,0.08008 0.06006,0.08008 0.08008,0 0.120117,-0.08008 0.300293,-0.300293 0.600586,-0.6005862 0.320313,-0.3203125 0.480469,-0.4804687 0.180176,-0.1801758 0.360352,-0.3603516 0.180175,-0.1801757 0.260253,-0.2802734 0.100098,-0.1000977 0.180176,-0.2001953 0.08008,-0.1000977 0.100098,-0.1601563 0.02002,-0.080078 0.04004,-0.1601562 0.02002,-0.080078 0.02002,-0.1801758 0,-0.340332 -0.280274,-0.5405273 Q 37.557002,7.3738613 37.557002,7.2737637 V 7.0535488 q 0,-0.2602539 0.44043,-0.2602539 h 1.181152 q 0.600586,0 1.101074,-0.02002 0.520508,-0.02002 0.800782,-0.02002 0.300293,-0.02002 0.360351,-0.02002 0.300293,0 0.300293,0.3803711 0,0.2402344 -0.100097,0.3203125 -0.100098,0.080078 -0.480469,0.1201172 -0.360352,0.040039 -0.600586,0.1000977 -0.44043,0.1201171 -0.940918,0.4804687 -0.500488,0.3603516 -0.820801,0.6806641 -0.320312,0.3203125 -1.221191,1.2412118 -0.140137,0.140136 -0.140137,0.180175 0,0.08008 2.382324,2.922852 0.360352,0.42041 0.580567,0.660644 0.220214,0.220215 0.620605,0.46045 0.42041,0.240234 0.880859,0.300293 0.340332,0.04004 0.340332,0.360351 0,0.42041 -0.340332,0.42041 -0.02002,0 -0.140136,-0.02002 -0.100098,0 -0.280274,-0.02002 -0.180175,-0.02002 -0.42041,-0.04004 -0.220215,-0.02002 -0.520508,-0.04004 -0.300293,0 -0.600586,0 -0.300293,0 -0.600586,0 -0.300293,0.02002 -0.540527,0.04004 -0.220215,0.02002 -0.400391,0.04004 -0.180175,0.02002 -0.300292,0.02002 -0.100098,0.02002 -0.120118,0.02002 -0.280273,0 -0.280273,-0.340332 z m 7.739715,-7.8476565 q 0,0.1201172 0.100098,0.1201172 0.04004,0 0.380371,-0.2001954 0.340332,-0.2202148 0.980957,-0.4204101 0.660645,-0.2202149 1.421387,-0.2202149 1.801758,0 2.882812,1.2612305 1.101075,1.241211 1.101075,3.2631832 0,0.780762 -0.180176,1.521485 -0.180176,0.720703 -0.84082,1.541504 -0.640625,0.800781 -1.701661,1.201172 -1.081054,0.40039 -2.282226,0.40039 -0.540527,0 -1.141113,-0.200195 -0.600586,-0.180176 -0.86084,-0.180176 -0.360352,0 -0.640625,0.220215 -0.280274,0.220215 -0.380371,0.220215 -0.320313,0 -0.320313,-0.620606 0,-1.201172 0.02002,-5.9858395 0.04004,-4.8046875 0.04004,-6.0058594 0,-0.2802734 -0.260254,-0.4604492 Q 43.615077,2.5291348 43.47494,2.4490566 43.334804,2.348959 43.234706,2.3089199 43.154628,2.2488613 43.05453,2.1888027 42.954433,2.1287441 42.894374,2.0887051 q -0.04004,-0.040039 -0.100098,-0.080078 -0.06006,-0.040039 -0.100097,-0.060059 -0.02002,-0.02002 -0.04004,-0.040039 -0.02002,-0.040039 -0.04004,-0.060059 0,-0.040039 0,-0.060059 0,-0.1601563 0.260253,-0.2602539 2.262208,-0.90087892 2.342286,-0.90087892 0.280273,0.0400391 0.280273,0.40039062 0,0.6806641 -0.04004,3.2832031 -0.02002,2.6025391 -0.02002,2.8427735 z m 5.58545,4.1440425 q 0,-1.6616207 -1.020996,-2.7226558 -1.020996,-1.0610352 -2.402344,-1.0610352 -0.720703,0 -1.481445,0.3403321 -0.740723,0.340332 -0.740723,0.6606445 v 5.2451174 q 0,0.02002 -0.02002,0.08008 0,0.04004 0,0.06006 0,0.380371 0.300293,0.500488 0.960938,0.380371 1.881836,0.380371 1.561524,0 2.522461,-0.960938 0.960938,-0.980957 0.960938,-2.522461 z m 3.51559,1.461426 q 0,-1.041015 0,-1.941894 0,-0.9008792 0,-1.4013675 0.02002,-0.5205078 0.02002,-0.6206055 0,-0.2202148 -0.160156,-0.3002929 -0.140137,-0.1000977 -1.221192,-0.5405274 -0.260254,-0.1000976 -0.260254,-0.2602539 0,-0.060059 0.02002,-0.1201172 Q 52.976372,7.5139976 53.03643,7.473959 53.11651,7.43392 53.176566,7.4139 53.236626,7.373861 53.336722,7.333822 53.43682,7.293783 53.476859,7.273763 55.719047,6.1927083 55.739066,6.1927083 h 0.02002 q 0.280273,0 0.280273,0.340332 l -0.02002,0.6606445 q -0.04004,0.6606446 -0.08008,1.7817383 -0.02002,1.1010739 -0.02002,2.2021479 v 0.680664 q 0,1.901856 0.06006,2.242188 0.06006,0.340332 0.40039,0.380371 0.600586,0.08008 0.760742,0.140137 0.160157,0.06006 0.160157,0.300293 0,0.440429 -0.240235,0.440429 -0.02002,0 -0.120117,-0.02002 -0.100098,0 -0.280273,-0.02002 -0.180176,-0.02002 -0.400391,-0.04004 -0.220215,-0.02002 -0.520508,-0.04004 -0.280273,0 -0.560547,0 -0.280273,0 -0.580566,0 -0.300293,0.02002 -0.520508,0.04004 -0.200195,0.02002 -0.380371,0.04004 -0.180176,0.02002 -0.280273,0.02002 -0.100098,0.02002 -0.120118,0.02002 -0.320312,0 -0.320312,-0.340332 0,-0.340332 0.120117,-0.40039 0.140137,-0.06006 0.900879,-0.160157 0.360352,-0.06006 0.44043,-0.220214 0.100097,-0.180176 0.100097,-0.520508 z M 54.73809,2.5691738 q 0,-0.4003906 0.300293,-0.680664 0.300293,-0.2802735 0.700683,-0.2802735 0.400391,0 0.680664,0.2802735 0.300293,0.2802734 0.300293,0.6606445 0,0.4204101 -0.300293,0.7006836 -0.280273,0.2802734 -0.700683,0.2802734 -0.42041,0 -0.700684,-0.2602539 Q 54.73809,2.989584 54.73809,2.5691738 Z m 5.937957,4.9448242 q 0.02002,0 0.44043,-0.2802734 0.42041,-0.300293 0.940918,-0.640625 0.520508,-0.340332 0.760742,-0.4204102 0.240235,-0.080078 0.600586,-0.080078 0.560547,0 1.081055,0.2602539 0.520508,0.2402344 0.520508,0.640625 v 0.02002 q 0,0.1201171 -0.08008,0.2402343 -0.08008,0.1201172 -0.140137,0.1801758 -0.06006,0.060059 -0.200195,0.1801758 l -0.140137,0.1201172 q -0.02002,0 -0.220215,0.1601562 -0.180176,0.1401367 -0.320312,0.2001953 -0.140137,0.060059 -0.300293,0.060059 -0.240235,0 -0.560547,-0.2602539 -0.300293,-0.2602539 -0.660645,-0.2602539 -0.44043,0 -0.940918,0.3203125 -0.500488,0.3203125 -0.640625,0.5205078 -0.08008,0.1201172 -0.08008,0.3803711 v 4.9047855 0.08008 q 0,0.580566 0.500488,0.620605 0.200196,0.02002 0.540528,0.04004 0.620605,0.04004 0.780761,0.120118 0.180176,0.06006 0.180176,0.340332 0,0.40039 -0.280273,0.40039 -0.02002,0 -0.140137,-0.02002 -0.100098,0 -0.300293,-0.02002 -0.200195,-0.02002 -0.44043,-0.04004 -0.240234,-0.02002 -0.580566,-0.04004 -0.320313,0 -0.620606,0 -0.320312,0 -0.640625,0 -0.320312,0.02002 -0.580566,0.04004 -0.240234,0.02002 -0.44043,0.04004 -0.180175,0.02002 -0.300293,0.02002 -0.100097,0.02002 -0.120117,0.02002 -0.340332,0 -0.340332,-0.340332 0,-0.180176 0.08008,-0.260254 0.08008,-0.100097 0.160157,-0.120117 0.08008,-0.04004 0.300293,-0.06006 0.240234,-0.04004 0.380371,-0.08008 0.380371,-0.08008 0.380371,-0.480468 V 8.5750332 q 0,-0.1201172 -0.02002,-0.1801758 -0.02002,-0.080078 -0.120117,-0.1601562 -0.08008,-0.1000977 -0.180176,-0.1601563 -0.08008,-0.060059 -0.340332,-0.2402344 -0.260254,-0.1801757 -0.480469,-0.340332 -0.06006,-0.060059 -0.08008,-0.1401367 0,-0.080078 0.820801,-0.4604492 0.740723,-0.3603516 1.341309,-0.6606446 0.02002,0 0.06006,-0.02002 0.08008,-0.040039 0.120117,-0.040039 0.240235,0 0.240235,0.4204102 V 7.4139 q 0,0.1000976 0.06006,0.100098 z m 9.381314,-0.1201172 q -1.521485,0 -2.342285,0.9208985 -0.820801,0.9208984 -0.820801,2.5024417 0,1.741699 1.161133,2.762695 1.161132,1.020996 2.402343,1.020996 0.620606,0 1.201172,-0.240234 0.600586,-0.260254 0.720703,-0.640625 0.08008,-0.320313 0.08008,-0.460449 V 8.6551113 q 0,-0.2602539 -0.220215,-0.4804687 -0.840822,-0.7807618 -2.18213,-0.7807618 z M 70.0974,6.5730801 q 0.600586,0 1.121094,0.080078 0.520507,0.060059 0.800781,0.1401367 l 0.280273,0.080078 q 0.160157,0 0.160157,-0.1801757 V 3.2498379 q 0,-0.060059 -0.02002,-0.1000977 0,-0.060059 -0.02002,-0.1000976 0,-0.040039 -0.04004,-0.080078 -0.02002,-0.040039 -0.04004,-0.060059 -0.02002,-0.020019 -0.100097,-0.060058 Q 72.179428,2.8094086 72.11937,2.7893886 72.07933,2.7493496 71.959214,2.7093106 71.859117,2.6692716 71.759019,2.6292326 71.678939,2.5891936 71.518785,2.529135 71.358628,2.469076 71.218492,2.4090178 70.83812,2.3089201 70.83812,2.0887053 q 0,-0.1201172 0.180176,-0.2402344 2.5625,-1.24121095 2.642578,-1.24121095 0.240235,0 0.240235,0.28027344 0,0.20019531 -0.02002,1.06103511 -0.02002,0.8408204 -0.04004,2.3422852 0,1.4814453 0,3.2431641 0,5.4853512 0.06006,6.0258782 0,0.06006 0,0.100098 0.02002,0.02002 0.04004,0.06006 0.02002,0.02002 0.04004,0.04004 0.04004,0.02002 0.08008,0.04004 0.06006,0 0.100098,0.02002 0.04004,0 0.120117,0 0.100098,0 0.160156,0 0.08008,0 0.200195,0.02002 0.120118,0 0.220215,0 0.400391,0 0.400391,0.300293 0,0.140137 -0.120117,0.220215 -0.100098,0.08008 -0.46045,0.240234 -0.340332,0.140137 -0.640625,0.320313 -0.40039,0.220214 -0.720703,0.440429 -0.320312,0.240235 -0.460449,0.340332 -0.140137,0.120118 -0.220215,0.120118 -0.160156,0 -0.160156,-0.220215 v -0.660645 q 0,-0.06006 -0.06006,-0.06006 l -0.120117,0.08008 q -0.100097,0.08008 -0.300293,0.200195 -0.200195,0.120117 -0.480468,0.240234 -0.260254,0.120118 -0.680665,0.200196 -0.40039,0.08008 -0.84082,0.08008 -1.981933,0 -3.243164,-1.341309 -1.241211,-1.361328 -1.241211,-3.343262 0,-1.7817376 1.141113,-3.1030267 1.161133,-1.321289 3.42334,-1.321289 z"
       id="text1"
       aria-label="Blackbird" /></g></svg>
