<?xml version="1.0" encoding="UTF-8" standalone="no"?>
<svg
   width="3831.7229"
   height="1810.9365"
   viewBox="0 0 3831.723 1810.9365"
   version="1.1"
   xml:space="preserve"
   style="clip-rule:evenodd;fill-rule:evenodd;stroke-linecap:round;stroke-linejoin:round;stroke-miterlimit:1.5"
   id="svg121"
   sodipodi:docname="Blackbird_Logo_No_Subtext.svg"
   inkscape:version="1.3-beta (cedbd6c6ff, 2023-05-28)"
   xmlns:inkscape="http://www.inkscape.org/namespaces/inkscape"
   xmlns:sodipodi="http://sodipodi.sourceforge.net/DTD/sodipodi-0.dtd"
   xmlns="http://www.w3.org/2000/svg"
   xmlns:svg="http://www.w3.org/2000/svg"
   xmlns:serif="http://www.serif.com/"><defs
   id="defs121" /><sodipodi:namedview
   id="namedview121"
   pagecolor="#505050"
   bordercolor="#eeeeee"
   borderopacity="1"
   inkscape:showpageshadow="0"
   inkscape:pageopacity="0"
   inkscape:pagecheckerboard="0"
   inkscape:deskcolor="#505050"
   inkscape:zoom="0.40032252"
   inkscape:cx="2022.1196"
   inkscape:cy="1207.7762"
   inkscape:window-width="2560"
   inkscape:window-height="1411"
   inkscape:window-x="-9"
   inkscape:window-y="-9"
   inkscape:window-maximized="1"
   inkscape:current-layer="svg121" />&#10;    <g
   id="Text"
   transform="matrix(1.3309859,0,0,1.3309859,146.1124,-704.42481)">&#10;        <g
   transform="translate(8.51527,-69.0149)"
   id="g37">&#10;            <g
   transform="matrix(0.411488,0,0,0.411488,-97.7831,1042.49)"
   id="g10">&#10;                <g
   transform="matrix(972.082,0,0,972.082,992.126,992.126)"
   id="g1">&#10;                    <path
   d="m 0.09,-0.686 c -0.029,0 -0.044,-0.001 -0.048,-0.001 -0.012,0 -0.018,0.007 -0.018,0.018 0,0.021 0.008,0.025 0.018,0.025 0.034,0.003 0.052,0.004 0.052,0.032 v 0.547 c 0,0.017 -0.01,0.018 -0.021,0.02 -0.043,0.005 -0.056,0.004 -0.056,0.023 0,0.023 0.009,0.024 0.019,0.024 H 0.038 C 0.083,0.002 0.117,0 0.152,0 c 0.046,0 0.091,0.006 0.137,0.006 0.072,0 0.109,-0.018 0.12,-0.023 0.059,-0.026 0.127,-0.093 0.127,-0.189 0,-0.089 -0.062,-0.159 -0.139,-0.174 -0.002,-0.001 -0.003,-0.002 -0.003,-0.003 0,-0.001 0.001,-0.002 0.002,-0.003 0.053,-0.033 0.095,-0.091 0.095,-0.154 0,-0.054 -0.032,-0.094 -0.061,-0.115 -0.052,-0.036 -0.125,-0.04 -0.166,-0.04 -0.06,0 -0.113,0.009 -0.174,0.009 z m 0.312,0.167 c 0,0.02 -0.005,0.039 -0.014,0.057 -0.032,0.061 -0.1,0.064 -0.14,0.064 H 0.19 c -0.009,0 -0.01,-0.005 -0.01,-0.013 v -0.216 c 0,-0.004 0,-0.009 0.005,-0.013 0.01,-0.008 0.05,-0.011 0.07,-0.011 0.117,0 0.147,0.084 0.147,0.132 z M 0.257,-0.041 C 0.241,-0.041 0.225,-0.043 0.21,-0.045 0.181,-0.05 0.18,-0.065 0.18,-0.082 V -0.34 c 0,-0.008 0.001,-0.015 0.014,-0.015 h 0.051 c 0.028,0 0.057,0 0.084,0.006 0.087,0.019 0.118,0.089 0.118,0.148 0,0.105 -0.091,0.16 -0.19,0.16 z"
   style="fill-rule:nonzero"
   id="path1" />&#10;                </g>&#10;                <g
   transform="matrix(972.082,0,0,972.082,1540.38,992.126)"
   id="g2">&#10;                    <path
   d="m 0.228,-0.014 c 0,-0.013 -0.005,-0.018 -0.017,-0.02 C 0.171,-0.041 0.16,-0.039 0.16,-0.071 v -0.633 c 0,-0.009 -0.002,-0.019 -0.014,-0.019 -0.005,0 -0.009,0.002 -0.012,0.004 -0.121,0.063 -0.123,0.061 -0.123,0.069 v 0.001 c 0,0.011 0.013,0.015 0.053,0.039 0.017,0.01 0.023,0.01 0.023,0.025 v 0.509 c 0,0.02 -0.002,0.035 -0.028,0.038 -0.034,0.004 -0.041,0.003 -0.041,0.022 v 0.003 c 0,0.007 0.001,0.018 0.014,0.018 C 0.035,0.005 0.074,0 0.122,0 c 0.05,0 0.091,0.006 0.094,0.006 0.01,0 0.012,-0.008 0.012,-0.02 z"
   style="fill-rule:nonzero"
   id="path2" />&#10;                </g>&#10;                <g
   transform="matrix(972.082,0,0,972.082,1772.71,992.126)"
   id="g3">&#10;                    <path
   d="m 0.029,-0.345 c 0,0.023 0.021,0.036 0.04,0.036 0.013,0 0.019,-0.007 0.022,-0.011 0.002,-0.004 0.029,-0.067 0.086,-0.067 0.026,0 0.046,0.014 0.058,0.027 0.02,0.023 0.024,0.048 0.024,0.08 v 0.036 c 0,0.007 -0.001,0.012 -0.008,0.014 -0.002,0.001 -0.122,0.005 -0.176,0.048 -0.024,0.019 -0.042,0.051 -0.042,0.089 v 0.001 c 0,0.061 0.045,0.112 0.114,0.112 0.037,0 0.07,-0.013 0.093,-0.028 0.025,-0.017 0.022,-0.022 0.027,-0.022 0.001,0 0.001,10e-4 0.002,10e-4 0.002,0.001 0.026,0.041 0.071,0.041 0.052,0 0.077,-0.056 0.077,-0.079 0,-0.009 -0.005,-0.013 -0.009,-0.013 -0.015,0 -0.013,0.033 -0.044,0.033 -0.01,0 -0.034,-0.005 -0.034,-0.044 v -0.197 c 0,-0.012 -0.001,-0.024 -0.002,-0.036 -0.01,-0.098 -0.107,-0.11 -0.145,-0.11 -0.083,0 -0.154,0.053 -0.154,0.089 z m 0.142,0.31 c -0.013,0 -0.031,-0.002 -0.043,-0.013 -0.016,-0.014 -0.021,-0.039 -0.021,-0.055 0,-0.025 0.011,-0.043 0.024,-0.054 0.033,-0.031 0.101,-0.036 0.119,-0.036 0.009,0 0.01,0.005 0.01,0.029 v 0.065 c 0,0.009 -0.001,0.016 -0.006,0.023 -0.005,0.007 -0.034,0.041 -0.083,0.041 z"
   style="fill-rule:nonzero"
   id="path3" />&#10;                </g>&#10;                <g
   transform="matrix(972.082,0,0,972.082,2183.9,992.126)"
   id="g4">&#10;                    <path
   d="m 0.209,0.018 c 0.075,0 0.133,-0.041 0.165,-0.085 0.003,-0.004 0.006,-0.01 0.006,-0.016 0,-0.01 -0.008,-0.017 -0.017,-0.017 -0.023,0 -0.044,0.054 -0.122,0.054 -0.092,0 -0.158,-0.083 -0.158,-0.176 0,-0.084 0.053,-0.154 0.114,-0.154 0.058,0 0.075,0.06 0.121,0.06 0.021,0 0.04,-0.015 0.04,-0.038 0,-0.038 -0.055,-0.074 -0.127,-0.074 -0.128,0 -0.214,0.095 -0.214,0.231 0,0.123 0.077,0.215 0.192,0.215 z"
   style="fill-rule:nonzero"
   id="path4" />&#10;                </g>&#10;                <g
   transform="matrix(972.082,0,0,972.082,2554.26,992.126)"
   id="g5">&#10;                    <path
   d="m 0.224,-0.012 v 0.001 c 0,0.015 0.008,0.017 0.013,0.017 C 0.24,0.006 0.282,0 0.333,0 c 0.052,0 0.093,0.006 0.096,0.006 0.012,0 0.016,-0.009 0.016,-0.021 0,-0.014 -0.009,-0.016 -0.016,-0.017 C 0.381,-0.038 0.353,-0.071 0.327,-0.102 0.211,-0.241 0.211,-0.239 0.211,-0.244 c 0,-0.003 0.003,-0.005 0.007,-0.009 0.065,-0.067 0.1,-0.105 0.145,-0.117 0.038,-0.01 0.058,0 0.058,-0.026 0,-0.012 -0.004,-0.019 -0.015,-0.019 -0.011,0 -0.044,0.003 -0.11,0.003 H 0.238 c -0.011,0 -0.021,0.003 -0.021,0.013 v 0.01 c 0,0.014 0.026,0.013 0.026,0.042 0,0.024 -0.01,0.027 -0.099,0.118 -0.001,0.002 -0.004,0.004 -0.006,0.004 -0.003,0 -0.003,-0.002 -0.003,-0.004 v -0.472 c 0,-0.007 -0.001,-0.017 -0.011,-0.017 -0.004,0 -0.004,0 -0.099,0.042 -0.006,0.002 -0.02,0.006 -0.02,0.017 0,0 0,0.004 0.004,0.008 0.001,0.001 0.03,0.021 0.046,0.032 0.009,0.006 0.012,0.011 0.012,0.024 v 0.539 c -0.003,0.035 -0.051,0.008 -0.051,0.042 0,0.007 0.004,0.018 0.017,0.018 C 0.041,0.004 0.064,0 0.111,0 c 0.047,0 0.07,0.004 0.077,0.004 0.006,0 0.014,-0.003 0.014,-0.017 0,-0.016 -0.012,-0.019 -0.021,-0.021 C 0.143,-0.039 0.135,-0.038 0.135,-0.058 v -0.103 c 0,-0.004 0,-0.008 0.001,-0.011 0.001,-0.004 0.022,-0.029 0.028,-0.029 0.002,0 0.004,0.001 0.004,0.002 0.001,0.001 0.103,0.125 0.103,0.147 0,0.03 -0.047,0.002 -0.047,0.04 z"
   style="fill-rule:nonzero"
   id="path5" />&#10;                </g>&#10;                <g
   transform="matrix(972.082,0,0,972.082,2995.59,992.126)"
   id="g6">&#10;                    <path
   d="m 0.142,-0.395 c 0,-0.03 0.003,-0.239 0.003,-0.298 0,-0.016 -0.008,-0.019 -0.014,-0.02 -0.004,0 -0.013,0.004 -0.114,0.044 -0.005,0.002 -0.013,0.005 -0.013,0.013 0,0.008 0.012,0.013 0.056,0.04 0.009,0.006 0.012,0.01 0.012,0.022 0,0.117 -0.003,0.468 -0.003,0.585 0,0.014 0.002,0.03 0.016,0.03 C 0.1,0.021 0.105,0 0.135,0 c 0.03,0 0.049,0.019 0.097,0.019 0.022,0 0.07,-0.004 0.112,-0.02 0.111,-0.042 0.133,-0.145 0.133,-0.208 0,-0.132 -0.078,-0.221 -0.195,-0.221 -0.085,0 -0.127,0.041 -0.136,0.041 -0.002,0 -0.004,-0.001 -0.004,-0.006 z m 0.272,0.203 c 0,0.101 -0.068,0.17 -0.17,0.17 -0.032,0 -0.063,-0.007 -0.092,-0.019 -0.012,-0.005 -0.014,-0.012 -0.014,-0.024 0,-0.002 0.001,-0.005 0.001,-0.007 v -0.256 c 0,-0.021 0.062,-0.049 0.108,-0.049 0.086,0 0.167,0.073 0.167,0.185 z"
   style="fill-rule:nonzero"
   id="path6" />&#10;                </g>&#10;                <g
   transform="matrix(972.082,0,0,972.082,3468.02,992.126)"
   id="g7">&#10;                    <path
   d="m 0.104,-0.618 c 0,0.027 0.021,0.047 0.047,0.047 0.026,0 0.049,-0.021 0.049,-0.048 0,-0.025 -0.022,-0.046 -0.048,-0.046 -0.026,0 -0.048,0.021 -0.048,0.047 z m -0.01,0.497 v 0.047 c 0,0.018 -0.002,0.032 -0.027,0.036 -0.045,0.006 -0.049,0.004 -0.049,0.027 0,0.01 0.005,0.017 0.015,0.017 C 0.036,0.006 0.075,0 0.125,0 c 0.049,0 0.089,0.006 0.092,0.006 0.011,0 0.012,-0.014 0.012,-0.022 0,-0.017 -0.012,-0.016 -0.045,-0.021 C 0.162,-0.04 0.161,-0.043 0.161,-0.165 v -0.033 c 0,-0.122 0.006,-0.219 0.006,-0.227 0,-0.012 -0.008,-0.016 -0.014,-0.016 H 0.152 c -0.005,0 -0.006,0.002 -0.11,0.052 -0.011,0.005 -0.027,0.009 -0.027,0.021 0,0.008 0.007,0.011 0.012,0.013 0.064,0.026 0.068,0.025 0.068,0.041 0,0.019 -0.001,0.077 -0.001,0.193 z"
   style="fill-rule:nonzero"
   id="path7" />&#10;                </g>&#10;                <g
   transform="matrix(972.082,0,0,972.082,3704.24,992.126)"
   id="g8">&#10;                    <path
   d="m 0.145,-0.377 c -0.002,0 -0.003,-0.002 -0.003,-0.005 v -0.04 c 0,-0.009 -0.001,-0.02 -0.012,-0.02 -0.003,0 -0.006,0.002 -0.009,0.003 -0.104,0.051 -0.105,0.049 -0.105,0.054 0.001,0.004 0.003,0.006 0.004,0.007 0.047,0.034 0.055,0.033 0.055,0.053 v 0.265 c 0,0.015 -0.004,0.021 -0.018,0.024 -0.027,0.007 -0.045,10e-4 -0.045,0.025 0,0.01 0.006,0.017 0.016,0.017 C 0.031,0.006 0.074,0 0.13,0 c 0.054,0 0.098,0.006 0.101,0.006 0.013,0 0.014,-0.012 0.014,-0.02 0,-0.023 -0.013,-0.019 -0.073,-0.024 C 0.148,-0.04 0.147,-0.057 0.147,-0.068 v -0.244 c 0,-0.007 0,-0.012 0.004,-0.018 0.006,-0.009 0.046,-0.041 0.078,-0.041 0.033,0 0.034,0.025 0.059,0.025 0.017,0 0.03,-0.013 0.041,-0.02 0.008,-0.007 0.026,-0.018 0.027,-0.035 v -0.001 c 0,-0.028 -0.046,-0.044 -0.078,-0.044 -0.011,0 -0.02,0.001 -0.029,0.004 -0.027,0.01 -0.1,0.065 -0.104,0.065 z"
   style="fill-rule:nonzero"
   id="path8" />&#10;                </g>&#10;                <g
   transform="matrix(972.082,0,0,972.082,4052.24,992.126)"
   id="g9">&#10;                    <path
   d="m 0.238,-0.383 c 0.037,0 0.077,0.01 0.107,0.038 0.01,0.01 0.01,0.017 0.01,0.024 v 0.224 c 0,0.008 -0.001,0.015 -0.003,0.023 -0.008,0.026 -0.056,0.043 -0.094,0.043 -0.069,0 -0.174,-0.061 -0.174,-0.185 0,-0.101 0.052,-0.167 0.154,-0.167 z M 0.24,-0.423 H 0.239 c -0.158,0 -0.222,0.112 -0.222,0.216 0,0.126 0.087,0.228 0.218,0.228 0.078,0 0.116,-0.039 0.119,-0.039 0.001,0 0.002,10e-4 0.002,0.003 v 0.033 c 0,0.009 0.005,0.01 0.008,0.01 0.01,0 0.023,-0.019 0.069,-0.044 0.04,-0.023 0.059,-0.023 0.059,-0.038 0,-0.014 -0.018,-0.014 -0.019,-0.014 C 0.437,-0.07 0.427,-0.067 0.426,-0.082 0.425,-0.091 0.423,-0.277 0.423,-0.376 c 0,-0.194 0.003,-0.291 0.003,-0.324 0,-0.008 -0.004,-0.014 -0.012,-0.014 -0.004,0 -0.023,0.009 -0.129,0.061 -0.003,0.002 -0.009,0.005 -0.009,0.011 0,0.01 0.012,0.014 0.019,0.016 0.053,0.021 0.06,0.021 0.06,0.041 v 0.168 c 0,0.005 -0.002,0.009 -0.007,0.009 -0.005,0 -0.043,-0.015 -0.108,-0.015 z"
   style="fill-rule:nonzero"
   id="path9" />&#10;                </g>&#10;            </g>&#10;            <g
   transform="matrix(1.07993,0,0,1.07993,1831.72,1163.78)"
   id="g36">&#10;                <g
   transform="matrix(150,0,0,150,0,108.45)"
   id="g11">&#10;                    <path
   d="m 0.115,-0.354 c 0,-0.185 0.131,-0.296 0.268,-0.296 0.092,0 0.163,0.046 0.204,0.098 0.018,0.023 0.022,0.039 0.026,0.066 0.005,0.04 0.003,0.047 0.029,0.047 0.017,0 0.02,-0.01 0.02,-0.017 0,-0.01 -0.027,-0.211 -0.027,-0.212 C 0.634,-0.674 0.632,-0.68 0.622,-0.68 c -0.002,0 -0.008,0.001 -0.011,0.001 -0.019,0.005 -0.012,0.036 -0.029,0.036 -0.013,0 -0.075,-0.053 -0.196,-0.053 H 0.385 c -0.093,0 -0.187,0.037 -0.255,0.102 -0.065,0.063 -0.111,0.158 -0.111,0.259 0,0.095 0.04,0.19 0.108,0.256 0.067,0.065 0.16,0.103 0.253,0.103 0.056,0 0.121,-0.013 0.185,-0.05 0.021,-0.013 0.023,-0.021 0.047,-0.021 h 0.029 c 0.005,0 0.018,-0.001 0.022,-0.016 0.003,-0.007 0.025,-0.163 0.025,-0.163 0,-0.008 -0.009,-0.011 -0.016,-0.011 -0.012,0 -0.014,0.01 -0.015,0.013 -0.037,0.12 -0.146,0.197 -0.261,0.197 -0.156,0 -0.281,-0.143 -0.281,-0.327 z"
   style="fill-rule:nonzero"
   id="path10" />&#10;                </g>&#10;                <g
   transform="matrix(150,0,0,150,105,108.45)"
   id="g12">&#10;                    <path
   d="m 0.021,-0.204 c 0,0.123 0.085,0.223 0.212,0.223 0.112,0 0.213,-0.08 0.213,-0.223 0,-0.134 -0.09,-0.228 -0.209,-0.228 -0.112,0 -0.216,0.089 -0.216,0.228 z m 0.215,0.174 c -0.082,0 -0.137,-0.075 -0.137,-0.179 0,-0.134 0.079,-0.176 0.131,-0.176 0.076,0 0.148,0.078 0.148,0.185 0,0.089 -0.057,0.17 -0.142,0.17 z"
   style="fill-rule:nonzero"
   id="path11" />&#10;                </g>&#10;                <g
   transform="matrix(150,0,0,150,175.05,108.45)"
   id="g13">&#10;                    <path
   d="m 0.359,-0.033 c 0.001,0 0.003,0 0.003,0.004 v 0.023 c 0,0.01 0.002,0.02 0.014,0.02 0.004,0 0.008,-0.002 0.011,-0.004 0.086,-0.047 0.1,-0.024 0.1,-0.054 0,-0.006 -0.001,-0.009 -0.008,-0.012 -0.044,-0.021 -0.05,-0.018 -0.05,-0.03 v -0.313 c 0,-0.01 -0.001,-0.02 -0.015,-0.02 -0.013,0 -0.025,0.001 -0.123,0.004 -0.008,0.001 -0.014,0.004 -0.014,0.017 0,0.01 0.005,0.014 0.015,0.016 0.051,0.009 0.066,0.008 0.066,0.036 V -0.1 c 0,0.012 -0.002,0.013 -0.017,0.03 -0.018,0.018 -0.047,0.036 -0.085,0.036 -0.053,0 -0.09,-0.036 -0.106,-0.067 C 0.132,-0.137 0.132,-0.174 0.132,-0.204 v -0.205 c 0,-0.007 -0.002,-0.012 -0.01,-0.012 -0.01,0 -0.021,0.001 -0.104,0.006 -0.01,0.001 -0.011,0.007 -0.011,0.014 v 0.003 c 0,0.017 0.013,0.013 0.031,0.021 0.027,0.01 0.027,0.019 0.027,0.028 0,0.016 -0.001,0.129 -0.001,0.161 0,0.021 0.001,0.041 0.003,0.061 0.012,0.092 0.072,0.145 0.153,0.145 0.083,0 0.134,-0.051 0.139,-0.051 z"
   style="fill-rule:nonzero"
   id="path12" />&#10;                </g>&#10;                <g
   transform="matrix(150,0,0,150,250.8,108.45)"
   id="g14">&#10;                    <path
   d="m 0.141,-0.377 c 0,-0.001 0.001,-0.004 0.001,-0.006 v -0.039 c 0,-0.008 -0.003,-0.015 -0.012,-0.015 -0.004,0 -0.007,0.002 -0.01,0.004 -0.093,0.05 -0.095,0.049 -0.095,0.057 v 0.001 c 0,0.004 0.003,0.007 0.006,0.01 0.045,0.034 0.045,0.032 0.045,0.056 v 0.239 c 0,0.017 -0.001,0.03 -0.026,0.034 -0.031,0.005 -0.039,0.004 -0.039,0.024 0,0.014 0.01,0.018 0.016,0.018 C 0.03,0.006 0.067,0 0.115,0 c 0.049,0 0.09,0.007 0.093,0.007 0.009,0 0.013,-0.008 0.013,-0.018 0,-0.022 -0.012,-0.02 -0.054,-0.027 C 0.146,-0.041 0.145,-0.055 0.145,-0.066 v -0.24 c 0,-0.004 0,-0.009 0.001,-0.013 0.004,-0.018 0.045,-0.065 0.103,-0.065 0.023,0 0.078,0.009 0.1,0.06 0.012,0.03 0.013,0.09 0.013,0.108 v 0.155 c 0,0.017 -0.003,0.022 -0.016,0.024 -0.04,0.007 -0.052,0.005 -0.052,0.023 0,0.01 0.002,0.02 0.014,0.02 C 0.31,0.006 0.346,0 0.39,0 0.44,0 0.465,0.006 0.474,0.006 0.48,0.006 0.489,0.003 0.489,-0.014 0.489,-0.021 0.488,-0.03 0.475,-0.032 0.44,-0.037 0.427,-0.035 0.427,-0.063 v -0.002 c 0,-0.138 0.001,-0.156 0.001,-0.173 0,-0.017 0,-0.034 -0.002,-0.051 C 0.416,-0.413 0.329,-0.433 0.284,-0.433 H 0.282 c -0.086,0.001 -0.133,0.06 -0.137,0.06 H 0.144 c -0.001,0 -0.003,-0.001 -0.003,-0.004 z"
   style="fill-rule:nonzero"
   id="path13" />&#10;                </g>&#10;                <g
   transform="matrix(150,0,0,150,325.65,108.45)"
   id="g15">&#10;                    <path
   d="m 0.031,-0.309 c 0,0.049 0.03,0.099 0.111,0.122 0.032,0.009 0.12,0.019 0.12,0.085 0,0.04 -0.036,0.067 -0.081,0.067 -0.058,0 -0.104,-0.038 -0.114,-0.059 -0.014,-0.028 0.002,-0.062 -0.023,-0.062 -0.015,0 -0.018,0.005 -0.018,0.031 0,0.014 0.001,0.033 0.001,0.06 0,0.015 0.002,0.023 0.012,0.034 0.029,0.034 0.092,0.05 0.138,0.05 0.099,0 0.152,-0.071 0.152,-0.135 0,-0.016 -0.004,-0.049 -0.03,-0.079 C 0.262,-0.238 0.215,-0.241 0.164,-0.255 0.09,-0.276 0.085,-0.313 0.085,-0.327 c 0,-0.032 0.029,-0.053 0.063,-0.053 0.033,0 0.069,0.021 0.082,0.039 0.014,0.02 0.011,0.049 0.032,0.049 0.008,0 0.023,-0.003 0.023,-0.016 0,-0.004 -0.013,-0.07 -0.019,-0.105 -0.001,-0.005 -0.004,-0.019 -0.016,-0.019 -0.012,0 -0.016,0.01 -0.025,0.01 -0.005,0 -0.02,-0.005 -0.05,-0.005 -0.09,0 -0.144,0.058 -0.144,0.118 z"
   style="fill-rule:nonzero"
   id="path14" />&#10;                </g>&#10;                <g
   transform="matrix(150,0,0,150,376.35,108.45)"
   id="g16">&#10;                    <path
   d="m 0.022,-0.206 c 0,0.171 0.111,0.225 0.193,0.225 0.071,0 0.136,-0.036 0.177,-0.089 0.005,-0.006 0.007,-0.012 0.007,-0.016 0,-0.009 -0.007,-0.015 -0.016,-0.015 -0.01,0 -0.018,0.009 -0.023,0.014 -0.031,0.03 -0.075,0.049 -0.119,0.049 -0.126,0 -0.148,-0.133 -0.148,-0.145 0,-0.009 0.006,-0.008 0.213,-0.079 0.029,-0.01 0.081,-0.02 0.081,-0.05 v -0.001 c 0,-0.009 -0.004,-0.017 -0.008,-0.022 -0.037,-0.051 -0.103,-0.096 -0.172,-0.096 -0.1,0 -0.185,0.085 -0.185,0.225 z M 0.29,-0.31 c 0,0.004 -0.003,0.009 -0.009,0.012 -0.002,0.001 -0.184,0.072 -0.187,0.072 -0.002,0 -0.005,-0.001 -0.005,-0.007 0,-0.089 0.038,-0.143 0.096,-0.143 0.056,0 0.105,0.054 0.105,0.066 z"
   style="fill-rule:nonzero"
   id="path15" />&#10;                </g>&#10;                <g
   transform="matrix(150,0,0,150,437.7,108.45)"
   id="g17">&#10;                    <path
   d="m 0.228,-0.014 c 0,-0.013 -0.005,-0.018 -0.017,-0.02 C 0.171,-0.041 0.16,-0.039 0.16,-0.071 v -0.633 c 0,-0.009 -0.002,-0.019 -0.014,-0.019 -0.005,0 -0.009,0.002 -0.012,0.004 -0.121,0.063 -0.123,0.061 -0.123,0.069 v 0.001 c 0,0.011 0.013,0.015 0.053,0.039 0.017,0.01 0.023,0.01 0.023,0.025 v 0.509 c 0,0.02 -0.002,0.035 -0.028,0.038 -0.034,0.004 -0.041,0.003 -0.041,0.022 v 0.003 c 0,0.007 0.001,0.018 0.014,0.018 C 0.035,0.005 0.074,0 0.122,0 c 0.05,0 0.091,0.006 0.094,0.006 0.01,0 0.012,-0.008 0.012,-0.02 z"
   style="fill-rule:nonzero"
   id="path16" />&#10;                </g>&#10;                <g
   transform="matrix(150,0,0,150,473.55,108.45)"
   id="g18">&#10;                    <path
   d="m 0.228,-0.014 c 0,-0.013 -0.005,-0.018 -0.017,-0.02 C 0.171,-0.041 0.16,-0.039 0.16,-0.071 v -0.633 c 0,-0.009 -0.002,-0.019 -0.014,-0.019 -0.005,0 -0.009,0.002 -0.012,0.004 -0.121,0.063 -0.123,0.061 -0.123,0.069 v 0.001 c 0,0.011 0.013,0.015 0.053,0.039 0.017,0.01 0.023,0.01 0.023,0.025 v 0.509 c 0,0.02 -0.002,0.035 -0.028,0.038 -0.034,0.004 -0.041,0.003 -0.041,0.022 v 0.003 c 0,0.007 0.001,0.018 0.014,0.018 C 0.035,0.005 0.074,0 0.122,0 c 0.05,0 0.091,0.006 0.094,0.006 0.01,0 0.012,-0.008 0.012,-0.02 z"
   style="fill-rule:nonzero"
   id="path17" />&#10;                </g>&#10;                <g
   transform="matrix(150,0,0,150,509.4,108.45)"
   id="g19">&#10;                    <path
   d="m 0.104,-0.618 c 0,0.027 0.021,0.047 0.047,0.047 0.026,0 0.049,-0.021 0.049,-0.048 0,-0.025 -0.022,-0.046 -0.048,-0.046 -0.026,0 -0.048,0.021 -0.048,0.047 z m -0.01,0.497 v 0.047 c 0,0.018 -0.002,0.032 -0.027,0.036 -0.045,0.006 -0.049,0.004 -0.049,0.027 0,0.01 0.005,0.017 0.015,0.017 C 0.036,0.006 0.075,0 0.125,0 c 0.049,0 0.089,0.006 0.092,0.006 0.011,0 0.012,-0.014 0.012,-0.022 0,-0.017 -0.012,-0.016 -0.045,-0.021 C 0.162,-0.04 0.161,-0.043 0.161,-0.165 v -0.033 c 0,-0.122 0.006,-0.219 0.006,-0.227 0,-0.012 -0.008,-0.016 -0.014,-0.016 H 0.152 c -0.005,0 -0.006,0.002 -0.11,0.052 -0.011,0.005 -0.027,0.009 -0.027,0.021 0,0.008 0.007,0.011 0.012,0.013 0.064,0.026 0.068,0.025 0.068,0.041 0,0.019 -0.001,0.077 -0.001,0.193 z"
   style="fill-rule:nonzero"
   id="path18" />&#10;                </g>&#10;                <g
   transform="matrix(150,0,0,150,545.85,108.45)"
   id="g20">&#10;                    <path
   d="m 0.141,-0.377 c 0,-0.001 0.001,-0.004 0.001,-0.006 v -0.039 c 0,-0.008 -0.003,-0.015 -0.012,-0.015 -0.004,0 -0.007,0.002 -0.01,0.004 -0.093,0.05 -0.095,0.049 -0.095,0.057 v 0.001 c 0,0.004 0.003,0.007 0.006,0.01 0.045,0.034 0.045,0.032 0.045,0.056 v 0.239 c 0,0.017 -0.001,0.03 -0.026,0.034 -0.031,0.005 -0.039,0.004 -0.039,0.024 0,0.014 0.01,0.018 0.016,0.018 C 0.03,0.006 0.067,0 0.115,0 c 0.049,0 0.09,0.007 0.093,0.007 0.009,0 0.013,-0.008 0.013,-0.018 0,-0.022 -0.012,-0.02 -0.054,-0.027 C 0.146,-0.041 0.145,-0.055 0.145,-0.066 v -0.24 c 0,-0.004 0,-0.009 0.001,-0.013 0.004,-0.018 0.045,-0.065 0.103,-0.065 0.023,0 0.078,0.009 0.1,0.06 0.012,0.03 0.013,0.09 0.013,0.108 v 0.155 c 0,0.017 -0.003,0.022 -0.016,0.024 -0.04,0.007 -0.052,0.005 -0.052,0.023 0,0.01 0.002,0.02 0.014,0.02 C 0.31,0.006 0.346,0 0.39,0 0.44,0 0.465,0.006 0.474,0.006 0.48,0.006 0.489,0.003 0.489,-0.014 0.489,-0.021 0.488,-0.03 0.475,-0.032 0.44,-0.037 0.427,-0.035 0.427,-0.063 v -0.002 c 0,-0.138 0.001,-0.156 0.001,-0.173 0,-0.017 0,-0.034 -0.002,-0.051 C 0.416,-0.413 0.329,-0.433 0.284,-0.433 H 0.282 c -0.086,0.001 -0.133,0.06 -0.137,0.06 H 0.144 c -0.001,0 -0.003,-0.001 -0.003,-0.004 z"
   style="fill-rule:nonzero"
   id="path19" />&#10;                </g>&#10;                <g
   transform="matrix(150,0,0,150,620.7,108.45)"
   id="g21">&#10;                    <path
   d="m 0.187,-0.399 c 0.064,0 0.105,0.071 0.105,0.141 0,0.062 -0.035,0.111 -0.089,0.111 -0.062,0 -0.103,-0.067 -0.103,-0.142 0,-0.066 0.037,-0.11 0.087,-0.11 z M 0.083,0.088 C 0.083,0.071 0.09,0.053 0.102,0.041 0.109,0.034 0.112,0.03 0.119,0.03 h 0.003 c 0.104,0.011 0.166,0.002 0.211,0.025 0.011,0.005 0.04,0.023 0.04,0.059 0,0.029 -0.024,0.073 -0.127,0.073 -0.092,0 -0.163,-0.039 -0.163,-0.099 z M 0.022,-0.277 c 0,0.026 0.006,0.051 0.019,0.073 0.028,0.051 0.061,0.054 0.061,0.064 0,0.001 0,0.002 -10e-4,0.003 -0.001,0.001 -0.057,0.043 -0.057,0.094 0,0.045 0.037,0.054 0.037,0.06 0,0.002 -0.001,0.003 -0.002,0.004 -0.001,10e-4 -0.052,0.026 -0.052,0.087 0,0.046 0.032,0.126 0.196,0.126 0.165,0 0.208,-0.082 0.208,-0.137 C 0.431,0.053 0.403,0.004 0.34,-0.014 0.262,-0.037 0.095,-0.01 0.095,-0.07 c 0,-0.022 0.027,-0.051 0.045,-0.051 0.013,0 0.025,0.009 0.058,0.009 0.094,0 0.166,-0.076 0.166,-0.168 0,-0.038 -0.011,-0.057 -0.011,-0.063 0,-0.003 0.002,-0.006 0.004,-0.008 0.009,-0.007 0.072,-0.021 0.072,-0.06 0,-0.02 -0.019,-0.041 -0.038,-0.041 -0.016,0 -0.024,0.015 -0.029,0.023 -0.013,0.019 -0.033,0.032 -0.052,0.032 -0.022,0 -0.054,-0.036 -0.126,-0.036 -0.093,0 -0.162,0.072 -0.162,0.156 z"
   style="fill-rule:nonzero"
   id="path20" />&#10;                </g>&#10;                <g
   transform="matrix(150,0,0,150,724.2,108.45)"
   id="g22">&#10;                    <path
   d="m 0.1,-0.422 v 0.001 c 0,0.002 -0.001,0.005 -0.002,0.007 -0.004,0.007 -0.068,0.064 -0.068,0.169 0,0.143 0.124,0.268 0.291,0.268 0.164,0 0.298,-0.119 0.298,-0.253 v -0.002 c 0,-0.069 -0.034,-0.105 -0.034,-0.112 0,-0.008 0.007,-0.008 0.015,-0.008 0.112,-0.002 0.209,-0.088 0.209,-0.196 0,-0.099 -0.077,-0.167 -0.148,-0.167 -0.046,0 -0.088,0.031 -0.088,0.074 0,0.026 0.019,0.049 0.045,0.049 0.024,0 0.041,-0.019 0.041,-0.041 0,-0.023 -0.016,-0.03 -0.016,-0.035 0,-0.007 0.021,-0.009 0.03,-0.009 0.048,0 0.095,0.044 0.095,0.107 0,0.061 -0.044,0.1 -0.086,0.119 -0.069,0.03 -0.163,0.021 -0.247,0.063 -0.06,0.03 -0.097,0.08 -0.097,0.133 0,0.056 0.043,0.101 0.097,0.101 0.049,0 0.086,-0.037 0.086,-0.076 0,-0.034 -0.029,-0.058 -0.058,-0.058 -0.023,0 -0.039,0.017 -0.039,0.036 0,0.008 0.003,0.016 0.007,0.022 0.015,0.02 0.037,0.013 0.037,0.024 0,0.01 -0.023,0.017 -0.036,0.017 -0.035,0 -0.058,-0.03 -0.058,-0.062 0,-0.049 0.049,-0.096 0.108,-0.096 0.063,0 0.104,0.053 0.104,0.12 0,0.069 -0.047,0.173 -0.209,0.173 H 0.359 c -0.192,-0.009 -0.25,-0.129 -0.25,-0.214 0,-0.036 0.009,-0.072 0.027,-0.104 0.001,-0.001 0.005,-0.012 0.013,-0.012 0.007,0 0.041,0.024 0.096,0.024 h 0.001 c 0.051,0 0.092,-0.023 0.092,-0.057 0,-0.034 -0.038,-0.056 -0.087,-0.056 -0.06,0 -0.102,0.027 -0.11,0.027 -0.014,0 -0.039,-0.042 -0.039,-0.083 0,-0.072 0.064,-0.116 0.106,-0.116 0.044,0 0.046,0.05 0.087,0.05 0.022,0 0.045,-0.019 0.045,-0.045 0,-0.048 -0.071,-0.061 -0.107,-0.061 -0.093,0 -0.175,0.082 -0.175,0.172 0,0.066 0.042,0.096 0.042,0.107 z m 0.161,0.03 c -0.033,0 -0.058,-0.001 -0.082,-0.019 -0.001,-0.001 -0.003,-0.003 -0.003,-0.006 0,-0.009 0.034,-0.023 0.084,-0.023 0.036,0 0.043,0.015 0.043,0.025 0,0.019 -0.022,0.023 -0.042,0.023 z"
   style="fill-rule:nonzero"
   id="path21" />&#10;                </g>&#10;                <g
   transform="matrix(150,0,0,150,0,271.95)"
   id="g23">&#10;                    <path
   d="m 0.476,-0.498 c 0,0.097 -0.1,0.162 -0.247,0.162 -0.034,0 -0.037,-0.001 -0.037,-0.012 v -0.285 c 0,-0.012 0.006,-0.015 0.061,-0.015 0.142,0 0.223,0.067 0.223,0.15 z M 0.069,-0.683 H 0.044 c -0.015,0 -0.022,0.007 -0.022,0.022 0,0.025 0.014,0.026 0.024,0.026 h 0.036 c 0.021,0 0.022,0.014 0.022,0.026 v 0.535 c 0,0.016 -0.005,0.024 -0.028,0.027 -0.052,0.005 -0.062,0.001 -0.062,0.029 0,0.011 0.004,0.024 0.02,0.024 C 0.039,0.006 0.098,0 0.173,0 0.246,0 0.306,0.006 0.311,0.006 0.327,0.006 0.33,-0.006 0.33,-0.018 V -0.019 C 0.33,-0.049 0.317,-0.043 0.222,-0.047 0.196,-0.049 0.19,-0.06 0.19,-0.082 v -0.203 c 0,-0.01 0.003,-0.016 0.013,-0.016 h 0.03 c 0.124,0 0.187,-0.02 0.225,-0.041 0.055,-0.029 0.101,-0.085 0.102,-0.16 v -0.001 c 0,-0.049 -0.022,-0.097 -0.058,-0.13 -0.048,-0.043 -0.112,-0.06 -0.195,-0.06 -0.072,0 -0.143,0.01 -0.238,0.01 z"
   style="fill-rule:nonzero"
   id="path22" />&#10;                </g>&#10;                <g
   transform="matrix(150,0,0,150,85.8,271.95)"
   id="g24">&#10;                    <path
   d="m 0.031,-0.309 c 0,0.049 0.03,0.099 0.111,0.122 0.032,0.009 0.12,0.019 0.12,0.085 0,0.04 -0.036,0.067 -0.081,0.067 -0.058,0 -0.104,-0.038 -0.114,-0.059 -0.014,-0.028 0.002,-0.062 -0.023,-0.062 -0.015,0 -0.018,0.005 -0.018,0.031 0,0.014 0.001,0.033 0.001,0.06 0,0.015 0.002,0.023 0.012,0.034 0.029,0.034 0.092,0.05 0.138,0.05 0.099,0 0.152,-0.071 0.152,-0.135 0,-0.016 -0.004,-0.049 -0.03,-0.079 C 0.262,-0.238 0.215,-0.241 0.164,-0.255 0.09,-0.276 0.085,-0.313 0.085,-0.327 c 0,-0.032 0.029,-0.053 0.063,-0.053 0.033,0 0.069,0.021 0.082,0.039 0.014,0.02 0.011,0.049 0.032,0.049 0.008,0 0.023,-0.003 0.023,-0.016 0,-0.004 -0.013,-0.07 -0.019,-0.105 -0.001,-0.005 -0.004,-0.019 -0.016,-0.019 -0.012,0 -0.016,0.01 -0.025,0.01 -0.005,0 -0.02,-0.005 -0.05,-0.005 -0.09,0 -0.144,0.058 -0.144,0.118 z"
   style="fill-rule:nonzero"
   id="path23" />&#10;                </g>&#10;                <g
   transform="matrix(150,0,0,150,136.5,271.95)"
   id="g25">&#10;                    <path
   d="m 0.092,0.223 c 0.029,0 0.05,-0.025 0.074,-0.062 0.073,-0.111 0.134,-0.251 0.179,-0.36 0.07,-0.174 0.058,-0.174 0.079,-0.177 0.032,-0.004 0.039,-0.003 0.039,-0.019 0,-0.011 0,-0.02 -0.012,-0.02 -0.007,0 -0.03,0.003 -0.076,0.003 H 0.374 c -0.047,0 -0.071,-0.003 -0.078,-0.003 -0.012,0 -0.019,0.007 -0.019,0.018 0,0.015 0.01,0.018 0.019,0.019 0.033,0.003 0.048,-0.001 0.048,0.023 0,0.033 -0.03,0.111 -0.082,0.235 -0.002,0.002 -0.004,0.01 -0.01,0.01 -0.005,0 -0.007,-0.004 -0.007,-0.006 -0.068,-0.128 -0.109,-0.237 -0.109,-0.246 0,-0.011 0.008,-0.013 0.015,-0.014 0.03,-0.003 0.037,-0.001 0.037,-0.023 0,-0.008 -0.002,-0.016 -0.013,-0.016 -0.008,0 -0.032,0.003 -0.079,0.003 -0.047,0 -0.071,-0.003 -0.078,-0.003 -0.011,0 -0.014,0.007 -0.014,0.017 0,0.033 0.022,0.012 0.038,0.033 0.002,0.003 0.037,0.068 0.055,0.102 0.082,0.164 0.111,0.226 0.111,0.248 0,0.028 -0.041,0.091 -0.067,0.115 -0.037,0.035 -0.088,0.047 -0.088,0.087 0,0.02 0.017,0.036 0.039,0.036 z"
   style="fill-rule:nonzero"
   id="path24" />&#10;                </g>&#10;                <g
   transform="matrix(150,0,0,150,206.7,271.95)"
   id="g26">&#10;                    <path
   d="m 0.209,0.018 c 0.075,0 0.133,-0.041 0.165,-0.085 0.003,-0.004 0.006,-0.01 0.006,-0.016 0,-0.01 -0.008,-0.017 -0.017,-0.017 -0.023,0 -0.044,0.054 -0.122,0.054 -0.092,0 -0.158,-0.083 -0.158,-0.176 0,-0.084 0.053,-0.154 0.114,-0.154 0.058,0 0.075,0.06 0.121,0.06 0.021,0 0.04,-0.015 0.04,-0.038 0,-0.038 -0.055,-0.074 -0.127,-0.074 -0.128,0 -0.214,0.095 -0.214,0.231 0,0.123 0.077,0.215 0.192,0.215 z"
   style="fill-rule:nonzero"
   id="path25" />&#10;                </g>&#10;                <g
   transform="matrix(150,0,0,150,263.85,271.95)"
   id="g27">&#10;                    <path
   d="m 0.293,-0.008 c 0,0.007 0.002,0.014 0.011,0.014 C 0.307,0.006 0.346,0 0.394,0 c 0.05,0 0.088,0.006 0.091,0.006 0.008,0 0.013,-0.004 0.013,-0.022 0,-0.014 -0.009,-0.017 -0.017,-0.018 C 0.456,-0.037 0.444,-0.038 0.444,-0.066 0.44,-0.253 0.435,-0.284 0.415,-0.331 0.392,-0.384 0.347,-0.422 0.281,-0.422 c -0.068,0 -0.112,0.037 -0.118,0.037 -0.002,0 -0.005,-0.001 -0.005,-0.007 L 0.159,-0.7 c 0,-0.016 -0.009,-0.019 -0.015,-0.019 H 0.143 c -0.007,0 -0.008,0.002 -0.115,0.064 -0.002,0.001 -0.016,0.007 -0.016,0.019 0,0.026 0.066,0.017 0.071,0.042 0.001,0.006 0.004,0.164 0.004,0.245 v 0.004 c 0,0.092 -0.002,0.184 -0.005,0.275 -0.001,0.014 -0.001,0.03 -0.024,0.034 -0.028,0.006 -0.037,0.005 -0.037,0.022 0,0.009 0,0.02 0.012,0.02 C 0.036,0.006 0.076,0 0.127,0 c 0.049,0 0.089,0.006 0.092,0.006 0.009,0 0.011,-0.012 0.011,-0.021 0,-0.036 -0.067,-0.004 -0.075,-0.047 -0.002,-0.007 -0.002,-0.241 -0.002,-0.247 0,-0.005 0,-0.009 0.001,-0.013 0.005,-0.02 0.044,-0.049 0.087,-0.049 0.032,0 0.061,0.016 0.081,0.036 0.025,0.027 0.048,0.066 0.048,0.21 0,0.076 0,0.084 -0.02,0.087 -0.044,0.006 -0.057,0.002 -0.057,0.023 z"
   style="fill-rule:nonzero"
   id="path26" />&#10;                </g>&#10;                <g
   transform="matrix(150,0,0,150,340.95,271.95)"
   id="g28">&#10;                    <path
   d="m 0.021,-0.204 c 0,0.123 0.085,0.223 0.212,0.223 0.112,0 0.213,-0.08 0.213,-0.223 0,-0.134 -0.09,-0.228 -0.209,-0.228 -0.112,0 -0.216,0.089 -0.216,0.228 z m 0.215,0.174 c -0.082,0 -0.137,-0.075 -0.137,-0.179 0,-0.134 0.079,-0.176 0.131,-0.176 0.076,0 0.148,0.078 0.148,0.185 0,0.089 -0.057,0.17 -0.142,0.17 z"
   style="fill-rule:nonzero"
   id="path27" />&#10;                </g>&#10;                <g
   transform="matrix(150,0,0,150,411,271.95)"
   id="g29">&#10;                    <path
   d="m 0.04,-0.365 h 0.032 c 0.006,0 0.007,0.004 0.007,0.009 0,0.022 -0.004,0.177 -0.004,0.221 0,0.011 0,0.021 0.001,0.032 0.007,0.094 0.061,0.122 0.101,0.122 0.055,0 0.104,-0.05 0.139,-0.09 0.002,-0.003 0.007,-0.009 0.007,-0.017 0,-0.009 -0.007,-0.018 -0.018,-0.018 -0.022,0 -0.061,0.06 -0.109,0.06 -0.042,0 -0.051,-0.039 -0.051,-0.074 0,-0.024 0,-0.047 0.001,-0.234 0,-0.007 0.003,-0.009 0.01,-0.009 h 0.117 c 0.009,0 0.014,-0.001 0.018,-0.005 0.005,-0.006 0.009,-0.023 0.009,-0.029 0,-0.019 -0.017,-0.019 -0.026,-0.019 -0.003,0 -0.005,-0.001 -0.008,-0.001 h -0.09 c -0.012,0 -0.02,-0.003 -0.02,-0.02 0,-0.014 0.001,-0.056 0.001,-0.07 0,-0.013 -0.007,-0.016 -0.013,-0.016 -0.011,0 -0.017,0.013 -0.02,0.018 -0.054,0.092 -0.104,0.11 -0.104,0.127 0,0.012 0.011,0.013 0.02,0.013 z"
   style="fill-rule:nonzero"
   id="path28" />&#10;                </g>&#10;                <g
   transform="matrix(150,0,0,150,460.95,271.95)"
   id="g30">&#10;                    <path
   d="m 0.293,-0.008 c 0,0.007 0.002,0.014 0.011,0.014 C 0.307,0.006 0.346,0 0.394,0 c 0.05,0 0.088,0.006 0.091,0.006 0.008,0 0.013,-0.004 0.013,-0.022 0,-0.014 -0.009,-0.017 -0.017,-0.018 C 0.456,-0.037 0.444,-0.038 0.444,-0.066 0.44,-0.253 0.435,-0.284 0.415,-0.331 0.392,-0.384 0.347,-0.422 0.281,-0.422 c -0.068,0 -0.112,0.037 -0.118,0.037 -0.002,0 -0.005,-0.001 -0.005,-0.007 L 0.159,-0.7 c 0,-0.016 -0.009,-0.019 -0.015,-0.019 H 0.143 c -0.007,0 -0.008,0.002 -0.115,0.064 -0.002,0.001 -0.016,0.007 -0.016,0.019 0,0.026 0.066,0.017 0.071,0.042 0.001,0.006 0.004,0.164 0.004,0.245 v 0.004 c 0,0.092 -0.002,0.184 -0.005,0.275 -0.001,0.014 -0.001,0.03 -0.024,0.034 -0.028,0.006 -0.037,0.005 -0.037,0.022 0,0.009 0,0.02 0.012,0.02 C 0.036,0.006 0.076,0 0.127,0 c 0.049,0 0.089,0.006 0.092,0.006 0.009,0 0.011,-0.012 0.011,-0.021 0,-0.036 -0.067,-0.004 -0.075,-0.047 -0.002,-0.007 -0.002,-0.241 -0.002,-0.247 0,-0.005 0,-0.009 0.001,-0.013 0.005,-0.02 0.044,-0.049 0.087,-0.049 0.032,0 0.061,0.016 0.081,0.036 0.025,0.027 0.048,0.066 0.048,0.21 0,0.076 0,0.084 -0.02,0.087 -0.044,0.006 -0.057,0.002 -0.057,0.023 z"
   style="fill-rule:nonzero"
   id="path29" />&#10;                </g>&#10;                <g
   transform="matrix(150,0,0,150,538.05,271.95)"
   id="g31">&#10;                    <path
   d="m 0.022,-0.206 c 0,0.171 0.111,0.225 0.193,0.225 0.071,0 0.136,-0.036 0.177,-0.089 0.005,-0.006 0.007,-0.012 0.007,-0.016 0,-0.009 -0.007,-0.015 -0.016,-0.015 -0.01,0 -0.018,0.009 -0.023,0.014 -0.031,0.03 -0.075,0.049 -0.119,0.049 -0.126,0 -0.148,-0.133 -0.148,-0.145 0,-0.009 0.006,-0.008 0.213,-0.079 0.029,-0.01 0.081,-0.02 0.081,-0.05 v -0.001 c 0,-0.009 -0.004,-0.017 -0.008,-0.022 -0.037,-0.051 -0.103,-0.096 -0.172,-0.096 -0.1,0 -0.185,0.085 -0.185,0.225 z M 0.29,-0.31 c 0,0.004 -0.003,0.009 -0.009,0.012 -0.002,0.001 -0.184,0.072 -0.187,0.072 -0.002,0 -0.005,-0.001 -0.005,-0.007 0,-0.089 0.038,-0.143 0.096,-0.143 0.056,0 0.105,0.054 0.105,0.066 z"
   style="fill-rule:nonzero"
   id="path30" />&#10;                </g>&#10;                <g
   transform="matrix(150,0,0,150,599.4,271.95)"
   id="g32">&#10;                    <path
   d="m 0.145,-0.377 c -0.002,0 -0.003,-0.002 -0.003,-0.005 v -0.04 c 0,-0.009 -0.001,-0.02 -0.012,-0.02 -0.003,0 -0.006,0.002 -0.009,0.003 -0.104,0.051 -0.105,0.049 -0.105,0.054 0.001,0.004 0.003,0.006 0.004,0.007 0.047,0.034 0.055,0.033 0.055,0.053 v 0.265 c 0,0.015 -0.004,0.021 -0.018,0.024 -0.027,0.007 -0.045,10e-4 -0.045,0.025 0,0.01 0.006,0.017 0.016,0.017 C 0.031,0.006 0.074,0 0.13,0 c 0.054,0 0.098,0.006 0.101,0.006 0.013,0 0.014,-0.012 0.014,-0.02 0,-0.023 -0.013,-0.019 -0.073,-0.024 C 0.148,-0.04 0.147,-0.057 0.147,-0.068 v -0.244 c 0,-0.007 0,-0.012 0.004,-0.018 0.006,-0.009 0.046,-0.041 0.078,-0.041 0.033,0 0.034,0.025 0.059,0.025 0.017,0 0.03,-0.013 0.041,-0.02 0.008,-0.007 0.026,-0.018 0.027,-0.035 v -0.001 c 0,-0.028 -0.046,-0.044 -0.078,-0.044 -0.011,0 -0.02,0.001 -0.029,0.004 -0.027,0.01 -0.1,0.065 -0.104,0.065 z"
   style="fill-rule:nonzero"
   id="path31" />&#10;                </g>&#10;                <g
   transform="matrix(150,0,0,150,653.1,271.95)"
   id="g33">&#10;                    <path
   d="m 0.029,-0.345 c 0,0.023 0.021,0.036 0.04,0.036 0.013,0 0.019,-0.007 0.022,-0.011 0.002,-0.004 0.029,-0.067 0.086,-0.067 0.026,0 0.046,0.014 0.058,0.027 0.02,0.023 0.024,0.048 0.024,0.08 v 0.036 c 0,0.007 -0.001,0.012 -0.008,0.014 -0.002,0.001 -0.122,0.005 -0.176,0.048 -0.024,0.019 -0.042,0.051 -0.042,0.089 v 0.001 c 0,0.061 0.045,0.112 0.114,0.112 0.037,0 0.07,-0.013 0.093,-0.028 0.025,-0.017 0.022,-0.022 0.027,-0.022 0.001,0 0.001,10e-4 0.002,10e-4 0.002,0.001 0.026,0.041 0.071,0.041 0.052,0 0.077,-0.056 0.077,-0.079 0,-0.009 -0.005,-0.013 -0.009,-0.013 -0.015,0 -0.013,0.033 -0.044,0.033 -0.01,0 -0.034,-0.005 -0.034,-0.044 v -0.197 c 0,-0.012 -0.001,-0.024 -0.002,-0.036 -0.01,-0.098 -0.107,-0.11 -0.145,-0.11 -0.083,0 -0.154,0.053 -0.154,0.089 z m 0.142,0.31 c -0.013,0 -0.031,-0.002 -0.043,-0.013 -0.016,-0.014 -0.021,-0.039 -0.021,-0.055 0,-0.025 0.011,-0.043 0.024,-0.054 0.033,-0.031 0.101,-0.036 0.119,-0.036 0.009,0 0.01,0.005 0.01,0.029 v 0.065 c 0,0.009 -0.001,0.016 -0.006,0.023 -0.005,0.007 -0.034,0.041 -0.083,0.041 z"
   style="fill-rule:nonzero"
   id="path32" />&#10;                </g>&#10;                <g
   transform="matrix(150,0,0,150,716.55,271.95)"
   id="g34">&#10;                    <path
   d="M 0.25,-0.027 C 0.227,-0.027 0.204,-0.033 0.184,-0.043 0.158,-0.055 0.158,-0.065 0.158,-0.074 v -0.215 c 0,-0.029 0.007,-0.046 0.029,-0.062 0.026,-0.02 0.053,-0.021 0.066,-0.021 0.08,0 0.155,0.08 0.155,0.177 0,0.1 -0.077,0.168 -0.158,0.168 z m 0.036,-0.404 c -0.008,0 -0.015,0 -0.023,0.001 -0.078,0.011 -0.11,0.065 -0.115,0.065 -0.002,0 -0.003,-0.003 -0.003,-0.006 V -0.43 c 0,-0.006 -0.002,-0.011 -0.008,-0.011 -0.005,0 -0.007,0.003 -0.017,0.008 -0.105,0.062 -0.107,0.061 -0.107,0.067 v 0.001 c 0,0.007 0.002,0.006 0.067,0.035 0.012,0.005 0.013,0.015 0.013,0.02 v 0.464 c 0,0.017 -0.006,0.025 -0.022,0.028 -0.046,0.01 -0.058,0.008 -0.058,0.026 0,0.017 0.01,0.02 0.016,0.02 0.005,0 0.06,-0.008 0.133,-0.008 0.056,0 0.085,0.004 0.094,0.004 0.009,0 0.012,-0.007 0.012,-0.015 0,-0.031 -0.02,-0.025 -0.08,-0.031 C 0.167,0.176 0.166,0.162 0.166,0.152 v -0.14 c 0,-0.007 0.001,-0.011 0.007,-0.011 0.002,0 0.03,0.006 0.064,0.006 0.139,0 0.238,-0.089 0.238,-0.222 0,-0.116 -0.078,-0.216 -0.189,-0.216 z"
   style="fill-rule:nonzero"
   id="path33" />&#10;                </g>&#10;                <g
   transform="matrix(150,0,0,150,790.65,271.95)"
   id="g35">&#10;                    <path
   d="m 0.092,0.223 c 0.029,0 0.05,-0.025 0.074,-0.062 0.073,-0.111 0.134,-0.251 0.179,-0.36 0.07,-0.174 0.058,-0.174 0.079,-0.177 0.032,-0.004 0.039,-0.003 0.039,-0.019 0,-0.011 0,-0.02 -0.012,-0.02 -0.007,0 -0.03,0.003 -0.076,0.003 H 0.374 c -0.047,0 -0.071,-0.003 -0.078,-0.003 -0.012,0 -0.019,0.007 -0.019,0.018 0,0.015 0.01,0.018 0.019,0.019 0.033,0.003 0.048,-0.001 0.048,0.023 0,0.033 -0.03,0.111 -0.082,0.235 -0.002,0.002 -0.004,0.01 -0.01,0.01 -0.005,0 -0.007,-0.004 -0.007,-0.006 -0.068,-0.128 -0.109,-0.237 -0.109,-0.246 0,-0.011 0.008,-0.013 0.015,-0.014 0.03,-0.003 0.037,-0.001 0.037,-0.023 0,-0.008 -0.002,-0.016 -0.013,-0.016 -0.008,0 -0.032,0.003 -0.079,0.003 -0.047,0 -0.071,-0.003 -0.078,-0.003 -0.011,0 -0.014,0.007 -0.014,0.017 0,0.033 0.022,0.012 0.038,0.033 0.002,0.003 0.037,0.068 0.055,0.102 0.082,0.164 0.111,0.226 0.111,0.248 0,0.028 -0.041,0.091 -0.067,0.115 -0.037,0.035 -0.088,0.047 -0.088,0.087 0,0.02 0.017,0.036 0.039,0.036 z"
   style="fill-rule:nonzero"
   id="path34" />&#10;                </g>&#10;            </g>&#10;        </g>&#10;        &#10;    </g>&#10;    <g
   id="Zeichnung"
   transform="translate(253.94102,-342.81512)">&#10;        <g
   id="Ast"
   transform="matrix(0.802659,0,0,0.802659,-350.008,313.339)">&#10;            <path
   id="Stengel"
   d="m 360.236,2291.34 c 13.064,-6.91 32.627,-11.36 47.244,-11.81 l 35.651,-153.55 c 0,0 93.084,-317.42 94.462,-330.7 1.326,-12.79 -14.626,-362.32 -14.626,-362.32 -1.477,-1.27 89.126,-287.8 89.126,-287.8 0,0 128.905,-220.407 151.807,-240.059 52.519,-45.066 85.427,-72.473 135.68,-103.572 109.11,-67.521 179.96,-93.268 263.16,-107.156 91.64,-15.299 369.58,-33.106 369.58,-33.106 0,0 -256.59,13.695 -361.88,27.409 -74.66,9.725 -130.26,26.8 -226.716,74.938 -88.121,43.979 -185.518,127.811 -185.518,127.811 l -15.057,-119.884 8.811,124.609 -7.087,3.543 -144.721,222.617 -86.718,-161.793 80.496,174.493 -7.951,9.33 c 0,0 -85.025,278.47 -85.582,277.99 l -161.695,-162.79 154.608,174.6 3.543,10.63 c 0,0 13.054,336.1 11.021,350.51 -1.837,13.02 -87.52,283.46 -87.52,283.46 L 189.767,1975 l 223.619,127.36 -7.134,5.37 z"
   style="stroke:#000000;stroke-width:3.11px" />&#10;            <g
   id="Blatt1">&#10;                <g
   id="Blatt11"
   serif:id="Blatt1"
   transform="matrix(1.84693,0.125402,0.127748,-1.88149,-733.642,5043.47)">&#10;                    <path
   d="m 601.275,1774.57 c 13.673,3.69 23.192,27.83 25.406,62.37 l 2.362,-0.29 c 3.432,5.81 6.292,10.32 8.859,14.17 l 2.362,-1.77 c 2.807,4.15 5.925,7.66 9.449,10.33 2.407,-1.35 3.422,-7.51 3.264,-17.71 6.616,10.06 20.476,22.39 20.948,21.94 0,0 8.198,4.84 16.112,5.5 -1.326,-4.81 -2.101,-7.83 -2.529,-9.73 3.426,2.62 6.931,4.93 10.63,6.5 2.994,0.41 5.768,0.63 8.268,0.59 0.592,-1.53 0.842,-4.12 0.59,-8.27 l 2.953,-0.88 c -1.565,-5.16 -4.47,-9.5 -8.268,-13.29 3.749,-0.61 4.152,-0.38 6.721,-2.12 2.135,-14.57 -20.275,-42.14 -32.814,-48.19 9.55,1.11 18.441,7.88 30.872,16.23 6.878,4.62 18.093,18.19 18.093,18.19 0,0 5.179,5.78 6.109,7.34 0.902,0.24 1.84,0.46 2.953,0.59 2.685,4.16 3.765,5.74 5.315,7.68 1.631,1.6 5.963,3.09 11.495,3.39 0.136,-4.14 0.059,-7.12 -0.275,-8.71 0.829,2.02 3.991,4.79 11.221,8.86 l 1.181,-2.95 c 2.374,1.96 4.556,1.72 10.039,4.72 0.244,-4.46 2.46,-7.02 3.544,-11.22 h 3.543 c -1.474,-8.95 0.703,-9.3 -1.406,-14.28 -4.002,-11.04 -18.99,-35.28 -22.394,-38.52 4.872,1.25 19.021,10.19 25.415,15.82 6.964,4.64 12.989,8.94 20.063,10.51 l 1.771,-1.77 c 1.148,0.63 2.255,0.96 4.725,2.36 4.093,1.34 7.537,1.25 9.983,0.66 l 0.056,-3.02 c 2.332,0.23 5.669,-0.73 10.404,-3.35 -0.704,-9.77 -10.067,-18.52 -11.349,-18.44 7.167,0.86 26.406,-8.86 29.107,-15.91 l -3.794,-1.93 c 3.362,-1.41 6.634,-3.8 9.802,-7.35 l -4.381,-1.87 c 4.313,-3.27 14.416,-16.86 16.815,-23.27 -5.604,-5.1 -17.002,-14.02 -23.035,-14.37 l 1.856,-3.79 c -5.362,-4.53 -7.434,-5.13 -8.455,-4.47 l 1.91,-4.57 c -1.168,-3.79 -21.452,-1.83 -24.023,2.5 4.15,-5.48 6.787,-13.34 7.492,-24.96 -4.208,-2.08 -21.997,0.69 -25.85,1.65 l -0.577,-3.17 c -3.514,1.35 -6.651,3.63 -9.262,7.21 l -3.065,-1.77 c -2.959,1.65 -5.29,4.06 -6.883,7.36 l -1.424,-2.44 c -11.742,7.98 -22.185,18.27 -31.673,30.26 0,0 7.685,-26.5 9.182,-27.71 4.163,-6.66 6.207,-12.47 5.962,-13.49 l -2.953,-1.18 c 1.623,-3.09 3.057,-6.67 4.134,-11.22 l -2.952,-1.77 c -0.01,-4.34 -0.576,-8.1 -1.772,-11.22 -4.442,1.44 -8.927,4.22 -11.811,8.27 l -2.953,-2.96 c -0.387,-1.5 -9.792,6.86 -9.449,9.45 0,0 -2.706,-5.79 -4.134,-7.08 -3.659,2.35 -4.724,5.9 -4.724,5.9 l -2.362,-1.18 c -0.081,-0.9 -2.859,2.15 -4.725,7.09 -1.131,-1.62 -2.303,-2.87 -3.543,-3.55 -24.797,28.16 -34.55,57.64 -50.351,69.4 3.035,-11.6 5.53,-8.78 11.36,-21.91 3.434,-7.74 10.727,-22.43 10.727,-22.43 2.145,-5.21 3.823,-11.43 4.724,-19.31 l -2.362,-1.19 c 0.428,-2.61 -4.075,-10.81 -4.075,-10.81 0,0 -3.774,0.31 -5.906,1.18 1.465,-4.31 2.427,-9.97 2.363,-13 l -1.772,-0.59 c 0.013,-2.12 -0.121,-4.69 -0.591,-8.26 -3.006,0.8 -6.349,2.57 -10.039,5.31 l -2.362,-1.77 c -4.92,3.77 -9.202,8.31 -12.402,14.17 -1.172,-2.46 -2.868,-5.18 -5.315,-8.26 -2.015,1.16 -5.975,5.85 -5.905,5.9 0.658,0.47 -2.362,-0.59 -2.362,-0.59 -4.305,4.02 -3.388,20.26 -7.087,28.94 -1.333,3.12 -8.882,-12.82 -11.811,-13.55 -1.148,-0.29 -4.63,7.4 -4.502,7.94 -0.262,0.1 -0.534,-0.01 -0.813,-0.3 -0.709,0.97 -2.152,6.88 -2.871,12.02 -0.479,0.14 -1.003,-0.1 -1.535,-0.41 0.004,6.46 2.822,13.36 3.367,18.63 -1.03,0.33 -1.766,0 -2.415,-0.31 -0.192,-0.77 10.272,45.71 -5.858,52.62 z"
   id="path104" />&#10;                </g>&#10;                <g
   id="Blattader1"
   transform="rotate(10.548977,567.61257,1824.0719)">&#10;                    <path
   d="m 993.179,1777.86 c 0,0 -64.119,-6.55 -176.732,-11.57 -64.092,-2.86 -109.803,-2.41 -137.938,-1.26 -51.726,2.11 -103.169,9.89 -164.729,30.25 2.455,6.38 11.644,9.4 23.622,5.9 38.292,-15.21 86.072,-22.92 140.1,-25.49 25.354,-1.2 72.763,-2.63 137.668,-0.19 62.265,2.35 178.009,2.36 178.009,2.36 z"
   style="fill:#ffffff;stroke:#000000;stroke-width:3.11px"
   id="path105" />&#10;                </g>&#10;            </g>&#10;            <g
   id="Blatt2">&#10;                <g
   id="Blatt21"
   serif:id="Blatt2"
   transform="matrix(-1.27741,0.336717,-0.336717,-1.27741,1804.35,3486.19)">&#10;                    <path
   d="m 620.46,1770.67 c 13.673,3.69 18.498,34.99 20.713,69.53 l 2.362,-0.29 c 3.432,5.81 6.291,10.32 8.858,14.17 l 2.362,-1.77 c 2.808,4.15 5.925,7.66 9.449,10.33 2.407,-1.35 3.422,-7.51 3.264,-17.71 6.617,10.06 20.476,22.39 20.949,21.94 0,0 8.197,4.84 16.112,5.5 -1.327,-4.81 -2.101,-7.83 -2.53,-9.73 3.427,2.62 6.931,4.93 10.63,6.5 2.994,0.41 5.769,0.63 8.268,0.59 0.593,-1.52 0.842,-4.12 0.591,-8.27 l 2.952,-0.88 c -1.565,-5.16 -4.469,-9.49 -8.267,-13.29 3.749,-0.61 4.152,-0.38 6.72,-2.12 -3.986,-7.67 -8.185,-15.27 -16.682,-20.64 -20.565,-16.88 -28.374,-26.35 -29.921,-32.18 18.273,-1.57 32.801,15.21 59.051,45.72 2.03,2.75 3.339,4.71 4.27,6.27 0.901,0.24 1.839,0.46 2.953,0.59 2.684,4.16 3.765,5.74 5.315,7.68 1.631,1.6 5.963,3.09 11.495,3.39 0.135,-4.14 0.059,-7.12 -0.275,-8.71 0.829,2.02 3.991,4.79 11.221,8.86 l 1.181,-2.95 c 2.373,1.96 4.555,1.72 10.039,4.72 0.243,-4.46 2.46,-7.02 3.543,-11.22 h 3.544 c -1.475,-8.95 -3.207,-16.28 -5.315,-21.26 -4.002,-11.04 -16.675,-29.84 -20.079,-33.07 4.872,1.24 11.14,3.08 17.533,8.72 6.964,4.63 12.99,8.93 20.063,10.51 l 1.772,-1.77 c 1.147,0.63 2.254,0.96 4.724,2.36 4.094,1.33 7.538,1.24 9.984,0.65 l 0.056,-3.01 c 2.332,0.23 5.668,-0.73 10.403,-3.36 -0.704,-9.76 -9.69,-24.48 -10.972,-24.41 7.166,0.86 28.179,-7.19 30.879,-14.23 l -3.793,-1.94 c 3.362,-1.4 6.634,-3.79 9.801,-7.35 l -4.38,-1.86 c 4.313,-3.28 7.825,-7.87 10.224,-14.28 -5.604,-5.1 -11.488,-7.11 -17.521,-7.46 0,0 2.542,-4.04 1.798,-4.97 -1.068,-1.65 -17.964,-7.39 -18.693,-7.33 l 0.728,-3.95 c -2.319,-1.42 -5.144,-1.77 -8.452,-1.09 -5.391,1.98 -10.015,2.89 -13.941,2.82 4.15,-5.48 7.113,-13.08 7.817,-24.7 -4.207,-2.09 -8.153,-1.93 -12.005,-0.98 l -1.966,-1.55 c -4.532,0.05 -8.532,0.84 -12.249,2.03 -2.055,2.19 -4.218,4.03 -6.49,5.51 l -1.448,-2.21 c -0.394,-0.06 -5.404,3.73 -8.417,9.38 -5.016,9.42 -14.775,16.57 -16.269,15.98 7.677,-17.46 16.501,-30.5 17.998,-31.71 4.163,-6.66 6.207,-12.47 5.962,-13.49 l -2.953,-1.18 c 1.623,-3.09 3.057,-6.67 4.134,-11.22 l -2.953,-1.77 c -0.009,-4.34 -0.575,-8.1 -1.771,-11.22 -4.442,1.44 -8.927,4.22 -11.811,8.27 l -2.953,-2.96 c -0.387,-1.49 -9.792,6.86 -9.449,9.45 0,0 -2.706,-5.79 -4.134,-7.08 -3.659,2.35 -4.724,5.9 -4.724,5.9 l -2.362,-1.18 c -0.081,-0.9 -2.859,2.15 -4.725,7.09 -1.131,-1.62 -2.303,-2.87 -3.543,-3.55 -24.797,28.16 -34.55,57.64 -50.351,69.4 3.035,-11.6 5.825,-23.48 11.655,-36.61 3.435,-7.74 10.727,-22.43 10.727,-22.43 2.145,-5.21 3.823,-11.43 4.725,-19.31 l -2.363,-1.19 c 0.428,-2.61 -4.075,-10.81 -4.075,-10.81 0,0 -3.774,0.31 -5.905,1.18 1.464,-4.31 2.426,-9.97 2.362,-13 l -1.772,-0.59 c 0.013,-2.12 -0.121,-4.69 -0.59,-8.26 -3.006,0.8 -6.35,2.57 -10.04,5.31 l -2.362,-1.77 c -4.919,3.77 -9.201,8.31 -12.401,14.17 -1.172,-2.46 -2.868,-5.18 -5.315,-8.26 -2.015,1.16 -5.976,5.85 -5.906,5.9 0.659,0.47 -2.362,-0.59 -2.362,-0.59 -4.304,4.02 -3.387,20.26 -7.087,28.94 -1.332,3.12 -8.881,-12.82 -11.811,-13.55 -1.147,-0.29 -4.629,7.4 -4.502,7.94 -0.262,0.1 -0.534,-0.01 -0.813,-0.3 -0.709,0.97 -2.152,6.88 -2.87,12.02 -0.479,0.14 -1.003,-0.1 -1.535,-0.41 0.003,6.46 2.822,13.36 3.366,18.63 -1.03,0.33 -1.765,0 -2.415,-0.31 -0.192,-0.77 4.752,63.79 -9.102,67.4 z"
   id="path106" />&#10;                </g>&#10;                <g
   id="Blattader2"
   transform="matrix(-1,0,0,1,1027.21,-358.475)">&#10;                    <path
   d="m 813.824,1865.42 c -69.677,-45.79 -221.307,-95.75 -300.044,-70.14 2.455,6.38 11.644,9.4 23.622,5.9 19.506,-3.76 41.285,-3.92 63.824,-1.68 98.98,9.84 212.598,65.92 212.598,65.92 z"
   style="fill:#ffffff;stroke:#000000;stroke-width:3.11px"
   id="path107" />&#10;                </g>&#10;            </g>&#10;            <g
   id="Ast-Lichter"
   serif:id="Ast Lichter"
   transform="matrix(1.24586,0,0,1.24586,272.485,-337.027)">&#10;                <g
   transform="translate(-726.378,-513.78)"
   id="g108">&#10;                    <path
   d="M 912.992,1924.02 979.134,1706.1 Z"
   style="fill:none;stroke:#ffffff;stroke-width:2.5px"
   id="path108" />&#10;                </g>&#10;                <g
   transform="translate(-726.378,-513.78)"
   id="g109">&#10;                    <path
   d="m 905.315,1936.42 c 6.432,-1.03 9.021,-5.14 7.677,-12.4"
   style="fill:none;stroke:#ffffff;stroke-width:2.5px"
   id="path109" />&#10;                </g>&#10;                <g
   transform="rotate(16.275001,3226.1577,-714.00863)"
   id="g110">&#10;                    <path
   d="M 913.47,1923.71 973.49,1724.7 Z"
   style="fill:none;stroke:#ffffff;stroke-width:2.5px"
   id="path110" />&#10;                </g>&#10;            </g>&#10;        </g>&#10;        <g
   id="Amsel"
   transform="matrix(0.802659,0,0,0.802659,-219.087,260.832)">&#10;            <g
   id="Beine"
   transform="translate(-573.584,-898.54)">&#10;                <path
   d="m 1459.76,1532.33 22.85,61.47 4.72,34.25 c 1.99,10.12 8.04,16.22 10.83,21.55 2.05,3.92 0.19,9.98 0.74,13.25 0.67,3.96 0.18,4.24 2.21,7.35 1.98,3.05 3.48,5.28 2.94,5.89 -2.51,2.84 -7.32,0.3 -8.83,-2.94 -5.61,-5.14 -4.94,-9.68 -5.27,-16.19 -2.03,7.48 -2.33,12.35 0.86,19.13 1.04,2.22 3.81,5.16 6.67,7.36 5.56,4.29 11.31,1.25 12.46,-3.77 0,0 1.89,-7.13 1.47,-10.95 -0.9,-3.12 -4.61,-8.46 -4.84,-9.76 -0.52,-2.98 0.79,-7.45 2.15,-10.84 2.01,2.24 5.99,4.56 11.52,7.36 1.74,1.74 2.22,5.89 2.94,7.36 l 2.94,5.88 c 0.97,2.94 -0.14,4.41 -2.94,7.36 -5.41,-1.25 -9.31,-11.44 -11.77,-17.66 1.16,9.06 4.81,19.53 11.48,22.07 6.19,0.38 8.82,-2.16 9.12,-10.3 1.53,-1.75 2.32,-4.7 1.47,-10.3 -0.38,-2.47 -2.16,-2.99 -5.89,-6.63 -3.77,-3.68 -6.62,-4.97 -7.35,-8.08 0,0 4.8,0.42 11.77,2.94 2.56,0.93 5.47,3.64 7.36,4.42 3.83,1.58 5.44,1.3 7.35,2.2 2.54,1.21 2.09,4.16 2.95,8.1 -0.72,3.15 -2.4,3.3 -4.42,4.41 -4,-1.54 -4.55,-4.78 -7.36,-10.3 0.02,4.23 -0.69,14.19 4.42,14.71 4.27,0.15 10.23,0.49 13.24,-8.09 -1.06,-7.75 -3.4,-12.37 -10.3,-16.92 -3.62,-2.39 -7.11,-1.72 -9.56,-2.94 -2.03,-1.01 -4.36,-3.38 -5.15,-4.42 0,0 -7.77,-13.23 -20.76,-21.88 l -14.18,-14.17 -19.22,-70.18 z"
   id="path111" />&#10;                <g
   transform="rotate(2.6564001,1568.3293,1577.6393)"
   id="g112">&#10;                    <path
   d="m 1613.23,1524.43 c 29.13,22.67 55.23,38.95 80.37,63.57 5.95,7.44 7.94,11.68 10.63,17.71 1.36,2.79 2.71,4.76 5.14,7.34 3.63,1.74 5.89,2.33 7.64,5.9 1.62,3.31 1.31,2.84 1.87,6.41 1.32,3.3 4.52,3.71 5.19,5.88 0.64,3.2 0.39,6.15 -0.77,8.83 -0.99,2.29 -5.89,2.61 -7.36,1.47 -1.35,-1.04 -2.46,-3.02 -3.36,-5.88 l -1.05,-4.42 2.94,2.94 c 1.12,1.25 2.5,2.3 4.41,2.95 0.63,-1.5 0.81,-2.98 0,-4.42 -2.53,-2.82 -7.47,-5.3 -8.91,-6.8 -0.95,-0.99 -3.85,-5.57 -5,-4.56 -0.55,0.49 -1.24,1.54 -1.35,2.65 -0.12,1.2 1.23,3.72 1.38,5.82 0.15,2.22 -0.28,4.14 -0.47,5.92 -0.28,2.77 1.05,4.63 -0.36,8.12 -1.22,3.03 -2.68,2.92 -4.42,3.57 -3.16,0.78 -5.58,0.22 -7.35,-1.47 -2.98,-2.71 -3.97,-5.7 -3.93,-8.83 0.12,-1.64 0.51,-3.06 0.98,-4.42 l 1.47,5.15 c 0.84,2.44 2.92,5.05 4.42,5.15 2.18,0.15 3.83,0.26 4.41,-1.47 0.52,-1.53 -0.24,-2.8 -1.8,-4.76 -1.52,-1.92 -3.29,-3.13 -3.98,-6.45 -0.52,-2.52 0.36,-5.23 -0.1,-6.45 -0.86,-2.59 -3.74,-7.17 -7.36,-7.35 -1.58,-0.08 -2.97,2.47 -2.43,6.9 0.3,2.54 -0.43,6.65 -0.43,6.65 0.03,-0.86 -0.62,2.92 -2.63,6.75 -1.93,2.62 -1.42,13.86 -11.59,15.75 -3.39,0.63 -7.45,-1.14 -9.41,-4.93 -1.49,-2.89 -1.81,-5.84 -1.47,-8.83 0.7,-4.62 2.31,-8.43 4.42,-11.77 -0.98,4.33 -1.63,8.05 -1.47,10.3 -0.99,6.04 6.06,8.95 9.64,7.18 2.15,-2.44 4.74,-7.95 3.6,-13.06 -1.55,-2.12 -2.96,-4.45 -2.94,-8.83 0.23,-2.61 -2.85,-33.29 -1.28,-39.47 -17,-16.95 -40.25,-32.77 -66.44,-49.72 z"
   id="path112" />&#10;                </g>&#10;                <path
   d="m 1455.12,1491.73 c 0,5.51 -2.72,10.56 -2.36,21.26 0.25,7.73 1.12,14.77 3.54,20.08 1.77,3.9 7.09,2.36 7.09,2.36 0,0 10.14,5.64 15.35,3.55 5.64,-2.27 3.54,-28.35 3.54,-28.35 0,0 -1.13,-5.09 0,-7.21 3.76,-7.04 10.63,-6.96 10.63,-6.96 l -40.15,-16.54 c 0,0 2.36,8.25 2.36,11.81 z"
   id="path113" />&#10;                <path
   d="m 1583.86,1492.91 c 0,0 -0.92,10.37 1.18,22.44 1.43,8.25 15.73,22.9 21.26,22.45 5.85,-0.48 10.63,-13 10.63,-13 1.07,-3.29 -0.91,-7.91 0,-16.53 0.57,-5.42 3.25,-11.23 7.09,-15.36 5.11,-5.51 23.62,-17.71 23.62,-17.71 z"
   id="path114" />&#10;            </g>&#10;            <g
   id="Schnabel"
   transform="translate(-573.584,-898.54)">&#10;                <g
   transform="translate(-2.3622)"
   id="g115">&#10;                    <path
   d="m 1921.06,1039.09 c 1.25,-0.12 2.51,0.01 3.77,0.06 2.69,0.09 5.34,-0.29 7.75,1.11 1.42,0.82 -0.53,3.13 -1.18,3.54 -1.69,1.07 -3.63,1.94 -4.36,2.14 -0.25,0.07 -0.47,0.1 -1.18,0.15 -2.19,0.14 0.21,-0.14 0.39,-1.25 0.17,-1.01 0.23,-2.16 -1.18,-2.04 -2.14,0.17 -6.77,-0.11 -6,2.33 0.54,1.73 -0.83,0.03 -0.96,-0.45 -0.6,-2.16 0.42,-5.33 2.95,-5.59 z"
   id="path115" />&#10;                </g>&#10;                <path
   d="m 1916.12,1044.43 c 0.55,3.18 3.34,3.5 9.22,0.81"
   style="fill:none;stroke:#000000;stroke-width:1.04px"
   id="path116" />&#10;                <path
   id="Schnabel1"
   serif:id="Schnabel"
   d="m 1848.42,1078.35 53.16,-49.61 c 55.64,-6.62 108.75,0.05 113.38,18.9 -0.65,1.08 -6.25,1.98 -10.04,3.54 -1.29,0.53 1.12,1.43 -3.54,2.95 -16.09,5.25 -52.27,9.9 -76.48,17.13 -10.86,3.24 -18.13,7.86 -22.14,11.81 -6.78,6.67 -41.01,-3.85 -54.34,-4.72 z"
   style="fill:none;stroke:#000000;stroke-width:3.11px" />&#10;                <path
   d="m 1836.61,1083.07 c 58.6,-25.01 113.61,-38.59 178.35,-35.43"
   style="fill:none;stroke:#000000;stroke-width:2.86px"
   id="path117" />&#10;            </g>&#10;            <g
   id="Krper"
   transform="translate(-573.584,-898.54)">&#10;                <path
   d="m 1818.9,1000.68 c -97.34,0.23 -122,60.34 -165.36,91.84 -80.54,58.52 -84.6,42.2 -165.35,64.96 -40.64,11.45 -101.36,43.55 -141.63,52.46 -11.68,2.58 -36.13,0.51 -41.84,0 -77.04,-6.87 -234.08,-130.4 -332.673,-131.59 -5.747,-0.07 -2.162,8.53 -5.905,8.26 -10.234,-0.73 -30.185,-2.5 -42.52,-1.18 -5.615,0.61 -1.677,3.89 -12.992,7.09 -5.644,1.6 -8.454,13.2 -1.181,17.72 74.672,46.35 278.701,143.21 293.111,154.55 12.48,9.82 23.88,21.14 33.92,33.44 23.98,29.36 72.89,97.86 106.06,123.27 58.45,44.78 144.19,88 216.52,80.84 18.45,-1.83 33.1,-4.65 47.24,-8.94 14.99,-4.54 29.43,-10.74 47.24,-19.17 73.97,-35.01 197.53,-139.32 188.98,-278.49 -0.17,-2.7 -1.17,-24.04 7.17,-35.5 12.65,-17.39 32.99,-48.07 40.07,-60.63 7.47,-13.24 27.46,-22.09 34.26,-27.17 8.01,-5.99 -41.17,11.4 -38.98,8.27 2.98,-4.27 9.06,-6.72 10.63,-9.45 3.18,-5.53 -41.22,7 -41.34,4.72 -0.17,-3.19 19.74,-17.63 55.51,-27.16 2.54,-0.68 -3.15,-16.78 -7.08,-20.08 -26.17,-21.94 -54.82,-28.13 -83.86,-28.06 z"
   id="path118" />&#10;            </g>&#10;            <g
   id="Auge"
   transform="translate(-573.584,-898.54)">&#10;                <g
   transform="translate(1.76251,-0.0514979)"
   id="g119">&#10;                    <path
   d="m 1807.09,1029.46 c 7.21,-0.91 16.24,3.56 23.04,9.96 4.42,4.17 6.46,11.68 6.49,16.54 0.03,4.33 -3.44,8.6 -8.26,11.22 -3.03,1.65 -4.22,3.51 -11.82,4.08 -6.14,0.46 -12.9,-1.59 -16.53,-4.08 -3.64,-2.5 -8.43,-5.97 -10.93,-12.4 -1.46,-3.79 -1.28,-10.1 1.47,-14.23 3.87,-5.81 7.84,-9.99 16.54,-11.09 z"
   style="fill:#ffffff"
   id="path119" />&#10;                </g>&#10;                <g
   transform="matrix(0.828738,0,0,0.815077,311.581,194.179)"
   id="g120">&#10;                    <path
   d="m 1807.09,1029.46 c 7.21,-0.91 16.24,3.56 23.04,9.96 4.42,4.17 6.46,11.68 6.49,16.54 0.03,4.33 -3.44,8.6 -8.26,11.22 -3.03,1.65 -4.22,3.51 -11.82,4.08 -6.14,0.46 -12.9,-1.59 -16.53,-4.08 -3.64,-2.5 -9.74,-8 -10.77,-13.57 -1.36,-7.33 0.42,-10.43 2.49,-13.4 2.22,-3.19 6.66,-9.65 15.36,-10.75 z"
   id="path120" />&#10;                </g>&#10;                <g
   transform="matrix(0.0590082,-0.0780689,0.076782,0.0580355,1622.86,1123.13)"
   id="g121">&#10;                    <path
   d="m 1807.09,1029.46 c 7.21,-0.91 16.24,3.56 23.04,9.96 4.42,4.17 6.46,11.68 6.49,16.54 0.03,4.33 -3.44,8.6 -8.26,11.22 -3.03,1.65 -4.22,3.51 -11.82,4.08 -6.14,0.46 -12.9,-1.59 -16.53,-4.08 -3.64,-2.5 -10.13,-9.08 -11.22,-13 -1.09,-3.91 -0.05,-11.03 1.76,-13.63 2.22,-3.19 7.84,-9.99 16.54,-11.09 z"
   style="fill:#ffffff"
   id="path121" />&#10;                </g>&#10;            </g>&#10;        </g>&#10;    </g>&#10;</svg>
