<?xml version="1.0" encoding="UTF-8" standalone="no"?>
<svg
   width="1241.1052"
   height="1810.9365"
   viewBox="0 0 1241.1052 1810.9365"
   version="1.1"
   xml:space="preserve"
   style="clip-rule:evenodd;fill-rule:evenodd;stroke-linecap:round;stroke-linejoin:round;stroke-miterlimit:1.5"
   id="svg121"
   sodipodi:docname="Blackbird Short Logo.svg"
   inkscape:version="1.3.2 (091e20e, 2023-11-25, custom)"
   xmlns:inkscape="http://www.inkscape.org/namespaces/inkscape"
   xmlns:sodipodi="http://sodipodi.sourceforge.net/DTD/sodipodi-0.dtd"
   xmlns="http://www.w3.org/2000/svg"
   xmlns:svg="http://www.w3.org/2000/svg"
   xmlns:serif="http://www.serif.com/"><defs
   id="defs121" /><sodipodi:namedview
   id="namedview121"
   pagecolor="#ffffff"
   bordercolor="#000000"
   borderopacity="0.25"
   inkscape:showpageshadow="2"
   inkscape:pageopacity="0.0"
   inkscape:pagecheckerboard="0"
   inkscape:deskcolor="#d1d1d1"
   inkscape:zoom="0.26063294"
   inkscape:cx="400.94702"
   inkscape:cy="1076.2262"
   inkscape:window-width="1920"
   inkscape:window-height="1001"
   inkscape:window-x="-9"
   inkscape:window-y="-9"
   inkscape:window-maximized="1"
   inkscape:current-layer="svg121" />
    
    <g
   id="Text"
   transform="matrix(0.97005303,0,0,0.97005303,211.002,-361.70667)"
   style="clip-rule:evenodd;fill-rule:evenodd;stroke-linecap:round;stroke-linejoin:round;stroke-miterlimit:1.5">
        
        
    <path
   d="m 920.79954,1496.4349 q 0,-14.5732 -13.69,-24.2887 -13.46919,-9.7155 -36.65387,-9.7155 -8.83226,0 -11.26113,0.6624 -2.42887,0.6625 -2.42887,2.8706 v 64.4754 q 0,1.7664 1.10403,2.2081 1.32484,0.4416 7.0658,0.4416 24.95114,0 40.40759,-10.1572 15.45645,-10.157 15.45645,-26.4967 z m -91.85549,-41.7324 q 11.26114,0 28.70484,-1.1041 17.44372,-1.3248 24.95113,-1.3248 28.92565,0 44.1613,13.6901 13.02757,11.9235 13.02757,29.3671 v 0.2208 q -0.2208,12.1445 -6.62418,21.6392 -6.40339,9.2737 -16.33969,14.5732 -16.33967,9.2738 -50.78548,9.2738 h -6.845 q -2.87049,0 -2.87049,3.533 v 45.9276 q 0,3.9746 1.32484,5.9618 1.54565,1.7665 5.74097,1.9873 20.09339,0.8833 21.41822,1.3248 3.09129,0.8833 3.09129,5.0785 v 0.2208 q 0,5.2994 -4.41612,5.2994 l -4.41613,-0.4416 q -4.41613,-0.2208 -11.92355,-0.6624 -7.50742,-0.2208 -14.79403,-0.2208 -7.50742,0 -15.01484,0.2208 -7.50743,0.4416 -11.92356,0.6624 l -4.41612,0.4416 q -4.63694,0 -4.63694,-5.2994 0,-0.8831 0,-1.5456 0.22081,-0.8832 0.22081,-1.3248 0.22081,-0.6625 0.66242,-1.104 0.44161,-0.4416 0.66242,-0.6624 0.44161,-0.4417 1.10404,-0.6625 0.88322,-0.2208 1.32483,-0.2208 0.66242,-0.2207 1.76645,-0.2207 1.32484,-0.2209 2.20807,-0.2209 1.10402,-0.2208 2.87048,-0.2208 1.76645,-0.2208 3.3121,-0.4416 3.75371,-0.4417 4.85774,-1.7665 1.32484,-1.5456 1.32484,-4.4161 V 1471.263 q 0,-1.7665 -0.22081,-2.6497 0,-1.104 -1.32484,-1.9873 -1.10403,-1.104 -3.3121,-1.104 h -8.16984 q -1.54564,0 -2.42887,-0.2208 -0.88322,-0.2208 -1.98726,-1.5456 -0.88322,-1.5457 -0.88322,-4.1954 0,-4.8577 4.85775,-4.8577 z"
   id="text127"
   style="font-size:210.963px;font-family:'Goudy Bookletter 1911';-inkscape-font-specification:'Goudy Bookletter 1911, Normal';letter-spacing:11.9413px;stroke-width:2.13071"
   aria-label="P"
   inkscape:label="P" /><path
   d="m 940.30206,1360.2212 q 0,-0.5024 -1.84245,-2.6798 -1.84246,-2.345 -3.6849,-6.5323 -1.67497,-4.1874 -1.67497,-9.2123 0,-11.5571 9.04477,-20.4344 9.21229,-9.0449 21.1045,-9.0449 3.68489,0 7.53732,0.8375 3.85241,0.8375 7.20232,3.3499 3.51742,2.5124 3.51742,6.3648 0,3.3499 -2.34494,5.5273 -2.34494,2.1776 -5.35988,2.1776 -3.51741,0 -7.36982,-4.1875 -3.6849,-4.3548 -7.53732,-4.3548 -6.19735,0 -12.2272,5.6949 -6.02986,5.5273 -6.02986,14.0696 0,5.0249 2.34494,9.7147 2.51244,4.5225 4.3549,4.5225 0.33498,0 3.01492,-1.0049 2.67995,-1.1726 7.03483,-2.345 4.35489,-1.1726 8.87729,-1.1726 6.36485,0 10.55226,2.6799 4.35489,2.5125 4.35489,6.8674 0,4.3549 -4.52239,7.0348 -4.52239,2.68 -11.22224,2.68 h -0.16748 q -4.18741,0 -8.03983,-1.005 -3.6849,-1.0051 -5.86234,-2.01 -2.17745,-1.0049 -2.51244,-1.0049 -0.50249,0 -1.00497,0.335 -0.33501,0.335 -0.66999,0.6699 -0.1675,0.335 -0.50249,0.67 l -0.1675,0.3349 q -4.52239,8.2075 -4.52239,17.9223 0,6.0297 2.17745,11.8921 2.17743,5.6948 6.69983,11.3897 4.6899,5.5275 13.39969,9.2123 8.87727,3.6848 20.60199,4.1874 h 3.01493 q 9.88226,0 17.25199,-2.8474 7.3697,-2.8475 11.2221,-7.5374 3.8524,-4.6899 5.5273,-9.5473 1.8425,-4.8573 1.8425,-9.7146 0,-8.8774 -4.8573,-14.7397 -4.8574,-5.8625 -12.8971,-5.8625 -7.36976,0 -13.0646,5.025 -5.52739,5.0248 -5.52739,11.3897 0,4.3548 2.67995,7.5374 2.84744,3.0148 7.20232,3.0148 1.84242,0 4.01982,-0.8374 2.1775,-0.8375 2.1775,-2.0099 0,-0.67 -0.67,-1.005 -0.67,-0.3352 -1.6749,-0.5025 -0.8375,-0.1675 -2.01,-0.8376 -1.17243,-0.6699 -2.00992,-1.8423 -1.17247,-1.675 -1.17247,-3.6849 0,-2.5124 1.84246,-4.3549 2.00992,-1.8426 4.85723,-1.8426 3.8524,0 6.8672,2.8476 3.1825,2.8474 3.1825,7.0346 0,5.1926 -4.3549,9.2124 -4.3548,3.8524 -10.55203,3.8524 -6.86733,0 -11.72471,-5.0249 -4.85738,-5.025 -4.85738,-12.2271 0,-6.6999 4.35487,-12.7297 4.52241,-6.1975 12.22722,-10.0498 7.87223,-3.8523 22.44423,-6.1975 14.7397,-2.3448 19.9321,-4.6898 6.1973,-2.6798 10.3847,-7.8723 4.3548,-5.36 4.3548,-12.5623 0,-7.8722 -5.0248,-13.0647 -4.8574,-5.1923 -11.2222,-5.1923 -5.1924,0 -5.1924,1.5076 l 1.34,1.8424 q 1.5075,1.8426 1.5075,4.1874 0,3.0149 -2.01,5.0247 -2.01,2.01 -5.0249,2.01 -3.3499,0 -5.5274,-2.3448 -2.1774,-2.5125 -2.1774,-6.0299 0,-5.3598 4.5224,-9.0448 4.5224,-3.6849 10.5522,-3.6849 9.7148,0 17.4196,8.2074 7.8724,8.2072 7.8724,20.4343 0,13.7348 -10.7198,23.6172 -10.5522,9.7147 -25.1244,10.0497 -2.5125,0 -2.5125,1.3399 0,0.1676 1.34,2.5125 1.5075,2.3449 3.0149,6.8673 1.5075,4.5224 1.5075,9.7147 v 0.3351 q 0,17.4195 -15.0747,30.4841 -15.07434,13.0648 -36.01136,13.0648 -21.1045,0 -35.50914,-13.5672 -14.40464,-13.7347 -14.40464,-32.4942 0,-5.0248 1.00496,-9.7147 1.1725,-4.6899 2.84744,-8.04 1.67496,-3.3499 3.18242,-5.6947 1.67497,-2.345 3.18242,-3.8524 l 1.33997,-1.6751 q 0.33499,-0.67 0.33499,-1.1724 z m 27.63684,5.1925 q 7.20232,0 7.20232,-4.0199 0,-4.3549 -7.36982,-4.3549 -4.01991,0 -7.53732,0.6699 -3.34992,0.6701 -5.19239,1.675 -1.67494,0.8374 -1.67494,1.6749 0,0.5024 0.50248,1.0051 4.68989,3.3499 14.06967,3.3499 z"
   id="text126"
   style="font-size:220.375px;font-family:'Goudy Bookletter 1911';-inkscape-font-specification:'Goudy Bookletter 1911, Normal';letter-spacing:12.474px;clip-rule:evenodd;fill-rule:evenodd;stroke-width:1.61627;stroke-linecap:round;stroke-linejoin:round;stroke-miterlimit:1.5"
   aria-label="&amp;"
   inkscape:label="&amp;" /><path
   d="m 820.53287,1214.7844 q 0,30.2057 17.99483,50.9854 17.99482,20.5655 43.70173,20.5655 19.28017,0 35.13277,-11.7823 16.06681,-11.7823 22.06508,-31.2767 1.07112,-2.9992 3.21336,-2.9992 3.64182,0 3.64182,2.5708 -4.92716,34.0616 -5.56983,35.5611 -1.07112,3.6418 -4.92716,3.6418 h -0.21422 -5.99828 q -2.57069,0 -3.85604,0.4285 -1.07112,0.4285 -3.21336,1.928 -1.92801,1.4996 -3.21336,2.1422 -19.28018,11.1397 -40.70259,11.1397 -15.20992,0 -29.77716,-5.9982 -14.56724,-5.9983 -25.7069,-16.7095 -11.13966,-10.9255 -17.56638,-25.7069 -6.21251,-14.7815 -6.21251,-30.4199 0,-16.0668 6.64095,-31.0625 6.64095,-14.9957 17.78061,-25.7069 23.56466,-22.4935 55.91251,-22.4935 h 0.21422 q 11.78233,0 21.63664,2.9991 10.06854,2.7849 15.42415,5.7841 5.56982,2.9991 5.99827,2.9991 1.71379,0 2.99914,-3.6419 1.28534,-3.6417 3.42758,-4.2844 0.42845,0 1.28535,0 0.8569,-0.2143 1.07113,-0.2143 2.35646,0 2.78491,2.5708 l 1.49957,11.1396 q 1.49956,11.3539 2.99913,22.922 1.49957,11.5681 1.49957,12.425 0,3.6418 -4.4987,3.6418 -4.07026,0 -4.71293,-1.2853 -0.64268,-1.4996 -1.49958,-8.9975 -1.07112,-8.1404 -5.78405,-14.3529 -7.49785,-9.4259 -19.06595,-15.4242 -11.5681,-6.2125 -25.7069,-6.2125 -23.77889,0 -41.34527,17.9948 -17.35215,17.9948 -17.35215,47.1293 z"
   id="text121"
   style="font-size:240.036px;font-family:'Goudy Bookletter 1911';-inkscape-font-specification:'Goudy Bookletter 1911, Normal';letter-spacing:13.5869px;clip-rule:evenodd;fill-rule:evenodd;stroke-width:2.06719;stroke-linecap:round;stroke-linejoin:round;stroke-miterlimit:1.5"
   aria-label="C"
   inkscape:label="C" /><path
   id="text125"
   style="font-size:705.961px;font-family:'Goudy Bookletter 1911';-inkscape-font-specification:'Goudy Bookletter 1911, Normal';letter-spacing:39.9599px;clip-rule:evenodd;fill:#000000;fill-opacity:1;fill-rule:evenodd;stroke:none;stroke-width:8.78319;stroke-linecap:round;stroke-linejoin:round;stroke-miterlimit:1.5;stroke-dasharray:none;stroke-opacity:0"
   inkscape:label="B"
   d="m 584.17593,1141.7529 c -1.97204,0.037 -4.14707,0.062 -6.19697,0.129 -12.42045,0.3511 -24.81051,1.1952 -37.23662,2.1385 -24.882,1.9654 -49.86017,4.4053 -74.87851,4.3302 -8.37734,-0.036 -16.7579,0.059 -25.13321,-0.059 -2.3522,-0.3807 -4.77573,-0.9275 -7.13803,-0.2979 -1.83262,0.3769 -3.56034,1.6275 -4.05935,3.4956 -0.89753,2.8231 -0.5459,5.848 -0.25692,8.7417 0.37032,2.5196 1.07307,5.2409 3.05754,6.9822 1.7393,1.3758 4.05887,1.3491 6.16043,1.2718 4.92144,0.1091 9.81796,0.7573 14.66973,1.5573 5.62551,0.976 11.34133,2.5435 16.02026,5.9419 3.81293,2.9532 5.70201,7.7359 6.3303,12.3963 0.5663,4.1447 0.26482,8.3386 0.34943,12.5068 0.0168,76.9507 0.005,153.9013 0.008,230.852 -0.009,44.2386 0.009,88.4775 -0.0164,132.7159 -0.0608,4.4426 -1.75385,8.8981 -4.94664,12.0346 -1.98367,2.1295 -4.55176,3.8131 -7.46761,4.2693 -3.47409,0.71 -6.98511,1.2336 -10.49382,1.7396 -5.87979,0.7567 -11.79121,1.2645 -17.65234,2.166 -1.14585,0.1844 -2.54924,0.4001 -3.78925,0.6242 -2.01373,0.3986 -4.07716,0.732 -5.98809,1.491 -1.59675,1.1693 -1.6619,3.3585 -1.80477,5.1549 -0.0864,3.0289 0.11496,6.1221 1.02766,9.0272 0.47718,1.4086 1.51431,2.546 2.55437,3.5679 0.90434,0.4278 1.98728,0.3854 2.97495,0.5202 3.47555,0.204 6.95982,0.023 10.43915,0.062 22.98611,-0.1495 46.04081,-1.1263 69.06371,-1.2844 23.6238,-0.012 47.17037,2.1478 70.75079,3.2804 6.36597,0.2995 12.8043,0.535 19.20312,0.6446 2.3856,0.023 4.95518,0.037 7.41206,0 3.65252,-0.034 7.37157,-0.1584 11.02349,-0.337 1.40565,-0.09 3.04695,-0.1774 4.54317,-0.2843 2.96951,-0.2143 6.12563,-0.4883 9.09864,-0.8212 17.76474,-1.9383 35.55759,-6.0847 51.93557,-13.5057 14.8802,-6.6072 28.45996,-16.0083 40.19996,-27.2638 1.86802,-1.7914 3.81548,-3.7551 5.64293,-5.6837 4.08307,-4.2948 8.13055,-9.0184 11.80487,-13.8294 3.75147,-4.8659 7.175,-10.138 10.10494,-15.4478 1.39215,-2.53 2.80185,-5.3121 4.00195,-7.9277 5.41418,-11.7005 8.84232,-24.285 10.36719,-37.0782 0.45555,-3.8226 0.77838,-7.8492 0.90342,-11.7698 0.0766,-2.023 0.0877,-3.9341 0.0934,-5.9884 -0.002,-2.1645 -0.0832,-4.6182 -0.19994,-6.7652 -0.20126,-3.513 -0.52149,-6.8684 -1,-10.3359 -0.21488,-1.5265 -0.49972,-3.3339 -0.77557,-4.8532 -0.46789,-2.5873 -0.98453,-4.9923 -1.61836,-7.5405 -0.41742,-1.6952 -0.86408,-3.3027 -1.34435,-4.9247 -0.16323,-0.5386 -0.38836,-1.2898 -0.57576,-1.8631 -3.62262,-11.4457 -9.18174,-22.2543 -16.23869,-31.9592 -0.34851,-0.4769 -0.81855,-1.1225 -1.1974,-1.618 -5.32395,-7.067 -11.37932,-13.5907 -18.07213,-19.38 -0.47046,-0.405 -1.04311,-0.8878 -1.56088,-1.3114 -11.18779,-9.286 -24.32906,-16.2334 -38.36626,-20.0585 -3.14629,-0.9025 -6.35524,-1.5529 -9.55556,-2.2201 -1.73345,-0.4867 -3.31372,-1.4926 -4.59565,-2.7433 -1.1646,-1.1821 -1.65247,-3.0414 -0.91153,-4.5753 0.30467,-1.2037 1.19486,-2.0772 2.06605,-2.8961 1.62079,-1.6607 3.76175,-2.6346 5.62069,-3.9862 6.27497,-4.2347 12.23233,-8.9407 17.78556,-14.0861 1.21555,-1.1425 2.5798,-2.4401 3.81616,-3.6803 9.29293,-9.3333 17.34992,-19.9258 23.69459,-31.474 1.13009,-2.0785 2.16075,-4.1142 3.13369,-6.2193 0.95655,-2.0561 1.84888,-4.1582 2.62186,-6.1495 3.20255,-8.2109 5.36524,-16.8357 6.30596,-25.6019 0.11021,-1.0099 0.21304,-2.2914 0.3054,-3.4071 0.16401,-2.0983 0.23914,-4.4068 0.27077,-6.38 0.007,-1.3816 0.006,-2.5352 -0.0288,-3.9163 -0.33058,-13.9071 -3.7972,-27.8184 -10.65445,-39.9643 -2.12081,-3.8141 -4.65081,-7.58 -7.26594,-10.9436 -6.61226,-8.4514 -14.60082,-15.7972 -23.40647,-21.9122 -2.3827,-1.6062 -5.00148,-3.1878 -7.40213,-4.5429 -3.92859,-2.1999 -8.12266,-4.2289 -12.17578,-5.955 -7.8118,-3.317 -15.92097,-5.9027 -24.15625,-7.9375 -1.46713,-0.3471 -3.15516,-0.7602 -4.71578,-1.0952 -3.97254,-0.881 -8.17811,-1.6654 -12.28525,-2.3232 -2.70789,-0.4294 -5.42472,-0.8227 -8.08014,-1.1518 -8.65103,-1.094 -17.40148,-1.737 -26.06111,-2.0603 -3.71817,-0.1347 -7.42672,-0.2215 -11.09398,-0.2356 -1.65495,-0.015 -3.30996,-0.016 -4.96491,0 z m -3.40625,21.4629 c 16.25436,0.01 32.719,2.3359 47.77022,8.6922 11.31237,4.7537 22.16651,11.1473 30.60914,20.1691 4.84283,5.2031 8.70202,11.2232 12.295,17.3293 6.00001,10.4379 10.10081,21.9641 12.05183,33.8437 1.73464,10.6448 1.47768,21.6417 -1.0914,32.1321 -1.95842,8.1804 -5.0297,16.0902 -8.99275,23.505 -6.65091,11.8831 -16.66725,21.799 -28.48392,28.5387 -13.84274,7.9942 -29.62352,12.0038 -45.40139,13.8465 -9.96024,1.1783 -20.00328,1.3706 -30.02275,1.2815 -11.1445,-0.013 -22.29028,0.036 -33.43398,-0.037 -3.77362,-0.1586 -7.49667,-2.3908 -9.01237,-5.9203 -1.75631,-3.7374 -1.2175,-7.9676 -1.30526,-11.9647 0.003,-47.223 -0.0142,-94.4463 0.0204,-141.669 0.0781,-4.2759 1.73187,-8.7995 5.36025,-11.3059 4.83623,-3.5087 10.76842,-4.977 16.54246,-6.0957 10.60782,-1.9356 21.42602,-2.2584 32.18321,-2.3415 0.30378,0 0.60757,0 0.91135,0 z m -39.68555,200.1543 c 12.91606,0.022 25.83252,-0.047 38.74831,0.04 16.58639,0.2104 33.23904,1.0966 49.5653,4.1892 14.32738,2.7738 28.41172,7.6392 40.68448,15.6534 9.72976,6.3381 18.14963,14.6785 24.52337,24.389 8.64012,12.4493 15.03706,26.5363 18.07788,41.4118 2.74851,13.2668 2.95395,26.9998 1.13633,40.4058 -1.91198,13.8683 -6.46963,27.4472 -13.9475,39.3214 -7.71191,12.3263 -18.31208,22.7218 -30.39901,30.7471 -16.92339,11.4217 -36.4072,18.8734 -56.51517,22.2508 -12.16498,2.0708 -24.54926,2.8613 -36.87901,2.3949 -9.29513,-0.4355 -18.55549,-1.4646 -27.7653,-2.7695 -5.36939,-0.9244 -10.8618,-2.6579 -14.94415,-6.4186 -2.95668,-3.0561 -5.81078,-6.5093 -6.90132,-10.7046 -1.06047,-7.0595 -0.61129,-14.2178 -0.71629,-21.3271 0.003,-55.2587 -0.0133,-110.5177 0.0196,-165.7761 0.0758,-4.178 1.56709,-8.6219 5.04753,-11.1744 2.90223,-2.2221 6.70842,-2.7526 10.26493,-2.6331 z" /></g><g
   id="Zeichnung"
   transform="translate(253.94102,-342.81512)">
        <g
   id="Ast"
   transform="matrix(0.802659,0,0,0.802659,-350.008,313.339)">
            <path
   id="Stengel"
   d="m 360.236,2291.34 c 13.064,-6.91 32.627,-11.36 47.244,-11.81 l 35.651,-153.55 c 0,0 93.084,-317.42 94.462,-330.7 1.326,-12.79 -14.626,-362.32 -14.626,-362.32 -1.477,-1.27 89.126,-287.8 89.126,-287.8 0,0 128.905,-220.407 151.807,-240.059 52.519,-45.066 85.427,-72.473 135.68,-103.572 109.11,-67.521 179.96,-93.268 263.16,-107.156 91.64,-15.299 369.58,-33.106 369.58,-33.106 0,0 -256.59,13.695 -361.88,27.409 -74.66,9.725 -130.26,26.8 -226.716,74.938 -88.121,43.979 -185.518,127.811 -185.518,127.811 l -15.057,-119.884 8.811,124.609 -7.087,3.543 -144.721,222.617 -86.718,-161.793 80.496,174.493 -7.951,9.33 c 0,0 -85.025,278.47 -85.582,277.99 l -161.695,-162.79 154.608,174.6 3.543,10.63 c 0,0 13.054,336.1 11.021,350.51 -1.837,13.02 -87.52,283.46 -87.52,283.46 L 189.767,1975 l 223.619,127.36 -7.134,5.37 z"
   style="stroke:#000000;stroke-width:3.11px" />
            <g
   id="Blatt1">
                <g
   id="Blatt11"
   serif:id="Blatt1"
   transform="matrix(1.84693,0.125402,0.127748,-1.88149,-733.642,5043.47)">
                    <path
   d="m 601.275,1774.57 c 13.673,3.69 23.192,27.83 25.406,62.37 l 2.362,-0.29 c 3.432,5.81 6.292,10.32 8.859,14.17 l 2.362,-1.77 c 2.807,4.15 5.925,7.66 9.449,10.33 2.407,-1.35 3.422,-7.51 3.264,-17.71 6.616,10.06 20.476,22.39 20.948,21.94 0,0 8.198,4.84 16.112,5.5 -1.326,-4.81 -2.101,-7.83 -2.529,-9.73 3.426,2.62 6.931,4.93 10.63,6.5 2.994,0.41 5.768,0.63 8.268,0.59 0.592,-1.53 0.842,-4.12 0.59,-8.27 l 2.953,-0.88 c -1.565,-5.16 -4.47,-9.5 -8.268,-13.29 3.749,-0.61 4.152,-0.38 6.721,-2.12 2.135,-14.57 -20.275,-42.14 -32.814,-48.19 9.55,1.11 18.441,7.88 30.872,16.23 6.878,4.62 18.093,18.19 18.093,18.19 0,0 5.179,5.78 6.109,7.34 0.902,0.24 1.84,0.46 2.953,0.59 2.685,4.16 3.765,5.74 5.315,7.68 1.631,1.6 5.963,3.09 11.495,3.39 0.136,-4.14 0.059,-7.12 -0.275,-8.71 0.829,2.02 3.991,4.79 11.221,8.86 l 1.181,-2.95 c 2.374,1.96 4.556,1.72 10.039,4.72 0.244,-4.46 2.46,-7.02 3.544,-11.22 h 3.543 c -1.474,-8.95 0.703,-9.3 -1.406,-14.28 -4.002,-11.04 -18.99,-35.28 -22.394,-38.52 4.872,1.25 19.021,10.19 25.415,15.82 6.964,4.64 12.989,8.94 20.063,10.51 l 1.771,-1.77 c 1.148,0.63 2.255,0.96 4.725,2.36 4.093,1.34 7.537,1.25 9.983,0.66 l 0.056,-3.02 c 2.332,0.23 5.669,-0.73 10.404,-3.35 -0.704,-9.77 -10.067,-18.52 -11.349,-18.44 7.167,0.86 26.406,-8.86 29.107,-15.91 l -3.794,-1.93 c 3.362,-1.41 6.634,-3.8 9.802,-7.35 l -4.381,-1.87 c 4.313,-3.27 14.416,-16.86 16.815,-23.27 -5.604,-5.1 -17.002,-14.02 -23.035,-14.37 l 1.856,-3.79 c -5.362,-4.53 -7.434,-5.13 -8.455,-4.47 l 1.91,-4.57 c -1.168,-3.79 -21.452,-1.83 -24.023,2.5 4.15,-5.48 6.787,-13.34 7.492,-24.96 -4.208,-2.08 -21.997,0.69 -25.85,1.65 l -0.577,-3.17 c -3.514,1.35 -6.651,3.63 -9.262,7.21 l -3.065,-1.77 c -2.959,1.65 -5.29,4.06 -6.883,7.36 l -1.424,-2.44 c -11.742,7.98 -22.185,18.27 -31.673,30.26 0,0 7.685,-26.5 9.182,-27.71 4.163,-6.66 6.207,-12.47 5.962,-13.49 l -2.953,-1.18 c 1.623,-3.09 3.057,-6.67 4.134,-11.22 l -2.952,-1.77 c -0.01,-4.34 -0.576,-8.1 -1.772,-11.22 -4.442,1.44 -8.927,4.22 -11.811,8.27 l -2.953,-2.96 c -0.387,-1.5 -9.792,6.86 -9.449,9.45 0,0 -2.706,-5.79 -4.134,-7.08 -3.659,2.35 -4.724,5.9 -4.724,5.9 l -2.362,-1.18 c -0.081,-0.9 -2.859,2.15 -4.725,7.09 -1.131,-1.62 -2.303,-2.87 -3.543,-3.55 -24.797,28.16 -34.55,57.64 -50.351,69.4 3.035,-11.6 5.53,-8.78 11.36,-21.91 3.434,-7.74 10.727,-22.43 10.727,-22.43 2.145,-5.21 3.823,-11.43 4.724,-19.31 l -2.362,-1.19 c 0.428,-2.61 -4.075,-10.81 -4.075,-10.81 0,0 -3.774,0.31 -5.906,1.18 1.465,-4.31 2.427,-9.97 2.363,-13 l -1.772,-0.59 c 0.013,-2.12 -0.121,-4.69 -0.591,-8.26 -3.006,0.8 -6.349,2.57 -10.039,5.31 l -2.362,-1.77 c -4.92,3.77 -9.202,8.31 -12.402,14.17 -1.172,-2.46 -2.868,-5.18 -5.315,-8.26 -2.015,1.16 -5.975,5.85 -5.905,5.9 0.658,0.47 -2.362,-0.59 -2.362,-0.59 -4.305,4.02 -3.388,20.26 -7.087,28.94 -1.333,3.12 -8.882,-12.82 -11.811,-13.55 -1.148,-0.29 -4.63,7.4 -4.502,7.94 -0.262,0.1 -0.534,-0.01 -0.813,-0.3 -0.709,0.97 -2.152,6.88 -2.871,12.02 -0.479,0.14 -1.003,-0.1 -1.535,-0.41 0.004,6.46 2.822,13.36 3.367,18.63 -1.03,0.33 -1.766,0 -2.415,-0.31 -0.192,-0.77 10.272,45.71 -5.858,52.62 z"
   id="path104" />
                </g>
                <g
   id="Blattader1"
   transform="rotate(10.548977,567.61257,1824.0719)">
                    <path
   d="m 993.179,1777.86 c 0,0 -64.119,-6.55 -176.732,-11.57 -64.092,-2.86 -109.803,-2.41 -137.938,-1.26 -51.726,2.11 -103.169,9.89 -164.729,30.25 2.455,6.38 11.644,9.4 23.622,5.9 38.292,-15.21 86.072,-22.92 140.1,-25.49 25.354,-1.2 72.763,-2.63 137.668,-0.19 62.265,2.35 178.009,2.36 178.009,2.36 z"
   style="fill:#ffffff;stroke:#000000;stroke-width:3.11px"
   id="path105" />
                </g>
            </g>
            <g
   id="Blatt2">
                <g
   id="Blatt21"
   serif:id="Blatt2"
   transform="matrix(-1.27741,0.336717,-0.336717,-1.27741,1804.35,3486.19)">
                    <path
   d="m 620.46,1770.67 c 13.673,3.69 18.498,34.99 20.713,69.53 l 2.362,-0.29 c 3.432,5.81 6.291,10.32 8.858,14.17 l 2.362,-1.77 c 2.808,4.15 5.925,7.66 9.449,10.33 2.407,-1.35 3.422,-7.51 3.264,-17.71 6.617,10.06 20.476,22.39 20.949,21.94 0,0 8.197,4.84 16.112,5.5 -1.327,-4.81 -2.101,-7.83 -2.53,-9.73 3.427,2.62 6.931,4.93 10.63,6.5 2.994,0.41 5.769,0.63 8.268,0.59 0.593,-1.52 0.842,-4.12 0.591,-8.27 l 2.952,-0.88 c -1.565,-5.16 -4.469,-9.49 -8.267,-13.29 3.749,-0.61 4.152,-0.38 6.72,-2.12 -3.986,-7.67 -8.185,-15.27 -16.682,-20.64 -20.565,-16.88 -28.374,-26.35 -29.921,-32.18 18.273,-1.57 32.801,15.21 59.051,45.72 2.03,2.75 3.339,4.71 4.27,6.27 0.901,0.24 1.839,0.46 2.953,0.59 2.684,4.16 3.765,5.74 5.315,7.68 1.631,1.6 5.963,3.09 11.495,3.39 0.135,-4.14 0.059,-7.12 -0.275,-8.71 0.829,2.02 3.991,4.79 11.221,8.86 l 1.181,-2.95 c 2.373,1.96 4.555,1.72 10.039,4.72 0.243,-4.46 2.46,-7.02 3.543,-11.22 h 3.544 c -1.475,-8.95 -3.207,-16.28 -5.315,-21.26 -4.002,-11.04 -16.675,-29.84 -20.079,-33.07 4.872,1.24 11.14,3.08 17.533,8.72 6.964,4.63 12.99,8.93 20.063,10.51 l 1.772,-1.77 c 1.147,0.63 2.254,0.96 4.724,2.36 4.094,1.33 7.538,1.24 9.984,0.65 l 0.056,-3.01 c 2.332,0.23 5.668,-0.73 10.403,-3.36 -0.704,-9.76 -9.69,-24.48 -10.972,-24.41 7.166,0.86 28.179,-7.19 30.879,-14.23 l -3.793,-1.94 c 3.362,-1.4 6.634,-3.79 9.801,-7.35 l -4.38,-1.86 c 4.313,-3.28 7.825,-7.87 10.224,-14.28 -5.604,-5.1 -11.488,-7.11 -17.521,-7.46 0,0 2.542,-4.04 1.798,-4.97 -1.068,-1.65 -17.964,-7.39 -18.693,-7.33 l 0.728,-3.95 c -2.319,-1.42 -5.144,-1.77 -8.452,-1.09 -5.391,1.98 -10.015,2.89 -13.941,2.82 4.15,-5.48 7.113,-13.08 7.817,-24.7 -4.207,-2.09 -8.153,-1.93 -12.005,-0.98 l -1.966,-1.55 c -4.532,0.05 -8.532,0.84 -12.249,2.03 -2.055,2.19 -4.218,4.03 -6.49,5.51 l -1.448,-2.21 c -0.394,-0.06 -5.404,3.73 -8.417,9.38 -5.016,9.42 -14.775,16.57 -16.269,15.98 7.677,-17.46 16.501,-30.5 17.998,-31.71 4.163,-6.66 6.207,-12.47 5.962,-13.49 l -2.953,-1.18 c 1.623,-3.09 3.057,-6.67 4.134,-11.22 l -2.953,-1.77 c -0.009,-4.34 -0.575,-8.1 -1.771,-11.22 -4.442,1.44 -8.927,4.22 -11.811,8.27 l -2.953,-2.96 c -0.387,-1.49 -9.792,6.86 -9.449,9.45 0,0 -2.706,-5.79 -4.134,-7.08 -3.659,2.35 -4.724,5.9 -4.724,5.9 l -2.362,-1.18 c -0.081,-0.9 -2.859,2.15 -4.725,7.09 -1.131,-1.62 -2.303,-2.87 -3.543,-3.55 -24.797,28.16 -34.55,57.64 -50.351,69.4 3.035,-11.6 5.825,-23.48 11.655,-36.61 3.435,-7.74 10.727,-22.43 10.727,-22.43 2.145,-5.21 3.823,-11.43 4.725,-19.31 l -2.363,-1.19 c 0.428,-2.61 -4.075,-10.81 -4.075,-10.81 0,0 -3.774,0.31 -5.905,1.18 1.464,-4.31 2.426,-9.97 2.362,-13 l -1.772,-0.59 c 0.013,-2.12 -0.121,-4.69 -0.59,-8.26 -3.006,0.8 -6.35,2.57 -10.04,5.31 l -2.362,-1.77 c -4.919,3.77 -9.201,8.31 -12.401,14.17 -1.172,-2.46 -2.868,-5.18 -5.315,-8.26 -2.015,1.16 -5.976,5.85 -5.906,5.9 0.659,0.47 -2.362,-0.59 -2.362,-0.59 -4.304,4.02 -3.387,20.26 -7.087,28.94 -1.332,3.12 -8.881,-12.82 -11.811,-13.55 -1.147,-0.29 -4.629,7.4 -4.502,7.94 -0.262,0.1 -0.534,-0.01 -0.813,-0.3 -0.709,0.97 -2.152,6.88 -2.87,12.02 -0.479,0.14 -1.003,-0.1 -1.535,-0.41 0.003,6.46 2.822,13.36 3.366,18.63 -1.03,0.33 -1.765,0 -2.415,-0.31 -0.192,-0.77 4.752,63.79 -9.102,67.4 z"
   id="path106" />
                </g>
                <g
   id="Blattader2"
   transform="matrix(-1,0,0,1,1027.21,-358.475)">
                    <path
   d="m 813.824,1865.42 c -69.677,-45.79 -221.307,-95.75 -300.044,-70.14 2.455,6.38 11.644,9.4 23.622,5.9 19.506,-3.76 41.285,-3.92 63.824,-1.68 98.98,9.84 212.598,65.92 212.598,65.92 z"
   style="fill:#ffffff;stroke:#000000;stroke-width:3.11px"
   id="path107" />
                </g>
            </g>
            <g
   id="Ast-Lichter"
   serif:id="Ast Lichter"
   transform="matrix(1.24586,0,0,1.24586,272.485,-337.027)">
                <g
   transform="translate(-726.378,-513.78)"
   id="g108">
                    <path
   d="M 912.992,1924.02 979.134,1706.1 Z"
   style="fill:none;stroke:#ffffff;stroke-width:2.5px"
   id="path108" />
                </g>
                <g
   transform="translate(-726.378,-513.78)"
   id="g109">
                    <path
   d="m 905.315,1936.42 c 6.432,-1.03 9.021,-5.14 7.677,-12.4"
   style="fill:none;stroke:#ffffff;stroke-width:2.5px"
   id="path109" />
                </g>
                <g
   transform="rotate(16.275001,3226.1577,-714.00863)"
   id="g110">
                    <path
   d="M 913.47,1923.71 973.49,1724.7 Z"
   style="fill:none;stroke:#ffffff;stroke-width:2.5px"
   id="path110" />
                </g>
            </g>
        </g>
        <g
   id="Amsel"
   transform="matrix(0.802659,0,0,0.802659,-219.087,260.832)">
            <g
   id="Beine"
   transform="translate(-573.584,-898.54)">
                <path
   d="m 1459.76,1532.33 22.85,61.47 4.72,34.25 c 1.99,10.12 8.04,16.22 10.83,21.55 2.05,3.92 0.19,9.98 0.74,13.25 0.67,3.96 0.18,4.24 2.21,7.35 1.98,3.05 3.48,5.28 2.94,5.89 -2.51,2.84 -7.32,0.3 -8.83,-2.94 -5.61,-5.14 -4.94,-9.68 -5.27,-16.19 -2.03,7.48 -2.33,12.35 0.86,19.13 1.04,2.22 3.81,5.16 6.67,7.36 5.56,4.29 11.31,1.25 12.46,-3.77 0,0 1.89,-7.13 1.47,-10.95 -0.9,-3.12 -4.61,-8.46 -4.84,-9.76 -0.52,-2.98 0.79,-7.45 2.15,-10.84 2.01,2.24 5.99,4.56 11.52,7.36 1.74,1.74 2.22,5.89 2.94,7.36 l 2.94,5.88 c 0.97,2.94 -0.14,4.41 -2.94,7.36 -5.41,-1.25 -9.31,-11.44 -11.77,-17.66 1.16,9.06 4.81,19.53 11.48,22.07 6.19,0.38 8.82,-2.16 9.12,-10.3 1.53,-1.75 2.32,-4.7 1.47,-10.3 -0.38,-2.47 -2.16,-2.99 -5.89,-6.63 -3.77,-3.68 -6.62,-4.97 -7.35,-8.08 0,0 4.8,0.42 11.77,2.94 2.56,0.93 5.47,3.64 7.36,4.42 3.83,1.58 5.44,1.3 7.35,2.2 2.54,1.21 2.09,4.16 2.95,8.1 -0.72,3.15 -2.4,3.3 -4.42,4.41 -4,-1.54 -4.55,-4.78 -7.36,-10.3 0.02,4.23 -0.69,14.19 4.42,14.71 4.27,0.15 10.23,0.49 13.24,-8.09 -1.06,-7.75 -3.4,-12.37 -10.3,-16.92 -3.62,-2.39 -7.11,-1.72 -9.56,-2.94 -2.03,-1.01 -4.36,-3.38 -5.15,-4.42 0,0 -7.77,-13.23 -20.76,-21.88 l -14.18,-14.17 -19.22,-70.18 z"
   id="path111" />
                <g
   transform="rotate(2.6564001,1568.3293,1577.6393)"
   id="g112">
                    <path
   d="m 1613.23,1524.43 c 29.13,22.67 55.23,38.95 80.37,63.57 5.95,7.44 7.94,11.68 10.63,17.71 1.36,2.79 2.71,4.76 5.14,7.34 3.63,1.74 5.89,2.33 7.64,5.9 1.62,3.31 1.31,2.84 1.87,6.41 1.32,3.3 4.52,3.71 5.19,5.88 0.64,3.2 0.39,6.15 -0.77,8.83 -0.99,2.29 -5.89,2.61 -7.36,1.47 -1.35,-1.04 -2.46,-3.02 -3.36,-5.88 l -1.05,-4.42 2.94,2.94 c 1.12,1.25 2.5,2.3 4.41,2.95 0.63,-1.5 0.81,-2.98 0,-4.42 -2.53,-2.82 -7.47,-5.3 -8.91,-6.8 -0.95,-0.99 -3.85,-5.57 -5,-4.56 -0.55,0.49 -1.24,1.54 -1.35,2.65 -0.12,1.2 1.23,3.72 1.38,5.82 0.15,2.22 -0.28,4.14 -0.47,5.92 -0.28,2.77 1.05,4.63 -0.36,8.12 -1.22,3.03 -2.68,2.92 -4.42,3.57 -3.16,0.78 -5.58,0.22 -7.35,-1.47 -2.98,-2.71 -3.97,-5.7 -3.93,-8.83 0.12,-1.64 0.51,-3.06 0.98,-4.42 l 1.47,5.15 c 0.84,2.44 2.92,5.05 4.42,5.15 2.18,0.15 3.83,0.26 4.41,-1.47 0.52,-1.53 -0.24,-2.8 -1.8,-4.76 -1.52,-1.92 -3.29,-3.13 -3.98,-6.45 -0.52,-2.52 0.36,-5.23 -0.1,-6.45 -0.86,-2.59 -3.74,-7.17 -7.36,-7.35 -1.58,-0.08 -2.97,2.47 -2.43,6.9 0.3,2.54 -0.43,6.65 -0.43,6.65 0.03,-0.86 -0.62,2.92 -2.63,6.75 -1.93,2.62 -1.42,13.86 -11.59,15.75 -3.39,0.63 -7.45,-1.14 -9.41,-4.93 -1.49,-2.89 -1.81,-5.84 -1.47,-8.83 0.7,-4.62 2.31,-8.43 4.42,-11.77 -0.98,4.33 -1.63,8.05 -1.47,10.3 -0.99,6.04 6.06,8.95 9.64,7.18 2.15,-2.44 4.74,-7.95 3.6,-13.06 -1.55,-2.12 -2.96,-4.45 -2.94,-8.83 0.23,-2.61 -2.85,-33.29 -1.28,-39.47 -17,-16.95 -40.25,-32.77 -66.44,-49.72 z"
   id="path112" />
                </g>
                <path
   d="m 1455.12,1491.73 c 0,5.51 -2.72,10.56 -2.36,21.26 0.25,7.73 1.12,14.77 3.54,20.08 1.77,3.9 7.09,2.36 7.09,2.36 0,0 10.14,5.64 15.35,3.55 5.64,-2.27 3.54,-28.35 3.54,-28.35 0,0 -1.13,-5.09 0,-7.21 3.76,-7.04 10.63,-6.96 10.63,-6.96 l -40.15,-16.54 c 0,0 2.36,8.25 2.36,11.81 z"
   id="path113" />
                <path
   d="m 1583.86,1492.91 c 0,0 -0.92,10.37 1.18,22.44 1.43,8.25 15.73,22.9 21.26,22.45 5.85,-0.48 10.63,-13 10.63,-13 1.07,-3.29 -0.91,-7.91 0,-16.53 0.57,-5.42 3.25,-11.23 7.09,-15.36 5.11,-5.51 23.62,-17.71 23.62,-17.71 z"
   id="path114" />
            </g>
            <g
   id="Schnabel"
   transform="translate(-573.584,-898.54)">
                <g
   transform="translate(-2.3622)"
   id="g115">
                    <path
   d="m 1921.06,1039.09 c 1.25,-0.12 2.51,0.01 3.77,0.06 2.69,0.09 5.34,-0.29 7.75,1.11 1.42,0.82 -0.53,3.13 -1.18,3.54 -1.69,1.07 -3.63,1.94 -4.36,2.14 -0.25,0.07 -0.47,0.1 -1.18,0.15 -2.19,0.14 0.21,-0.14 0.39,-1.25 0.17,-1.01 0.23,-2.16 -1.18,-2.04 -2.14,0.17 -6.77,-0.11 -6,2.33 0.54,1.73 -0.83,0.03 -0.96,-0.45 -0.6,-2.16 0.42,-5.33 2.95,-5.59 z"
   id="path115" />
                </g>
                <path
   d="m 1916.12,1044.43 c 0.55,3.18 3.34,3.5 9.22,0.81"
   style="fill:none;stroke:#000000;stroke-width:1.04px"
   id="path116" />
                <path
   id="Schnabel1"
   serif:id="Schnabel"
   d="m 1848.42,1078.35 53.16,-49.61 c 55.64,-6.62 108.75,0.05 113.38,18.9 -0.65,1.08 -6.25,1.98 -10.04,3.54 -1.29,0.53 1.12,1.43 -3.54,2.95 -16.09,5.25 -52.27,9.9 -76.48,17.13 -10.86,3.24 -18.13,7.86 -22.14,11.81 -6.78,6.67 -41.01,-3.85 -54.34,-4.72 z"
   style="fill:none;stroke:#000000;stroke-width:3.11px" />
                <path
   d="m 1836.61,1083.07 c 58.6,-25.01 113.61,-38.59 178.35,-35.43"
   style="fill:none;stroke:#000000;stroke-width:2.86px"
   id="path117" />
            </g>
            <g
   id="Körper"
   transform="translate(-573.584,-898.54)">
                <path
   d="m 1818.9,1000.68 c -97.34,0.23 -122,60.34 -165.36,91.84 -80.54,58.52 -84.6,42.2 -165.35,64.96 -40.64,11.45 -101.36,43.55 -141.63,52.46 -11.68,2.58 -36.13,0.51 -41.84,0 -77.04,-6.87 -234.08,-130.4 -332.673,-131.59 -5.747,-0.07 -2.162,8.53 -5.905,8.26 -10.234,-0.73 -30.185,-2.5 -42.52,-1.18 -5.615,0.61 -1.677,3.89 -12.992,7.09 -5.644,1.6 -8.454,13.2 -1.181,17.72 74.672,46.35 278.701,143.21 293.111,154.55 12.48,9.82 23.88,21.14 33.92,33.44 23.98,29.36 72.89,97.86 106.06,123.27 58.45,44.78 144.19,88 216.52,80.84 18.45,-1.83 33.1,-4.65 47.24,-8.94 14.99,-4.54 29.43,-10.74 47.24,-19.17 73.97,-35.01 197.53,-139.32 188.98,-278.49 -0.17,-2.7 -1.17,-24.04 7.17,-35.5 12.65,-17.39 32.99,-48.07 40.07,-60.63 7.47,-13.24 27.46,-22.09 34.26,-27.17 8.01,-5.99 -41.17,11.4 -38.98,8.27 2.98,-4.27 9.06,-6.72 10.63,-9.45 3.18,-5.53 -41.22,7 -41.34,4.72 -0.17,-3.19 19.74,-17.63 55.51,-27.16 2.54,-0.68 -3.15,-16.78 -7.08,-20.08 -26.17,-21.94 -54.82,-28.13 -83.86,-28.06 z"
   id="path118" />
            </g>
            <g
   id="Auge"
   transform="translate(-573.584,-898.54)">
                <g
   transform="translate(1.76251,-0.0514979)"
   id="g119">
                    <path
   d="m 1807.09,1029.46 c 7.21,-0.91 16.24,3.56 23.04,9.96 4.42,4.17 6.46,11.68 6.49,16.54 0.03,4.33 -3.44,8.6 -8.26,11.22 -3.03,1.65 -4.22,3.51 -11.82,4.08 -6.14,0.46 -12.9,-1.59 -16.53,-4.08 -3.64,-2.5 -8.43,-5.97 -10.93,-12.4 -1.46,-3.79 -1.28,-10.1 1.47,-14.23 3.87,-5.81 7.84,-9.99 16.54,-11.09 z"
   style="fill:#ffffff"
   id="path119" />
                </g>
                <g
   transform="matrix(0.828738,0,0,0.815077,311.581,194.179)"
   id="g120">
                    <path
   d="m 1807.09,1029.46 c 7.21,-0.91 16.24,3.56 23.04,9.96 4.42,4.17 6.46,11.68 6.49,16.54 0.03,4.33 -3.44,8.6 -8.26,11.22 -3.03,1.65 -4.22,3.51 -11.82,4.08 -6.14,0.46 -12.9,-1.59 -16.53,-4.08 -3.64,-2.5 -9.74,-8 -10.77,-13.57 -1.36,-7.33 0.42,-10.43 2.49,-13.4 2.22,-3.19 6.66,-9.65 15.36,-10.75 z"
   id="path120" />
                </g>
                <g
   transform="matrix(0.0590082,-0.0780689,0.076782,0.0580355,1622.86,1123.13)"
   id="g121">
                    <path
   d="m 1807.09,1029.46 c 7.21,-0.91 16.24,3.56 23.04,9.96 4.42,4.17 6.46,11.68 6.49,16.54 0.03,4.33 -3.44,8.6 -8.26,11.22 -3.03,1.65 -4.22,3.51 -11.82,4.08 -6.14,0.46 -12.9,-1.59 -16.53,-4.08 -3.64,-2.5 -10.13,-9.08 -11.22,-13 -1.09,-3.91 -0.05,-11.03 1.76,-13.63 2.22,-3.19 7.84,-9.99 16.54,-11.09 z"
   style="fill:#ffffff"
   id="path121" />
                </g>
            </g>
        </g>
    </g>
</svg>
