<?xml version="1.0" encoding="UTF-8" standalone="no"?>
<!DOCTYPE svg PUBLIC "-//W3C//DTD SVG 1.1//EN" "http://www.w3.org/Graphics/SVG/1.1/DTD/svg11.dtd">
<svg width="100%" height="100%" viewBox="0 0 2481 1749" version="1.1" xmlns="http://www.w3.org/2000/svg" xmlns:xlink="http://www.w3.org/1999/xlink" xml:space="preserve" xmlns:serif="http://www.serif.com/" style="fill-rule:evenodd;clip-rule:evenodd;stroke-linecap:round;stroke-linejoin:round;stroke-miterlimit:1.5;">
    <g id="Blatt1" transform="matrix(1.48921,0,0,1.48921,22.869,-1859.22)">
        <g id="Blatt11" serif:id="Blatt1" transform="matrix(1.84693,0.125402,0.127748,-1.88149,-733.642,5043.47)">
            <path d="M601.275,1774.57C614.948,1778.26 624.467,1802.4 626.681,1836.94L629.043,1836.65C632.475,1842.46 635.335,1846.97 637.902,1850.82L640.264,1849.05C643.071,1853.2 646.189,1856.71 649.713,1859.38C652.12,1858.03 653.135,1851.87 652.977,1841.67C659.593,1851.73 673.453,1864.06 673.925,1863.61C673.925,1863.61 682.123,1868.45 690.037,1869.11C688.711,1864.3 687.936,1861.28 687.508,1859.38C690.934,1862 694.439,1864.31 698.138,1865.88C701.132,1866.29 703.906,1866.51 706.406,1866.47C706.998,1864.94 707.248,1862.35 706.996,1858.2L709.949,1857.32C708.384,1852.16 705.479,1847.82 701.681,1844.03C705.43,1843.42 705.833,1843.65 708.402,1841.91C710.537,1827.34 688.127,1799.77 675.588,1793.72C685.138,1794.83 694.029,1801.6 706.46,1809.95C713.338,1814.57 724.553,1828.14 724.553,1828.14C724.553,1828.14 729.732,1833.92 730.662,1835.48C731.564,1835.72 732.502,1835.94 733.615,1836.07C736.3,1840.23 737.38,1841.81 738.93,1843.75C740.561,1845.35 744.893,1846.84 750.425,1847.14C750.561,1843 750.484,1840.02 750.15,1838.43C750.979,1840.45 754.141,1843.22 761.371,1847.29L762.552,1844.34C764.926,1846.3 767.108,1846.06 772.591,1849.06C772.835,1844.6 775.051,1842.04 776.135,1837.84L779.678,1837.84C778.204,1828.89 780.381,1828.54 778.272,1823.56C774.27,1812.52 759.282,1788.28 755.878,1785.04C760.75,1786.29 774.899,1795.23 781.293,1800.86C788.257,1805.5 794.282,1809.8 801.356,1811.37L803.127,1809.6C804.275,1810.23 805.382,1810.56 807.852,1811.96C811.945,1813.3 815.389,1813.21 817.835,1812.62L817.891,1809.6C820.223,1809.83 823.56,1808.87 828.295,1806.25C827.591,1796.48 818.228,1787.73 816.946,1787.81C824.113,1788.67 843.352,1778.95 846.053,1771.9L842.259,1769.97C845.621,1768.56 848.893,1766.17 852.061,1762.62L847.68,1760.75C851.993,1757.48 862.096,1743.89 864.495,1737.48C858.891,1732.38 847.493,1723.46 841.46,1723.11L843.316,1719.32C837.954,1714.79 835.882,1714.19 834.861,1714.85L836.771,1710.28C835.603,1706.49 815.319,1708.45 812.748,1712.78C816.898,1707.3 819.535,1699.44 820.24,1687.82C816.032,1685.74 798.243,1688.51 794.39,1689.47L793.813,1686.3C790.299,1687.65 787.162,1689.93 784.551,1693.51L781.486,1691.74C778.527,1693.39 776.196,1695.8 774.603,1699.1L773.179,1696.66C761.437,1704.64 750.994,1714.93 741.506,1726.92C741.506,1726.92 749.191,1700.42 750.688,1699.21C754.851,1692.55 756.895,1686.74 756.65,1685.72L753.697,1684.54C755.32,1681.45 756.754,1677.87 757.831,1673.32L754.879,1671.55C754.869,1667.21 754.303,1663.45 753.107,1660.33C748.665,1661.77 744.18,1664.55 741.296,1668.6L738.343,1665.64C737.956,1664.14 728.551,1672.5 728.894,1675.09C728.894,1675.09 726.188,1669.3 724.76,1668.01C721.101,1670.36 720.036,1673.91 720.036,1673.91L717.674,1672.73C717.593,1671.83 714.815,1674.88 712.949,1679.82C711.818,1678.2 710.646,1676.95 709.406,1676.27C684.609,1704.43 674.856,1733.91 659.055,1745.67C662.09,1734.07 664.585,1736.89 670.415,1723.76C673.849,1716.02 681.142,1701.33 681.142,1701.33C683.287,1696.12 684.965,1689.9 685.866,1682.02L683.504,1680.83C683.932,1678.22 679.429,1670.02 679.429,1670.02C679.429,1670.02 675.655,1670.33 673.523,1671.2C674.988,1666.89 675.95,1661.23 675.886,1658.2L674.114,1657.61C674.127,1655.49 673.993,1652.92 673.523,1649.35C670.517,1650.15 667.174,1651.92 663.484,1654.66L661.122,1652.89C656.202,1656.66 651.92,1661.2 648.72,1667.06C647.548,1664.6 645.852,1661.88 643.405,1658.8C641.39,1659.96 637.43,1664.65 637.5,1664.7C638.158,1665.17 635.138,1664.11 635.138,1664.11C630.833,1668.13 631.75,1684.37 628.051,1693.05C626.718,1696.17 619.169,1680.23 616.24,1679.5C615.092,1679.21 611.61,1686.9 611.738,1687.44C611.476,1687.54 611.204,1687.43 610.925,1687.14C610.216,1688.11 608.773,1694.02 608.054,1699.16C607.575,1699.3 607.051,1699.06 606.519,1698.75C606.523,1705.21 609.341,1712.11 609.886,1717.38C608.856,1717.71 608.12,1717.38 607.471,1717.07C607.279,1716.3 617.743,1762.78 601.613,1769.69L601.275,1774.57Z"/>
        </g>
        <g id="Blattader1" transform="matrix(0.983099,0.183076,-0.183076,0.983099,343.537,-73.0876)">
            <path d="M993.179,1777.86C993.179,1777.86 929.06,1771.31 816.447,1766.29C752.355,1763.43 706.644,1763.88 678.509,1765.03C626.783,1767.14 575.34,1774.92 513.78,1795.28C516.235,1801.66 525.424,1804.68 537.402,1801.18C575.694,1785.97 623.474,1778.26 677.502,1775.69C702.856,1774.49 750.265,1773.06 815.17,1775.5C877.435,1777.85 993.179,1777.86 993.179,1777.86Z" style="fill:white;stroke:black;stroke-width:1.68px;"/>
        </g>
    </g>
</svg>
