<?xml version="1.0" encoding="UTF-8" standalone="no"?>
<!DOCTYPE svg PUBLIC "-//W3C//DTD SVG 1.1//EN" "http://www.w3.org/Graphics/SVG/1.1/DTD/svg11.dtd">
<svg width="100%" height="100%" viewBox="0 0 2481 1749" version="1.1" xmlns="http://www.w3.org/2000/svg" xmlns:xlink="http://www.w3.org/1999/xlink" xml:space="preserve" xmlns:serif="http://www.serif.com/" style="fill-rule:evenodd;clip-rule:evenodd;stroke-linecap:round;stroke-linejoin:round;stroke-miterlimit:1.5;">
    <g id="Blatt2" transform="matrix(2.02402,0,0,2.02402,599.429,-2126)">
        <g id="Blatt21" serif:id="Blatt2" transform="matrix(-1.27741,0.336717,-0.336717,-1.27741,1804.35,3486.19)">
            <path d="M620.46,1770.67C634.133,1774.36 638.958,1805.66 641.173,1840.2L643.535,1839.91C646.967,1845.72 649.826,1850.23 652.393,1854.08L654.755,1852.31C657.563,1856.46 660.68,1859.97 664.204,1862.64C666.611,1861.29 667.626,1855.13 667.468,1844.93C674.085,1854.99 687.944,1867.32 688.417,1866.87C688.417,1866.87 696.614,1871.71 704.529,1872.37C703.202,1867.56 702.428,1864.54 701.999,1862.64C705.426,1865.26 708.93,1867.57 712.629,1869.14C715.623,1869.55 718.398,1869.77 720.897,1869.73C721.49,1868.21 721.739,1865.61 721.488,1861.46L724.44,1860.58C722.875,1855.42 719.971,1851.09 716.173,1847.29C719.922,1846.68 720.325,1846.91 722.893,1845.17C718.907,1837.5 714.708,1829.9 706.211,1824.53C685.646,1807.65 677.837,1798.18 676.29,1792.35C694.563,1790.78 709.091,1807.56 735.341,1838.07C737.371,1840.82 738.68,1842.78 739.611,1844.34C740.512,1844.58 741.45,1844.8 742.564,1844.93C745.248,1849.09 746.329,1850.67 747.879,1852.61C749.51,1854.21 753.842,1855.7 759.374,1856C759.509,1851.86 759.433,1848.88 759.099,1847.29C759.928,1849.31 763.09,1852.08 770.32,1856.15L771.501,1853.2C773.874,1855.16 776.056,1854.92 781.54,1857.92C781.783,1853.46 784,1850.9 785.083,1846.7L788.627,1846.7C787.152,1837.75 785.42,1830.42 783.312,1825.44C779.31,1814.4 766.637,1795.6 763.233,1792.37C768.105,1793.61 774.373,1795.45 780.766,1801.09C787.73,1805.72 793.756,1810.02 800.829,1811.6L802.601,1809.83C803.748,1810.46 804.855,1810.79 807.325,1812.19C811.419,1813.52 814.863,1813.43 817.309,1812.84L817.365,1809.83C819.697,1810.06 823.033,1809.1 827.768,1806.47C827.064,1796.71 818.078,1781.99 816.796,1782.06C823.962,1782.92 844.975,1774.87 847.675,1767.83L843.882,1765.89C847.244,1764.49 850.516,1762.1 853.683,1758.54L849.303,1756.68C853.616,1753.4 857.128,1748.81 859.527,1742.4C853.923,1737.3 848.039,1735.29 842.006,1734.94C842.006,1734.94 844.548,1730.9 843.804,1729.97C842.736,1728.32 825.84,1722.58 825.111,1722.64L825.839,1718.69C823.52,1717.27 820.695,1716.92 817.387,1717.6C811.996,1719.58 807.372,1720.49 803.446,1720.42C807.596,1714.94 810.559,1707.34 811.263,1695.72C807.056,1693.63 803.11,1693.79 799.258,1694.74L797.292,1693.19C792.76,1693.24 788.76,1694.03 785.043,1695.22C782.988,1697.41 780.825,1699.25 778.553,1700.73L777.105,1698.52C776.711,1698.46 771.701,1702.25 768.688,1707.9C763.672,1717.32 753.913,1724.47 752.419,1723.88C760.096,1706.42 768.92,1693.38 770.417,1692.17C774.58,1685.51 776.624,1679.7 776.379,1678.68L773.426,1677.5C775.049,1674.41 776.483,1670.83 777.56,1666.28L774.607,1664.51C774.598,1660.17 774.032,1656.41 772.836,1653.29C768.394,1654.73 763.909,1657.51 761.025,1661.56L758.072,1658.6C757.685,1657.11 748.28,1665.46 748.623,1668.05C748.623,1668.05 745.917,1662.26 744.489,1660.97C740.83,1663.32 739.765,1666.87 739.765,1666.87L737.403,1665.69C737.322,1664.79 734.544,1667.84 732.678,1672.78C731.547,1671.16 730.375,1669.91 729.135,1669.23C704.338,1697.39 694.585,1726.87 678.784,1738.63C681.819,1727.03 684.609,1715.15 690.439,1702.02C693.874,1694.28 701.166,1679.59 701.166,1679.59C703.311,1674.38 704.989,1668.16 705.891,1660.28L703.528,1659.09C703.956,1656.48 699.453,1648.28 699.453,1648.28C699.453,1648.28 695.679,1648.59 693.548,1649.46C695.012,1645.15 695.974,1639.49 695.91,1636.46L694.138,1635.87C694.151,1633.75 694.017,1631.18 693.548,1627.61C690.542,1628.41 687.198,1630.18 683.508,1632.92L681.146,1631.15C676.227,1634.92 671.945,1639.46 668.745,1645.32C667.573,1642.86 665.877,1640.14 663.43,1637.06C661.415,1638.22 657.454,1642.91 657.524,1642.96C658.183,1643.43 655.162,1642.37 655.162,1642.37C650.858,1646.39 651.775,1662.63 648.075,1671.31C646.743,1674.43 639.194,1658.49 636.264,1657.76C635.117,1657.47 631.635,1665.16 631.762,1665.7C631.5,1665.8 631.228,1665.69 630.949,1665.4C630.24,1666.37 628.797,1672.28 628.079,1677.42C627.6,1677.56 627.076,1677.32 626.544,1677.01C626.547,1683.47 629.366,1690.37 629.91,1695.64C628.88,1695.97 628.145,1695.64 627.495,1695.33C627.303,1694.56 632.247,1759.12 618.393,1762.73L620.46,1770.67Z"/>
        </g>
        <g id="Blattader2" transform="matrix(-1,0,0,1,1027.21,-358.475)">
            <path d="M813.824,1865.42C744.147,1819.63 592.517,1769.67 513.78,1795.28C516.235,1801.66 525.424,1804.68 537.402,1801.18C556.908,1797.42 578.687,1797.26 601.226,1799.5C700.206,1809.34 813.824,1865.42 813.824,1865.42Z" style="fill:white;stroke:black;stroke-width:1.24px;"/>
        </g>
    </g>
</svg>
