<?xml version="1.0" encoding="UTF-8" standalone="no"?>
<svg
   width="850"
   height="650"
   viewBox="0 0 850 650"
   version="1.1"
   xml:space="preserve"
   style="clip-rule:evenodd;fill-rule:evenodd;stroke-linecap:round;stroke-linejoin:round;stroke-miterlimit:1.5"
   id="svg2"
   sodipodi:docname="Leaf_Right.svg"
   inkscape:version="1.3.2 (091e20e, 2023-11-25, custom)"
   xmlns:inkscape="http://www.inkscape.org/namespaces/inkscape"
   xmlns:sodipodi="http://sodipodi.sourceforge.net/DTD/sodipodi-0.dtd"
   xmlns="http://www.w3.org/2000/svg"
   xmlns:svg="http://www.w3.org/2000/svg"
   xmlns:serif="http://www.serif.com/"><defs
   id="defs2" /><sodipodi:namedview
   id="namedview2"
   pagecolor="#505050"
   bordercolor="#eeeeee"
   borderopacity="1"
   inkscape:showpageshadow="0"
   inkscape:pageopacity="0"
   inkscape:pagecheckerboard="0"
   inkscape:deskcolor="#505050"
   inkscape:zoom="0.56602744"
   inkscape:cx="484.95882"
   inkscape:cy="324.18923"
   inkscape:window-width="1920"
   inkscape:window-height="1001"
   inkscape:window-x="-9"
   inkscape:window-y="-9"
   inkscape:window-maximized="1"
   inkscape:current-layer="svg2" />
    <g
   id="Blatt1"
   transform="matrix(1.48921,0,0,1.48921,-769.4211,-2383.8625)">
        <g
   id="Blatt11"
   serif:id="Blatt1"
   transform="matrix(1.84693,0.125402,0.127748,-1.88149,-733.642,5043.47)">
            <path
   d="m 601.275,1774.57 c 13.673,3.69 23.192,27.83 25.406,62.37 l 2.362,-0.29 c 3.432,5.81 6.292,10.32 8.859,14.17 l 2.362,-1.77 c 2.807,4.15 5.925,7.66 9.449,10.33 2.407,-1.35 3.422,-7.51 3.264,-17.71 6.616,10.06 20.476,22.39 20.948,21.94 0,0 8.198,4.84 16.112,5.5 -1.326,-4.81 -2.101,-7.83 -2.529,-9.73 3.426,2.62 6.931,4.93 10.63,6.5 2.994,0.41 5.768,0.63 8.268,0.59 0.592,-1.53 0.842,-4.12 0.59,-8.27 l 2.953,-0.88 c -1.565,-5.16 -4.47,-9.5 -8.268,-13.29 3.749,-0.61 4.152,-0.38 6.721,-2.12 2.135,-14.57 -20.275,-42.14 -32.814,-48.19 9.55,1.11 18.441,7.88 30.872,16.23 6.878,4.62 18.093,18.19 18.093,18.19 0,0 5.179,5.78 6.109,7.34 0.902,0.24 1.84,0.46 2.953,0.59 2.685,4.16 3.765,5.74 5.315,7.68 1.631,1.6 5.963,3.09 11.495,3.39 0.136,-4.14 0.059,-7.12 -0.275,-8.71 0.829,2.02 3.991,4.79 11.221,8.86 l 1.181,-2.95 c 2.374,1.96 4.556,1.72 10.039,4.72 0.244,-4.46 2.46,-7.02 3.544,-11.22 h 3.543 c -1.474,-8.95 0.703,-9.3 -1.406,-14.28 -4.002,-11.04 -18.99,-35.28 -22.394,-38.52 4.872,1.25 19.021,10.19 25.415,15.82 6.964,4.64 12.989,8.94 20.063,10.51 l 1.771,-1.77 c 1.148,0.63 2.255,0.96 4.725,2.36 4.093,1.34 7.537,1.25 9.983,0.66 l 0.056,-3.02 c 2.332,0.23 5.669,-0.73 10.404,-3.35 -0.704,-9.77 -10.067,-18.52 -11.349,-18.44 7.167,0.86 26.406,-8.86 29.107,-15.91 l -3.794,-1.93 c 3.362,-1.41 6.634,-3.8 9.802,-7.35 l -4.381,-1.87 c 4.313,-3.27 14.416,-16.86 16.815,-23.27 -5.604,-5.1 -17.002,-14.02 -23.035,-14.37 l 1.856,-3.79 c -5.362,-4.53 -7.434,-5.13 -8.455,-4.47 l 1.91,-4.57 c -1.168,-3.79 -21.452,-1.83 -24.023,2.5 4.15,-5.48 6.787,-13.34 7.492,-24.96 -4.208,-2.08 -21.997,0.69 -25.85,1.65 l -0.577,-3.17 c -3.514,1.35 -6.651,3.63 -9.262,7.21 l -3.065,-1.77 c -2.959,1.65 -5.29,4.06 -6.883,7.36 l -1.424,-2.44 c -11.742,7.98 -22.185,18.27 -31.673,30.26 0,0 7.685,-26.5 9.182,-27.71 4.163,-6.66 6.207,-12.47 5.962,-13.49 l -2.953,-1.18 c 1.623,-3.09 3.057,-6.67 4.134,-11.22 l -2.952,-1.77 c -0.01,-4.34 -0.576,-8.1 -1.772,-11.22 -4.442,1.44 -8.927,4.22 -11.811,8.27 l -2.953,-2.96 c -0.387,-1.5 -9.792,6.86 -9.449,9.45 0,0 -2.706,-5.79 -4.134,-7.08 -3.659,2.35 -4.724,5.9 -4.724,5.9 l -2.362,-1.18 c -0.081,-0.9 -2.859,2.15 -4.725,7.09 -1.131,-1.62 -2.303,-2.87 -3.543,-3.55 -24.797,28.16 -34.55,57.64 -50.351,69.4 3.035,-11.6 5.53,-8.78 11.36,-21.91 3.434,-7.74 10.727,-22.43 10.727,-22.43 2.145,-5.21 3.823,-11.43 4.724,-19.31 l -2.362,-1.19 c 0.428,-2.61 -4.075,-10.81 -4.075,-10.81 0,0 -3.774,0.31 -5.906,1.18 1.465,-4.31 2.427,-9.97 2.363,-13 l -1.772,-0.59 c 0.013,-2.12 -0.121,-4.69 -0.591,-8.26 -3.006,0.8 -6.349,2.57 -10.039,5.31 l -2.362,-1.77 c -4.92,3.77 -9.202,8.31 -12.402,14.17 -1.172,-2.46 -2.868,-5.18 -5.315,-8.26 -2.015,1.16 -5.975,5.85 -5.905,5.9 0.658,0.47 -2.362,-0.59 -2.362,-0.59 -4.305,4.02 -3.388,20.26 -7.087,28.94 -1.333,3.12 -8.882,-12.82 -11.811,-13.55 -1.148,-0.29 -4.63,7.4 -4.502,7.94 -0.262,0.1 -0.534,-0.01 -0.813,-0.3 -0.709,0.97 -2.152,6.88 -2.871,12.02 -0.479,0.14 -1.003,-0.1 -1.535,-0.41 0.004,6.46 2.822,13.36 3.367,18.63 -1.03,0.33 -1.766,0 -2.415,-0.31 -0.192,-0.77 10.272,45.71 -5.858,52.62 z"
   id="path1" />
        </g>
        <g
   id="Blattader1"
   transform="rotate(10.548977,567.61257,1824.0719)">
            <path
   d="m 993.179,1777.86 c 0,0 -64.119,-6.55 -176.732,-11.57 -64.092,-2.86 -109.803,-2.41 -137.938,-1.26 -51.726,2.11 -103.169,9.89 -164.729,30.25 2.455,6.38 11.644,9.4 23.622,5.9 38.292,-15.21 86.072,-22.92 140.1,-25.49 25.354,-1.2 72.763,-2.63 137.668,-0.19 62.265,2.35 178.009,2.36 178.009,2.36 z"
   style="fill:#ffffff;stroke:#000000;stroke-width:1.68px"
   id="path2" />
        </g>
    </g>
</svg>
