<?xml version="1.0" encoding="UTF-8" standalone="no"?>
<svg
   width="850"
   height="650"
   viewBox="0 0 850 650"
   version="1.1"
   xml:space="preserve"
   style="clip-rule:evenodd;fill-rule:evenodd;stroke-linecap:round;stroke-linejoin:round;stroke-miterlimit:1.5"
   id="svg2"
   sodipodi:docname="Leaf_Left.svg"
   inkscape:version="1.3.2 (091e20e, 2023-11-25, custom)"
   xmlns:inkscape="http://www.inkscape.org/namespaces/inkscape"
   xmlns:sodipodi="http://sodipodi.sourceforge.net/DTD/sodipodi-0.dtd"
   xmlns="http://www.w3.org/2000/svg"
   xmlns:svg="http://www.w3.org/2000/svg"
   xmlns:serif="http://www.serif.com/"><defs
   id="defs2" /><sodipodi:namedview
   id="namedview2"
   pagecolor="#505050"
   bordercolor="#eeeeee"
   borderopacity="1"
   inkscape:showpageshadow="0"
   inkscape:pageopacity="0"
   inkscape:pagecheckerboard="0"
   inkscape:deskcolor="#505050"
   inkscape:zoom="0.80048368"
   inkscape:cx="334.17296"
   inkscape:cy="370.40106"
   inkscape:window-width="1920"
   inkscape:window-height="1001"
   inkscape:window-x="-9"
   inkscape:window-y="-9"
   inkscape:window-maximized="1"
   inkscape:current-layer="svg2" />
    <g
   id="Blatt2"
   transform="matrix(2.02402,0,0,2.02402,-216.34706,-2681.7606)">
        <g
   id="Blatt21"
   serif:id="Blatt2"
   transform="matrix(-1.27741,0.336717,-0.336717,-1.27741,1804.35,3486.19)">
            <path
   d="m 620.46,1770.67 c 13.673,3.69 18.498,34.99 20.713,69.53 l 2.362,-0.29 c 3.432,5.81 6.291,10.32 8.858,14.17 l 2.362,-1.77 c 2.808,4.15 5.925,7.66 9.449,10.33 2.407,-1.35 3.422,-7.51 3.264,-17.71 6.617,10.06 20.476,22.39 20.949,21.94 0,0 8.197,4.84 16.112,5.5 -1.327,-4.81 -2.101,-7.83 -2.53,-9.73 3.427,2.62 6.931,4.93 10.63,6.5 2.994,0.41 5.769,0.63 8.268,0.59 0.593,-1.52 0.842,-4.12 0.591,-8.27 l 2.952,-0.88 c -1.565,-5.16 -4.469,-9.49 -8.267,-13.29 3.749,-0.61 4.152,-0.38 6.72,-2.12 -3.986,-7.67 -8.185,-15.27 -16.682,-20.64 -20.565,-16.88 -28.374,-26.35 -29.921,-32.18 18.273,-1.57 32.801,15.21 59.051,45.72 2.03,2.75 3.339,4.71 4.27,6.27 0.901,0.24 1.839,0.46 2.953,0.59 2.684,4.16 3.765,5.74 5.315,7.68 1.631,1.6 5.963,3.09 11.495,3.39 0.135,-4.14 0.059,-7.12 -0.275,-8.71 0.829,2.02 3.991,4.79 11.221,8.86 l 1.181,-2.95 c 2.373,1.96 4.555,1.72 10.039,4.72 0.243,-4.46 2.46,-7.02 3.543,-11.22 h 3.544 c -1.475,-8.95 -3.207,-16.28 -5.315,-21.26 -4.002,-11.04 -16.675,-29.84 -20.079,-33.07 4.872,1.24 11.14,3.08 17.533,8.72 6.964,4.63 12.99,8.93 20.063,10.51 l 1.772,-1.77 c 1.147,0.63 2.254,0.96 4.724,2.36 4.094,1.33 7.538,1.24 9.984,0.65 l 0.056,-3.01 c 2.332,0.23 5.668,-0.73 10.403,-3.36 -0.704,-9.76 -9.69,-24.48 -10.972,-24.41 7.166,0.86 28.179,-7.19 30.879,-14.23 l -3.793,-1.94 c 3.362,-1.4 6.634,-3.79 9.801,-7.35 l -4.38,-1.86 c 4.313,-3.28 7.825,-7.87 10.224,-14.28 -5.604,-5.1 -11.488,-7.11 -17.521,-7.46 0,0 2.542,-4.04 1.798,-4.97 -1.068,-1.65 -17.964,-7.39 -18.693,-7.33 l 0.728,-3.95 c -2.319,-1.42 -5.144,-1.77 -8.452,-1.09 -5.391,1.98 -10.015,2.89 -13.941,2.82 4.15,-5.48 7.113,-13.08 7.817,-24.7 -4.207,-2.09 -8.153,-1.93 -12.005,-0.98 l -1.966,-1.55 c -4.532,0.05 -8.532,0.84 -12.249,2.03 -2.055,2.19 -4.218,4.03 -6.49,5.51 l -1.448,-2.21 c -0.394,-0.06 -5.404,3.73 -8.417,9.38 -5.016,9.42 -14.775,16.57 -16.269,15.98 7.677,-17.46 16.501,-30.5 17.998,-31.71 4.163,-6.66 6.207,-12.47 5.962,-13.49 l -2.953,-1.18 c 1.623,-3.09 3.057,-6.67 4.134,-11.22 l -2.953,-1.77 c -0.009,-4.34 -0.575,-8.1 -1.771,-11.22 -4.442,1.44 -8.927,4.22 -11.811,8.27 l -2.953,-2.96 c -0.387,-1.49 -9.792,6.86 -9.449,9.45 0,0 -2.706,-5.79 -4.134,-7.08 -3.659,2.35 -4.724,5.9 -4.724,5.9 l -2.362,-1.18 c -0.081,-0.9 -2.859,2.15 -4.725,7.09 -1.131,-1.62 -2.303,-2.87 -3.543,-3.55 -24.797,28.16 -34.55,57.64 -50.351,69.4 3.035,-11.6 5.825,-23.48 11.655,-36.61 3.435,-7.74 10.727,-22.43 10.727,-22.43 2.145,-5.21 3.823,-11.43 4.725,-19.31 l -2.363,-1.19 c 0.428,-2.61 -4.075,-10.81 -4.075,-10.81 0,0 -3.774,0.31 -5.905,1.18 1.464,-4.31 2.426,-9.97 2.362,-13 l -1.772,-0.59 c 0.013,-2.12 -0.121,-4.69 -0.59,-8.26 -3.006,0.8 -6.35,2.57 -10.04,5.31 l -2.362,-1.77 c -4.919,3.77 -9.201,8.31 -12.401,14.17 -1.172,-2.46 -2.868,-5.18 -5.315,-8.26 -2.015,1.16 -5.976,5.85 -5.906,5.9 0.659,0.47 -2.362,-0.59 -2.362,-0.59 -4.304,4.02 -3.387,20.26 -7.087,28.94 -1.332,3.12 -8.881,-12.82 -11.811,-13.55 -1.147,-0.29 -4.629,7.4 -4.502,7.94 -0.262,0.1 -0.534,-0.01 -0.813,-0.3 -0.709,0.97 -2.152,6.88 -2.87,12.02 -0.479,0.14 -1.003,-0.1 -1.535,-0.41 0.003,6.46 2.822,13.36 3.366,18.63 -1.03,0.33 -1.765,0 -2.415,-0.31 -0.192,-0.77 4.752,63.79 -9.102,67.4 z"
   id="path1" />
        </g>
        <g
   id="Blattader2"
   transform="matrix(-1,0,0,1,1027.21,-358.475)">
            <path
   d="m 813.824,1865.42 c -69.677,-45.79 -221.307,-95.75 -300.044,-70.14 2.455,6.38 11.644,9.4 23.622,5.9 19.506,-3.76 41.285,-3.92 63.824,-1.68 98.98,9.84 212.598,65.92 212.598,65.92 z"
   style="fill:#ffffff;stroke:#000000;stroke-width:1.24px"
   id="path2" />
        </g>
    </g>
</svg>
