<?xml version="1.0" encoding="UTF-8" standalone="no"?>
<!-- Created with Inkscape (http://www.inkscape.org/) -->

<svg
   version="1.1"
   id="svg1"
   width="4961"
   height="3508"
   viewBox="0 0 4961 3508"
   sodipodi:docname="Logo No Text.svg"
   inkscape:version="1.3-beta (cedbd6c6ff, 2023-05-28)"
   xmlns:inkscape="http://www.inkscape.org/namespaces/inkscape"
   xmlns:sodipodi="http://sodipodi.sourceforge.net/DTD/sodipodi-0.dtd"
   xmlns="http://www.w3.org/2000/svg"
   xmlns:svg="http://www.w3.org/2000/svg">
  <defs
     id="defs1" />
  <sodipodi:namedview
     id="namedview1"
     pagecolor="#ffffff"
     bordercolor="#000000"
     borderopacity="0.25"
     inkscape:showpageshadow="2"
     inkscape:pageopacity="0.0"
     inkscape:pagecheckerboard="0"
     inkscape:deskcolor="#d1d1d1"
     inkscape:zoom="0.18429532"
     inkscape:cx="2230.1164"
     inkscape:cy="2037.4907"
     inkscape:window-width="2400"
     inkscape:window-height="1271"
     inkscape:window-x="3191"
     inkscape:window-y="-9"
     inkscape:window-maximized="1"
     inkscape:current-layer="g1" />
  <g
     inkscape:groupmode="layer"
     inkscape:label="Image"
     id="g1">
    <path
       style="fill:#000000"
       d="m 682.89411,2574.4183 c 14.11438,-56.4539 19.06704,-74.8171 20.37626,-75.5497 0.9513,-0.5324 1.72963,-1.3449 1.72963,-1.8055 0,-0.4606 -39.81912,-23.5008 -88.48694,-51.2003 -48.66781,-27.6995 -88.49281,-50.9253 -88.5,-51.6128 -0.007,-0.6875 0.0994,-1.2482 0.23694,-1.246 0.1375,0 41.65,18.6441 92.25,41.4266 50.6,22.7824 92.27053,41.1181 92.60118,40.746 1.23737,-1.3926 63.96312,-202.9484 68.05388,-218.6766 1.95608,-7.5208 2.0418,-9.6773 1.43101,-36 -1.26461,-54.4999 -8.21419,-250.4615 -8.90693,-251.1542 -0.19786,-0.1979 -5.49411,-1.0857 -11.76944,-1.9731 -12.56848,-1.7771 -44.11268,-1.4048 -47.79171,0.5642 -4.58492,2.4537 -5.1262,13.9618 -1.49681,31.8235 1.69279,8.3309 9.10339,35.9849 10.05621,37.5266 0.31836,0.5151 0.0517,1.2624 -0.59268,1.6606 -0.82788,0.5117 0.021,3.1901 2.89391,9.1309 2.23599,4.6237 3.6407,8.5484 3.12157,8.7214 -0.53049,0.1769 -0.69947,2.6826 -0.38583,5.7215 0.30692,2.9737 0.0833,6.6604 -0.49688,8.1927 -0.5802,1.5322 -1.32506,4.0234 -1.65525,5.5359 -0.33018,1.5125 -1.17516,2.75 -1.87772,2.75 -0.70256,0 -4.17847,-2.4555 -7.72425,-5.4567 -3.94113,-3.3358 -6.80574,-5.0978 -7.37021,-4.5333 -0.56447,0.5644 -0.46934,5.1145 0.24474,11.7067 1.64743,15.2083 1.54234,18.0111 -0.72077,19.2223 -1.03729,0.5551 -2.86077,2.6615 -4.05218,4.6808 l -2.16619,3.6714 -3.24543,-3.1456 c -1.78499,-1.7301 -3.51749,-3.1456 -3.85,-3.1456 -0.33251,0 -1.11325,1.4625 -1.73497,3.25 -2.13395,6.1353 -7.37641,13.786 -9.07674,13.2464 -0.95634,-0.3036 -2.94019,0.8903 -4.98471,2.9997 -4.15563,4.2875 -5.6471,4.4045 -6.50249,0.5099 -0.36168,-1.6468 -1.38573,-3.4016 -2.27567,-3.8996 -1.15779,-0.6479 -1.73762,-2.7831 -2.03835,-7.506 -0.23115,-3.6302 -0.57168,-6.6004 -0.75673,-6.6004 -0.18505,0 -1.4967,0.5286 -2.91478,1.1748 -2.35101,1.0712 -2.8369,0.8728 -5.51118,-2.25 -1.61307,-1.8837 -3.20433,-4.2123 -3.53612,-5.1748 -0.33179,-0.9625 -1.24793,-1.75 -2.03587,-1.75 -2.8372,0 -2.27817,-17.23 1.13559,-35 3.06331,-15.9457 4.40091,-28.7643 4.38267,-42 -0.0133,-9.6741 -0.13624,-10.3427 -1.56244,-8.5 -3.12316,4.0352 -6.35069,11.4659 -10.24491,23.5869 -2.19344,6.8272 -6.07177,18.8816 -8.6185,26.7876 -4.7878,14.863 -11.90916,31.7579 -13.25632,31.4496 -0.42279,-0.097 -1.5562,-0.4824 -2.5187,-0.857 -1.20984,-0.4709 -1.75,-0.1996 -1.75,0.8789 0,2.828 -2.31563,6.7469 -3.67786,6.2241 -0.81263,-0.3118 -1.87974,0.8287 -2.77085,2.9614 -0.79708,1.9077 -1.78508,3.4685 -2.19554,3.4685 -0.41047,0 -2.00844,-1.2092 -3.55103,-2.6871 -1.95127,-1.8694 -2.80472,-2.2333 -2.80472,-1.1958 0,0.8202 -1.3501,3.6202 -3.00022,6.2222 -2.74406,4.3269 -3.188,4.6303 -5.19969,3.5537 -1.90604,-1.0201 -2.40368,-0.858 -3.72998,1.2149 -0.84177,1.3157 -3.02462,3.9223 -4.85076,5.7926 -3.16652,3.243 -3.38095,3.3124 -4.63053,1.5 -0.72063,-1.0453 -1.91266,-3.5862 -2.64894,-5.6464 -0.73628,-2.0602 -2.19652,-4.0182 -3.24497,-4.3509 -1.71298,-0.5437 -1.83679,-1.254 -1.221,-7.0041 0.60499,-5.6494 0.48389,-6.3991 -1.03361,-6.3991 -2.46246,0 -1.48145,-6.7559 2.93461,-20.2097 4.00463,-12.2003 8.1727,-30.576 7.16418,-31.5845 -1.53607,-1.5361 -8.80298,10.8544 -11.9024,20.2942 -2.33889,7.1235 -5.49372,12.043 -6.85204,10.6847 -0.77648,-0.7765 -2.02248,0.1488 -4.40902,3.2744 -4.60935,6.0367 -10.56806,8.1979 -24.35629,8.8342 l -4.48066,0.2067 -0.79649,-5 c -0.85681,-5.3787 -0.19257,-15.1852 1.29327,-19.0933 1.23207,-3.2406 0.20331,-3.1013 -7.84049,1.0614 -8.76326,4.535 -14.19497,5.1762 -14.19497,1.6757 0,-1.6027 -1.12668,-1.9502 -8.25,-2.544 -11.77367,-0.9815 -12.75,-1.3256 -12.75,-4.4939 0,-2.5686 -0.21672,-2.6773 -5.33569,-2.6773 -2.93463,0 -7.25871,-0.6347 -9.60906,-1.4104 l -4.27335,-1.4103 0.61148,-4.4613 c 0.33632,-2.4537 1.7283,-6.4594 3.09329,-8.9017 2.41502,-4.3209 2.42841,-4.4543 0.49756,-4.9593 -2.77,-0.7243 -2.51289,-1.6947 1.67831,-6.3338 3.50474,-3.8794 3.56937,-4.0784 1.5,-4.6195 -2.56011,-0.6695 -2.56075,-0.6731 -0.74496,-4.132 2.74019,-5.2197 14.29642,-14.5115 22.10669,-17.7749 l 3.50217,-1.4633 -3.63504,-3.1916 C 497.71418,1994.5419 488,1981.4722 488,1979.7535 c 0,-1.2328 3.92141,-4.5811 6.75,-5.7635 1.25878,-0.5262 2.25,-1.8125 2.25,-2.9199 0,-2.351 4.4172,-3.4769 11.44692,-2.9178 2.69204,0.2141 4.69748,-0.086 4.94879,-0.7411 0.6852,-1.7856 9.99812,-0.039 23.88546,4.4786 6.94851,2.2606 14.33035,4.1102 16.40409,4.1102 h 3.77043 l -3.97785,-3.2106 c -7.42678,-5.9944 -19.64544,-18.2661 -24.18448,-24.2894 -2.48681,-3.3 -6.26132,-9.46 -8.38782,-13.6888 -3.66567,-7.2898 -3.76356,-7.7215 -1.88595,-8.3174 1.89454,-0.6013 2.6742,-4.4962 2.15064,-10.7438 -0.16349,-1.951 1.11038,-2.0922 7.57977,-0.8407 3.32674,0.6435 4.25,0.5255 4.25,-0.5436 0,-1.8922 1.59683,-1.6896 8.25,1.0464 3.1625,1.3005 5.75,2.257 5.75,2.1255 0,-0.1315 -0.51087,-1.7046 -1.13526,-3.4958 -1.3958,-4.0039 -0.24342,-5.0043 5.79065,-5.0265 3.29721,-0.012 5.02055,0.7075 8.34461,3.4847 2.30407,1.925 4.8878,3.5 5.74162,3.5 0.85382,0 3.39874,1.5094 5.65539,3.3542 6.94667,5.6789 34.60921,23.6266 42.63448,27.6616 10.7575,5.4088 18.05317,7.345 25.22563,6.6946 3.24549,-0.2943 6.12151,-0.7557 6.39117,-1.0254 2.50528,-2.5052 -11.60083,-12.1921 -33.18696,-22.7899 -11.26293,-5.5296 -17.7393,-9.39 -21.75,-12.9646 -3.14123,-2.7998 -5.71133,-5.4929 -5.71133,-5.9848 0,-0.4919 1.37956,-1.6077 3.06568,-2.4797 l 3.06569,-1.5853 -4.39559,-3.3563 c -5.80427,-4.4319 -8.07719,-7.803 -6.12932,-9.0908 1.13591,-0.751 1.20042,-1.6852 0.32989,-4.7774 -0.59518,-2.114 -0.88536,-4.0405 -0.64486,-4.281 1.46531,-1.4653 10.98533,-1.4689 15.27946,-0.01 2.62252,0.8936 4.94115,1.4517 5.15252,1.2404 0.21137,-0.2114 -0.53826,-1.8976 -1.66584,-3.7471 -1.12759,-1.8495 -2.05184,-3.7637 -2.05389,-4.2538 -0.002,-0.4913 3.71415,-0.659 8.28513,-0.3738 6.34836,0.3961 9.56738,1.1617 13.75,3.2703 4.85887,2.4495 14.79536,8.7259 20.51773,12.9599 l 2.0566,1.5217 -1.50534,-7.3906 c -1.04089,-5.1104 -1.20447,-8.0649 -0.53018,-9.5761 0.96399,-2.1604 1.04335,-2.1395 6.93672,1.8221 4.30537,2.8941 6.30606,3.7215 7.20161,2.9782 0.91124,-0.7562 2.95271,0.6155 7.69898,5.1731 3.55242,3.4112 6.89015,5.9356 7.41719,5.6099 1.08939,-0.6733 0.818,-1.2804 6.8822,15.3963 9.35015,25.7131 18.58846,41.8412 26.97428,47.0911 3.12589,1.9569 3.46759,1.9642 17.36074,0.3684 9.3157,-1.07 19.78855,-1.5133 30.56229,-1.2937 9.01462,0.1838 16.38979,0.2299 16.38926,0.1024 C 767.00043,1956.1408 740,1925.5478 707,1888.2838 c -33,-37.2641 -60,-68.0973 -60,-68.5183 0,-0.421 0.35512,-0.7655 0.78916,-0.7655 0.43403,0 29.76026,29.0238 65.16939,64.4973 35.40913,35.4735 64.49779,64.3797 64.64147,64.236 0.36016,-0.3601 26.76796,-85.6368 49.35575,-159.3807 15.66314,-51.1365 19.22416,-61.7475 21.75102,-64.8131 l 3.02154,-3.6656 -32.21974,-69.687 c -17.72086,-38.3278 -32.00649,-70.0676 -31.74585,-70.5329 0.26065,-0.4652 1.03801,-0.2402 1.72747,0.5 0.68946,0.7403 15.9916,28.8982 34.00476,62.5732 18.01316,33.675 33.27739,61.9468 33.92052,62.8263 0.97842,1.3381 10.36629,-12.5759 57.50338,-85.2272 51.04208,-78.6699 59.58711,-91.2414 62.84075,-92.4518 0.6553,-0.2437 -0.15948,-16.6096 -2.33366,-46.8745 -3.80284,-52.936 -3.88663,-54.8607 -2.3202,-53.2942 0.60817,0.6081 3.52792,20.6106 6.48834,44.45 2.96043,23.8393 5.63258,44.8033 5.93813,46.5866 l 0.55553,3.2423 10.20612,-8.7567 c 45.65382,-39.1704 96.58632,-70.9932 138.20612,-86.3517 17.4482,-6.4387 66.3868,-19.3283 95.5581,-25.1684 l 11.4419,-2.2906 0.587,-5.4587 c 0.3229,-3.0022 0.6604,-4.4673 0.75,-3.2557 0.09,1.2117 0.6954,3.3715 1.3462,4.7997 0.9567,2.0999 1.77,2.5394 4.25,2.2971 2.1606,-0.2111 2.9453,-0.7429 2.6556,-1.7997 -0.2261,-0.825 -0.6177,-4.65 -0.8701,-8.5 -0.3079,-4.6955 -1.0885,-7.8888 -2.3712,-9.6998 -4.5775,-6.463 -6.793,-13.4593 -8.8059,-27.8088 -1.8687,-13.321 -2.7301,-16.367 -10.6655,-37.7147 -6.3005,-16.9496 -9.1322,-23.3819 -10.4821,-23.8103 -2.8792,-0.9139 -4.3037,-7.8082 -4.2462,-20.5508 l 0.052,-11.5843 -11.0878,-3.2214 c -19.103,-5.5501 -33.9186,-12.0093 -50.0065,-21.8014 -12.8963,-7.8495 -19.4176,-13.1209 -34.9933,-28.2866 -21.0388,-20.4848 -35.6715,-36.6126 -63.5658,-70.0606 -39.7896,-47.7115 -55.21176,-64.0899 -78.46609,-83.3311 C 949.7222,1028.2344 924.38153,1014.111 874,993.01517 860.525,987.37291 843.65,980.28989 836.5,977.27513 819.4642,970.09208 786.96585,953.963 780,949.23392 c -4.20333,-2.85362 -5.57735,-4.41074 -5.82808,-6.60475 -0.57921,-5.06823 0.65879,-7.58653 4.60433,-9.36605 2.04806,-0.92371 4.77304,-2.5983 6.05551,-3.7213 2.15285,-1.88514 3.49013,-2.02574 17.42773,-1.83224 8.30278,0.11527 16.34677,0.4843 17.87553,0.82008 2.48363,0.54549 2.94477,0.21515 4.33102,-3.10263 l 1.55144,-3.71312 8.14812,0.67952 c 19.64949,1.63871 49.72709,10.26038 79.8344,22.88435 8.525,3.57453 29.9,13.35506 47.5,21.73453 80.0989,38.13549 90.9716,43.02619 109.5937,49.29649 31.6946,10.6719 38.4951,9.7875 121.4063,-15.7888 51.8173,-15.98453 60.6616,-18.40646 89.587,-24.5327 38.5252,-8.1594 47.9803,-12.27867 82.3903,-35.89454 11.022,-7.56448 17.9313,-13.42441 32.6778,-27.71458 10.2853,-9.967 22.4455,-21.12341 27.0227,-24.79202 25.3996,-20.35761 51.7595,-28.55188 87.8067,-27.29565 23.1962,0.80838 37.8984,5.13339 53.8163,15.83137 l 7.3009,4.90667 11.6991,-1.14819 c 6.7659,-0.66402 18.446,-0.91021 27.6992,-0.58383 29.5468,1.0422 47.1828,6.388 52.036,15.77313 1.4171,2.74032 1.398,3.01242 -0.251,3.57212 -0.9818,0.33322 -4.485,1.8793 -7.785,3.43573 -4.0141,1.89324 -13.3005,4.31488 -28.0569,7.31651 -37.3368,7.59473 -38.1054,7.84879 -51.3595,16.97772 -8.5487,5.88798 -11.3333,9.25897 -23.3481,28.26431 -4.8205,7.62517 -12.3354,19.03895 -16.6999,25.36395 -10.116,14.66031 -11.028,18.14124 -11.0551,42.1974 -0.039,34.4827 -5.6871,58.9873 -20.6703,89.6784 -19.5855,40.1182 -55.1091,79.5442 -97.3102,108.0001 -13.9121,9.3808 -16.6271,10.9539 -34.5,19.9886 -14.4499,7.3043 -23.2111,13.8136 -26.2273,19.4861 -1.0851,2.0405 -1.868,6.6375 -2.2237,13.0565 l -0.549,9.9071 15.5,13.4705 c 8.525,7.4087 22.3384,19.9505 30.6965,27.8705 14.0353,13.2998 15.5634,15.1047 20,23.6224 2.7997,5.3753 6.7161,11.1097 9.3884,13.7467 2.5218,2.4884 4.9176,5.8634 5.3242,7.5 0.4065,1.6366 1.6529,3.9549 2.7698,5.1517 1.1168,1.1968 1.7319,2.6593 1.3669,3.25 -0.4659,0.7537 6.3613,1.074 22.8952,1.074 20.2747,0 23.559,0.2091 23.559,1.5 0,1.2907 -3.2712,1.5 -23.441,1.5 -15.3153,0 -23.6663,0.3645 -24.0909,1.0516 -0.4208,0.6809 -3.0855,0.8116 -7.559,0.3708 -5.9406,-0.5854 -6.9091,-0.4574 -6.9091,0.9132 0,4.0239 -8.1164,4.9425 -10.571,1.1964 -1.4558,-2.2218 -2.0815,-2.4059 -6.273,-1.8455 -2.5608,0.3423 -4.814,1.0269 -5.0071,1.5212 -0.6115,1.5654 -5.5793,5.7923 -6.8076,5.7923 -2.0216,0 -7.3283,-3.4366 -7.335,-4.75 0,-0.7773 -1.4245,-1.2487 -3.7563,-1.2465 -9.0625,0.01 -56.8217,5.2961 -72.5101,8.0281 -4.6512,0.81 -7.2119,1.8419 -8.8211,3.5548 -2.3504,2.502 -8.2033,3.3803 -9.4188,1.4136 -0.3399,-0.55 -1.9241,-1 -3.5205,-1 -2.5272,0 -3.0381,0.5038 -3.9518,3.8972 -1.614,5.9938 -6.3008,6.9438 -10.3742,2.1028 -1.3884,-1.65 -2.9948,-3 -3.5697,-3 -0.5749,0 -2.0664,2.1375 -3.3145,4.75 -2.9019,6.0742 -6.0007,6.7418 -10.9839,2.3664 l -3.4137,-2.9972 -14.9358,3.3556 c -18.2965,4.1106 -49.5225,12.3727 -66.7718,17.6671 -55.2544,16.9593 -112.8778,51.2511 -160.7635,95.6707 L 989.30115,1531.5 946.92303,1598 c -23.30797,36.575 -50.88533,79.9049 -61.28303,96.2887 l -18.90491,29.7887 -21.90134,71.2113 C 798.52302,1945.8661 795.69089,1955.621 795.85166,1964 c 0.0791,4.125 1.71419,38.1 3.63344,75.5 1.91925,37.4 4.60817,91.85 5.97538,121 1.36721,29.15 2.76279,58.85 3.10128,66 l 0.61544,13 14.6614,-1.1755 c 8.06377,-0.6466 20.41683,-1.2091 27.45124,-1.25 10.63141,-0.062 13.4383,-0.4053 16.63233,-2.0348 10.05745,-5.1309 22.0358,-25.2442 28.56112,-47.9581 C 899.37401,2177.0194 905,2150.56 905,2147.027 c 0,-0.4618 0.79337,-0.6323 1.76305,-0.3787 1.31063,0.3427 3.42764,-1.8948 8.25,-8.7195 3.56782,-5.0493 6.79015,-9.6575 7.16073,-10.2404 0.45672,-0.7184 1.19618,-0.6263 2.29531,0.2859 1.41773,1.1767 2.37027,0.5758 7.57943,-4.7808 3.27686,-3.3696 6.83758,-6.5974 7.91271,-7.1728 3.27663,-1.7536 4.48383,2.0521 4.51301,14.227 0.0142,5.9113 0.25076,10.7156 0.52576,10.6764 0.275,-0.039 2.3468,-2.2307 4.604,-4.87 5.73896,-6.7103 20.02854,-19.7921 25.34717,-23.2048 5.73059,-3.6771 13.54857,-6.5837 20.79958,-7.7331 3.16209,-0.5013 5.86295,-0.8063 6.00185,-0.6779 0.1389,0.1285 -0.6486,2.8528 -1.75,6.0542 -1.10143,3.2013 -2.0026,6.2118 -2.0026,6.6899 0,0.4781 3.3009,-0.9423 7.3353,-3.1565 6.4608,-3.5459 8.117,-4.0259 13.8916,-4.0259 6.0883,0 6.5993,0.1715 7.1592,2.4023 0.3316,1.3213 0.3123,3.8555 -0.043,5.6316 -0.5272,2.636 -0.2251,3.5466 1.6445,4.9569 l 2.2904,1.7276 -2.6962,4.9537 c -1.4828,2.7246 -4.4415,6.8631 -6.5747,9.1969 -3.2083,3.5098 -3.5873,4.3325 -2.1929,4.7601 0.9271,0.2843 3.123,1.1398 4.8798,1.9011 2.9609,1.2831 3.155,1.661 2.6586,5.177 -2.5595,18.129 -23.7839,46.747 -45.3527,61.1516 l -6.5,4.341 4.18875,-0.6019 c 5.52041,-0.7933 14.43486,-4.6876 27.31125,-11.931 16.2918,-9.1648 22.3438,-13.8486 38.5404,-29.8281 8.2721,-8.1614 15.8101,-14.8388 16.751,-14.8388 0.9409,0 3.7602,-2.6391 6.2651,-5.8647 5.2058,-6.7037 7.6124,-8.0871 15.7991,-9.0817 l 5.8556,-0.7114 -0.4025,6.3214 -0.4025,6.3215 2.5469,-2.3996 c 2.7292,-2.5713 12.5528,-8.5855 14.0235,-8.5855 0.4888,0 1.1742,0.8997 1.5232,1.9992 0.4807,1.5146 1.0451,1.7795 2.328,1.0929 1.5208,-0.8139 13.1886,-5.0921 13.8875,-5.0921 0.1566,0 0.2847,1.1445 0.2847,2.5433 0,1.3988 0.7843,5.2045 1.7429,8.457 1.4751,5.0053 2.1279,5.9587 4.25,6.2067 1.5634,0.1827 2.422,0.8576 2.2811,1.793 -0.1243,0.825 -0.6244,5.1 -1.1113,9.5 -0.6719,6.0723 -1.7893,9.8072 -4.6371,15.5 -4.383,8.7615 -22.1568,35.9356 -28.9426,44.25 -2.5811,3.1625 -4.1025,5.75 -3.3809,5.75 2.443,0 21.2488,-9.802 29.7264,-15.4941 10.8032,-7.2536 27.3144,-16.0188 32.9836,-17.5099 3.3733,-0.8872 4.9332,-0.8816 6.625,0.024 1.6022,0.8574 2.7644,0.8891 4.2112,0.1148 3.5704,-1.9108 11.197,-3.1671 15.2714,-2.5156 3.2347,0.5173 3.9803,1.0467 3.9803,2.8261 0,1.7601 1.0297,2.521 5.25,3.8794 2.8875,0.9294 6.2294,2.4741 7.4265,3.4326 2.103,1.684 2.1243,1.8947 0.6321,6.2428 -2.0583,5.9974 -7.7143,14.3882 -12.286,18.2263 l -3.7075,3.1127 7.5924,2.6338 c 11.6763,4.0505 25.9572,13.8361 30.1922,20.6885 1.1706,1.8941 1.9646,3.5843 1.7644,3.7558 -0.2003,0.1716 -1.4205,0.8623 -2.7118,1.5349 l -2.3476,1.2229 2.3476,1.5603 c 3.0934,2.056 10.8477,9.4857 10.8477,10.3936 0,0.3917 -1.35,1.0088 -3,1.3712 -3.6574,0.8033 -3.7252,1.4701 -0.4609,4.5367 4.568,4.2914 16.706,24.6427 18.8788,31.6533 0.5807,1.8736 -0.3756,2.9343 -6.6196,7.3421 -7.4083,5.2298 -21.7047,12.9553 -24.0261,12.9832 -2.8437,0.034 -3.8787,1.5745 -2.8593,4.2555 0.9131,2.4018 0.63,2.8435 -3.6327,5.667 -2.5427,1.6842 -5.4038,3.0622 -6.358,3.0622 -1.5276,0 -1.6039,0.4272 -0.6383,3.5734 0.8879,2.893 0.8225,3.7468 -0.3436,4.4847 -3.8599,2.4422 -24.312,-0.6346 -30.3007,-4.5586 l -2.4498,-1.6052 2.3377,5.8029 c 2.5079,6.2252 4.1772,15.0294 4.7428,25.0148 0.341,6.0204 0.2702,6.23 -2.2925,6.7929 -3,0.6589 -20.7018,-1.7889 -28.9778,-4.007 -7.0022,-1.8768 -7,-1.8769 -7,0.5021 0,3.4157 -2.8846,2.2458 -8.6306,-3.5002 -4.7452,-4.7452 -5.775,-5.3531 -7.5019,-4.4289 -2.6366,1.4111 -5.8619,-0.6734 -8.928,-5.7698 -1.2578,-2.0906 -2.4383,-3.9932 -2.6235,-4.2281 -0.1852,-0.2348 -0.8945,0.3287 -1.5763,1.2524 -1.1036,1.495 -2.2671,0.726 -10.5968,-7.0037 -9.7694,-9.0658 -21.9485,-22.9498 -29.2001,-33.2878 -2.3378,-3.3327 -4.3833,-5.9267 -4.5456,-5.7644 -0.1623,0.1623 0.1262,2.0805 0.6411,4.2628 0.515,2.1822 2.518,10.6605 4.4512,18.8407 2.0634,8.7304 5.1342,18.4688 7.4355,23.5798 2.1563,4.7888 4.2222,10.3148 4.5909,12.2801 0.5745,3.0628 0.3713,3.6681 -1.4228,4.2375 -2.4777,0.7864 -2.5547,1.4891 -0.6601,6.0235 0.7881,1.8863 1.7332,5.4318 2.1002,7.879 0.5735,3.824 0.3847,4.6007 -1.3429,5.5252 -1.3095,0.7009 -2.245,2.5616 -2.684,5.3389 -1.0862,6.8706 -2.7368,11.763 -3.9688,11.763 -2.1375,0 -10.1415,-5.6963 -13.1748,-9.3761 -3.0033,-3.6435 -3.0275,-3.6518 -4.8455,-1.6429 -1.005,1.1105 -2.3436,2.019 -2.9748,2.019 -1.5887,0 -9.4329,-7.9016 -11.1684,-11.25 -0.784,-1.5125 -1.596,-2.75 -1.8047,-2.75 -0.2086,0 -1.566,2.025 -3.0164,4.5 -1.4505,2.475 -3.0356,4.5 -3.5225,4.5 -1.136,0 -4.7706,-4.606 -5.535,-7.0145 -0.4028,-1.2691 -1.4356,-1.7924 -3.2912,-1.6675 -2.3009,0.1549 -3.0585,-0.5325 -5.0801,-4.6091 -2.1098,-4.2545 -2.5578,-4.6355 -4,-3.4021 -3.452,2.9522 -4.0022,2.7224 -8.4686,-3.5375 -8.9525,-12.5473 -16.85055,-26.0555 -31.1531,-53.2818 -14.24463,-27.1161 -23.72108,-42.5868 -29.11811,-47.5366 l -2.67239,-2.4509 0.64454,3.5 c 0.3545,1.925 3.32709,8.9 6.60575,15.5 7.96013,16.0239 21.68221,51.9173 23.47038,61.3925 2.52618,13.3858 2.70736,17.9622 0.75252,19.0084 -0.94515,0.5059 -2.33281,2.6476 -3.0837,4.7594 -0.75088,2.1118 -2.45172,5.7148 -3.77964,8.0066 -2.3011,3.9714 -2.56444,4.1239 -5.61147,3.25 -1.75839,-0.5043 -3.53264,-0.9169 -3.94277,-0.9169 -0.41014,0 -0.46208,3.9957 -0.11542,8.8794 0.52009,7.3271 0.34336,9.289 -1.01091,11.2225 -0.90265,1.2887 -1.64118,3.7812 -1.64118,5.5388 0,6.151 -0.64856,6.5797 -5.84498,3.8636 -2.56026,-1.3382 -5.75047,-3.3012 -7.08936,-4.3621 -1.95618,-1.55 -2.80603,-1.7043 -4.32663,-0.7856 -1.64055,0.9913 -2.55789,0.4241 -6.89545,-4.2631 -2.75173,-2.9736 -6.36021,-7.8111 -8.01882,-10.75 -1.65862,-2.9389 -3.31022,-5.3219 -3.67022,-5.2955 -0.36,0.026 -2.45119,2.5534 -4.64709,5.6156 l -3.99254,5.5677 -4.06156,-4.6157 c -2.42578,-2.7567 -4.91472,-4.6156 -6.1799,-4.6156 -3.33233,0 -4.57223,-5.0441 -6.2682,-25.5 -1.18381,-14.2784 -2.51263,-19.8845 -4.44917,-18.7703 -0.7363,0.4237 -4.38283,4.5953 -8.1034,9.2703 -3.72056,4.675 -7.24188,8.8118 -7.82513,9.1928 -1.63244,1.0665 -3.35259,-0.8977 -5.27358,-6.0216 -0.96321,-2.5691 -2.14058,-4.9405 -2.61637,-5.2696 -0.4758,-0.3291 -1.33252,-3.7041 -1.90383,-7.5 -1.62054,-10.7672 -1.82507,-11.525 -2.92687,-10.8441 -1.38428,0.8556 -0.39026,-4.7836 2.74235,-15.5575 1.3593,-4.675 2.69961,-9.2875 2.97849,-10.25 0.36087,-1.2455 -0.0602,-1.75 -1.46064,-1.75 -1.94773,0 -1.94874,-0.073 -0.0997,-7.25 3.71015,-14.3997 5.24846,-26.1367 5.34087,-40.75 0.0955,-15.1052 -0.64326,-19.1751 -4.70064,-25.8948 l -2.04977,-3.3948 -17.57895,0.6474 c -9.66842,0.3561 -22.2765,1.4337 -28.01796,2.3948 l -10.43902,1.7474 -1.86476,7.5 c -2.9324,11.794 -30.8964,109.7157 -53.2598,186.5 -18.30512,62.8503 -21.83199,76.2292 -34.53015,130.9874 -7.77847,33.5431 -14.3353,61.2991 -14.57073,61.68 -0.23542,0.381 -3.00845,0.9824 -6.16228,1.3365 -7.80644,0.8765 -21.49064,4.2552 -26.56451,6.559 -8.35566,3.7937 -9.11474,8.7066 11.22438,-72.6446 z m 454.83509,-284.0225 c -0.3323,-0.3323 -1.1948,-0.3678 -1.9167,-0.079 -0.7977,0.3192 -0.5608,0.5562 0.6042,0.6042 1.0541,0.043 1.6448,-0.193 1.3125,-0.5253 z m -12.2292,-3.012 c -4.95,-1.3393 -24.525,-6.2564 -43.5,-10.9268 -124.88251,-30.7381 -185.34591,-39.8366 -243.33289,-36.6166 -20.64377,1.1464 -38.64762,2.7895 -41.66711,3.8028 -2.42839,0.815 3.23245,5.0513 7.77539,5.8189 2.18087,0.3684 7.80987,-0.013 12.80777,-0.8682 24.30569,-4.1581 53.55121,-4.3243 89.91684,-0.5107 34.75048,3.6442 64.40092,8.7936 126.5,21.9692 81.0432,17.1951 114.228,23.4807 91.5,17.3314 z M 574,2005.5 c 0,-0.275 -0.225,-0.5 -0.5,-0.5 -0.275,0 -0.5,0.225 -0.5,0.5 0,0.275 0.225,0.5 0.5,0.5 0.275,0 0.5,-0.225 0.5,-0.5 z m 16,-6.2811 c 33.16451,-13.2704 70.79699,-24.7081 99,-30.0891 28.41575,-5.4216 54.90832,-6.6007 78.11881,-3.4768 10.55905,1.4211 13.12992,1.4866 15.75,0.4013 3.86024,-1.5989 3.9861,-2.8119 0.38119,-3.6735 -4.14938,-0.9918 -4.34186,-1.2889 -2.21353,-3.4173 1.26167,-1.2616 1.95794,-3.3039 1.94788,-5.7135 -0.009,-2.1011 14.56406,-51.7969 33.14314,-113.0235 18.23733,-60.1005 32.86187,-109.5705 32.49898,-109.9334 -0.36289,-0.3629 -1.04062,-0.2398 -1.50606,0.2736 -1.61626,1.7825 -66.3697,216.958 -66.57483,221.228 -0.32721,6.8111 -2.01751,7.7981 -12.33938,7.2053 -14.70211,-0.8443 -38.16429,-0.4197 -49.2062,0.8906 -41.35039,4.9068 -97.678,21.8066 -135.5,40.6537 -10.86694,5.4151 -9.80328,5.1982 6.5,-1.3254 z m 329.94071,-377.1892 c 49.59891,-76.2232 61.33793,-95.1838 54.09972,-87.3806 C 971.23242,1537.6763 861,1707.6666 861,1708.9697 c 0,0.6583 0.45666,1.0447 1.01481,0.8587 0.55814,-0.1861 26.6248,-39.6955 57.9259,-87.7987 z M 1253.5,1402 c 0.3399,-0.55 0.168,-1 -0.382,-1 -0.55,0 -1.2781,0.45 -1.618,1 -0.3399,0.55 -0.168,1 0.382,1 0.55,0 1.2781,-0.45 1.618,-1 z m 18.5,-4.0179 c 0,-0.3497 -1.35,-0.4376 -3,-0.1954 -3.3834,0.4966 -3.838,1.6316 -1.25,3.1211 1.3082,0.7529 2.0656,0.591 3,-0.6414 0.6875,-0.9068 1.25,-1.9347 1.25,-2.2843 z m -10.6197,-5.2321 -0.4325,-2.25 1.1561,2.199 c 0.9407,1.7891 1.7377,2.0885 4.2762,1.6063 4.0832,-0.7755 4.0677,-0.7526 3.0025,-4.4669 -0.9382,-3.2712 -9.5863,-10.4486 -11.3078,-9.3846 -0.4664,0.2882 -1.1359,2.0583 -1.4877,3.9335 -0.4734,2.5234 -0.087,4.3454 1.4854,7.0111 2.4034,4.0734 3.9526,4.7065 3.3078,1.3516 z m 20.2902,-2.3338 c 0.4476,-1.1663 0.8059,-1.2634 1.3592,-0.3682 0.498,0.8058 1.9527,0.9903 4.315,0.5471 3.1403,-0.5891 3.4685,-0.9258 2.7627,-2.8339 -0.4406,-1.191 -1.4325,-2.5067 -2.2042,-2.9239 -4.941,-2.671 -14.9481,-6.7831 -17.9032,-7.3566 l -3.5,-0.6793 5.75,5.8783 c 3.1625,3.2331 5.75,6.6527 5.75,7.5993 0,2.1609 2.8531,2.2675 3.6705,0.1372 z m 37.8714,-4.3816 c 8.273,-1.0548 24.5205,-2.6959 36.1055,-3.6468 l 21.0637,-1.729 1.5891,-4.0794 c 1.4942,-3.8359 1.5807,-3.8986 1.4486,-1.0508 -0.2023,4.3624 0.6044,5.0859 5.1839,4.6492 3.3595,-0.3204 4.1927,-0.8293 4.7059,-2.8741 0.343,-1.3667 0.095,-4.2484 -0.5505,-6.4038 -0.718,-2.3968 -1.1209,-10.1858 -1.0372,-20.0529 l 0.137,-16.1339 -8.844,-8.9881 c -15.0115,-15.2562 -40.4171,-36.4158 -42.3149,-35.2429 -1.6583,1.0249 -6.6121,-2.2034 -11.0463,-7.1986 -5.1888,-5.8451 -6.5551,-8.9605 -7.4704,-17.0335 -0.8203,-7.2341 0.4514,-6.8308 -15.0123,-4.7612 -12.7736,1.7095 -42.9013,1.9643 -55.9199,0.4729 -5.6662,-0.6491 -9.2683,-0.6735 -9.8749,-0.067 -0.5253,0.5253 -1.0113,6.8228 -1.0801,13.9945 -0.1007,10.4954 -0.4369,13.3513 -1.7234,14.6377 -1.4644,1.4642 -1.0213,3.7085 5.2876,26.7856 l 6.8859,25.1874 11.7124,11.5577 c 6.4418,6.3567 13.6032,13.8401 15.9142,16.6297 3.127,3.7744 5.115,5.2433 7.7714,5.7416 4.3031,0.8073 9.8019,5.4068 11.5717,9.6793 1.2456,3.0073 1.4532,3.095 5.8732,2.4808 2.52,-0.3502 11.3508,-1.4997 19.6238,-2.5545 z m 67.1248,-2.7013 c -0.3667,-0.3666 -0.9667,-0.3666 -1.3334,0 -0.3666,0.3667 -0.067,0.6667 0.6667,0.6667 0.7333,0 1.0333,-0.3 0.6667,-0.6667 z M 1409,1383 c 1.1647,-0.7527 0.8721,-0.9728 -1.309,-0.9847 -1.6211,-0.01 -2.5477,0.4076 -2.191,0.9847 0.7674,1.2416 1.5787,1.2416 3.5,0 z m -8.1881,-4.6284 c 0.6231,-1.1134 1.1319,-1.2715 1.6087,-0.5 0.8417,1.3619 4.5794,1.5149 4.5794,0.1874 0,-0.5175 -0.5014,-1.2509 -1.1143,-1.6296 -0.6594,-0.4076 -0.907,-2.2339 -0.6065,-4.474 0.4309,-3.2128 0.076,-4.1995 -2.3496,-6.5228 -2.4605,-2.3573 -3.0826,-2.5505 -4.4796,-1.3911 -1.0522,0.8733 -1.4398,2.2593 -1.103,3.9437 0.2956,1.4776 -0.3139,4.4586 -1.4138,6.9152 -1.0632,2.3749 -1.9332,4.4939 -1.9332,4.7088 0,1.2329 6.0439,0.1348 6.8119,-1.2376 z M 1420,1377.345 c 0,-1.4819 0.2117,-1.4634 2.0236,0.1764 1.475,1.3348 2.3227,1.5323 3.1266,0.7284 0.8039,-0.8039 -0.3167,-2.4106 -4.1333,-5.9264 -5.6304,-5.1865 -7.7041,-5.9998 -7.1986,-2.8234 0.1751,1.1 0.3114,3.6875 0.303,5.75 -0.014,3.4885 0.1902,3.75 2.9317,3.75 2.0755,0 2.947,-0.4894 2.947,-1.655 z m 151.5432,-455.91016 c 4.9263,-1.41084 13.0823,-3.87226 18.1245,-5.46983 5.0423,-1.59756 20.1173,-5.15911 33.5,-7.91455 28.0628,-5.77798 30.284,-6.35933 32.406,-8.48131 1.4255,-1.42553 0.8437,-1.56915 -6.3571,-1.56915 -18.7425,0 -42.8459,2.86608 -64.2166,7.63585 -10.7833,2.40675 -45.5959,13.13807 -44.8434,13.82343 0.1889,0.17204 6.3094,-0.83241 13.6012,-2.23211 7.2918,-1.3997 13.5918,-2.20284 14,-1.78476 0.4082,0.41808 -1.2828,2.51335 -3.7578,4.65616 -5.3257,4.61092 -4.4392,4.76797 7.5432,1.33627 z M 1582,904.13106 c 23.3567,-5.506 45.0489,-8.10666 67.75,-8.12251 6.7375,-0.005 12.25,-0.38881 12.25,-0.85356 0,-2.90997 -11.304,-8.40501 -21.8566,-10.62482 -11.8024,-2.48272 -32.1655,-3.54003 -48.2211,-2.50379 -7.9323,0.51196 -14.944,0.94045 -15.5816,0.95222 -0.7413,0.0137 -0.4163,1.55337 0.9019,4.2714 1.1336,2.3375 2.1052,5.7558 2.1592,7.59623 l 0.098,3.34623 -9,2.94053 c -10.3003,3.36536 -25.5907,10.61119 -29.9849,14.20928 -2.6086,2.13593 -0.9693,1.76896 13,-2.9102 8.7917,-2.94488 21.6099,-6.68033 28.4849,-8.30101 z m 3.6667,-7.79773 c -0.3667,-0.36666 -0.6667,-1.71666 -0.6667,-3 0,-2.15855 0.4076,-2.33333 5.441,-2.33333 6.6327,0 7.7383,1.31053 3.3585,3.98086 -3.3003,2.01216 -6.8782,2.60715 -8.1328,1.35247 z m 5.1416,-1.40833 c -0.197,-0.59125 -0.6845,-1.04125 -1.0833,-1 -0.3987,0.0412 -1.4,0.075 -2.225,0.075 -0.825,0 -1.5,0.45 -1.5,1 0,0.55 1.1625,1 2.5833,1 1.4209,0 2.4221,-0.48375 2.225,-1.075 z m -77.5086,19.45803 c 8.2002,-4.14318 10.4227,-8.38641 8.2703,-15.79026 -2.5332,-8.71398 -12.0127,-15.52471 -21.6721,-15.57081 -11.148,-0.0532 -19.3516,12.3987 -14.4338,21.90858 1.7406,3.36599 6.8593,7.85603 11.0359,9.68061 4.1875,1.82932 12.9634,1.71015 16.7997,-0.22812 z M 1495.97,910.75 c -4.976,-2.51376 -8.9719,-7.70485 -8.9663,-11.64788 0.01,-5.98129 7.37,-13.11364 13.4963,-13.07642 3.0176,0.0183 9.6466,2.74343 12.5751,5.16944 4.7031,3.89604 6.8573,12.77149 3.9502,16.27442 -2.2907,2.76004 -8.6894,5.53044 -12.7736,5.53044 -2.1053,0 -5.8321,-1.0125 -8.2817,-2.25 z m 5.8008,-17.5625 c 0.2177,-0.65313 -0.3166,-1.1875 -1.1875,-1.1875 -0.8708,0 -1.5833,0.7125 -1.5833,1.58333 0,1.76593 2.1528,1.45839 2.7708,-0.39583 z"
       id="path1"
       sodipodi:nodetypes="ssssscssssssssssssssssssssscssssssssssssssssssssssssssssssssssssssssscsssssssscssssssscsssssssscssssssssssssssssssssscsssscsssssscsssssssssssssssssscssssssssssscssscscssssssssscsssssssssssssscssssssssssscssssssssssssssscsssssssssssssssssccssssssssscssscsscssssscsssssssssssssssssssssssscsssssscsssssscccssssssssssssssssssssssscsssscssssssssssssscssssssssssssssssssssssssssssssssssssscsssssssssssssssssscsssssssssssssssscsscsssssssssssssssssscssssssssssssssssssssssssssssssssssssssscssssscssssssscssssscsssssscsssssssssscsssssssssssscssssssscsssssssssssssssssssssssssssssssscssssssssssssssssssssssscsssssssss" />
  </g>
</svg>
